<?xml version="1.0" encoding="UTF-8" standalone="no"?><svg xmlns="http://www.w3.org/2000/svg" xmlns:xlink="http://www.w3.org/1999/xlink" contentScriptType="application/ecmascript" contentStyleType="text/css" height="2019px" preserveAspectRatio="none" style="width:1607px;height:2019px;background:#FFFFFF;" version="1.1" viewBox="0 0 1607 2019" width="1607px" zoomAndPan="magnify"><defs><filter height="300%" id="fw893l0pydje3" width="300%" x="-1" y="-1"><feGaussianBlur result="blurOut" stdDeviation="2.0"/><feColorMatrix in="blurOut" result="blurOut2" type="matrix" values="0 0 0 0 0 0 0 0 0 0 0 0 0 0 0 0 0 0 .4 0"/><feOffset dx="4.0" dy="4.0" in="blurOut2" result="blurOut3"/><feBlend in="SourceGraphic" in2="blurOut3" mode="normal"/></filter></defs><g><!--MD5=[f73af55262f8d247b61c1d9315ebf9db]
cluster i--><rect fill="#FEFECE" filter="url(#fw893l0pydje3)" height="902.5" rx="12.5" ry="12.5" style="stroke:#A80036;stroke-width:1.5;" width="802" x="12" y="163.5"/><rect fill="#FFFFFF" height="870.2031" rx="12.5" ry="12.5" style="stroke:#FFFFFF;stroke-width:1.0;" width="796" x="15" y="192.7969"/><line style="stroke:#A80036;stroke-width:1.5;" x1="12" x2="814" y1="189.7969" y2="189.7969"/><text fill="#000000" font-family="sans-serif" font-size="14" lengthAdjust="spacing" textLength="38" x="394" y="180.4951">Input</text><!--MD5=[03c9795141fffc1586b10a901fd13311]
cluster a--><rect fill="#FEFECE" filter="url(#fw893l0pydje3)" height="773" rx="12.5" ry="12.5" style="stroke:#A80036;stroke-width:1.5;" width="602" x="854" y="810"/><rect fill="#FFFFFF" height="740.7031" rx="12.5" ry="12.5" style="stroke:#FFFFFF;stroke-width:1.0;" width="596" x="857" y="839.2969"/><line style="stroke:#A80036;stroke-width:1.5;" x1="854" x2="1456" y1="836.2969" y2="836.2969"/><text fill="#000000" font-family="sans-serif" font-size="14" lengthAdjust="spacing" textLength="55" x="1127.5" y="826.9951">Analyse</text><!--MD5=[681afae6640faca68c2d704cb11e6132]
cluster o--><rect fill="#FEFECE" filter="url(#fw893l0pydje3)" height="375" rx="12.5" ry="12.5" style="stroke:#A80036;stroke-width:1.5;" width="328" x="1184" y="1632"/><rect fill="#FFFFFF" height="342.7031" rx="12.5" ry="12.5" style="stroke:#FFFFFF;stroke-width:1.0;" width="322" x="1187" y="1661.2969"/><line style="stroke:#A80036;stroke-width:1.5;" x1="1184" x2="1512" y1="1658.2969" y2="1658.2969"/><text fill="#000000" font-family="sans-serif" font-size="14" lengthAdjust="spacing" textLength="51" x="1322.5" y="1648.9951">Output</text><g id="i.iat"><rect fill="#FEFECE" filter="url(#fw893l0pydje3)" height="50.2656" rx="12.5" ry="12.5" style="stroke:#A80036;stroke-width:1.5;" width="161" x="95.5" y="429"/><line style="stroke:#A80036;stroke-width:1.5;" x1="95.5" x2="256.5" y1="455.2969" y2="455.2969"/><text fill="#000000" font-family="sans-serif" font-size="14" lengthAdjust="spacing" textLength="136" x="108" y="446.9951">InputAnalyseTypes</text><text fill="#000000" font-family="sans-serif" font-size="12" lengthAdjust="spacing" textLength="141" x="100.5" y="471.4355">Auswahl Analyse Typen</text></g><g id="i.id"><rect fill="#FEFECE" filter="url(#fw893l0pydje3)" height="50.2656" rx="12.5" ry="12.5" style="stroke:#A80036;stroke-width:1.5;" width="174" x="89" y="558"/><line style="stroke:#A80036;stroke-width:1.5;" x1="89" x2="263" y1="584.2969" y2="584.2969"/><text fill="#000000" font-family="sans-serif" font-size="14" lengthAdjust="spacing" textLength="72" x="140" y="575.9951">InputData</text><text fill="#000000" font-family="sans-serif" font-size="12" lengthAdjust="spacing" textLength="154" x="94" y="600.4355">Eingabe benötigter Daten</text></g><g id="i.wfs"><rect fill="#FEFECE" filter="url(#fw893l0pydje3)" height="50.2656" rx="12.5" ry="12.5" style="stroke:#A80036;stroke-width:1.5;" width="355" x="44.5" y="687"/><line style="stroke:#A80036;stroke-width:1.5;" x1="44.5" x2="399.5" y1="713.2969" y2="713.2969"/><text fill="#000000" font-family="sans-serif" font-size="14" lengthAdjust="spacing" textLength="178" x="133" y="704.9951">WaitForSpeichermedium</text><text fill="#000000" font-family="sans-serif" font-size="12" lengthAdjust="spacing" textLength="335" x="49.5" y="729.4355">Benötigte Daten werden vom Speichermedium besorgt</text></g><g id="i.idfc"><rect fill="#FEFECE" filter="url(#fw893l0pydje3)" height="50.2656" rx="12.5" ry="12.5" style="stroke:#A80036;stroke-width:1.5;" width="264" x="91" y="992"/><line style="stroke:#A80036;stroke-width:1.5;" x1="91" x2="355" y1="1018.2969" y2="1018.2969"/><text fill="#000000" font-family="sans-serif" font-size="14" lengthAdjust="spacing" textLength="138" x="154" y="1009.9951">InputDataForComp</text><text fill="#000000" font-family="sans-serif" font-size="12" lengthAdjust="spacing" textLength="244" x="96" y="1034.4355">Eingabe benötigter Daten zum Vergleich</text></g><g id="i.conf"><rect fill="#FEFECE" filter="url(#fw893l0pydje3)" height="50.2656" rx="12.5" ry="12.5" style="stroke:#A80036;stroke-width:1.5;" width="175" x="614.5" y="687"/><line style="stroke:#A80036;stroke-width:1.5;" x1="614.5" x2="789.5" y1="713.2969" y2="713.2969"/><text fill="#000000" font-family="sans-serif" font-size="14" lengthAdjust="spacing" textLength="98" x="653" y="704.9951">Configuration</text><text fill="#000000" font-family="sans-serif" font-size="12" lengthAdjust="spacing" textLength="155" x="619.5" y="729.4355">Konfiguration der Analyse</text></g><ellipse cx="176" cy="235.5" fill="#000000" filter="url(#fw893l0pydje3)" rx="10" ry="10" style="stroke:none;stroke-width:1.0;"/><g id="a.d"><rect fill="#FEFECE" filter="url(#fw893l0pydje3)" height="64.2344" rx="12.5" ry="12.5" style="stroke:#A80036;stroke-width:1.5;" width="202" x="1074" y="1235"/><line style="stroke:#A80036;stroke-width:1.5;" x1="1074" x2="1276" y1="1261.2969" y2="1261.2969"/><text fill="#000000" font-family="sans-serif" font-size="14" lengthAdjust="spacing" textLength="74" x="1138" y="1252.9951">Diagramm</text><text fill="#000000" font-family="sans-serif" font-size="12" lengthAdjust="spacing" textLength="161" x="1079" y="1277.4355">Analyse und Erstellung der</text><text fill="#000000" font-family="sans-serif" font-size="12" lengthAdjust="spacing" textLength="182" x="1079" y="1291.4043">ausgewählten Diagrammtypen</text></g><g id="a.v"><rect fill="#FEFECE" filter="url(#fw893l0pydje3)" height="50.2656" rx="12.5" ry="12.5" style="stroke:#A80036;stroke-width:1.5;" width="236" x="886" y="1379"/><line style="stroke:#A80036;stroke-width:1.5;" x1="886" x2="1122" y1="1405.2969" y2="1405.2969"/><text fill="#000000" font-family="sans-serif" font-size="14" lengthAdjust="spacing" textLength="51" x="978.5" y="1396.9951">Verlauf</text><text fill="#000000" font-family="sans-serif" font-size="12" lengthAdjust="spacing" textLength="216" x="891" y="1421.4355">Analyse und Erstellung des Verlaufs</text></g><g id="a.h"><rect fill="#FEFECE" filter="url(#fw893l0pydje3)" height="64.2344" rx="12.5" ry="12.5" style="stroke:#A80036;stroke-width:1.5;" width="195" x="1236.5" y="1372"/><line style="stroke:#A80036;stroke-width:1.5;" x1="1236.5" x2="1431.5" y1="1398.2969" y2="1398.2969"/><text fill="#000000" font-family="sans-serif" font-size="14" lengthAdjust="spacing" textLength="66" x="1301" y="1389.9951">Heatmap</text><text fill="#000000" font-family="sans-serif" font-size="12" lengthAdjust="spacing" textLength="161" x="1241.5" y="1414.4355">Analyse und Erstellung der</text><text fill="#000000" font-family="sans-serif" font-size="12" lengthAdjust="spacing" textLength="175" x="1241.5" y="1428.4043">ausgewählten Heatmaptypen</text></g><g id="a.af"><rect fill="#FEFECE" filter="url(#fw893l0pydje3)" height="50.2656" rx="12.5" ry="12.5" style="stroke:#A80036;stroke-width:1.5;" width="176" x="1104" y="1509"/><line style="stroke:#A80036;stroke-width:1.5;" x1="1104" x2="1280" y1="1535.2969" y2="1535.2969"/><text fill="#000000" font-family="sans-serif" font-size="14" lengthAdjust="spacing" textLength="114" x="1135" y="1526.9951">AnalyseFinished</text><text fill="#000000" font-family="sans-serif" font-size="12" lengthAdjust="spacing" textLength="156" x="1109" y="1551.4355">Rückgabe der Ergebnisse</text></g><ellipse cx="1188" cy="1017" fill="#000000" filter="url(#fw893l0pydje3)" rx="10" ry="10" style="stroke:none;stroke-width:1.0;"/><path d="M897.5,872 L897.5,1161.8281 L1142.5,1161.8281 L1142.5,882 L1132.5,872 L897.5,872 " fill="#FBFB77" filter="url(#fw893l0pydje3)" style="stroke:#A80036;stroke-width:1.0;"/><path d="M1132.5,872 L1132.5,882 L1142.5,882 L1132.5,872 " fill="#FBFB77" style="stroke:#A80036;stroke-width:1.0;"/><text fill="#000000" font-family="sans-serif" font-size="13" lengthAdjust="spacing" textLength="83" x="903.5" y="889.0669">Bedingungen</text><text fill="#000000" font-family="sans-serif" font-size="13" lengthAdjust="spacing" textLength="147" x="903.5" y="906.7075">analyseTypes contains</text><text fill="#000000" font-family="sans-serif" font-size="10" lengthAdjust="spacing" textLength="6" x="1054.5" y="901.415">x</text><text fill="#000000" font-family="sans-serif" font-size="10" lengthAdjust="spacing" textLength="7" x="903.5" y="919.0557">1</text><text fill="#000000" font-family="sans-serif" font-size="13" lengthAdjust="spacing" textLength="53" x="914.5" y="924.3481">R OR VT</text><text fill="#000000" font-family="sans-serif" font-size="10" lengthAdjust="spacing" textLength="6" x="903.5" y="936.6963">2</text><text fill="#000000" font-family="sans-serif" font-size="13" lengthAdjust="spacing" textLength="117" x="913.5" y="941.9888">V AND !R AND !VT</text><text fill="#000000" font-family="sans-serif" font-size="10" lengthAdjust="spacing" textLength="7" x="903.5" y="954.3369">3</text><text fill="#000000" font-family="sans-serif" font-size="13" lengthAdjust="spacing" textLength="213" x="914.5" y="959.6294">(H OR C) AND !V AND !R AND !VT</text><text fill="#000000" font-family="sans-serif" font-size="10" lengthAdjust="spacing" textLength="7" x="903.5" y="971.9775">4</text><text fill="#000000" font-family="sans-serif" font-size="13" lengthAdjust="spacing" textLength="105" x="914.5" y="977.27">!V AND (H OR C)</text><text fill="#000000" font-family="sans-serif" font-size="10" lengthAdjust="spacing" textLength="6" x="903.5" y="989.6182">5</text><text fill="#000000" font-family="sans-serif" font-size="13" lengthAdjust="spacing" textLength="9" x="913.5" y="994.9106">V</text><text fill="#000000" font-family="sans-serif" font-size="10" lengthAdjust="spacing" textLength="7" x="903.5" y="1007.2588">6</text><text fill="#000000" font-family="sans-serif" font-size="13" lengthAdjust="spacing" textLength="114" x="914.5" y="1012.5513">!V AND !H AND !C</text><text fill="#000000" font-family="sans-serif" font-size="10" lengthAdjust="spacing" textLength="6" x="903.5" y="1024.8994">7</text><text fill="#000000" font-family="sans-serif" font-size="13" lengthAdjust="spacing" textLength="45" x="913.5" y="1030.1919">H OR C</text><text fill="#000000" font-family="sans-serif" font-size="10" lengthAdjust="spacing" textLength="7" x="903.5" y="1042.54">8</text><text fill="#000000" font-family="sans-serif" font-size="13" lengthAdjust="spacing" textLength="64" x="914.5" y="1047.8325">!H AND !C</text><text fill="#000000" font-family="sans-serif" font-size="13" lengthAdjust="spacing" textLength="0" x="907.5" y="1062.9653"/><text fill="#000000" font-family="sans-serif" font-size="13" lengthAdjust="spacing" textLength="84" x="903.5" y="1078.0981">Abkürzungen</text><text fill="#000000" font-family="sans-serif" font-size="13" lengthAdjust="spacing" textLength="88" x="903.5" y="1093.231">H = HEATMAP</text><text fill="#000000" font-family="sans-serif" font-size="13" lengthAdjust="spacing" textLength="125" x="903.5" y="1108.3638">C = COMPHEATMAP</text><text fill="#000000" font-family="sans-serif" font-size="13" lengthAdjust="spacing" textLength="85" x="903.5" y="1123.4966">V = VERLAUF</text><text fill="#000000" font-family="sans-serif" font-size="13" lengthAdjust="spacing" textLength="135" x="903.5" y="1138.6294">R = RELFRQIMGAREA</text><text fill="#000000" font-family="sans-serif" font-size="13" lengthAdjust="spacing" textLength="135" x="903.5" y="1153.7622">VT = VIEWTIMEDISTR</text><g id="o.an"><rect fill="#FEFECE" filter="url(#fw893l0pydje3)" height="50.2656" rx="12.5" ry="12.5" style="stroke:#A80036;stroke-width:1.5;" width="187" x="1232.5" y="1791"/><line style="stroke:#A80036;stroke-width:1.5;" x1="1232.5" x2="1419.5" y1="1817.2969" y2="1817.2969"/><text fill="#000000" font-family="sans-serif" font-size="14" lengthAdjust="spacing" textLength="58" x="1297" y="1808.9951">Anzeige</text><text fill="#000000" font-family="sans-serif" font-size="12" lengthAdjust="spacing" textLength="167" x="1237.5" y="1833.4355">Ausgabe analysierter Daten</text></g><g id="o.e"><rect fill="#FEFECE" filter="url(#fw893l0pydje3)" height="50.2656" rx="12.5" ry="12.5" style="stroke:#A80036;stroke-width:1.5;" width="272" x="1216" y="1933"/><line style="stroke:#A80036;stroke-width:1.5;" x1="1216" x2="1488" y1="1959.2969" y2="1959.2969"/><text fill="#000000" font-family="sans-serif" font-size="14" lengthAdjust="spacing" textLength="49" x="1327.5" y="1950.9951">Export</text><text fill="#000000" font-family="sans-serif" font-size="12" lengthAdjust="spacing" textLength="252" x="1221" y="1975.4355">Export der analysierten oder rohen Daten</text></g><ellipse cx="1326" cy="1704" fill="#000000" filter="url(#fw893l0pydje3)" rx="10" ry="10" style="stroke:none;stroke-width:1.0;"/><path d="M838,103 L838,367.5781 L1598,367.5781 L1598,113 L1588,103 L838,103 " fill="#FBFB77" filter="url(#fw893l0pydje3)" style="stroke:#A80036;stroke-width:1.0;"/><path d="M1588,103 L1588,113 L1598,113 L1588,103 " fill="#FBFB77" style="stroke:#A80036;stroke-width:1.0;"/><text fill="#000000" font-family="sans-serif" font-size="13" lengthAdjust="spacing" textLength="83" x="844" y="120.0669">Bedingungen</text><text fill="#000000" font-family="sans-serif" font-size="10" lengthAdjust="spacing" textLength="7" x="844" y="132.415">1</text><text fill="#000000" font-family="sans-serif" font-size="13" lengthAdjust="spacing" textLength="146" x="855" y="137.7075">analysTypes.size == 0</text><text fill="#000000" font-family="sans-serif" font-size="10" lengthAdjust="spacing" textLength="6" x="844" y="150.0557">2</text><text fill="#000000" font-family="sans-serif" font-size="13" lengthAdjust="spacing" textLength="149" x="854" y="155.3481">analyseTypes.size != 0</text><text fill="#000000" font-family="sans-serif" font-size="10" lengthAdjust="spacing" textLength="7" x="844" y="167.6963">3</text><text fill="#000000" font-family="sans-serif" font-size="13" lengthAdjust="spacing" textLength="402" x="855" y="172.9888">(start &gt; end) OR (start OR end != Date) OR (dataType == null)</text><text fill="#000000" font-family="sans-serif" font-size="10" lengthAdjust="spacing" textLength="7" x="844" y="185.3369">4</text><text fill="#000000" font-family="sans-serif" font-size="13" lengthAdjust="spacing" textLength="419" x="855" y="190.6294">(start &lt; end) AND (start AND end = Date) AND (dataType != null)</text><text fill="#000000" font-family="sans-serif" font-size="10" lengthAdjust="spacing" textLength="6" x="844" y="202.9775">5</text><text fill="#000000" font-family="sans-serif" font-size="13" lengthAdjust="spacing" textLength="79" x="854" y="208.27">data == null</text><text fill="#000000" font-family="sans-serif" font-size="10" lengthAdjust="spacing" textLength="7" x="844" y="220.6182">6</text><text fill="#000000" font-family="sans-serif" font-size="13" lengthAdjust="spacing" textLength="562" x="855" y="225.9106">(data != null) AND (dataForComp == null) AND (analyseTypes contains COMPHEATMAP)</text><text fill="#000000" font-family="sans-serif" font-size="10" lengthAdjust="spacing" textLength="6" x="844" y="238.2588">7</text><text fill="#000000" font-family="sans-serif" font-size="13" lengthAdjust="spacing" textLength="729" x="854" y="243.5513">(start &lt; end) AND (start AND end = Date) AND (dataType != null) AND (data.toolType == dataForComp.toolType)</text><text fill="#000000" font-family="sans-serif" font-size="10" lengthAdjust="spacing" textLength="7" x="844" y="255.8994">8</text><text fill="#000000" font-family="sans-serif" font-size="13" lengthAdjust="spacing" textLength="698" x="855" y="261.1919">(start &gt; end) OR (start OR end != Date) OR (dataType == null) OR (data.toolType != dataForComp.toolType)</text><text fill="#000000" font-family="sans-serif" font-size="10" lengthAdjust="spacing" textLength="7" x="844" y="273.54">9</text><text fill="#000000" font-family="sans-serif" font-size="13" lengthAdjust="spacing" textLength="567" x="855" y="278.8325">[(analyseTypes contains COMPHEATMAP) AND (data != null) AND (dataForComp != null)]</text><text fill="#000000" font-family="sans-serif" font-size="13" lengthAdjust="spacing" textLength="417" x="860" y="293.9653">OR [(analyseTypes !contains COMPHEATMAP) AND (data != null)]</text><text fill="#000000" font-family="sans-serif" font-size="10" lengthAdjust="spacing" textLength="14" x="844" y="306.3135">10</text><text fill="#000000" font-family="sans-serif" font-size="13" lengthAdjust="spacing" textLength="421" x="862" y="311.606">minColor ∈ [{0,0,0},{1,1,1}] AND maxColor ∈ [{0,0,0},{1,1,1}]</text><text fill="#000000" font-family="sans-serif" font-size="13" lengthAdjust="spacing" textLength="433" x="860" y="326.7388">AND minDiff ∈ [{0,0,0},{1,1,1}] AND maxDiff ∈ [{0,0,0},{1,1,1}]</text><text fill="#000000" font-family="sans-serif" font-size="10" lengthAdjust="spacing" textLength="14" x="844" y="339.0869">11</text><text fill="#000000" font-family="sans-serif" font-size="13" lengthAdjust="spacing" textLength="618" x="862" y="344.3794">amountAreas ∈ {2,4,6,8} AND minTime &gt;= 0 AND maxTime &lt;= 10 AND minTime &lt;= maxTime</text><text fill="#000000" font-family="sans-serif" font-size="13" lengthAdjust="spacing" textLength="180" x="860" y="359.5122">AND stepsBetween ∈ [1,10]</text><ellipse cx="20" cy="16" fill="#000000" filter="url(#fw893l0pydje3)" rx="10" ry="10" style="stroke:none;stroke-width:1.0;"/><ellipse cx="1130" cy="1816" filter="url(#fw893l0pydje3)" rx="10" ry="10" style="stroke:#000000;stroke-width:1.0;fill:none;"/><ellipse cx="1130.5" cy="1816.5" fill="#000000" rx="6" ry="6" style="stroke:none;stroke-width:1.0;"/><!--MD5=[ab082c125e82f4c96138f506545d9168]
link i to GMN94640--><path d="M11.8909,198.1509 C11.8531,197.9107 11.8155,197.6698 11.7781,197.428 C11.6283,196.4611 11.4809,195.4819 11.3365,194.4912 C11.0477,192.5097 10.7708,190.4822 10.5096,188.4146 C9.465,180.1441 8.6732,171.2328 8.3877,162.0663 C7.2461,125.4 14.2068,84.65 45.5,64.5 C114.911,19.81 707.422,48.95 788.5,64.5 C834.611,73.34 882.076,87.07 927.869,103 " fill="none" id="i-GMN94640" style="stroke:#A80036;stroke-width:1.0;stroke-dasharray:7.0,7.0;"/><!--MD5=[9a30244793a2259a49eab240098fe44a]
link *start*i to iat--><path d="M176,245.53 C176,275.72 176,374.06 176,423.73 " fill="none" id="*start*i-to-iat" style="stroke:#A80036;stroke-width:1.0;"/><polygon fill="#A80036" points="176,428.96,180,419.96,176,423.96,172,419.96,176,428.96" style="stroke:#A80036;stroke-width:1.0;"/><!--MD5=[cb830a1d84e256cf4ed5a3316c57e6b1]
link iat to id--><path d="M176,479.19 C176,500.11 176,530.41 176,552.71 " fill="none" id="iat-to-id" style="stroke:#A80036;stroke-width:1.0;"/><polygon fill="#A80036" points="176,557.9,180,548.9,176,552.9,172,548.9,176,557.9" style="stroke:#A80036;stroke-width:1.0;"/><text fill="#000000" font-family="sans-serif" font-size="13" lengthAdjust="spacing" textLength="120" x="177" y="524.5747">setAnalyseTypes()</text><text fill="#000000" font-family="sans-serif" font-size="10" lengthAdjust="spacing" textLength="6" x="297" y="519.2822">2</text><!--MD5=[87d2d3add0397b147fda21618bd227e7]
link iat to iat--><path d="M256.692,444.02 C276.63,444.74 291.5,448.07 291.5,454 C291.5,459.42 279.076,462.67 261.713,463.73 " fill="none" id="iat-to-iat" style="stroke:#A80036;stroke-width:1.0;"/><polygon fill="#A80036" points="256.692,463.98,265.8749,467.54,261.6861,463.7382,265.488,459.5494,256.692,463.98" style="stroke:#A80036;stroke-width:1.0;"/><text fill="#000000" font-family="sans-serif" font-size="13" lengthAdjust="spacing" textLength="120" x="297.5" y="460.0747">setAnalyseTypes()</text><text fill="#000000" font-family="sans-serif" font-size="10" lengthAdjust="spacing" textLength="7" x="417.5" y="454.7822">1</text><!--MD5=[4b83921e393c24d4ac3281a9bdc205f8]
link id to wfs--><path d="M151.827,608.22 C140.562,622.54 131.353,640.95 140,657 C145.731,667.64 154.573,676.52 164.366,683.81 " fill="none" id="id-to-wfs" style="stroke:#A80036;stroke-width:1.0;"/><polygon fill="#A80036" points="168.614,686.84,163.6041,678.3606,164.5415,683.9392,158.9628,684.8766,168.614,686.84" style="stroke:#A80036;stroke-width:1.0;"/><text fill="#000000" font-family="sans-serif" font-size="13" lengthAdjust="spacing" textLength="62" x="141" y="653.5747">getData()</text><text fill="#000000" font-family="sans-serif" font-size="10" lengthAdjust="spacing" textLength="7" x="203" y="648.2822">4</text><!--MD5=[89929945027c1254b5c9eb14f5301ee3]
reverse link id to wfs--><path d="M200.784,612.44 C206.364,620.25 211.627,629.05 215,638 C220.884,653.61 222.579,672.36 222.832,686.95 " fill="none" id="id-backto-wfs" style="stroke:#A80036;stroke-width:1.0;"/><polygon fill="#A80036" points="197.661,608.2,199.767,617.8211,200.6217,612.2292,206.2136,613.0839,197.661,608.2" style="stroke:#A80036;stroke-width:1.0;"/><text fill="#000000" font-family="sans-serif" font-size="10" lengthAdjust="spacing" textLength="6" x="221" y="651.2822">5</text><!--MD5=[887d484d0c4a55d5d70403c9c2359815]
link id to id--><path d="M263.182,571.26 C283.255,572.28 298,576.19 298,583 C298,589.23 285.68,593.03 268.233,594.41 " fill="none" id="id-to-id" style="stroke:#A80036;stroke-width:1.0;"/><polygon fill="#A80036" points="263.182,594.74,272.4207,598.1527,268.1716,594.4183,271.906,590.1693,263.182,594.74" style="stroke:#A80036;stroke-width:1.0;"/><text fill="#000000" font-family="sans-serif" font-size="13" lengthAdjust="spacing" textLength="62" x="304" y="589.0747">getData()</text><text fill="#000000" font-family="sans-serif" font-size="10" lengthAdjust="spacing" textLength="7" x="366" y="583.7822">3</text><!--MD5=[1ec0fecb88e1bb923c4c80d6b59b072c]
link wfs to idfc--><path d="M275.386,737.16 C286.837,744.98 297.451,754.85 304,767 C344.293,841.78 282.609,940.06 246.351,987.69 " fill="none" id="wfs-to-idfc" style="stroke:#A80036;stroke-width:1.0;"/><polygon fill="#A80036" points="243.141,991.86,251.7948,987.1577,246.1861,987.8942,245.4496,982.2855,243.141,991.86" style="stroke:#A80036;stroke-width:1.0;"/><text fill="#000000" font-family="sans-serif" font-size="10" lengthAdjust="spacing" textLength="7" x="313" y="780.2822">6</text><!--MD5=[ccf9d63ff169e8b6d8407325eb649adb]
reverse link wfs to idfc--><path d="M186.019,740.85 C178.696,748.46 172.011,757.32 168,767 C135.472,845.53 182.673,946.33 208.307,991.82 " fill="none" id="wfs-backto-idfc" style="stroke:#A80036;stroke-width:1.0;"/><polygon fill="#A80036" points="189.657,737.22,180.4603,740.7444,186.1172,740.7512,186.1103,746.4081,189.657,737.22" style="stroke:#A80036;stroke-width:1.0;"/><text fill="#000000" font-family="sans-serif" font-size="13" lengthAdjust="spacing" textLength="120" x="169" y="782.5747">getDataForComp()</text><text fill="#000000" font-family="sans-serif" font-size="10" lengthAdjust="spacing" textLength="6" x="289" y="777.2822">7</text><!--MD5=[6fc16e54ffcd01d7fa75bb7a173e0446]
link idfc to idfc--><path d="M271.723,991.95 C326.721,974.73 390,983.07 390,1017 C390,1049.932 330.374,1058.764 276.576,1043.495 " fill="none" id="idfc-to-idfc" style="stroke:#A80036;stroke-width:1.0;"/><polygon fill="#A80036" points="271.723,1042.047,279.2032,1048.4538,276.5142,1043.4769,281.491,1040.7879,271.723,1042.047" style="stroke:#A80036;stroke-width:1.0;"/><text fill="#000000" font-family="sans-serif" font-size="13" lengthAdjust="spacing" textLength="120" x="396" y="1023.0747">getDataForComp()</text><text fill="#000000" font-family="sans-serif" font-size="10" lengthAdjust="spacing" textLength="7" x="516" y="1017.7822">8</text><!--MD5=[0e832578ba4f0d9c25dd08821d722a4d]
reverse link conf to wfs--><path d="M608.863,712 C549.517,712 470.708,712 399.711,712 " fill="none" id="conf-backto-wfs" style="stroke:#A80036;stroke-width:1.0;"/><polygon fill="#A80036" points="614.182,712,605.182,708,609.182,712,605.182,716,614.182,712" style="stroke:#A80036;stroke-width:1.0;"/><text fill="#000000" font-family="sans-serif" font-size="13" lengthAdjust="spacing" textLength="149" x="432.5" y="688.0669">[setConfigAnalyseHm()</text><text fill="#000000" font-family="sans-serif" font-size="13" lengthAdjust="spacing" textLength="171" x="418" y="705.7075">OR setConfigAnalyseDia()]</text><text fill="#000000" font-family="sans-serif" font-size="10" lengthAdjust="spacing" textLength="7" x="589" y="700.415">9</text><!--MD5=[52a14405411569292424fb878908cc4c]
link conf to a--><path d="M745.113,737.13 C766.409,751.12 790.743,770.62 806,794 C819.6835,814.9725 830.0236,839.0675 837.8373,863.478 C841.7441,875.6832 845.0193,887.9673 847.7649,899.9794 C849.1378,905.9854 850.3782,911.9235 851.4991,917.7497 C852.0595,920.6628 852.59,923.5479 853.0922,926.3995 C853.3433,927.8254 853.5873,929.2429 853.8245,930.6513 " fill="none" id="conf-to-a" style="stroke:#A80036;stroke-width:1.0;"/><polygon fill="#A80036" points="853.8245,930.6513,856.2746,921.1121,852.9943,925.7207,848.3856,922.4404,853.8245,930.6513" style="stroke:#A80036;stroke-width:1.0;"/><text fill="#000000" font-family="sans-serif" font-size="13" lengthAdjust="spacing" textLength="91" x="801" y="782.5747">analyseData()</text><text fill="#000000" font-family="sans-serif" font-size="10" lengthAdjust="spacing" textLength="34" x="892" y="777.2822">10, 11</text><!--MD5=[30aa13a02f41e45672b7a22adfbef821]
link *start*a to d--><path d="M1187.52,1027.12 C1185.81,1059.694 1179.96,1171.451 1176.9,1229.831 " fill="none" id="*start*a-to-d" style="stroke:#A80036;stroke-width:1.0;"/><polygon fill="#A80036" points="1176.63,1234.967,1181.0945,1226.1881,1176.8911,1229.9738,1173.1054,1225.7704,1176.63,1234.967" style="stroke:#A80036;stroke-width:1.0;"/><text fill="#000000" font-family="sans-serif" font-size="10" lengthAdjust="spacing" textLength="7" x="1180" y="1202.2822">1</text><!--MD5=[f3348e18c7e3719a81a5a0d8086433d8]
link *start*a to v--><path d="M1188.55,1027 C1189.58,1051.109 1189.45,1118.27 1160,1162 C1126.81,1211.286 1082.75,1186.803 1048,1235 C1017.83,1276.842 1008.34,1337.792 1005.35,1373.622 " fill="none" id="*start*a-to-v" style="stroke:#A80036;stroke-width:1.0;"/><polygon fill="#A80036" points="1004.96,1378.72,1009.6423,1370.0553,1005.3457,1373.7349,1001.6661,1369.4383,1004.96,1378.72" style="stroke:#A80036;stroke-width:1.0;"/><text fill="#000000" font-family="sans-serif" font-size="10" lengthAdjust="spacing" textLength="6" x="1049" y="1270.7822">2</text><!--MD5=[db95207bf28f543d414b343538457f44]
link *start*a to h--><path d="M1192.72,1025.99 C1208.99,1053.872 1263.45,1149.743 1294,1235 C1309.86,1279.253 1321.29,1332.318 1327.78,1366.801 " fill="none" id="*start*a-to-h" style="stroke:#A80036;stroke-width:1.0;"/><polygon fill="#A80036" points="1328.7,1371.75,1330.9863,1362.1702,1327.7855,1366.8343,1323.1213,1363.6335,1328.7,1371.75" style="stroke:#A80036;stroke-width:1.0;"/><text fill="#000000" font-family="sans-serif" font-size="10" lengthAdjust="spacing" textLength="7" x="1313" y="1270.7822">3</text><!--MD5=[dda5425b0f96e1211a8c645ac6fc55bf]
link d to v--><path d="M1135.34,1299.311 C1106.09,1322.4 1066.69,1353.509 1038.69,1375.612 " fill="none" id="d-to-v" style="stroke:#A80036;stroke-width:1.0;"/><polygon fill="#A80036" points="1034.65,1378.806,1044.1977,1376.389,1038.581,1375.7161,1039.2539,1370.0994,1034.65,1378.806" style="stroke:#A80036;stroke-width:1.0;"/><text fill="#000000" font-family="sans-serif" font-size="10" lengthAdjust="spacing" textLength="6" x="1096" y="1339.2822">5</text><!--MD5=[4e8e5b39f36cd5f5306fd02639c5456b]
link d to h--><path d="M1211.88,1299.311 C1236.26,1320.013 1268.24,1347.163 1293.35,1368.488 " fill="none" id="d-to-h" style="stroke:#A80036;stroke-width:1.0;"/><polygon fill="#A80036" points="1297.32,1371.859,1293.0381,1362.9897,1293.5048,1368.6272,1287.8672,1369.094,1297.32,1371.859" style="stroke:#A80036;stroke-width:1.0;"/><text fill="#000000" font-family="sans-serif" font-size="10" lengthAdjust="spacing" textLength="7" x="1260" y="1339.2822">4</text><!--MD5=[d3fc0927bae555c91b20f5bb7aa5e9fb]
link v to h--><path d="M1048.09,1378.938 C1076.26,1364.401 1114.11,1347.521 1150,1340 C1195.3,1330.507 1244.75,1349.454 1280.97,1369.147 " fill="none" id="v-to-h" style="stroke:#A80036;stroke-width:1.0;"/><polygon fill="#A80036" points="1285.77,1371.801,1279.843,1363.9352,1281.3985,1369.374,1275.9598,1370.9296,1285.77,1371.801" style="stroke:#A80036;stroke-width:1.0;"/><text fill="#000000" font-family="sans-serif" font-size="10" lengthAdjust="spacing" textLength="6" x="1151" y="1339.2822">7</text><!--MD5=[7bd4d9c7e1f9ffd42237630f17acff01]
link d to af--><path d="M1177,1299.178 C1180.31,1350.793 1186.89,1453.29 1190.12,1503.664 " fill="none" id="d-to-af" style="stroke:#A80036;stroke-width:1.0;"/><polygon fill="#A80036" points="1190.46,1508.958,1193.8753,1499.7203,1190.1397,1503.9683,1185.8917,1500.2327,1190.46,1508.958" style="stroke:#A80036;stroke-width:1.0;"/><text fill="#000000" font-family="sans-serif" font-size="10" lengthAdjust="spacing" textLength="7" x="1187" y="1407.7822">6</text><!--MD5=[656d828b4ea4b13be3632561c7451102]
link v to af--><path d="M1039.36,1429.076 C1071.43,1450.908 1118.65,1483.059 1152.06,1505.809 " fill="none" id="v-to-af" style="stroke:#A80036;stroke-width:1.0;"/><polygon fill="#A80036" points="1156.48,1508.815,1151.2924,1500.4431,1152.3472,1506.0008,1146.7896,1507.0556,1156.48,1508.815" style="stroke:#A80036;stroke-width:1.0;"/><text fill="#000000" font-family="sans-serif" font-size="10" lengthAdjust="spacing" textLength="7" x="1111" y="1476.2822">8</text><!--MD5=[d70b158774ef3cc2b413a61a9daf893b]
link h to af--><path d="M1299.26,1436.312 C1275.82,1457.442 1245.17,1485.069 1222.64,1505.378 " fill="none" id="h-to-af" style="stroke:#A80036;stroke-width:1.0;"/><polygon fill="#A80036" points="1218.82,1508.827,1228.1855,1505.7795,1222.5365,1505.4822,1222.8338,1499.8331,1218.82,1508.827" style="stroke:#A80036;stroke-width:1.0;"/><!--MD5=[192a3520ab9f1e6cb113a0aa4651a99b]
link af to o--><path d="M1192,1559.07 C1192,1570.502 1192,1585.024 1192,1600.4228 C1192,1608.1222 1192,1616.0408 1192,1623.9019 C1192,1625.8672 1192,1627.8289 1192,1629.7827 C1192,1630.2712 1192,1630.7591 1192,1631.2465 C1192,1631.4902 1192,1631.7337 1192,1631.9771 " fill="none" id="af-to-o" style="stroke:#A80036;stroke-width:1.0;"/><polygon fill="#A80036" points="1192,1631.9771,1196,1622.9771,1192,1626.9771,1188,1622.9771,1192,1631.9771" style="stroke:#A80036;stroke-width:1.0;"/><!--MD5=[1cf5be5e68cceb6ca1843e322d1e9953]
link *start*o to an--><path d="M1326,1714.002 C1326,1729.458 1326,1761.685 1326,1785.6 " fill="none" id="*start*o-to-an" style="stroke:#A80036;stroke-width:1.0;"/><polygon fill="#A80036" points="1326,1790.873,1330,1781.873,1326,1785.873,1322,1781.873,1326,1790.873" style="stroke:#A80036;stroke-width:1.0;"/><text fill="#000000" font-family="sans-serif" font-size="13" lengthAdjust="spacing" textLength="145" x="1327" y="1757.0669">displayAnalyzedData()</text><!--MD5=[fead1622040839da3c483f19fd2a788f]
link an to e--><path d="M1305.75,1841.323 C1293.88,1858.672 1282.86,1882.467 1292,1903 C1296.41,1912.902 1303.63,1921.749 1311.56,1929.276 " fill="none" id="an-to-e" style="stroke:#A80036;stroke-width:1.0;"/><polygon fill="#A80036" points="1315.51,1932.8635,1311.5551,1923.8436,1311.8155,1929.4945,1306.1646,1929.7548,1315.51,1932.8635" style="stroke:#A80036;stroke-width:1.0;"/><text fill="#000000" font-family="sans-serif" font-size="13" lengthAdjust="spacing" textLength="75" x="1293.5" y="1884.0669">export() OR</text><text fill="#000000" font-family="sans-serif" font-size="13" lengthAdjust="spacing" textLength="80" x="1293" y="1899.1997">exportRaw()</text><!--MD5=[347b3168ac464bce199f9061a7d84500]
reverse link an to e--><path d="M1360.44,1844.805 C1367.58,1852.466 1374.11,1861.353 1378,1871 C1386.22,1891.397 1377.5,1915.415 1368.01,1932.8767 " fill="none" id="an-backto-e" style="stroke:#A80036;stroke-width:1.0;"/><polygon fill="#A80036" points="1356.89,1841.145,1360.2876,1850.3893,1360.3722,1844.733,1366.0285,1844.8177,1356.89,1841.145" style="stroke:#A80036;stroke-width:1.0;"/><!--MD5=[5df0f3068207e4bcefa1ee5a2a165869]
link *start to i--><path d="M20,26.07 C20,46.33 20,97.1375 20,143.515 C20,149.3122 20,155.0402 20,160.6306 C20,161.3294 20,162.0261 20,162.7204 " fill="none" id="*start-to-i" style="stroke:#A80036;stroke-width:1.0;"/><polygon fill="#A80036" points="20,162.7204,24,153.7204,20,157.7204,16,153.7204,20,162.7204" style="stroke:#A80036;stroke-width:1.0;"/><text fill="#000000" font-family="sans-serif" font-size="13" lengthAdjust="spacing" textLength="176" x="21" y="69.0669">start Client (showClientGUI)</text><!--MD5=[5cca354b235fed75b4aa2e100c6648de]
reverse link *end to an--><path d="M1145.71,1816 C1164.85,1816 1198.77,1816 1232.06,1816 " fill="none" id="*end-backto-an" style="stroke:#A80036;stroke-width:1.0;"/><polygon fill="#A80036" points="1140.26,1816,1149.26,1820,1145.26,1816,1149.26,1812,1140.26,1816" style="stroke:#A80036;stroke-width:1.0;"/><text fill="#000000" font-family="sans-serif" font-size="13" lengthAdjust="spacing" textLength="56" x="1158.25" y="1809.0669">Beenden</text><!--MD5=[1accfc50c8b455d7270174c08948810b]
@startuml
note right of i
    Bedingungen
    <sup>1</sup> analysTypes.size == 0
    <sup>2</sup> analyseTypes.size != 0
    <sup>3</sup> (start > end) OR (start OR end != Date) OR (dataType == null)
    <sup>4</sup> (start < end) AND (start AND end = Date) AND (dataType != null)
    <sup>5</sup> data == null
    <sup>6</sup> (data != null) AND (dataForComp == null) AND (analyseTypes contains COMPHEATMAP)
    <sup>7</sup> (start < end) AND (start AND end = Date) AND (dataType != null) AND (data.toolType == dataForComp.toolType)
    <sup>8</sup> (start > end) OR (start OR end != Date) OR (dataType == null) OR (data.toolType != dataForComp.toolType)
    <sup>9</sup> [(analyseTypes contains COMPHEATMAP) AND (data != null) AND (dataForComp != null)] 
        OR [(analyseTypes !contains COMPHEATMAP) AND (data != null)]
    <sup>10</sup> minColor ∈ [{0,0,0},{1,1,1}] AND maxColor ∈ [{0,0,0},{1,1,1}] 
        AND minDiff ∈ [{0,0,0},{1,1,1}] AND maxDiff ∈ [{0,0,0},{1,1,1}]
    <sup>11</sup> amountAreas ∈ {2,4,6,8} AND minTime >= 0 AND maxTime <= 10 AND minTime <= maxTime 
        AND stepsBetween ∈ [1,10] 
end note

' Input
state "Input" as i {
    ' States
    state "InputAnalyseTypes" as iat: Auswahl Analyse Typen
    state "InputData" as id: Eingabe benötigter Daten
    state "WaitForSpeichermedium" as wfs: Benötigte Daten werden vom Speichermedium besorgt
    state "InputDataForComp" as idfc: Eingabe benötigter Daten zum Vergleich
    state "Configuration" as conf: Konfiguration der Analyse 

    ' Transition
    [*] -d-> iat
    iat -d-> id: setAnalyseTypes()<sup>2</sup>
    iat -r-> iat: setAnalyseTypes()<sup>1</sup>
    id -d-> wfs: getData()<sup>4</sup>
    id -> id: getData()<sup>3</sup>
    wfs -u-> id: <sup>5</sup>
    wfs -d-> idfc: <sup>6</sup>
    idfc -u-> wfs: getDataForComp()<sup>7</sup>
    idfc -> idfc: getDataForComp()<sup>8</sup>
    wfs -l-> conf: [setConfigAnalyseHm()\nOR setConfigAnalyseDia()]<sup>9</sup>
    conf - -> a: analyseData()<sup>10, 11</sup>
}

state "Analyse" as a {
    ' States
    state "Diagramm" as d: Analyse und Erstellung der\nausgewählten Diagrammtypen
    state "Verlauf" as v: Analyse und Erstellung des Verlaufs
    state "Heatmap" as h: Analyse und Erstellung der\nausgewählten Heatmaptypen
    state "AnalyseFinished" as af: Rückgabe der Ergebnisse

    ' Transition
    [*] -d-> d: <sup>1</sup>
    [*] -d-> v: <sup>2</sup>
    [*] -d-> h: <sup>3</sup>
    d -d-> v: <sup>5</sup>
    d -d-> h: <sup>4</sup>
    v -> h: <sup>7</sup>
    d -d-> af: <sup>6</sup>
    v -d-> af: <sup>8</sup>
    h -d-> af
    af - -> o

    note "Bedingungen\nanalyseTypes contains <sup>x</sup>\n<sup>1</sup> R OR VT\n<sup>2</sup> V AND !R AND !VT\n<sup>3</sup> (H OR C) AND !V AND !R AND !VT\n<sup>4</sup> !V AND (H OR C)\n<sup>5</sup> V\n<sup>6</sup> !V AND !H AND !C\n<sup>7</sup> H OR C\n<sup>8</sup> !H AND !C\n\nAbkürzungen\nH = HEATMAP\nC = COMPHEATMAP\nV = VERLAUF\nR = RELFRQIMGAREA\nVT = VIEWTIMEDISTR" as note2
}

state "Output" as o {
    ' States
    state "Anzeige" as an: Ausgabe analysierter Daten
    state "Export" as e: Export der analysierten oder rohen Daten

    ' Transition
    [*] -d-> an: displayAnalyzedData()
    an -> e: export() OR \nexportRaw()
    e -u-> an
}

' Transition
[*] -d-> i: start Client (showClientGUI)
an -l-> [*]: Beenden
@enduml

@startuml
note right of i
    Bedingungen
    <sup>1</sup> analysTypes.size == 0
    <sup>2</sup> analyseTypes.size != 0
    <sup>3</sup> (start > end) OR (start OR end != Date) OR (dataType == null)
    <sup>4</sup> (start < end) AND (start AND end = Date) AND (dataType != null)
    <sup>5</sup> data == null
    <sup>6</sup> (data != null) AND (dataForComp == null) AND (analyseTypes contains COMPHEATMAP)
    <sup>7</sup> (start < end) AND (start AND end = Date) AND (dataType != null) AND (data.toolType == dataForComp.toolType)
    <sup>8</sup> (start > end) OR (start OR end != Date) OR (dataType == null) OR (data.toolType != dataForComp.toolType)
    <sup>9</sup> [(analyseTypes contains COMPHEATMAP) AND (data != null) AND (dataForComp != null)] 
        OR [(analyseTypes !contains COMPHEATMAP) AND (data != null)]
    <sup>10</sup> minColor ∈ [{0,0,0},{1,1,1}] AND maxColor ∈ [{0,0,0},{1,1,1}] 
        AND minDiff ∈ [{0,0,0},{1,1,1}] AND maxDiff ∈ [{0,0,0},{1,1,1}]
    <sup>11</sup> amountAreas ∈ {2,4,6,8} AND minTime >= 0 AND maxTime <= 10 AND minTime <= maxTime 
        AND stepsBetween ∈ [1,10] 
end note

state "Input" as i {
    state "InputAnalyseTypes" as iat: Auswahl Analyse Typen
    state "InputData" as id: Eingabe benötigter Daten
    state "WaitForSpeichermedium" as wfs: Benötigte Daten werden vom Speichermedium besorgt
    state "InputDataForComp" as idfc: Eingabe benötigter Daten zum Vergleich
    state "Configuration" as conf: Konfiguration der Analyse 

    [*] -d-> iat
    iat -d-> id: setAnalyseTypes()<sup>2</sup>
    iat -r-> iat: setAnalyseTypes()<sup>1</sup>
    id -d-> wfs: getData()<sup>4</sup>
    id -> id: getData()<sup>3</sup>
    wfs -u-> id: <sup>5</sup>
    wfs -d-> idfc: <sup>6</sup>
    idfc -u-> wfs: getDataForComp()<sup>7</sup>
    idfc -> idfc: getDataForComp()<sup>8</sup>
    wfs -l-> conf: [setConfigAnalyseHm()\nOR setConfigAnalyseDia()]<sup>9</sup>
    conf - -> a: analyseData()<sup>10, 11</sup>
}

state "Analyse" as a {
    state "Diagramm" as d: Analyse und Erstellung der\nausgewählten Diagrammtypen
    state "Verlauf" as v: Analyse und Erstellung des Verlaufs
    state "Heatmap" as h: Analyse und Erstellung der\nausgewählten Heatmaptypen
    state "AnalyseFinished" as af: Rückgabe der Ergebnisse

    [*] -d-> d: <sup>1</sup>
    [*] -d-> v: <sup>2</sup>
    [*] -d-> h: <sup>3</sup>
    d -d-> v: <sup>5</sup>
    d -d-> h: <sup>4</sup>
    v -> h: <sup>7</sup>
    d -d-> af: <sup>6</sup>
    v -d-> af: <sup>8</sup>
    h -d-> af
    af - -> o

    note "Bedingungen\nanalyseTypes contains <sup>x</sup>\n<sup>1</sup> R OR VT\n<sup>2</sup> V AND !R AND !VT\n<sup>3</sup> (H OR C) AND !V AND !R AND !VT\n<sup>4</sup> !V AND (H OR C)\n<sup>5</sup> V\n<sup>6</sup> !V AND !H AND !C\n<sup>7</sup> H OR C\n<sup>8</sup> !H AND !C\n\nAbkürzungen\nH = HEATMAP\nC = COMPHEATMAP\nV = VERLAUF\nR = RELFRQIMGAREA\nVT = VIEWTIMEDISTR" as note2
}

state "Output" as o {
    state "Anzeige" as an: Ausgabe analysierter Daten
    state "Export" as e: Export der analysierten oder rohen Daten

    [*] -d-> an: displayAnalyzedData()
    an -> e: export() OR \nexportRaw()
    e -u-> an
}

[*] -d-> i: start Client (showClientGUI)
an -l-> [*]: Beenden
@enduml

PlantUML version 1.2021.16beta1(Unknown compile time)
(GPL source distribution)
Java Runtime: Java(TM) SE Runtime Environment
JVM: Java HotSpot(TM) 64-Bit Server VM
Default Encoding: UTF-8
Language: en
Country: US
--></g></svg>