<?xml version="1.0" encoding="UTF-8" standalone="no"?><svg xmlns="http://www.w3.org/2000/svg" xmlns:xlink="http://www.w3.org/1999/xlink" contentScriptType="application/ecmascript" contentStyleType="text/css" height="692px" preserveAspectRatio="none" style="width:997px;height:692px;background:#FFFFFF;" version="1.1" viewBox="0 0 997 692" width="997px" zoomAndPan="magnify"><defs><filter height="300%" id="f8flz2qgxdad1" width="300%" x="-1" y="-1"><feGaussianBlur result="blurOut" stdDeviation="2.0"/><feColorMatrix in="blurOut" result="blurOut2" type="matrix" values="0 0 0 0 0 0 0 0 0 0 0 0 0 0 0 0 0 0 .4 0"/><feOffset dx="4.0" dy="4.0" in="blurOut2" result="blurOut3"/><feBlend in="SourceGraphic" in2="blurOut3" mode="normal"/></filter></defs><g><!--MD5=[a2ef509e812d5e7c34076f2ab912bdbc]
cluster Analyse--><rect fill="#789DD5" filter="url(#f8flz2qgxdad1)" height="673" style="stroke:#000000;stroke-width:1.5;" width="413" x="282" y="7"/><text fill="#000000" font-family="sans-serif" font-size="14" font-weight="bold" lengthAdjust="spacing" textLength="63" x="457" y="21.9951">Analyse</text><ellipse cx="488.6056" cy="206.0211" fill="#FEFECE" filter="url(#f8flz2qgxdad1)" rx="190.6056" ry="40.5211" style="stroke:#A80036;stroke-width:1.5;"/><text fill="#000000" font-family="sans-serif" font-size="14" lengthAdjust="spacing" textLength="134" x="421.6056" y="188.5709">Versuch auswählen</text><line style="stroke:#A80036;stroke-width:1.0;stroke-dasharray:1.0,2.0;" x1="310.9963" x2="666.2149" y1="191.8727" y2="191.8727"/><text fill="#000000" font-family="sans-serif" font-size="14" lengthAdjust="spacing" textLength="343" x="317.1056" y="208.8678">der konkrete Versuch der analysiert werden soll</text><ellipse cx="488.6843" cy="78.0369" fill="#FEFECE" filter="url(#f8flz2qgxdad1)" rx="165.6843" ry="35.5369" style="stroke:#A80036;stroke-width:1.5;"/><text fill="#000000" font-family="sans-serif" font-size="14" lengthAdjust="spacing" textLength="303" x="337.1843" y="80.8835">anderen Versuch zum Vergleich auswählen</text><ellipse cx="488.6049" cy="428.1857" fill="#FEFECE" filter="url(#f8flz2qgxdad1)" rx="99.1049" ry="31.6857" style="stroke:#A80036;stroke-width:1.5;"/><text fill="#000000" font-family="sans-serif" font-size="14" lengthAdjust="spacing" textLength="123" x="423.8549" y="419.7848">Daten anschauen</text><line style="stroke:#A80036;stroke-width:1.0;stroke-dasharray:1.0,2.0;" x1="391.7917" x2="585.418" y1="423.0866" y2="423.0866"/><text fill="#000000" font-family="sans-serif" font-size="14" lengthAdjust="spacing" textLength="124" x="423.3549" y="440.0817">Analyse-Ergebnis</text><ellipse cx="488.4558" cy="523.8616" fill="#FEFECE" filter="url(#f8flz2qgxdad1)" rx="104.9558" ry="29.3616" style="stroke:#A80036;stroke-width:1.5;"/><text fill="#000000" font-family="sans-serif" font-size="14" lengthAdjust="spacing" textLength="84" x="433.5204" y="514.4508">Analyse-Art</text><line style="stroke:#A80036;stroke-width:1.0;stroke-dasharray:1.0,2.0;" x1="386.7969" x2="590.1147" y1="517.7526" y2="517.7526"/><text fill="#000000" font-family="sans-serif" font-size="14" lengthAdjust="spacing" textLength="145" x="403.0204" y="534.7477">Auswahl Analyse-Art</text><ellipse cx="488.2762" cy="312.9552" fill="#FEFECE" filter="url(#f8flz2qgxdad1)" rx="145.2762" ry="31.4552" style="stroke:#A80036;stroke-width:1.5;"/><text fill="#000000" font-family="sans-serif" font-size="14" lengthAdjust="spacing" textLength="126" x="412.8733" y="301.6217">Analyse anpassen</text><line style="stroke:#A80036;stroke-width:1.0;stroke-dasharray:1.0,2.0;" x1="348.8157" x2="627.7367" y1="304.9235" y2="304.9235"/><text fill="#000000" font-family="sans-serif" font-size="14" lengthAdjust="spacing" textLength="231" x="360.3733" y="321.9186">Optionen zur Veranschaulichung</text><ellipse cx="488.5453" cy="626.0091" fill="#FEFECE" filter="url(#f8flz2qgxdad1)" rx="175.5453" ry="37.5091" style="stroke:#A80036;stroke-width:1.5;"/><text fill="#000000" font-family="sans-serif" font-size="14" lengthAdjust="spacing" textLength="86" x="445.5453" y="608.5589">Exportieren</text><line style="stroke:#A80036;stroke-width:1.0;stroke-dasharray:1.0,2.0;" x1="326.9673" x2="650.1232" y1="611.8606" y2="611.8606"/><text fill="#000000" font-family="sans-serif" font-size="14" lengthAdjust="spacing" textLength="311" x="333.0453" y="628.8557">sowohl Rohdaten als auch Analyse-Ergebnis</text><!--MD5=[8f89c3b771be60a8fe1c771d5b27a045]
entity f--><ellipse cx="47.5" cy="340" fill="#FEFECE" filter="url(#f8flz2qgxdad1)" rx="8" ry="8" style="stroke:#A80036;stroke-width:1.5;"/><path d="M47.5,348 L47.5,375 M34.5,356 L60.5,356 M47.5,375 L34.5,390 M47.5,375 L60.5,390 " fill="none" filter="url(#f8flz2qgxdad1)" style="stroke:#A80036;stroke-width:1.5;"/><text fill="#000000" font-family="sans-serif" font-size="14" lengthAdjust="spacing" textLength="83" x="6" y="408.4951">Forschende</text><!--MD5=[d8322213e5f4465576b8bf70cd9bce59]
entity s--><rect fill="#FFFFFF" filter="url(#f8flz2qgxdad1)" height="36.2969" style="stroke:#000000;stroke-width:1.5;" width="147" x="838" y="188"/><text fill="#000000" font-family="sans-serif" font-size="14" lengthAdjust="spacing" textLength="127" x="848" y="210.9951">Datenbank / JSON</text><!--MD5=[dc634cd686d7907141002aebb5db3231]
link f to da--><path d="M89.0132,376.26 C158.529,385.286 302.154,403.935 396.639,416.203 " fill="none" id="f-da" style="stroke:#A80036;stroke-width:1.0;"/><!--MD5=[5247012ab2ec820e8c451b9cc12a57f6]
link f to aa--><path d="M89.0132,365.647 C150.888,357.473 271.474,341.541 363.863,329.335 " fill="none" id="f-aa" style="stroke:#A80036;stroke-width:1.0;"/><text fill="#000000" font-family="sans-serif" font-size="13" lengthAdjust="spacing" textLength="145" x="120" y="339.0669">[Heatmap, Diagramm]</text><!--MD5=[8ff99f706185a253fd592e702411e456]
link f to ex--><path d="M68.056,411.619 C80.3942,434.27 97.964,461.882 119,482 C184.153,544.309 279.362,580.578 356.681,601.1301 " fill="none" id="f-ex" style="stroke:#A80036;stroke-width:1.0;"/><!--MD5=[2798e5c860a2f0e8ca88ad079a5ab1e2]
link f to va--><path d="M89.1955,337.086 C98.6197,330.191 108.867,323.404 119,318 C191.422,279.377 279.115,252.043 350.784,234.051 " fill="none" id="f-va" style="stroke:#A80036;stroke-width:1.0;"/><!--MD5=[80792d7c9b21382b56d056c6a11e100e]
link f to at--><path d="M89.0874,390.698 C98.8691,395.411 109.297,400.407 119,405 C187.655,437.499 202.037,452.69 274,477 C314.002,490.513 359.557,501.157 398.283,508.874 " fill="none" id="f-at" style="stroke:#A80036;stroke-width:1.0;"/><!--MD5=[7475f1492c1bb734163f889fd2af5006]
link f to vv--><path d="M70.3719,330.332 C82.9674,308.974 100.0415,283.131 119,263 C177.808,200.553 197.819,187.426 274,148 C307.69,130.564 346.594,116.274 381.889,105.255 " fill="none" id="f-vv" style="stroke:#A80036;stroke-width:1.0;"/><text fill="#000000" font-family="sans-serif" font-size="13" lengthAdjust="spacing" textLength="56" x="164.5" y="149.0669">[Verlauf]</text><!--MD5=[318067c3824ee7cdb1fc15c31ba5ca15]
link va to s--><path d="M679.063,206 C733.277,206 789.362,206 832.741,206 " fill="none" id="va-to-s" style="stroke:#A80036;stroke-width:1.0;stroke-dasharray:7.0,7.0;"/><polygon fill="#A80036" points="837.968,206,828.968,202,832.968,206,828.968,210,837.968,206" style="stroke:#A80036;stroke-width:1.0;"/><text fill="#000000" font-family="sans-serif" font-size="13" lengthAdjust="spacing" textLength="89" x="715" y="202.0669">Datenabfrage</text><!--MD5=[52e849dfd88b871a60c1f279fdfc955b]
link vv to s--><path d="M584.768,106.965 C664.596,131.236 776.381,165.223 846.058,186.407 " fill="none" id="vv-to-s" style="stroke:#A80036;stroke-width:1.0;stroke-dasharray:7.0,7.0;"/><polygon fill="#A80036" points="851.001,187.91,843.5551,181.4634,846.2175,186.4545,841.2264,189.1169,851.001,187.91" style="stroke:#A80036;stroke-width:1.0;"/><text fill="#000000" font-family="sans-serif" font-size="13" lengthAdjust="spacing" textLength="89" x="715" y="142.0669">Datenabfrage</text><!--MD5=[7da3d405e600ff39ba44f23daabd8785]
link s to da--><path d="M891.166,224.246 C856.214,256.337 779.059,323.15 703,362 C662.827,382.52 615.103,398.015 574.975,408.817 " fill="none" id="s-to-da" style="stroke:#A80036;stroke-width:1.0;stroke-dasharray:7.0,7.0;"/><polygon fill="#A80036" points="570.12,410.111,579.8464,411.6593,574.9515,408.8238,577.7869,403.9289,570.12,410.111" style="stroke:#A80036;stroke-width:1.0;"/><text fill="#000000" font-family="sans-serif" font-size="13" lengthAdjust="spacing" textLength="95" x="712" y="293.0669">Datenlieferung</text><!--MD5=[b5b37e969d0783a81c8b162d7bb937a9]
link vv to va--><path d="M488.5,113.911 C488.5,128.329 488.5,145.121 488.5,160.387 " fill="none" id="vv-to-va" style="stroke:#A80036;stroke-width:1.0;stroke-dasharray:7.0,7.0;"/><polygon fill="#A80036" points="488.5,165.5,492.5,156.5,488.5,160.5,484.5,156.5,488.5,165.5" style="stroke:#A80036;stroke-width:1.0;"/><text fill="#000000" font-family="sans-serif" font-size="13" lengthAdjust="spacing" textLength="68" x="443" y="144.0669">«extends»</text><!--MD5=[8c590a5939fb2b5c8e7091a7be7b091a]
link aa to da--><path d="M488.5,344.625 C488.5,358.941 488.5,375.961 488.5,390.879 " fill="none" id="aa-to-da" style="stroke:#A80036;stroke-width:1.0;stroke-dasharray:7.0,7.0;"/><polygon fill="#A80036" points="488.5,396.271,492.5,387.271,488.5,391.271,484.5,387.271,488.5,396.271" style="stroke:#A80036;stroke-width:1.0;"/><text fill="#000000" font-family="sans-serif" font-size="13" lengthAdjust="spacing" textLength="68" x="443" y="375.0669">«extends»</text><!--MD5=[e344bc5deea42ad6738b473c60e50f4e]
@startuml
left to right direction

actor Forschende as f

rectangle "Analyse" #789dd5 {
    usecase va as "Versuch auswählen
    ..
    der konkrete Versuch der analysiert werden soll"
    usecase vv as "anderen Versuch zum Vergleich auswählen"
    usecase da as "Daten anschauen
    ..
    Analyse-Ergebnis"
    usecase at as "Analyse-Art
    ..
    Auswahl Analyse-Art"
    usecase aa as "Analyse anpassen
    ..
    Optionen zur Veranschaulichung"
    usecase ex as "Exportieren
    ..
    sowohl Rohdaten als auch Analyse-Ergebnis"
}

rectangle "Datenbank / JSON" as s #FFFFFF

f - - da
f - - aa : [Heatmap, Diagramm]
f - - ex
f - - va
f - - at
f - - vv : [Verlauf]

' intern
va ..> s : Datenabfrage
vv ..> s : Datenabfrage
s ..> da : Datenlieferung

va <.l. vv : <<extends>>
da <.l. aa : <<extends>>
@enduml

@startuml
left to right direction

actor Forschende as f

rectangle "Analyse" #789dd5 {
    usecase va as "Versuch auswählen
    ..
    der konkrete Versuch der analysiert werden soll"
    usecase vv as "anderen Versuch zum Vergleich auswählen"
    usecase da as "Daten anschauen
    ..
    Analyse-Ergebnis"
    usecase at as "Analyse-Art
    ..
    Auswahl Analyse-Art"
    usecase aa as "Analyse anpassen
    ..
    Optionen zur Veranschaulichung"
    usecase ex as "Exportieren
    ..
    sowohl Rohdaten als auch Analyse-Ergebnis"
}

rectangle "Datenbank / JSON" as s #FFFFFF

f - - da
f - - aa : [Heatmap, Diagramm]
f - - ex
f - - va
f - - at
f - - vv : [Verlauf]

va ..> s : Datenabfrage
vv ..> s : Datenabfrage
s ..> da : Datenlieferung

va <.l. vv : <<extends>>
da <.l. aa : <<extends>>
@enduml

PlantUML version 1.2022.1beta6(Unknown compile time)
(GPL source distribution)
Java Runtime: Java(TM) SE Runtime Environment
JVM: Java HotSpot(TM) 64-Bit Server VM
Default Encoding: UTF-8
Language: en
Country: US
--></g></svg>