<?xml version="1.0" encoding="UTF-8" standalone="no"?><svg xmlns="http://www.w3.org/2000/svg" xmlns:xlink="http://www.w3.org/1999/xlink" contentScriptType="application/ecmascript" contentStyleType="text/css" height="506px" preserveAspectRatio="none" style="width:948px;height:506px;background:#FFFFFF;" version="1.1" viewBox="0 0 948 506" width="948px" zoomAndPan="magnify"><defs><filter height="300%" id="f10gtli7p9csfs" width="300%" x="-1" y="-1"><feGaussianBlur result="blurOut" stdDeviation="2.0"/><feColorMatrix in="blurOut" result="blurOut2" type="matrix" values="0 0 0 0 0 0 0 0 0 0 0 0 0 0 0 0 0 0 .4 0"/><feOffset dx="4.0" dy="4.0" in="blurOut2" result="blurOut3"/><feBlend in="SourceGraphic" in2="blurOut3" mode="normal"/></filter></defs><g><!--MD5=[0dddb7f964ed21e384072c4693cca302]
cluster z--><rect fill="#789DD4" filter="url(#f10gtli7p9csfs)" height="431" style="stroke:#000000;stroke-width:1.5;" width="221" x="143" y="7"/><text fill="#000000" font-family="sans-serif" font-size="14" font-weight="bold" lengthAdjust="spacing" textLength="93" x="207" y="21.9951">CodeCharts</text><!--MD5=[03c9795141fffc1586b10a901fd13311]
cluster a--><rect fill="#FFFFFF" filter="url(#f10gtli7p9csfs)" height="130" style="stroke:#000000;stroke-width:1.5;" width="243" x="560" y="196"/><text fill="#000000" font-family="sans-serif" font-size="14" font-weight="bold" lengthAdjust="spacing" textLength="63" x="650" y="210.9951">Analyse</text><!--MD5=[b3179ce4f793cc951a1964cbf548eaa1]
cluster c--><rect fill="#FFFFFF" filter="url(#f10gtli7p9csfs)" height="128" style="stroke:#000000;stroke-width:1.5;" width="235" x="564" y="366"/><text fill="#000000" font-family="sans-serif" font-size="14" font-weight="bold" lengthAdjust="spacing" textLength="52" x="655.5" y="380.9951">Config</text><ellipse cx="253.5998" cy="229.22" fill="#FEFECE" filter="url(#f10gtli7p9csfs)" rx="86.5998" ry="19.72" style="stroke:#A80036;stroke-width:1.5;"/><text fill="#000000" font-family="sans-serif" font-size="14" lengthAdjust="spacing" textLength="134" x="186.5998" y="232.0666">Tutorial anschauen</text><ellipse cx="253.2532" cy="301.9506" fill="#FEFECE" filter="url(#f10gtli7p9csfs)" rx="77.7532" ry="17.9506" style="stroke:#A80036;stroke-width:1.5;"/><text fill="#000000" font-family="sans-serif" font-size="14" lengthAdjust="spacing" textLength="113" x="194.1994" y="305.5809">Bild betrachten</text><ellipse cx="253.6635" cy="375.1327" fill="#FEFECE" filter="url(#f10gtli7p9csfs)" rx="86.1635" ry="19.6327" style="stroke:#A80036;stroke-width:1.5;"/><text fill="#000000" font-family="sans-serif" font-size="14" lengthAdjust="spacing" textLength="133" x="187.1635" y="377.9794">Raster betrachten</text><ellipse cx="253.5591" cy="156.1118" fill="#FEFECE" filter="url(#f10gtli7p9csfs)" rx="78.5591" ry="18.1118" style="stroke:#A80036;stroke-width:1.5;"/><text fill="#000000" font-family="sans-serif" font-size="14" lengthAdjust="spacing" textLength="115" x="193.8328" y="159.6525">Eingabe tätigen</text><ellipse cx="253.4652" cy="68.193" fill="#FEFECE" filter="url(#f10gtli7p9csfs)" rx="78.9652" ry="18.193" style="stroke:#A80036;stroke-width:1.5;"/><text fill="#000000" font-family="sans-serif" font-size="14" lengthAdjust="spacing" textLength="116" x="193.4" y="71.6886">Fehler Anzeigen</text><ellipse cx="681.2599" cy="260.852" fill="#FEFECE" filter="url(#f10gtli7p9csfs)" rx="97.2599" ry="21.852" style="stroke:#A80036;stroke-width:1.5;"/><text fill="#000000" font-family="sans-serif" font-size="14" lengthAdjust="spacing" textLength="158" x="602.2599" y="263.6987">Ergebnisse anschauen</text><ellipse cx="681.6693" cy="430.1339" fill="#FEFECE" filter="url(#f10gtli7p9csfs)" rx="93.6693" ry="21.1339" style="stroke:#A80036;stroke-width:1.5;"/><text fill="#000000" font-family="sans-serif" font-size="14" lengthAdjust="spacing" textLength="150" x="606.6693" y="432.9805">Einstellungen setzen</text><!--MD5=[4b52362e67c82d91eba5cb75921775cc]
entity t--><ellipse cx="47" cy="235" fill="#FEFECE" filter="url(#f10gtli7p9csfs)" rx="8" ry="8" style="stroke:#A80036;stroke-width:1.5;"/><path d="M47,243 L47,270 M34,251 L60,251 M47,270 L34,285 M47,270 L60,285 " fill="none" filter="url(#f10gtli7p9csfs)" style="stroke:#A80036;stroke-width:1.5;"/><text fill="#000000" font-family="sans-serif" font-size="14" lengthAdjust="spacing" textLength="82" x="6" y="303.4951">Testperson</text><!--MD5=[8f89c3b771be60a8fe1c771d5b27a045]
entity f--><ellipse cx="899.5" cy="299" fill="#FEFECE" filter="url(#f10gtli7p9csfs)" rx="8" ry="8" style="stroke:#A80036;stroke-width:1.5;"/><path d="M899.5,307 L899.5,334 M886.5,315 L912.5,315 M899.5,334 L886.5,349 M899.5,334 L912.5,349 " fill="none" filter="url(#f10gtli7p9csfs)" style="stroke:#A80036;stroke-width:1.5;"/><text fill="#000000" font-family="sans-serif" font-size="14" lengthAdjust="spacing" textLength="83" x="858" y="367.4951">Forschende</text><!--MD5=[71cc41faa5925f4e55bc866750beb2ce]
reverse link et to fa--><path d="M253.5,132.603 C253.5,118.067 253.5,99.656 253.5,86.21 " fill="none" id="et-backto-fa" style="stroke:#A80036;stroke-width:1.0;stroke-dasharray:7.0,7.0;"/><polygon fill="#A80036" points="253.5,137.766,257.5,128.766,253.5,132.766,249.5,128.766,253.5,137.766" style="stroke:#A80036;stroke-width:1.0;"/><text fill="#000000" font-family="sans-serif" font-size="13" lengthAdjust="spacing" textLength="68" x="208" y="116.5669">«extends»</text><!--MD5=[fd67234e7733f64004cf957abd7060f0]
link t to td--><path d="M88.4026,258.69 C116.106,253.678 153.512,246.91 185.614,241.102 " fill="none" id="t-td" style="stroke:#A80036;stroke-width:1.0;"/><!--MD5=[a47cc61414be02f1a1dc46a9068d5641]
link t to bb--><path d="M88.4026,273.112 C117.619,278.256 157.628,285.299 190.825,291.143 " fill="none" id="t-bb" style="stroke:#A80036;stroke-width:1.0;"/><!--MD5=[f7094194700321f3e8c784bcdc278cba]
link t to rb--><path d="M85.8124,306.848 C98.0505,318.221 112.286,329.714 127,338 C145.902,348.645 168.166,356.497 188.654,362.158 " fill="none" id="t-rb" style="stroke:#A80036;stroke-width:1.0;"/><!--MD5=[6270d3deb366b0fdad480f899a1c6932]
link t to et--><path d="M84.0118,225.461 C96.5894,213.271 111.472,200.809 127,192 C146.814,180.759 170.412,172.796 191.771,167.269 " fill="none" id="t-et" style="stroke:#A80036;stroke-width:1.0;"/><!--MD5=[87062a31269c98bfe6fc3d0ae56b2396]
link es to f--><path d="M723.128,411.191 C761.623,393.369 819.132,366.745 857.688,348.895 " fill="none" id="es-f" style="stroke:#A80036;stroke-width:1.0;"/><!--MD5=[138a0e8de6b50cd1dd0c7fc97c7a4d6c]
link ea to f--><path d="M764.795,272.439 C782.931,276.124 801.841,280.891 819,287 C832.157,291.684 845.774,298.308 857.942,304.958 " fill="none" id="ea-f" style="stroke:#A80036;stroke-width:1.0;"/><!--MD5=[63b0b4f2c04a4d4323df6b79656b845a]
link z to a--><path d="M364.447,414.3291 C366.2041,413.9768 367.9541,413.6187 369.6944,413.2546 C373.175,412.5266 376.6169,411.775 380,411 C447.073,395.635 520.9168,372.8658 578.6179,353.703 C607.4684,344.1216 632.2833,335.4419 650.1984,329.0401 C652.4378,328.2399 654.5694,327.4752 656.5876,326.7489 C657.0921,326.5673 657.5896,326.3881 658.0798,326.2114 " fill="none" id="z-to-a" style="stroke:#A80036;stroke-width:1.0;stroke-dasharray:7.0,7.0;"/><polygon fill="#A80036" points="658.0798,326.2114,648.2566,325.5009,653.3762,327.9071,650.9699,333.0267,658.0798,326.2114" style="stroke:#A80036;stroke-width:1.0;"/><text fill="#000000" font-family="sans-serif" font-size="13" lengthAdjust="spacing" textLength="146" x="389" y="365.0669">über Datenbank / JSON</text><!--MD5=[e555bde5371ff03b38ff4a3e0b52fb34]
reverse link z to c--><path d="M315.6556,438.0392 C318.036,438.3521 320.4691,438.672 322.9519,438.9984 C362.6757,444.2203 415.0985,451.1115 467.5197,458.0026 C493.7304,461.4481 519.9406,464.8936 544.5629,468.1303 C550.7185,468.9395 556.7748,469.7356 562.707,470.5154 C563.0778,470.5642 563.4481,470.6129 563.8179,470.6615 " fill="none" id="z-backto-c" style="stroke:#A80036;stroke-width:1.0;stroke-dasharray:7.0,7.0;"/><polygon fill="#A80036" points="315.6556,438.0392,324.0575,443.1781,320.6129,438.6909,325.1001,435.2463,315.6556,438.0392" style="stroke:#A80036;stroke-width:1.0;"/><text fill="#000000" font-family="sans-serif" font-size="13" lengthAdjust="spacing" textLength="144" x="390" y="444.0669">Versuchseinstellungen</text><!--MD5=[4bf5f56964582eb0562bd55fba511db0]
@startuml
left to right direction

actor Testperson as t
actor Forschende as f

rectangle CodeCharts as z #789dd4 {
    usecase "Tutorial anschauen" as td
    usecase "Bild betrachten" as bb
    usecase "Raster betrachten" as rb
    usecase "Eingabe tätigen" as et
    usecase "Fehler Anzeigen" as fa

    fa .l.> et : <<extends>>
}

rectangle Analyse as a {
    usecase "Ergebnisse anschauen" as ea
}

rectangle Config as c {
    usecase "Einstellungen setzen" as es
}

' Testperson
t - - td
t - - bb
t - - rb
t - - et

' Forschende
es - - f
ea - - f

' intern
z ..> a : über Datenbank / JSON
z <.. c : Versuchseinstellungen
@enduml

@startuml
left to right direction

actor Testperson as t
actor Forschende as f

rectangle CodeCharts as z #789dd4 {
    usecase "Tutorial anschauen" as td
    usecase "Bild betrachten" as bb
    usecase "Raster betrachten" as rb
    usecase "Eingabe tätigen" as et
    usecase "Fehler Anzeigen" as fa

    fa .l.> et : <<extends>>
}

rectangle Analyse as a {
    usecase "Ergebnisse anschauen" as ea
}

rectangle Config as c {
    usecase "Einstellungen setzen" as es
}

t - - td
t - - bb
t - - rb
t - - et

es - - f
ea - - f

z ..> a : über Datenbank / JSON
z <.. c : Versuchseinstellungen
@enduml

PlantUML version 1.2022.1beta6(Unknown compile time)
(GPL source distribution)
Java Runtime: Java(TM) SE Runtime Environment
JVM: Java HotSpot(TM) 64-Bit Server VM
Default Encoding: UTF-8
Language: en
Country: US
--></g></svg>