<?xml version="1.0" encoding="UTF-8" standalone="no"?><svg xmlns="http://www.w3.org/2000/svg" xmlns:xlink="http://www.w3.org/1999/xlink" contentScriptType="application/ecmascript" contentStyleType="text/css" height="1438px" preserveAspectRatio="none" style="width:1093px;height:1438px;background:#FFFFFF;" version="1.1" viewBox="0 0 1093 1438" width="1093px" zoomAndPan="magnify"><defs><filter height="300%" id="f1xm16bmtv4p68" width="300%" x="-1" y="-1"><feGaussianBlur result="blurOut" stdDeviation="2.0"/><feColorMatrix in="blurOut" result="blurOut2" type="matrix" values="0 0 0 0 0 0 0 0 0 0 0 0 0 0 0 0 0 0 .4 0"/><feOffset dx="4.0" dy="4.0" in="blurOut2" result="blurOut3"/><feBlend in="SourceGraphic" in2="blurOut3" mode="normal"/></filter></defs><g><text fill="#000000" font-family="sans-serif" font-size="18" lengthAdjust="spacing" textLength="294" x="393.25" y="16.708">Zustandsdiagramm CodeCharts</text><!--MD5=[726bf5ae9c58ccf600049f91f38a1f22]
cluster t--><rect fill="#FEFECE" filter="url(#f1xm16bmtv4p68)" height="242" rx="12.5" ry="12.5" style="stroke:#A80036;stroke-width:1.5;" width="273" x="20" y="85.9531"/><rect fill="#FFFFFF" height="209.7031" rx="12.5" ry="12.5" style="stroke:#FFFFFF;stroke-width:1.0;" width="267" x="23" y="115.25"/><line style="stroke:#A80036;stroke-width:1.5;" x1="20" x2="293" y1="112.25" y2="112.25"/><text fill="#000000" font-family="sans-serif" font-size="14" lengthAdjust="spacing" textLength="55" x="129" y="103.9482">Tutorial</text><!--MD5=[22b2c9f3a262b015613f9858f220a5ed]
cluster p--><rect fill="#FEFECE" filter="url(#f1xm16bmtv4p68)" height="226" rx="12.5" ry="12.5" style="stroke:#A80036;stroke-width:1.5;" width="223" x="293" y="350.9531"/><rect fill="#FFFFFF" height="193.7031" rx="12.5" ry="12.5" style="stroke:#FFFFFF;stroke-width:1.0;" width="217" x="296" y="380.25"/><line style="stroke:#A80036;stroke-width:1.5;" x1="293" x2="516" y1="377.25" y2="377.25"/><text fill="#000000" font-family="sans-serif" font-size="14" lengthAdjust="spacing" textLength="56" x="376.5" y="368.9482">PreTest</text><!--MD5=[57cfc2015c9d3964671bcbff5cacbb7f]
cluster s--><rect fill="#FEFECE" filter="url(#f1xm16bmtv4p68)" height="333" rx="12.5" ry="12.5" style="stroke:#A80036;stroke-width:1.5;" width="492" x="312" y="607.9531"/><rect fill="#FFFFFF" height="300.7031" rx="12.5" ry="12.5" style="stroke:#FFFFFF;stroke-width:1.0;" width="486" x="315" y="637.25"/><line style="stroke:#A80036;stroke-width:1.5;" x1="312" x2="804" y1="634.25" y2="634.25"/><text fill="#000000" font-family="sans-serif" font-size="14" lengthAdjust="spacing" textLength="43" x="536.5" y="625.9482">Setup</text><!--MD5=[79ba9fe6bd8680a6494d18e09b39dfb5]
cluster v--><rect fill="#FEFECE" filter="url(#f1xm16bmtv4p68)" height="409" rx="12.5" ry="12.5" style="stroke:#A80036;stroke-width:1.5;" width="428" x="414" y="989.9531"/><rect fill="#FFFFFF" height="376.7031" rx="12.5" ry="12.5" style="stroke:#FFFFFF;stroke-width:1.0;" width="422" x="417" y="1019.25"/><line style="stroke:#A80036;stroke-width:1.5;" x1="414" x2="842" y1="1016.25" y2="1016.25"/><text fill="#000000" font-family="sans-serif" font-size="14" lengthAdjust="spacing" textLength="57" x="599.5" y="1007.9482">Versuch</text><text fill="#000000" font-family="sans-serif" font-size="14" lengthAdjust="spacing" textLength="0" x="22" y="131.6514"/><ellipse cx="20" cy="152.9531" fill="#FEFECE" rx="6" ry="6" style="stroke:#A80036;stroke-width:1.5;"/><text fill="#000000" font-family="sans-serif" font-size="14" lengthAdjust="spacing" textLength="0" x="295" y="305.9482"/><ellipse cx="293" cy="286.9531" fill="#FEFECE" rx="6" ry="6" style="stroke:#A80036;stroke-width:1.5;"/><line style="stroke:#A80036;stroke-width:1.5;" x1="297.3891" x2="289.6109" y1="291.3422" y2="283.564"/><line style="stroke:#A80036;stroke-width:1.5;" x1="297.3891" x2="289.6109" y1="283.564" y2="291.3422"/><g id="t.ac"><rect fill="#FEFECE" filter="url(#f1xm16bmtv4p68)" height="64.2344" rx="12.5" ry="12.5" style="stroke:#A80036;stroke-width:1.5;" width="210" x="61" y="120.9531"/><line style="stroke:#A80036;stroke-width:1.5;" x1="61" x2="271" y1="147.25" y2="147.25"/><text fill="#000000" font-family="sans-serif" font-size="14" lengthAdjust="spacing" textLength="139" x="96.5" y="138.9482">Abfrage von Config</text><text fill="#000000" font-family="sans-serif" font-size="12" lengthAdjust="spacing" textLength="68" x="66" y="163.3887">getConfig()</text><text fill="#000000" font-family="sans-serif" font-size="12" lengthAdjust="spacing" textLength="190" x="66" y="177.3574">Soll Tutorial angezeigt werden?</text></g><g id="t.ta"><rect fill="#FEFECE" filter="url(#f1xm16bmtv4p68)" height="50" rx="12.5" ry="12.5" style="stroke:#A80036;stroke-width:1.5;" width="144" x="104" y="261.9531"/><line style="stroke:#A80036;stroke-width:1.5;" x1="104" x2="248" y1="288.25" y2="288.25"/><text fill="#000000" font-family="sans-serif" font-size="14" lengthAdjust="spacing" textLength="124" x="114" y="279.9482">Tutorial anzeigen</text></g><text fill="#000000" font-family="sans-serif" font-size="14" lengthAdjust="spacing" textLength="0" x="295" y="396.6514"/><ellipse cx="293" cy="417.9531" fill="#FEFECE" rx="6" ry="6" style="stroke:#A80036;stroke-width:1.5;"/><text fill="#000000" font-family="sans-serif" font-size="14" lengthAdjust="spacing" textLength="0" x="314" y="554.9482"/><ellipse cx="312" cy="535.9531" fill="#FEFECE" rx="6" ry="6" style="stroke:#A80036;stroke-width:1.5;"/><line style="stroke:#A80036;stroke-width:1.5;" x1="316.3891" x2="308.6109" y1="540.3422" y2="532.564"/><line style="stroke:#A80036;stroke-width:1.5;" x1="316.3891" x2="308.6109" y1="532.564" y2="540.3422"/><g id="p.it"><rect fill="#FEFECE" filter="url(#f1xm16bmtv4p68)" height="64.2344" rx="12.5" ry="12.5" style="stroke:#A80036;stroke-width:1.5;" width="165" x="334.5" y="385.9531"/><line style="stroke:#A80036;stroke-width:1.5;" x1="334.5" x2="499.5" y1="412.25" y2="412.25"/><text fill="#000000" font-family="sans-serif" font-size="14" lengthAdjust="spacing" textLength="134" x="350" y="403.9482">Abfrage Intro Text</text><text fill="#000000" font-family="sans-serif" font-size="12" lengthAdjust="spacing" textLength="99" x="339.5" y="428.3887">getConfigState()</text><text fill="#000000" font-family="sans-serif" font-size="12" lengthAdjust="spacing" textLength="145" x="339.5" y="442.3574">Was ist der Intro Inhalt ?</text></g><g id="p.ia"><rect fill="#FEFECE" filter="url(#f1xm16bmtv4p68)" height="50" rx="12.5" ry="12.5" style="stroke:#A80036;stroke-width:1.5;" width="124" x="353" y="510.9531"/><line style="stroke:#A80036;stroke-width:1.5;" x1="353" x2="477" y1="537.25" y2="537.25"/><text fill="#000000" font-family="sans-serif" font-size="14" lengthAdjust="spacing" textLength="104" x="363" y="528.9482">Intro anzeigen</text></g><text fill="#000000" font-family="sans-serif" font-size="14" lengthAdjust="spacing" textLength="0" x="314" y="668.6514"/><ellipse cx="312" cy="689.9531" fill="#FEFECE" rx="6" ry="6" style="stroke:#A80036;stroke-width:1.5;"/><text fill="#000000" font-family="sans-serif" font-size="14" lengthAdjust="spacing" textLength="0" x="422" y="959.9482"/><ellipse cx="420" cy="940.9531" fill="#FEFECE" rx="6" ry="6" style="stroke:#A80036;stroke-width:1.5;"/><line style="stroke:#A80036;stroke-width:1.5;" x1="424.3891" x2="416.6109" y1="945.3422" y2="937.564"/><line style="stroke:#A80036;stroke-width:1.5;" x1="424.3891" x2="416.6109" y1="937.564" y2="945.3422"/><g id="s.ka"><rect fill="#FEFECE" filter="url(#f1xm16bmtv4p68)" height="78.2031" rx="12.5" ry="12.5" style="stroke:#A80036;stroke-width:1.5;" width="400" x="353" y="650.9531"/><line style="stroke:#A80036;stroke-width:1.5;" x1="353" x2="753" y1="677.25" y2="677.25"/><text fill="#000000" font-family="sans-serif" font-size="14" lengthAdjust="spacing" textLength="167" x="469.5" y="668.9482">Konfiguration abfragen</text><text fill="#000000" font-family="sans-serif" font-size="12" lengthAdjust="spacing" textLength="54" x="358" y="693.3887">imageUrl</text><text fill="#000000" font-family="sans-serif" font-size="12" lengthAdjust="spacing" textLength="380" x="358" y="707.3574">strings, initialSize, timings, showGrid, relativeSize, randomized</text><text fill="#000000" font-family="sans-serif" font-size="12" lengthAdjust="spacing" textLength="266" x="358" y="721.3262">iterations, maxDepth, default Unterteilungen</text></g><g id="s.vb"><rect fill="#FEFECE" filter="url(#f1xm16bmtv4p68)" height="50.2656" rx="12.5" ry="12.5" style="stroke:#A80036;stroke-width:1.5;" width="147" x="346.5" y="812.9531"/><line style="stroke:#A80036;stroke-width:1.5;" x1="346.5" x2="493.5" y1="839.25" y2="839.25"/><text fill="#000000" font-family="sans-serif" font-size="14" lengthAdjust="spacing" textLength="127" x="356.5" y="830.9482">Vorbereitung Bild</text><text fill="#000000" font-family="sans-serif" font-size="12" lengthAdjust="spacing" textLength="76" x="351.5" y="855.3887">instanziieren</text></g><g id="s.vr"><rect fill="#FEFECE" filter="url(#f1xm16bmtv4p68)" height="64.2344" rx="12.5" ry="12.5" style="stroke:#A80036;stroke-width:1.5;" width="243" x="528.5" y="805.9531"/><line style="stroke:#A80036;stroke-width:1.5;" x1="528.5" x2="771.5" y1="832.25" y2="832.25"/><text fill="#000000" font-family="sans-serif" font-size="14" lengthAdjust="spacing" textLength="147" x="576.5" y="823.9482">Vorbereitung Raster</text><text fill="#000000" font-family="sans-serif" font-size="12" lengthAdjust="spacing" textLength="198" x="533.5" y="848.3887">Größe vom Bild abhängig setzen</text><text fill="#000000" font-family="sans-serif" font-size="12" lengthAdjust="spacing" textLength="223" x="533.5" y="862.3574">initiale Rasterunterteilung vornehmen</text></g><text fill="#000000" font-family="sans-serif" font-size="14" lengthAdjust="spacing" textLength="0" x="416" y="1028.6514"/><ellipse cx="414" cy="1049.9531" fill="#FEFECE" rx="6" ry="6" style="stroke:#A80036;stroke-width:1.5;"/><text fill="#000000" font-family="sans-serif" font-size="14" lengthAdjust="spacing" textLength="0" x="761" y="1417.9482"/><ellipse cx="759" cy="1398.9531" fill="#FEFECE" rx="6" ry="6" style="stroke:#A80036;stroke-width:1.5;"/><line style="stroke:#A80036;stroke-width:1.5;" x1="763.3891" x2="755.6109" y1="1403.3422" y2="1395.564"/><line style="stroke:#A80036;stroke-width:1.5;" x1="763.3891" x2="755.6109" y1="1395.564" y2="1403.3422"/><g id="v.ba"><rect fill="#FEFECE" filter="url(#f1xm16bmtv4p68)" height="50.2656" rx="12.5" ry="12.5" style="stroke:#A80036;stroke-width:1.5;" width="195" x="455.5" y="1024.9531"/><line style="stroke:#A80036;stroke-width:1.5;" x1="455.5" x2="650.5" y1="1051.25" y2="1051.25"/><text fill="#000000" font-family="sans-serif" font-size="14" lengthAdjust="spacing" textLength="96" x="505" y="1042.9482">Bild anzeigen</text><text fill="#000000" font-family="sans-serif" font-size="12" lengthAdjust="spacing" textLength="175" x="460.5" y="1067.3887">für in Config eingestellte Zeit</text></g><g id="v.ra"><rect fill="#FEFECE" filter="url(#f1xm16bmtv4p68)" height="50.2656" rx="12.5" ry="12.5" style="stroke:#A80036;stroke-width:1.5;" width="195" x="436.5" y="1135.9531"/><line style="stroke:#A80036;stroke-width:1.5;" x1="436.5" x2="631.5" y1="1162.25" y2="1162.25"/><text fill="#000000" font-family="sans-serif" font-size="14" lengthAdjust="spacing" textLength="116" x="476" y="1153.9482">Raster anzeigen</text><text fill="#000000" font-family="sans-serif" font-size="12" lengthAdjust="spacing" textLength="175" x="441.5" y="1178.3887">für in Config eingestellte Zeit</text></g><g id="v.bi"><rect fill="#FEFECE" filter="url(#f1xm16bmtv4p68)" height="50" rx="12.5" ry="12.5" style="stroke:#A80036;stroke-width:1.5;" width="261" x="564.5" y="1246.9531"/><line style="stroke:#A80036;stroke-width:1.5;" x1="564.5" x2="825.5" y1="1273.25" y2="1273.25"/><text fill="#000000" font-family="sans-serif" font-size="14" lengthAdjust="spacing" textLength="241" x="574.5" y="1264.9482">Benutzer Input entgegennehmen</text></g><g id="err"><rect fill="#FEFECE" filter="url(#f1xm16bmtv4p68)" height="50.2656" rx="12.5" ry="12.5" style="stroke:#A80036;stroke-width:1.5;" width="181" x="850.5" y="812.9531"/><line style="stroke:#A80036;stroke-width:1.5;" x1="850.5" x2="1031.5" y1="839.25" y2="839.25"/><text fill="#000000" font-family="sans-serif" font-size="14" lengthAdjust="spacing" textLength="45" x="918.5" y="830.9482">Fehler</text><text fill="#000000" font-family="sans-serif" font-size="12" lengthAdjust="spacing" textLength="161" x="855.5" y="855.3887">informative Fehlermeldung</text></g><g id="Speichern"><rect fill="#FEFECE" filter="url(#f1xm16bmtv4p68)" height="50.2656" rx="12.5" ry="12.5" style="stroke:#A80036;stroke-width:1.5;" width="229" x="850.5" y="1373.9531"/><line style="stroke:#A80036;stroke-width:1.5;" x1="850.5" x2="1079.5" y1="1400.25" y2="1400.25"/><text fill="#000000" font-family="sans-serif" font-size="14" lengthAdjust="spacing" textLength="73" x="928.5" y="1391.9482">Speichern</text><text fill="#000000" font-family="sans-serif" font-size="12" lengthAdjust="spacing" textLength="209" x="855.5" y="1416.3887">der Daten in der Datenbank / JSON</text></g><ellipse cx="20" cy="36.9531" fill="#000000" filter="url(#f1xm16bmtv4p68)" rx="10" ry="10" style="stroke:none;stroke-width:1.0;"/><ellipse cx="963" cy="940.9531" filter="url(#f1xm16bmtv4p68)" rx="10" ry="10" style="stroke:#000000;stroke-width:1.0;fill:none;"/><ellipse cx="963.5" cy="941.4531" fill="#000000" rx="6" ry="6" style="stroke:none;stroke-width:1.0;"/><!--MD5=[a61c082f6f6ee4e456ea32296a7fd8f1]
reverse link ac to tnp--><path d="M55.7875,152.9531 C45.9495,152.9531 36.1115,152.9531 26.2734,152.9531 " fill="none" id="ac-backto-tnp" style="stroke:#A80036;stroke-width:1.0;"/><polygon fill="#A80036" points="60.9322,152.9531,51.9322,148.9531,55.9322,152.9531,51.9322,156.9531,60.9322,152.9531" style="stroke:#A80036;stroke-width:1.0;"/><!--MD5=[3f19270b61e07219a5c7c6cf1c9c77be]
link ac to ta--><path d="M163.989,185.1431 C163.48,199.4431 163.451,216.5931 165,231.9531 C165.827,240.1531 167.342,248.9431 168.989,257.0031 " fill="none" id="ac-to-ta" style="stroke:#A80036;stroke-width:1.0;"/><polygon fill="#A80036" points="170.027,261.9231,172.063,252.287,168.9847,257.033,164.2388,253.9547,170.027,261.9231" style="stroke:#A80036;stroke-width:1.0;"/><text fill="#000000" font-family="sans-serif" font-size="13" lengthAdjust="spacing" textLength="12" x="166" y="228.02">Ja</text><!--MD5=[447026dc2e60cf6b4c54c0209a9e1569]
link ac to txp--><path d="M207.885,185.0531 C232.331,204.9031 262.331,232.3831 283,261.9531 C285.974,266.2031 288.294,271.4831 289.948,276.0031 " fill="none" id="ac-to-txp" style="stroke:#A80036;stroke-width:1.0;"/><polygon fill="#A80036" points="291.582,280.8531,292.5192,271.049,289.9953,276.1116,284.9327,273.5877,291.582,280.8531" style="stroke:#A80036;stroke-width:1.0;"/><text fill="#000000" font-family="sans-serif" font-size="13" lengthAdjust="spacing" textLength="28" x="260" y="228.02">Nein</text><!--MD5=[d59850e57f5f4af29ecc2d4c8b6ba28e]
link ta to txp--><path d="M248.211,286.9531 C259.337,286.9531 270.463,286.9531 281.59,286.9531 " fill="none" id="ta-to-txp" style="stroke:#A80036;stroke-width:1.0;"/><polygon fill="#A80036" points="286.702,286.9531,277.702,282.9531,281.702,286.9531,277.702,290.9531,286.702,286.9531" style="stroke:#A80036;stroke-width:1.0;"/><!--MD5=[9f61c41cbd373ee46fb7d2223f1744a9]
reverse link it to pnp--><path d="M329.053,417.9531 C319.134,417.9531 309.216,417.9531 299.297,417.9531 " fill="none" id="it-backto-pnp" style="stroke:#A80036;stroke-width:1.0;"/><polygon fill="#A80036" points="334.24,417.9531,325.24,413.9531,329.24,417.9531,325.24,421.9531,334.24,417.9531" style="stroke:#A80036;stroke-width:1.0;"/><!--MD5=[bcda4bb889f58413a6da785fdfde5006]
link it to ia--><path d="M416.464,450.0391 C416.166,467.3111 415.798,488.6761 415.505,505.6541 " fill="none" id="it-to-ia" style="stroke:#A80036;stroke-width:1.0;"/><polygon fill="#A80036" points="415.417,510.7721,419.5707,501.842,415.5027,505.7729,411.5719,501.7049,415.417,510.7721" style="stroke:#A80036;stroke-width:1.0;"/><!--MD5=[26e2ac85139c797a27c4734c2e73fa42]
link ia to pxp--><path d="M352.882,535.9531 C342.991,535.9531 333.099,535.9531 323.208,535.9531 " fill="none" id="ia-to-pxp" style="stroke:#A80036;stroke-width:1.0;"/><polygon fill="#A80036" points="318.035,535.9531,327.035,539.9531,323.035,535.9531,327.035,531.9531,318.035,535.9531" style="stroke:#A80036;stroke-width:1.0;"/><!--MD5=[630da2a7745013a00f9175d6079ffc9e]
reverse link ka to snp--><path d="M347.809,689.9531 C337.912,689.9531 328.016,689.9531 318.119,689.9531 " fill="none" id="ka-backto-snp" style="stroke:#A80036;stroke-width:1.0;"/><polygon fill="#A80036" points="352.984,689.9531,343.984,685.9531,347.984,689.9531,343.984,693.9531,352.984,689.9531" style="stroke:#A80036;stroke-width:1.0;"/><!--MD5=[4be6b3dfff7856a8e2c6bf554a3bc2a6]
link ka to vb--><path d="M518.056,729.3131 C495.356,754.2311 466.271,786.1601 445.689,808.7531 " fill="none" id="ka-to-vb" style="stroke:#A80036;stroke-width:1.0;"/><polygon fill="#A80036" points="442.205,812.5781,451.2232,808.6192,445.5724,808.8821,445.3095,803.2314,442.205,812.5781" style="stroke:#A80036;stroke-width:1.0;"/><!--MD5=[9dfcffb1c80ec3d61f2a6a307dd25248]
link ka to vr--><path d="M578.486,729.3131 C593.325,751.6491 611.907,779.6181 626.41,801.4471 " fill="none" id="ka-to-vr" style="stroke:#A80036;stroke-width:1.0;"/><polygon fill="#A80036" points="629.254,805.7281,627.6045,796.0184,626.4868,801.5637,620.9414,800.446,629.254,805.7281" style="stroke:#A80036;stroke-width:1.0;"/><!--MD5=[7db026ba0316a7ea12dce3ba9e297fcb]
link vr to sxp--><path d="M579.116,870.0801 C524.896,893.8901 455.256,924.4711 429.84,935.6321 " fill="none" id="vr-to-sxp" style="stroke:#A80036;stroke-width:1.0;"/><polygon fill="#A80036" points="425.109,937.7091,434.9578,937.7528,429.687,935.6987,431.7411,930.428,425.109,937.7091" style="stroke:#A80036;stroke-width:1.0;"/><!--MD5=[fc36a7e0f55729ec01ae1431d5266645]
link vb to sxp--><path d="M420,863.1451 C420,884.3511 420,914.1451 420,929.6551 " fill="none" id="vb-to-sxp" style="stroke:#A80036;stroke-width:1.0;"/><polygon fill="#A80036" points="420,934.6801,424,925.6801,420,929.6801,416,925.6801,420,934.6801" style="stroke:#A80036;stroke-width:1.0;"/><!--MD5=[ef30d483e4a1810673d67f4c0adad042]
reverse link ba to vnp--><path d="M450.052,1049.9531 C440.116,1049.9531 430.18,1049.9531 420.244,1049.9531 " fill="none" id="ba-backto-vnp" style="stroke:#A80036;stroke-width:1.0;"/><polygon fill="#A80036" points="455.248,1049.9531,446.248,1045.9531,450.248,1049.9531,446.248,1053.9531,455.248,1049.9531" style="stroke:#A80036;stroke-width:1.0;"/><!--MD5=[a0780441f2bf221f76b36d0510597959]
link ba to ra--><path d="M548.783,1075.1441 C545.93,1091.5131 542.144,1113.2321 539.118,1130.5931 " fill="none" id="ba-to-ra" style="stroke:#A80036;stroke-width:1.0;"/><polygon fill="#A80036" points="538.205,1135.8301,543.691,1127.6507,539.0636,1130.9044,535.8098,1126.2769,538.205,1135.8301" style="stroke:#A80036;stroke-width:1.0;"/><!--MD5=[01b2c4f497b6da43dfcbb677566b361f]
link ra to bi--><path d="M569.731,1186.1441 C594.952,1203.2191 628.771,1226.1151 654.912,1243.8131 " fill="none" id="ra-to-bi" style="stroke:#A80036;stroke-width:1.0;"/><polygon fill="#A80036" points="659.369,1246.8301,654.1588,1238.4722,655.2286,1244.027,649.6739,1245.0968,659.369,1246.8301" style="stroke:#A80036;stroke-width:1.0;"/><!--MD5=[eae6f66daafa49fea7c120cd0cef3756]
link bi to ba--><path d="M690.706,1246.8451 C684.806,1218.4641 672.186,1170.7881 649,1135.9531 C634.208,1113.7281 612.206,1093.6721 592.996,1078.6301 " fill="none" id="bi-to-ba" style="stroke:#A80036;stroke-width:1.0;"/><polygon fill="#A80036" points="588.69,1075.3051,593.3686,1083.9718,592.6474,1078.3611,598.2581,1077.6399,588.69,1075.3051" style="stroke:#A80036;stroke-width:1.0;"/><text fill="#000000" font-family="sans-serif" font-size="13" lengthAdjust="spacing" textLength="122" x="675" y="1165.52">weitere Durchläufe</text><!--MD5=[d986afdffbf622967289c336e856d47a]
link bi to vxp--><path d="M707.34,1297.0541 C721.55,1324.8091 744.206,1369.0586 754.104,1388.391 " fill="none" id="bi-to-vxp" style="stroke:#A80036;stroke-width:1.0;"/><polygon fill="#A80036" points="756.54,1393.1486,755.9983,1383.3147,754.2611,1388.6982,748.8776,1386.961,756.54,1393.1486" style="stroke:#A80036;stroke-width:1.0;"/><text fill="#000000" font-family="sans-serif" font-size="13" lengthAdjust="spacing" textLength="108" x="732" y="1340.02">Durchläufe fertig</text><!--MD5=[810aaa9c9373a6a4cd23eb0b6b60d214]
link s to err--><path d="M804.3568,706.5615 C804.9025,707.0823 805.4593,707.6136 806.0267,708.1551 C807.1615,709.238 808.3389,710.3614 809.5555,711.5224 C811.9887,713.8442 814.5789,716.3159 817.2998,718.9124 C822.7417,724.1053 828.7067,729.7974 834.985,735.7884 C860.098,759.7524 890.223,788.4991 911.931,809.2141 " fill="none" id="s-to-err" style="stroke:#A80036;stroke-width:1.0;"/><polygon fill="#A80036" points="915.767,812.8751,912.017,803.7681,912.1496,809.4234,906.4943,809.556,915.767,812.8751" style="stroke:#A80036;stroke-width:1.0;"/><text fill="#000000" font-family="sans-serif" font-size="13" lengthAdjust="spacing" textLength="116" x="874" y="772.02">Fehler beim Setup</text><!--MD5=[85c6c7a1058dfd0182dadb91f24e8307]
link *start to tnp--><path d="M20,47.2831 C20,68.3731 20,119.5831 20,141.6031 " fill="none" id="*start-to-tnp" style="stroke:#A80036;stroke-width:1.0;"/><polygon fill="#A80036" points="20,146.7631,24,137.7631,20,141.7631,16,137.7631,20,146.7631" style="stroke:#A80036;stroke-width:1.0;"/><!--MD5=[260cfbe5ac01114fa9c3544abce7be05]
link txp to pnp--><path d="M293,293.1731 C293,312.5431 293,380.5531 293,406.6531 " fill="none" id="txp-to-pnp" style="stroke:#A80036;stroke-width:1.0;"/><polygon fill="#A80036" points="293,411.8131,297,402.8131,293,406.8131,289,402.8131,293,411.8131" style="stroke:#A80036;stroke-width:1.0;"/><!--MD5=[d29433beae00b87af9700a7206a0e8cf]
link pxp to snp--><path d="M312,542.0101 C312,563.6461 312,648.6651 312,678.5201 " fill="none" id="pxp-to-snp" style="stroke:#A80036;stroke-width:1.0;"/><polygon fill="#A80036" points="312,683.7211,316,674.7211,312,678.7211,308,674.7211,312,683.7211" style="stroke:#A80036;stroke-width:1.0;"/><!--MD5=[10256c57c7ff6fbc21f13c345aa9106e]
link sxp to vnp--><path d="M419.711,947.1141 C418.778,963.7391 415.841,1016.1161 414.582,1038.5681 " fill="none" id="sxp-to-vnp" style="stroke:#A80036;stroke-width:1.0;"/><polygon fill="#A80036" points="414.301,1043.5921,418.7987,1034.8302,414.581,1038.6,410.8112,1034.3823,414.301,1043.5921" style="stroke:#A80036;stroke-width:1.0;"/><!--MD5=[57f817002b2c3f77091533b8381db39e]
link vxp to Speichern--><path d="M765.035,1398.9531 C791.642,1398.9531 818.248,1398.9531 844.855,1398.9531 " fill="none" id="vxp-to-Speichern" style="stroke:#A80036;stroke-width:1.0;"/><polygon fill="#A80036" points="850.176,1398.9531,841.176,1394.9531,845.176,1398.9531,841.176,1402.9531,850.176,1398.9531" style="stroke:#A80036;stroke-width:1.0;"/><!--MD5=[569fcbeb2cc9c9798d00ec88a7200871]
reverse link *end to Speichern--><path d="M963.217,956.1441 C963.511,976.6341 964,1015.6991 964,1048.9531 C964,1048.9531 964,1048.9531 964,1272.9531 C964,1307.8931 964.396,1348.3258 964.689,1373.5225 " fill="none" id="*end-backto-Speichern" style="stroke:#A80036;stroke-width:1.0;"/><polygon fill="#A80036" points="963.143,951.1131,959.2746,960.1705,963.2159,956.1126,967.2737,960.0539,963.143,951.1131" style="stroke:#A80036;stroke-width:1.0;"/><!--MD5=[dfb6e7c2f8b207f8e3f74365dbae73bc]
link err to *end--><path d="M946.27,863.1451 C950.518,882.6501 956.349,909.4191 959.886,925.6571 " fill="none" id="err-to-*end" style="stroke:#A80036;stroke-width:1.0;"/><polygon fill="#A80036" points="960.992,930.7351,962.9847,921.09,959.9278,925.8497,955.1681,922.7927,960.992,930.7351" style="stroke:#A80036;stroke-width:1.0;"/><!--MD5=[3af67d588b6e14734b4c179f774a3a9a]
@startuml
title Zustandsdiagramm CodeCharts
state "Fehler" as err : informative Fehlermeldung
state Speichern : der Daten in der Datenbank / JSON

state "Tutorial" as t {
    state " " as tnp <<entryPoint>>
    state " " as txp <<exitPoint>>
    state "Abfrage von Config" as ac : getConfig()\nSoll Tutorial angezeigt werden?
    state "Tutorial anzeigen" as ta
    tnp -l-> ac
    ac - -> ta : Ja
    ac - -> txp : Nein
    ta -r-> txp
}

state "PreTest" as p {
    state " " as pnp <<entryPoint>>
    state " " as pxp <<exitPoint>>
    state "Abfrage Intro Text" as it : getConfigState()\nWas ist der Intro Inhalt ?
    state "Intro anzeigen" as ia
    pnp -l-> it
    it - -> ia
    ia -r-> pxp
}

state "Setup" as s {
    state " " as snp <<entryPoint>>
    state " " as sxp <<exitPoint>>
    state "Konfiguration abfragen" as ka : imageUrl
    ka : strings, initialSize, timings, showGrid, relativeSize, randomized
    ka: iterations, maxDepth, default Unterteilungen
    state "Vorbereitung Bild" as vb : instanziieren
    state "Vorbereitung Raster" as vr : Größe vom Bild abhängig setzen
    vr : initiale Rasterunterteilung vornehmen
    snp -l-> ka
    ka - -> vb
    ka - -> vr
    vr -d-> sxp
    vb -d-> sxp
}


state "Versuch" as v {
    state " " as vnp <<entryPoint>>
    state " " as vxp <<exitPoint>>
    state "Bild anzeigen" as ba : für in Config eingestellte Zeit
    state "Raster anzeigen" as ra : für in Config eingestellte Zeit
    state "Benutzer Input entgegennehmen" as bi
    vnp -l-> ba
    ba - -> ra
    ra - -> bi
    bi - -> ba : weitere Durchläufe
    bi - -> vxp : Durchläufe fertig
}

s - -> err : Fehler beim Setup
[*] - -> tnp

txp - -> pnp
pxp - -> snp
sxp - -> vnp
vxp -r-> Speichern

Speichern -u-> [*]
err -d-> [*]
@enduml

PlantUML version 1.2022.1beta9(Unknown compile time)
(GPL source distribution)
Java Runtime: Java(TM) SE Runtime Environment
JVM: Java HotSpot(TM) 64-Bit Server VM
Default Encoding: UTF-8
Language: en
Country: US
--></g></svg>