<?xml version="1.0" encoding="UTF-8" standalone="no"?><svg xmlns="http://www.w3.org/2000/svg" xmlns:xlink="http://www.w3.org/1999/xlink" contentScriptType="application/ecmascript" contentStyleType="text/css" height="1565px" preserveAspectRatio="none" style="width:1039px;height:1565px;background:#FFFFFF;" version="1.1" viewBox="0 0 1039 1565" width="1039px" zoomAndPan="magnify"><defs><filter height="300%" id="f4yom8mjpvhne" width="300%" x="-1" y="-1"><feGaussianBlur result="blurOut" stdDeviation="2.0"/><feColorMatrix in="blurOut" result="blurOut2" type="matrix" values="0 0 0 0 0 0 0 0 0 0 0 0 0 0 0 0 0 0 .4 0"/><feOffset dx="4.0" dy="4.0" in="blurOut2" result="blurOut3"/><feBlend in="SourceGraphic" in2="blurOut3" mode="normal"/></filter></defs><g><text fill="#000000" font-family="sans-serif" font-size="18" lengthAdjust="spacing" textLength="294" x="366.25" y="16.708">Zustandsdiagramm CodeCharts</text><!--MD5=[726bf5ae9c58ccf600049f91f38a1f22]
cluster t--><rect fill="#FEFECE" filter="url(#f4yom8mjpvhne)" height="242" rx="12.5" ry="12.5" style="stroke:#A80036;stroke-width:1.5;" width="273" x="20" y="85.9531"/><rect fill="#FFFFFF" height="209.7031" rx="12.5" ry="12.5" style="stroke:#FFFFFF;stroke-width:1.0;" width="267" x="23" y="115.25"/><line style="stroke:#A80036;stroke-width:1.5;" x1="20" x2="293" y1="112.25" y2="112.25"/><text fill="#000000" font-family="sans-serif" font-size="14" lengthAdjust="spacing" textLength="55" x="129" y="103.9482">Tutorial</text><!--MD5=[22b2c9f3a262b015613f9858f220a5ed]
cluster p--><rect fill="#FEFECE" filter="url(#f4yom8mjpvhne)" height="226" rx="12.5" ry="12.5" style="stroke:#A80036;stroke-width:1.5;" width="223" x="293" y="350.9531"/><rect fill="#FFFFFF" height="193.7031" rx="12.5" ry="12.5" style="stroke:#FFFFFF;stroke-width:1.0;" width="217" x="296" y="380.25"/><line style="stroke:#A80036;stroke-width:1.5;" x1="293" x2="516" y1="377.25" y2="377.25"/><text fill="#000000" font-family="sans-serif" font-size="14" lengthAdjust="spacing" textLength="56" x="376.5" y="368.9482">PreTest</text><!--MD5=[57cfc2015c9d3964671bcbff5cacbb7f]
cluster s--><rect fill="#FEFECE" filter="url(#f4yom8mjpvhne)" height="333" rx="12.5" ry="12.5" style="stroke:#A80036;stroke-width:1.5;" width="492" x="312" y="607.9531"/><rect fill="#FFFFFF" height="300.7031" rx="12.5" ry="12.5" style="stroke:#FFFFFF;stroke-width:1.0;" width="486" x="315" y="637.25"/><line style="stroke:#A80036;stroke-width:1.5;" x1="312" x2="804" y1="634.25" y2="634.25"/><text fill="#000000" font-family="sans-serif" font-size="14" lengthAdjust="spacing" textLength="43" x="536.5" y="625.9482">Setup</text><!--MD5=[79ba9fe6bd8680a6494d18e09b39dfb5]
cluster v--><rect fill="#FEFECE" filter="url(#f4yom8mjpvhne)" height="536" rx="12.5" ry="12.5" style="stroke:#A80036;stroke-width:1.5;" width="337" x="451" y="989.9531"/><rect fill="#FFFFFF" height="503.7031" rx="12.5" ry="12.5" style="stroke:#FFFFFF;stroke-width:1.0;" width="331" x="454" y="1019.25"/><line style="stroke:#A80036;stroke-width:1.5;" x1="451" x2="788" y1="1016.25" y2="1016.25"/><text fill="#000000" font-family="sans-serif" font-size="14" lengthAdjust="spacing" textLength="57" x="591" y="1007.9482">Versuch</text><text fill="#000000" font-family="sans-serif" font-size="14" lengthAdjust="spacing" textLength="0" x="22" y="131.6514"/><ellipse cx="20" cy="152.9531" fill="#FEFECE" rx="6" ry="6" style="stroke:#A80036;stroke-width:1.5;"/><text fill="#000000" font-family="sans-serif" font-size="14" lengthAdjust="spacing" textLength="0" x="295" y="305.9482"/><ellipse cx="293" cy="286.9531" fill="#FEFECE" rx="6" ry="6" style="stroke:#A80036;stroke-width:1.5;"/><line style="stroke:#A80036;stroke-width:1.5;" x1="297.3891" x2="289.6109" y1="291.3422" y2="283.564"/><line style="stroke:#A80036;stroke-width:1.5;" x1="297.3891" x2="289.6109" y1="283.564" y2="291.3422"/><g id="t.ac"><rect fill="#FEFECE" filter="url(#f4yom8mjpvhne)" height="64.2344" rx="12.5" ry="12.5" style="stroke:#A80036;stroke-width:1.5;" width="210" x="61" y="120.9531"/><line style="stroke:#A80036;stroke-width:1.5;" x1="61" x2="271" y1="147.25" y2="147.25"/><text fill="#000000" font-family="sans-serif" font-size="14" lengthAdjust="spacing" textLength="139" x="96.5" y="138.9482">Abfrage von Config</text><text fill="#000000" font-family="sans-serif" font-size="12" lengthAdjust="spacing" textLength="68" x="66" y="163.3887">getConfig()</text><text fill="#000000" font-family="sans-serif" font-size="12" lengthAdjust="spacing" textLength="190" x="66" y="177.3574">Soll Tutorial angezeigt werden?</text></g><g id="t.ta"><rect fill="#FEFECE" filter="url(#f4yom8mjpvhne)" height="50" rx="12.5" ry="12.5" style="stroke:#A80036;stroke-width:1.5;" width="144" x="104" y="261.9531"/><line style="stroke:#A80036;stroke-width:1.5;" x1="104" x2="248" y1="288.25" y2="288.25"/><text fill="#000000" font-family="sans-serif" font-size="14" lengthAdjust="spacing" textLength="124" x="114" y="279.9482">Tutorial anzeigen</text></g><text fill="#000000" font-family="sans-serif" font-size="14" lengthAdjust="spacing" textLength="0" x="295" y="396.6514"/><ellipse cx="293" cy="417.9531" fill="#FEFECE" rx="6" ry="6" style="stroke:#A80036;stroke-width:1.5;"/><text fill="#000000" font-family="sans-serif" font-size="14" lengthAdjust="spacing" textLength="0" x="314" y="554.9482"/><ellipse cx="312" cy="535.9531" fill="#FEFECE" rx="6" ry="6" style="stroke:#A80036;stroke-width:1.5;"/><line style="stroke:#A80036;stroke-width:1.5;" x1="316.3891" x2="308.6109" y1="540.3422" y2="532.564"/><line style="stroke:#A80036;stroke-width:1.5;" x1="316.3891" x2="308.6109" y1="532.564" y2="540.3422"/><g id="p.it"><rect fill="#FEFECE" filter="url(#f4yom8mjpvhne)" height="64.2344" rx="12.5" ry="12.5" style="stroke:#A80036;stroke-width:1.5;" width="165" x="334.5" y="385.9531"/><line style="stroke:#A80036;stroke-width:1.5;" x1="334.5" x2="499.5" y1="412.25" y2="412.25"/><text fill="#000000" font-family="sans-serif" font-size="14" lengthAdjust="spacing" textLength="134" x="350" y="403.9482">Abfrage Intro Text</text><text fill="#000000" font-family="sans-serif" font-size="12" lengthAdjust="spacing" textLength="99" x="339.5" y="428.3887">getConfigState()</text><text fill="#000000" font-family="sans-serif" font-size="12" lengthAdjust="spacing" textLength="145" x="339.5" y="442.3574">Was ist der Intro Inhalt ?</text></g><g id="p.ia"><rect fill="#FEFECE" filter="url(#f4yom8mjpvhne)" height="50" rx="12.5" ry="12.5" style="stroke:#A80036;stroke-width:1.5;" width="124" x="353" y="510.9531"/><line style="stroke:#A80036;stroke-width:1.5;" x1="353" x2="477" y1="537.25" y2="537.25"/><text fill="#000000" font-family="sans-serif" font-size="14" lengthAdjust="spacing" textLength="104" x="363" y="528.9482">Intro anzeigen</text></g><text fill="#000000" font-family="sans-serif" font-size="14" lengthAdjust="spacing" textLength="0" x="314" y="668.6514"/><ellipse cx="312" cy="689.9531" fill="#FEFECE" rx="6" ry="6" style="stroke:#A80036;stroke-width:1.5;"/><text fill="#000000" font-family="sans-serif" font-size="14" lengthAdjust="spacing" textLength="0" x="453" y="959.9482"/><ellipse cx="451" cy="940.9531" fill="#FEFECE" rx="6" ry="6" style="stroke:#A80036;stroke-width:1.5;"/><line style="stroke:#A80036;stroke-width:1.5;" x1="455.3891" x2="447.6109" y1="945.3422" y2="937.564"/><line style="stroke:#A80036;stroke-width:1.5;" x1="455.3891" x2="447.6109" y1="937.564" y2="945.3422"/><g id="s.ka"><rect fill="#FEFECE" filter="url(#f4yom8mjpvhne)" height="78.2031" rx="12.5" ry="12.5" style="stroke:#A80036;stroke-width:1.5;" width="400" x="353" y="650.9531"/><line style="stroke:#A80036;stroke-width:1.5;" x1="353" x2="753" y1="677.25" y2="677.25"/><text fill="#000000" font-family="sans-serif" font-size="14" lengthAdjust="spacing" textLength="167" x="469.5" y="668.9482">Konfiguration abfragen</text><text fill="#000000" font-family="sans-serif" font-size="12" lengthAdjust="spacing" textLength="54" x="358" y="693.3887">imageUrl</text><text fill="#000000" font-family="sans-serif" font-size="12" lengthAdjust="spacing" textLength="380" x="358" y="707.3574">strings, initialSize, timings, showGrid, relativeSize, randomized</text><text fill="#000000" font-family="sans-serif" font-size="12" lengthAdjust="spacing" textLength="266" x="358" y="721.3262">iterations, maxDepth, default Unterteilungen</text></g><g id="s.vb"><rect fill="#FEFECE" filter="url(#f4yom8mjpvhne)" height="50.2656" rx="12.5" ry="12.5" style="stroke:#A80036;stroke-width:1.5;" width="147" x="346.5" y="812.9531"/><line style="stroke:#A80036;stroke-width:1.5;" x1="346.5" x2="493.5" y1="839.25" y2="839.25"/><text fill="#000000" font-family="sans-serif" font-size="14" lengthAdjust="spacing" textLength="127" x="356.5" y="830.9482">Vorbereitung Bild</text><text fill="#000000" font-family="sans-serif" font-size="12" lengthAdjust="spacing" textLength="76" x="351.5" y="855.3887">instanziieren</text></g><g id="s.vr"><rect fill="#FEFECE" filter="url(#f4yom8mjpvhne)" height="64.2344" rx="12.5" ry="12.5" style="stroke:#A80036;stroke-width:1.5;" width="243" x="528.5" y="805.9531"/><line style="stroke:#A80036;stroke-width:1.5;" x1="528.5" x2="771.5" y1="832.25" y2="832.25"/><text fill="#000000" font-family="sans-serif" font-size="14" lengthAdjust="spacing" textLength="147" x="576.5" y="823.9482">Vorbereitung Raster</text><text fill="#000000" font-family="sans-serif" font-size="12" lengthAdjust="spacing" textLength="198" x="533.5" y="848.3887">Größe vom Bild abhängig setzen</text><text fill="#000000" font-family="sans-serif" font-size="12" lengthAdjust="spacing" textLength="223" x="533.5" y="862.3574">initiale Rasterunterteilung vornehmen</text></g><text fill="#000000" font-family="sans-serif" font-size="14" lengthAdjust="spacing" textLength="0" x="453" y="1028.6514"/><ellipse cx="451" cy="1049.9531" fill="#FEFECE" rx="6" ry="6" style="stroke:#A80036;stroke-width:1.5;"/><text fill="#000000" font-family="sans-serif" font-size="14" lengthAdjust="spacing" textLength="0" x="714" y="1544.9482"/><ellipse cx="712" cy="1525.9531" fill="#FEFECE" rx="6" ry="6" style="stroke:#A80036;stroke-width:1.5;"/><line style="stroke:#A80036;stroke-width:1.5;" x1="716.3891" x2="708.6109" y1="1530.3422" y2="1522.564"/><line style="stroke:#A80036;stroke-width:1.5;" x1="716.3891" x2="708.6109" y1="1522.564" y2="1530.3422"/><g id="v.ba"><rect fill="#FEFECE" filter="url(#f4yom8mjpvhne)" height="50.2656" rx="12.5" ry="12.5" style="stroke:#A80036;stroke-width:1.5;" width="195" x="492.5" y="1024.9531"/><line style="stroke:#A80036;stroke-width:1.5;" x1="492.5" x2="687.5" y1="1051.25" y2="1051.25"/><text fill="#000000" font-family="sans-serif" font-size="14" lengthAdjust="spacing" textLength="96" x="542" y="1042.9482">Bild anzeigen</text><text fill="#000000" font-family="sans-serif" font-size="12" lengthAdjust="spacing" textLength="175" x="497.5" y="1067.3887">für in Config eingestellte Zeit</text></g><g id="v.ra"><rect fill="#FEFECE" filter="url(#f4yom8mjpvhne)" height="50.2656" rx="12.5" ry="12.5" style="stroke:#A80036;stroke-width:1.5;" width="195" x="473.5" y="1135.9531"/><line style="stroke:#A80036;stroke-width:1.5;" x1="473.5" x2="668.5" y1="1162.25" y2="1162.25"/><text fill="#000000" font-family="sans-serif" font-size="14" lengthAdjust="spacing" textLength="116" x="513" y="1153.9482">Raster anzeigen</text><text fill="#000000" font-family="sans-serif" font-size="12" lengthAdjust="spacing" textLength="175" x="478.5" y="1178.3887">für in Config eingestellte Zeit</text></g><g id="v.bi"><rect fill="#FEFECE" filter="url(#f4yom8mjpvhne)" height="50" rx="12.5" ry="12.5" style="stroke:#A80036;stroke-width:1.5;" width="261" x="473.5" y="1262.9531"/><line style="stroke:#A80036;stroke-width:1.5;" x1="473.5" x2="734.5" y1="1289.25" y2="1289.25"/><text fill="#000000" font-family="sans-serif" font-size="14" lengthAdjust="spacing" textLength="241" x="483.5" y="1280.9482">Benutzer Input entgegennehmen</text></g><g id="v.ae"><rect fill="#FEFECE" filter="url(#f4yom8mjpvhne)" height="50.2656" rx="12.5" ry="12.5" style="stroke:#A80036;stroke-width:1.5;" width="201" x="569.5" y="1373.9531"/><line style="stroke:#A80036;stroke-width:1.5;" x1="569.5" x2="770.5" y1="1400.25" y2="1400.25"/><text fill="#000000" font-family="sans-serif" font-size="14" lengthAdjust="spacing" textLength="181" x="579.5" y="1391.9482">Abspeichern der Eingabe</text><text fill="#000000" font-family="sans-serif" font-size="12" lengthAdjust="spacing" textLength="52" x="574.5" y="1416.3887">TrialData</text></g><g id="err"><rect fill="#FEFECE" filter="url(#f4yom8mjpvhne)" height="50.2656" rx="12.5" ry="12.5" style="stroke:#A80036;stroke-width:1.5;" width="181" x="820.5" y="812.9531"/><line style="stroke:#A80036;stroke-width:1.5;" x1="820.5" x2="1001.5" y1="839.25" y2="839.25"/><text fill="#000000" font-family="sans-serif" font-size="14" lengthAdjust="spacing" textLength="45" x="888.5" y="830.9482">Fehler</text><text fill="#000000" font-family="sans-serif" font-size="12" lengthAdjust="spacing" textLength="161" x="825.5" y="855.3887">informative Fehlermeldung</text></g><g id="Speichern"><rect fill="#FEFECE" filter="url(#f4yom8mjpvhne)" height="50.2656" rx="12.5" ry="12.5" style="stroke:#A80036;stroke-width:1.5;" width="229" x="796.5" y="1500.9531"/><line style="stroke:#A80036;stroke-width:1.5;" x1="796.5" x2="1025.5" y1="1527.25" y2="1527.25"/><text fill="#000000" font-family="sans-serif" font-size="14" lengthAdjust="spacing" textLength="73" x="874.5" y="1518.9482">Speichern</text><text fill="#000000" font-family="sans-serif" font-size="12" lengthAdjust="spacing" textLength="209" x="801.5" y="1543.3887">der Daten in der Datenbank / JSON</text></g><ellipse cx="20" cy="36.9531" fill="#000000" filter="url(#f4yom8mjpvhne)" rx="10" ry="10" style="stroke:none;stroke-width:1.0;"/><ellipse cx="911" cy="940.9531" filter="url(#f4yom8mjpvhne)" rx="10" ry="10" style="stroke:#000000;stroke-width:1.0;fill:none;"/><ellipse cx="911.5" cy="941.4531" fill="#000000" rx="6" ry="6" style="stroke:none;stroke-width:1.0;"/><!--MD5=[a61c082f6f6ee4e456ea32296a7fd8f1]
reverse link ac to tnp--><path d="M55.7875,152.9531 C45.9495,152.9531 36.1115,152.9531 26.2734,152.9531 " fill="none" id="ac-backto-tnp" style="stroke:#A80036;stroke-width:1.0;"/><polygon fill="#A80036" points="60.9322,152.9531,51.9322,148.9531,55.9322,152.9531,51.9322,156.9531,60.9322,152.9531" style="stroke:#A80036;stroke-width:1.0;"/><!--MD5=[3f19270b61e07219a5c7c6cf1c9c77be]
link ac to ta--><path d="M163.989,185.1431 C163.48,199.4431 163.451,216.5931 165,231.9531 C165.827,240.1531 167.342,248.9431 168.989,257.0031 " fill="none" id="ac-to-ta" style="stroke:#A80036;stroke-width:1.0;"/><polygon fill="#A80036" points="170.027,261.9231,172.063,252.287,168.9847,257.033,164.2388,253.9547,170.027,261.9231" style="stroke:#A80036;stroke-width:1.0;"/><text fill="#000000" font-family="sans-serif" font-size="13" lengthAdjust="spacing" textLength="12" x="166" y="228.02">Ja</text><!--MD5=[447026dc2e60cf6b4c54c0209a9e1569]
link ac to txp--><path d="M207.885,185.0531 C232.331,204.9031 262.331,232.3831 283,261.9531 C285.974,266.2031 288.294,271.4831 289.948,276.0031 " fill="none" id="ac-to-txp" style="stroke:#A80036;stroke-width:1.0;"/><polygon fill="#A80036" points="291.582,280.8531,292.5192,271.049,289.9953,276.1116,284.9327,273.5877,291.582,280.8531" style="stroke:#A80036;stroke-width:1.0;"/><text fill="#000000" font-family="sans-serif" font-size="13" lengthAdjust="spacing" textLength="28" x="260" y="228.02">Nein</text><!--MD5=[d59850e57f5f4af29ecc2d4c8b6ba28e]
link ta to txp--><path d="M248.211,286.9531 C259.337,286.9531 270.463,286.9531 281.59,286.9531 " fill="none" id="ta-to-txp" style="stroke:#A80036;stroke-width:1.0;"/><polygon fill="#A80036" points="286.702,286.9531,277.702,282.9531,281.702,286.9531,277.702,290.9531,286.702,286.9531" style="stroke:#A80036;stroke-width:1.0;"/><!--MD5=[9f61c41cbd373ee46fb7d2223f1744a9]
reverse link it to pnp--><path d="M329.053,417.9531 C319.134,417.9531 309.216,417.9531 299.297,417.9531 " fill="none" id="it-backto-pnp" style="stroke:#A80036;stroke-width:1.0;"/><polygon fill="#A80036" points="334.24,417.9531,325.24,413.9531,329.24,417.9531,325.24,421.9531,334.24,417.9531" style="stroke:#A80036;stroke-width:1.0;"/><!--MD5=[bcda4bb889f58413a6da785fdfde5006]
link it to ia--><path d="M416.464,450.0431 C416.166,467.3131 415.798,488.6731 415.505,505.6531 " fill="none" id="it-to-ia" style="stroke:#A80036;stroke-width:1.0;"/><polygon fill="#A80036" points="415.417,510.7731,419.5707,501.843,415.5027,505.7739,411.5719,501.7059,415.417,510.7731" style="stroke:#A80036;stroke-width:1.0;"/><!--MD5=[26e2ac85139c797a27c4734c2e73fa42]
link ia to pxp--><path d="M352.882,535.9531 C342.991,535.9531 333.099,535.9531 323.208,535.9531 " fill="none" id="ia-to-pxp" style="stroke:#A80036;stroke-width:1.0;"/><polygon fill="#A80036" points="318.035,535.9531,327.035,539.9531,323.035,535.9531,327.035,531.9531,318.035,535.9531" style="stroke:#A80036;stroke-width:1.0;"/><!--MD5=[630da2a7745013a00f9175d6079ffc9e]
reverse link ka to snp--><path d="M347.809,689.9531 C337.912,689.9531 328.016,689.9531 318.119,689.9531 " fill="none" id="ka-backto-snp" style="stroke:#A80036;stroke-width:1.0;"/><polygon fill="#A80036" points="352.984,689.9531,343.984,685.9531,347.984,689.9531,343.984,693.9531,352.984,689.9531" style="stroke:#A80036;stroke-width:1.0;"/><!--MD5=[4be6b3dfff7856a8e2c6bf554a3bc2a6]
link ka to vb--><path d="M518.056,729.3131 C495.356,754.2311 466.271,786.1601 445.689,808.7531 " fill="none" id="ka-to-vb" style="stroke:#A80036;stroke-width:1.0;"/><polygon fill="#A80036" points="442.205,812.5781,451.2232,808.6192,445.5724,808.8821,445.3095,803.2314,442.205,812.5781" style="stroke:#A80036;stroke-width:1.0;"/><!--MD5=[9dfcffb1c80ec3d61f2a6a307dd25248]
link ka to vr--><path d="M578.486,729.3131 C593.325,751.6491 611.907,779.6181 626.41,801.4471 " fill="none" id="ka-to-vr" style="stroke:#A80036;stroke-width:1.0;"/><polygon fill="#A80036" points="629.254,805.7281,627.6045,796.0184,626.4868,801.5637,620.9414,800.446,629.254,805.7281" style="stroke:#A80036;stroke-width:1.0;"/><!--MD5=[7db026ba0316a7ea12dce3ba9e297fcb]
link vr to sxp--><path d="M588.67,870.0801 C542.379,893.5751 483.097,923.6631 460.407,935.1791 " fill="none" id="vr-to-sxp" style="stroke:#A80036;stroke-width:1.0;"/><polygon fill="#A80036" points="455.908,937.4621,465.7438,936.9558,460.3666,935.1992,462.1232,929.822,455.908,937.4621" style="stroke:#A80036;stroke-width:1.0;"/><!--MD5=[fc36a7e0f55729ec01ae1431d5266645]
link vb to sxp--><path d="M427.425,863.1451 C433.998,884.5591 443.258,914.7301 447.978,930.1071 " fill="none" id="vb-to-sxp" style="stroke:#A80036;stroke-width:1.0;"/><polygon fill="#A80036" points="449.498,935.0591,450.6811,925.2816,448.0309,930.2792,443.0333,927.629,449.498,935.0591" style="stroke:#A80036;stroke-width:1.0;"/><!--MD5=[ef30d483e4a1810673d67f4c0adad042]
reverse link ba to vnp--><path d="M487.052,1049.9531 C477.116,1049.9531 467.18,1049.9531 457.244,1049.9531 " fill="none" id="ba-backto-vnp" style="stroke:#A80036;stroke-width:1.0;"/><polygon fill="#A80036" points="492.248,1049.9531,483.248,1045.9531,487.248,1049.9531,483.248,1053.9531,492.248,1049.9531" style="stroke:#A80036;stroke-width:1.0;"/><!--MD5=[a0780441f2bf221f76b36d0510597959]
link ba to ra--><path d="M585.783,1075.1441 C582.93,1091.5131 579.144,1113.2321 576.118,1130.5931 " fill="none" id="ba-to-ra" style="stroke:#A80036;stroke-width:1.0;"/><polygon fill="#A80036" points="575.205,1135.8301,580.691,1127.6507,576.0636,1130.9044,572.8098,1126.2769,575.205,1135.8301" style="stroke:#A80036;stroke-width:1.0;"/><!--MD5=[01b2c4f497b6da43dfcbb677566b361f]
link ra to bi--><path d="M577.363,1186.0541 C582.773,1206.5461 590.556,1236.0291 596.313,1257.8371 " fill="none" id="ra-to-bi" style="stroke:#A80036;stroke-width:1.0;"/><polygon fill="#A80036" points="597.657,1262.9261,599.2282,1253.2034,596.3812,1258.0916,591.493,1255.2446,597.657,1262.9261" style="stroke:#A80036;stroke-width:1.0;"/><!--MD5=[14597771e049c5e8da4a566a4003cc82]
link bi to ae--><path d="M618.648,1313.1441 C628.73,1329.7961 642.165,1351.9831 652.764,1369.4871 " fill="none" id="bi-to-ae" style="stroke:#A80036;stroke-width:1.0;"/><polygon fill="#A80036" points="655.393,1373.8301,654.1528,1364.0597,652.8031,1369.5532,647.3096,1368.2035,655.393,1373.8301" style="stroke:#A80036;stroke-width:1.0;"/><!--MD5=[4163edc57899249caf81f1a4fbc6ba27]
link ae to ba--><path d="M703.631,1373.7061 C721.674,1358.5401 742.174,1337.2901 752,1312.9531 C760.319,1292.3471 757.274,1284.5401 752,1262.9531 C736.902,1201.1591 725.136,1186.1011 686,1135.9531 C669.193,1114.4171 646.439,1093.9961 627.302,1078.5691 " fill="none" id="ae-to-ba" style="stroke:#A80036;stroke-width:1.0;"/><polygon fill="#A80036" points="623.026,1075.1571,627.5628,1083.8988,626.9331,1078.2771,632.5548,1077.6474,623.026,1075.1571" style="stroke:#A80036;stroke-width:1.0;"/><text fill="#000000" font-family="sans-serif" font-size="13" lengthAdjust="spacing" textLength="122" x="745" y="1229.02">weitere Durchläufe</text><!--MD5=[eb171cbf3ff3ed9baff432d1cb96ac47]
link ae to vxp--><path d="M678.098,1424.0541 C687.424,1451.8091 702.291,1496.0586 708.787,1515.391 " fill="none" id="ae-to-vxp" style="stroke:#A80036;stroke-width:1.0;"/><polygon fill="#A80036" points="710.386,1520.1486,711.3113,1510.3433,708.7936,1515.409,703.7279,1512.8912,710.386,1520.1486" style="stroke:#A80036;stroke-width:1.0;"/><text fill="#000000" font-family="sans-serif" font-size="13" lengthAdjust="spacing" textLength="108" x="695" y="1467.02">Durchläufe fertig</text><!--MD5=[810aaa9c9373a6a4cd23eb0b6b60d214]
link s to err--><path d="M804.1865,710.1667 C804.3054,710.3077 804.4247,710.4494 804.5446,710.5917 C804.7843,710.8762 805.0261,711.1632 805.2698,711.4525 C807.2194,713.7666 809.2949,716.2303 811.4754,718.8185 C815.8364,723.995 820.6173,729.6698 825.6503,735.6439 C845.7823,759.5404 869.949,788.2261 887.42,808.9641 " fill="none" id="s-to-err" style="stroke:#A80036;stroke-width:1.0;"/><polygon fill="#A80036" points="890.715,812.8751,887.976,803.4148,887.4937,809.0511,881.8575,808.5688,890.715,812.8751" style="stroke:#A80036;stroke-width:1.0;"/><text fill="#000000" font-family="sans-serif" font-size="13" lengthAdjust="spacing" textLength="116" x="857" y="772.02">Fehler beim Setup</text><!--MD5=[85c6c7a1058dfd0182dadb91f24e8307]
link *start to tnp--><path d="M20,47.2831 C20,68.3731 20,119.5831 20,141.6031 " fill="none" id="*start-to-tnp" style="stroke:#A80036;stroke-width:1.0;"/><polygon fill="#A80036" points="20,146.7631,24,137.7631,20,141.7631,16,137.7631,20,146.7631" style="stroke:#A80036;stroke-width:1.0;"/><!--MD5=[260cfbe5ac01114fa9c3544abce7be05]
link txp to pnp--><path d="M293,293.1731 C293,312.5431 293,380.5531 293,406.6531 " fill="none" id="txp-to-pnp" style="stroke:#A80036;stroke-width:1.0;"/><polygon fill="#A80036" points="293,411.8131,297,402.8131,293,406.8131,289,402.8131,293,411.8131" style="stroke:#A80036;stroke-width:1.0;"/><!--MD5=[d29433beae00b87af9700a7206a0e8cf]
link pxp to snp--><path d="M312,542.0131 C312,563.6461 312,648.6651 312,678.5201 " fill="none" id="pxp-to-snp" style="stroke:#A80036;stroke-width:1.0;"/><polygon fill="#A80036" points="312,683.7211,316,674.7211,312,678.7211,308,674.7211,312,683.7211" style="stroke:#A80036;stroke-width:1.0;"/><!--MD5=[10256c57c7ff6fbc21f13c345aa9106e]
link sxp to vnp--><path d="M451,947.1141 C451,963.7391 451,1016.1161 451,1038.5681 " fill="none" id="sxp-to-vnp" style="stroke:#A80036;stroke-width:1.0;"/><polygon fill="#A80036" points="451,1043.5921,455,1034.5921,451,1038.5921,447,1034.5921,451,1043.5921" style="stroke:#A80036;stroke-width:1.0;"/><!--MD5=[57f817002b2c3f77091533b8381db39e]
link vxp to Speichern--><path d="M718.219,1525.9531 C742.474,1525.9531 766.729,1525.9531 790.984,1525.9531 " fill="none" id="vxp-to-Speichern" style="stroke:#A80036;stroke-width:1.0;"/><polygon fill="#A80036" points="796.16,1525.9531,787.16,1521.9531,791.16,1525.9531,787.16,1529.9531,796.16,1525.9531" style="stroke:#A80036;stroke-width:1.0;"/><!--MD5=[569fcbeb2cc9c9798d00ec88a7200871]
reverse link *end to Speichern--><path d="M911,956.1441 C911,976.6351 911,1015.7011 911,1048.9531 C911,1048.9531 911,1048.9531 911,1399.9531 C911,1434.8921 911,1475.3249 911,1500.522 " fill="none" id="*end-backto-Speichern" style="stroke:#A80036;stroke-width:1.0;"/><polygon fill="#A80036" points="911,951.1131,907,960.1131,911,956.1131,915,960.1131,911,951.1131" style="stroke:#A80036;stroke-width:1.0;"/><!--MD5=[dfb6e7c2f8b207f8e3f74365dbae73bc]
link err to *end--><path d="M911,863.1451 C911,882.6501 911,909.4191 911,925.6571 " fill="none" id="err-to-*end" style="stroke:#A80036;stroke-width:1.0;"/><polygon fill="#A80036" points="911,930.7351,915,921.7351,911,925.7351,907,921.7351,911,930.7351" style="stroke:#A80036;stroke-width:1.0;"/><!--MD5=[6912512c29a6de0e7187b51e4d2faef7]
@startuml
title Zustandsdiagramm CodeCharts
state "Fehler" as err : informative Fehlermeldung
state Speichern : der Daten in der Datenbank / JSON

state "Tutorial" as t {
    state " " as tnp <<entryPoint>>
    state " " as txp <<exitPoint>>
    state "Abfrage von Config" as ac : getConfig()\nSoll Tutorial angezeigt werden?
    state "Tutorial anzeigen" as ta
    tnp -l-> ac
    ac - -> ta : Ja
    ac - -> txp : Nein
    ta -r-> txp
}

state "PreTest" as p {
    state " " as pnp <<entryPoint>>
    state " " as pxp <<exitPoint>>
    state "Abfrage Intro Text" as it : getConfigState()\nWas ist der Intro Inhalt ?
    state "Intro anzeigen" as ia
    pnp -l-> it
    it - -> ia
    ia -r-> pxp
}

state "Setup" as s {
    state " " as snp <<entryPoint>>
    state " " as sxp <<exitPoint>>
    state "Konfiguration abfragen" as ka : imageUrl
    ka : strings, initialSize, timings, showGrid, relativeSize, randomized
    ka: iterations, maxDepth, default Unterteilungen
    state "Vorbereitung Bild" as vb : instanziieren
    state "Vorbereitung Raster" as vr : Größe vom Bild abhängig setzen
    vr : initiale Rasterunterteilung vornehmen
    snp -l-> ka
    ka - -> vb
    ka - -> vr
    vr -d-> sxp
    vb -d-> sxp
}


state "Versuch" as v {
    state " " as vnp <<entryPoint>>
    state " " as vxp <<exitPoint>>
    state "Bild anzeigen" as ba : für in Config eingestellte Zeit
    state "Raster anzeigen" as ra : für in Config eingestellte Zeit
    state "Benutzer Input entgegennehmen" as bi
    state "Abspeichern der Eingabe" as ae : TrialData
    vnp -l-> ba
    ba - -> ra
    ra - -> bi
    bi - -> ae
    ae - -> ba : weitere Durchläufe
    ae - -> vxp : Durchläufe fertig
}

s - -> err : Fehler beim Setup
[*] - -> tnp

txp - -> pnp
pxp - -> snp
sxp - -> vnp
vxp -r-> Speichern

Speichern -u-> [*]
err -d-> [*]
@enduml

PlantUML version 1.2022.1beta9(Unknown compile time)
(GPL source distribution)
Java Runtime: Java(TM) SE Runtime Environment
JVM: Java HotSpot(TM) 64-Bit Server VM
Default Encoding: UTF-8
Language: en
Country: US
--></g></svg>