<?xml version="1.0" encoding="UTF-8" standalone="no"?><svg xmlns="http://www.w3.org/2000/svg" xmlns:xlink="http://www.w3.org/1999/xlink" contentScriptType="application/ecmascript" contentStyleType="text/css" height="1417px" preserveAspectRatio="none" style="width:1054px;height:1417px;background:#FFFFFF;" version="1.1" viewBox="0 0 1054 1417" width="1054px" zoomAndPan="magnify"><defs><filter height="300%" id="f19bu3ii85du12" width="300%" x="-1" y="-1"><feGaussianBlur result="blurOut" stdDeviation="2.0"/><feColorMatrix in="blurOut" result="blurOut2" type="matrix" values="0 0 0 0 0 0 0 0 0 0 0 0 0 0 0 0 0 0 .4 0"/><feOffset dx="4.0" dy="4.0" in="blurOut2" result="blurOut3"/><feBlend in="SourceGraphic" in2="blurOut3" mode="normal"/></filter></defs><g><!--MD5=[726bf5ae9c58ccf600049f91f38a1f22]
cluster t--><rect fill="#FEFECE" filter="url(#f19bu3ii85du12)" height="242" rx="12.5" ry="12.5" style="stroke:#A80036;stroke-width:1.5;" width="273" x="20" y="65"/><rect fill="#FFFFFF" height="209.7031" rx="12.5" ry="12.5" style="stroke:#FFFFFF;stroke-width:1.0;" width="267" x="23" y="94.2969"/><line style="stroke:#A80036;stroke-width:1.5;" x1="20" x2="293" y1="91.2969" y2="91.2969"/><text fill="#000000" font-family="sans-serif" font-size="14" lengthAdjust="spacing" textLength="55" x="129" y="82.9951">Tutorial</text><!--MD5=[22b2c9f3a262b015613f9858f220a5ed]
cluster p--><rect fill="#FEFECE" filter="url(#f19bu3ii85du12)" height="226" rx="12.5" ry="12.5" style="stroke:#A80036;stroke-width:1.5;" width="223" x="293" y="330"/><rect fill="#FFFFFF" height="193.7031" rx="12.5" ry="12.5" style="stroke:#FFFFFF;stroke-width:1.0;" width="217" x="296" y="359.2969"/><line style="stroke:#A80036;stroke-width:1.5;" x1="293" x2="516" y1="356.2969" y2="356.2969"/><text fill="#000000" font-family="sans-serif" font-size="14" lengthAdjust="spacing" textLength="56" x="376.5" y="347.9951">PreTest</text><!--MD5=[57cfc2015c9d3964671bcbff5cacbb7f]
cluster s--><rect fill="#FEFECE" filter="url(#f19bu3ii85du12)" height="333" rx="12.5" ry="12.5" style="stroke:#A80036;stroke-width:1.5;" width="492" x="312" y="587"/><rect fill="#FFFFFF" height="300.7031" rx="12.5" ry="12.5" style="stroke:#FFFFFF;stroke-width:1.0;" width="486" x="315" y="616.2969"/><line style="stroke:#A80036;stroke-width:1.5;" x1="312" x2="804" y1="613.2969" y2="613.2969"/><text fill="#000000" font-family="sans-serif" font-size="14" lengthAdjust="spacing" textLength="43" x="536.5" y="604.9951">Setup</text><!--MD5=[79ba9fe6bd8680a6494d18e09b39dfb5]
cluster v--><rect fill="#FEFECE" filter="url(#f19bu3ii85du12)" height="409" rx="12.5" ry="12.5" style="stroke:#A80036;stroke-width:1.5;" width="428" x="417" y="969"/><rect fill="#FFFFFF" height="376.7031" rx="12.5" ry="12.5" style="stroke:#FFFFFF;stroke-width:1.0;" width="422" x="420" y="998.2969"/><line style="stroke:#A80036;stroke-width:1.5;" x1="417" x2="845" y1="995.2969" y2="995.2969"/><text fill="#000000" font-family="sans-serif" font-size="14" lengthAdjust="spacing" textLength="57" x="602.5" y="986.9951">Versuch</text><text fill="#000000" font-family="sans-serif" font-size="14" lengthAdjust="spacing" textLength="0" x="22" y="110.6982"/><ellipse cx="20" cy="132" fill="#FEFECE" rx="6" ry="6" style="stroke:#A80036;stroke-width:1.5;"/><text fill="#000000" font-family="sans-serif" font-size="14" lengthAdjust="spacing" textLength="0" x="295" y="284.9951"/><ellipse cx="293" cy="266" fill="#FEFECE" rx="6" ry="6" style="stroke:#A80036;stroke-width:1.5;"/><line style="stroke:#A80036;stroke-width:1.5;" x1="297.3891" x2="289.6109" y1="270.3891" y2="262.6109"/><line style="stroke:#A80036;stroke-width:1.5;" x1="297.3891" x2="289.6109" y1="262.6109" y2="270.3891"/><g id="t.ac"><rect fill="#FEFECE" filter="url(#f19bu3ii85du12)" height="64.2344" rx="12.5" ry="12.5" style="stroke:#A80036;stroke-width:1.5;" width="210" x="61" y="100"/><line style="stroke:#A80036;stroke-width:1.5;" x1="61" x2="271" y1="126.2969" y2="126.2969"/><text fill="#000000" font-family="sans-serif" font-size="14" lengthAdjust="spacing" textLength="139" x="96.5" y="117.9951">Abfrage von Config</text><text fill="#000000" font-family="sans-serif" font-size="12" lengthAdjust="spacing" textLength="68" x="66" y="142.4355">getConfig()</text><text fill="#000000" font-family="sans-serif" font-size="12" lengthAdjust="spacing" textLength="190" x="66" y="156.4043">Soll Tutorial angezeigt werden?</text></g><g id="t.ta"><rect fill="#FEFECE" filter="url(#f19bu3ii85du12)" height="50" rx="12.5" ry="12.5" style="stroke:#A80036;stroke-width:1.5;" width="144" x="104" y="241"/><line style="stroke:#A80036;stroke-width:1.5;" x1="104" x2="248" y1="267.2969" y2="267.2969"/><text fill="#000000" font-family="sans-serif" font-size="14" lengthAdjust="spacing" textLength="124" x="114" y="258.9951">Tutorial anzeigen</text></g><text fill="#000000" font-family="sans-serif" font-size="14" lengthAdjust="spacing" textLength="0" x="295" y="375.6982"/><ellipse cx="293" cy="397" fill="#FEFECE" rx="6" ry="6" style="stroke:#A80036;stroke-width:1.5;"/><text fill="#000000" font-family="sans-serif" font-size="14" lengthAdjust="spacing" textLength="0" x="314" y="533.9951"/><ellipse cx="312" cy="515" fill="#FEFECE" rx="6" ry="6" style="stroke:#A80036;stroke-width:1.5;"/><line style="stroke:#A80036;stroke-width:1.5;" x1="316.3891" x2="308.6109" y1="519.3891" y2="511.6109"/><line style="stroke:#A80036;stroke-width:1.5;" x1="316.3891" x2="308.6109" y1="511.6109" y2="519.3891"/><g id="p.it"><rect fill="#FEFECE" filter="url(#f19bu3ii85du12)" height="64.2344" rx="12.5" ry="12.5" style="stroke:#A80036;stroke-width:1.5;" width="165" x="334.5" y="365"/><line style="stroke:#A80036;stroke-width:1.5;" x1="334.5" x2="499.5" y1="391.2969" y2="391.2969"/><text fill="#000000" font-family="sans-serif" font-size="14" lengthAdjust="spacing" textLength="134" x="350" y="382.9951">Abfrage Intro Text</text><text fill="#000000" font-family="sans-serif" font-size="12" lengthAdjust="spacing" textLength="99" x="339.5" y="407.4355">getConfigState()</text><text fill="#000000" font-family="sans-serif" font-size="12" lengthAdjust="spacing" textLength="145" x="339.5" y="421.4043">Was ist der Intro Inhalt ?</text></g><g id="p.ia"><rect fill="#FEFECE" filter="url(#f19bu3ii85du12)" height="50" rx="12.5" ry="12.5" style="stroke:#A80036;stroke-width:1.5;" width="124" x="353" y="490"/><line style="stroke:#A80036;stroke-width:1.5;" x1="353" x2="477" y1="516.2969" y2="516.2969"/><text fill="#000000" font-family="sans-serif" font-size="14" lengthAdjust="spacing" textLength="104" x="363" y="507.9951">Intro anzeigen</text></g><text fill="#000000" font-family="sans-serif" font-size="14" lengthAdjust="spacing" textLength="0" x="314" y="647.6982"/><ellipse cx="312" cy="669" fill="#FEFECE" rx="6" ry="6" style="stroke:#A80036;stroke-width:1.5;"/><text fill="#000000" font-family="sans-serif" font-size="14" lengthAdjust="spacing" textLength="0" x="422" y="938.9951"/><ellipse cx="420" cy="920" fill="#FEFECE" rx="6" ry="6" style="stroke:#A80036;stroke-width:1.5;"/><line style="stroke:#A80036;stroke-width:1.5;" x1="424.3891" x2="416.6109" y1="924.3891" y2="916.6109"/><line style="stroke:#A80036;stroke-width:1.5;" x1="424.3891" x2="416.6109" y1="916.6109" y2="924.3891"/><g id="s.ka"><rect fill="#FEFECE" filter="url(#f19bu3ii85du12)" height="78.2031" rx="12.5" ry="12.5" style="stroke:#A80036;stroke-width:1.5;" width="400" x="353" y="630"/><line style="stroke:#A80036;stroke-width:1.5;" x1="353" x2="753" y1="656.2969" y2="656.2969"/><text fill="#000000" font-family="sans-serif" font-size="14" lengthAdjust="spacing" textLength="167" x="469.5" y="647.9951">Konfiguration abfragen</text><text fill="#000000" font-family="sans-serif" font-size="12" lengthAdjust="spacing" textLength="54" x="358" y="672.4355">imageUrl</text><text fill="#000000" font-family="sans-serif" font-size="12" lengthAdjust="spacing" textLength="380" x="358" y="686.4043">strings, initialSize, timings, showGrid, relativeSize, randomized</text><text fill="#000000" font-family="sans-serif" font-size="12" lengthAdjust="spacing" textLength="266" x="358" y="700.373">iterations, maxDepth, default Unterteilungen</text></g><g id="s.vb"><rect fill="#FEFECE" filter="url(#f19bu3ii85du12)" height="50.2656" rx="12.5" ry="12.5" style="stroke:#A80036;stroke-width:1.5;" width="147" x="346.5" y="792"/><line style="stroke:#A80036;stroke-width:1.5;" x1="346.5" x2="493.5" y1="818.2969" y2="818.2969"/><text fill="#000000" font-family="sans-serif" font-size="14" lengthAdjust="spacing" textLength="127" x="356.5" y="809.9951">Vorbereitung Bild</text><text fill="#000000" font-family="sans-serif" font-size="12" lengthAdjust="spacing" textLength="76" x="351.5" y="834.4355">instanziieren</text></g><g id="s.vr"><rect fill="#FEFECE" filter="url(#f19bu3ii85du12)" height="64.2344" rx="12.5" ry="12.5" style="stroke:#A80036;stroke-width:1.5;" width="243" x="528.5" y="785"/><line style="stroke:#A80036;stroke-width:1.5;" x1="528.5" x2="771.5" y1="811.2969" y2="811.2969"/><text fill="#000000" font-family="sans-serif" font-size="14" lengthAdjust="spacing" textLength="147" x="576.5" y="802.9951">Vorbereitung Raster</text><text fill="#000000" font-family="sans-serif" font-size="12" lengthAdjust="spacing" textLength="198" x="533.5" y="827.4355">Größe vom Bild abhängig setzen</text><text fill="#000000" font-family="sans-serif" font-size="12" lengthAdjust="spacing" textLength="223" x="533.5" y="841.4043">initiale Rasterunterteilung vornehmen</text></g><text fill="#000000" font-family="sans-serif" font-size="14" lengthAdjust="spacing" textLength="0" x="419" y="1007.6982"/><ellipse cx="417" cy="1029" fill="#FEFECE" rx="6" ry="6" style="stroke:#A80036;stroke-width:1.5;"/><text fill="#000000" font-family="sans-serif" font-size="14" lengthAdjust="spacing" textLength="0" x="764" y="1396.9951"/><ellipse cx="762" cy="1378" fill="#FEFECE" rx="6" ry="6" style="stroke:#A80036;stroke-width:1.5;"/><line style="stroke:#A80036;stroke-width:1.5;" x1="766.3891" x2="758.6109" y1="1382.3891" y2="1374.6109"/><line style="stroke:#A80036;stroke-width:1.5;" x1="766.3891" x2="758.6109" y1="1374.6109" y2="1382.3891"/><g id="v.ba"><rect fill="#FEFECE" filter="url(#f19bu3ii85du12)" height="50.2656" rx="12.5" ry="12.5" style="stroke:#A80036;stroke-width:1.5;" width="195" x="458.5" y="1004"/><line style="stroke:#A80036;stroke-width:1.5;" x1="458.5" x2="653.5" y1="1030.2969" y2="1030.2969"/><text fill="#000000" font-family="sans-serif" font-size="14" lengthAdjust="spacing" textLength="96" x="508" y="1021.9951">Bild anzeigen</text><text fill="#000000" font-family="sans-serif" font-size="12" lengthAdjust="spacing" textLength="175" x="463.5" y="1046.4355">für in Config eingestellte Zeit</text></g><g id="v.ra"><rect fill="#FEFECE" filter="url(#f19bu3ii85du12)" height="50.2656" rx="12.5" ry="12.5" style="stroke:#A80036;stroke-width:1.5;" width="195" x="439.5" y="1115"/><line style="stroke:#A80036;stroke-width:1.5;" x1="439.5" x2="634.5" y1="1141.2969" y2="1141.2969"/><text fill="#000000" font-family="sans-serif" font-size="14" lengthAdjust="spacing" textLength="116" x="479" y="1132.9951">Raster anzeigen</text><text fill="#000000" font-family="sans-serif" font-size="12" lengthAdjust="spacing" textLength="175" x="444.5" y="1157.4355">für in Config eingestellte Zeit</text></g><g id="v.bi"><rect fill="#FEFECE" filter="url(#f19bu3ii85du12)" height="50" rx="12.5" ry="12.5" style="stroke:#A80036;stroke-width:1.5;" width="261" x="567.5" y="1226"/><line style="stroke:#A80036;stroke-width:1.5;" x1="567.5" x2="828.5" y1="1252.2969" y2="1252.2969"/><text fill="#000000" font-family="sans-serif" font-size="14" lengthAdjust="spacing" textLength="241" x="577.5" y="1243.9951">Benutzer Input entgegennehmen</text></g><g id="err"><rect fill="#FEFECE" filter="url(#f19bu3ii85du12)" height="50.2656" rx="12.5" ry="12.5" style="stroke:#A80036;stroke-width:1.5;" width="181" x="839.5" y="792"/><line style="stroke:#A80036;stroke-width:1.5;" x1="839.5" x2="1020.5" y1="818.2969" y2="818.2969"/><text fill="#000000" font-family="sans-serif" font-size="14" lengthAdjust="spacing" textLength="45" x="907.5" y="809.9951">Fehler</text><text fill="#000000" font-family="sans-serif" font-size="12" lengthAdjust="spacing" textLength="161" x="844.5" y="834.4355">informative Fehlermeldung</text></g><g id="Speichern"><rect fill="#FEFECE" filter="url(#f19bu3ii85du12)" height="50.2656" rx="12.5" ry="12.5" style="stroke:#A80036;stroke-width:1.5;" width="187" x="853.5" y="1353"/><line style="stroke:#A80036;stroke-width:1.5;" x1="853.5" x2="1040.5" y1="1379.2969" y2="1379.2969"/><text fill="#000000" font-family="sans-serif" font-size="14" lengthAdjust="spacing" textLength="73" x="910.5" y="1370.9951">Speichern</text><text fill="#000000" font-family="sans-serif" font-size="12" lengthAdjust="spacing" textLength="167" x="858.5" y="1395.4355">der Daten in der Datenbank</text></g><ellipse cx="20" cy="16" fill="#000000" filter="url(#f19bu3ii85du12)" rx="10" ry="10" style="stroke:none;stroke-width:1.0;"/><ellipse cx="945" cy="920" filter="url(#f19bu3ii85du12)" rx="10" ry="10" style="stroke:#000000;stroke-width:1.0;fill:none;"/><ellipse cx="945.5" cy="920.5" fill="#000000" rx="6" ry="6" style="stroke:none;stroke-width:1.0;"/><!--MD5=[a61c082f6f6ee4e456ea32296a7fd8f1]
reverse link ac to tnp--><path d="M55.7875,132 C45.9495,132 36.1115,132 26.2734,132 " fill="none" id="ac-backto-tnp" style="stroke:#A80036;stroke-width:1.0;"/><polygon fill="#A80036" points="60.9322,132,51.9322,128,55.9322,132,51.9322,136,60.9322,132" style="stroke:#A80036;stroke-width:1.0;"/><!--MD5=[3f19270b61e07219a5c7c6cf1c9c77be]
link ac to ta--><path d="M163.989,164.19 C163.48,178.49 163.451,195.64 165,211 C165.827,219.2 167.342,227.99 168.989,236.05 " fill="none" id="ac-to-ta" style="stroke:#A80036;stroke-width:1.0;"/><polygon fill="#A80036" points="170.027,240.97,172.063,231.3339,168.9847,236.0798,164.2388,233.0015,170.027,240.97" style="stroke:#A80036;stroke-width:1.0;"/><text fill="#000000" font-family="sans-serif" font-size="13" lengthAdjust="spacing" textLength="12" x="166" y="207.0669">Ja</text><!--MD5=[447026dc2e60cf6b4c54c0209a9e1569]
link ac to txp--><path d="M207.885,164.1 C232.331,183.95 262.331,211.43 283,241 C285.974,245.25 288.294,250.53 289.948,255.05 " fill="none" id="ac-to-txp" style="stroke:#A80036;stroke-width:1.0;"/><polygon fill="#A80036" points="291.582,259.9,292.5192,250.0958,289.9953,255.1584,284.9327,252.6346,291.582,259.9" style="stroke:#A80036;stroke-width:1.0;"/><text fill="#000000" font-family="sans-serif" font-size="13" lengthAdjust="spacing" textLength="28" x="260" y="207.0669">Nein</text><!--MD5=[d59850e57f5f4af29ecc2d4c8b6ba28e]
link ta to txp--><path d="M248.211,266 C259.337,266 270.463,266 281.59,266 " fill="none" id="ta-to-txp" style="stroke:#A80036;stroke-width:1.0;"/><polygon fill="#A80036" points="286.702,266,277.702,262,281.702,266,277.702,270,286.702,266" style="stroke:#A80036;stroke-width:1.0;"/><!--MD5=[9f61c41cbd373ee46fb7d2223f1744a9]
reverse link it to pnp--><path d="M329.053,397 C319.134,397 309.216,397 299.297,397 " fill="none" id="it-backto-pnp" style="stroke:#A80036;stroke-width:1.0;"/><polygon fill="#A80036" points="334.24,397,325.24,393,329.24,397,325.24,401,334.24,397" style="stroke:#A80036;stroke-width:1.0;"/><!--MD5=[bcda4bb889f58413a6da785fdfde5006]
link it to ia--><path d="M416.464,429.086 C416.166,446.358 415.798,467.723 415.505,484.701 " fill="none" id="it-to-ia" style="stroke:#A80036;stroke-width:1.0;"/><polygon fill="#A80036" points="415.417,489.819,419.5707,480.8889,415.5027,484.8197,411.5719,480.7518,415.417,489.819" style="stroke:#A80036;stroke-width:1.0;"/><!--MD5=[26e2ac85139c797a27c4734c2e73fa42]
link ia to pxp--><path d="M352.882,515 C342.991,515 333.099,515 323.208,515 " fill="none" id="ia-to-pxp" style="stroke:#A80036;stroke-width:1.0;"/><polygon fill="#A80036" points="318.035,515,327.035,519,323.035,515,327.035,511,318.035,515" style="stroke:#A80036;stroke-width:1.0;"/><!--MD5=[630da2a7745013a00f9175d6079ffc9e]
reverse link ka to snp--><path d="M347.809,669 C337.912,669 328.016,669 318.119,669 " fill="none" id="ka-backto-snp" style="stroke:#A80036;stroke-width:1.0;"/><polygon fill="#A80036" points="352.984,669,343.984,665,347.984,669,343.984,673,352.984,669" style="stroke:#A80036;stroke-width:1.0;"/><!--MD5=[4be6b3dfff7856a8e2c6bf554a3bc2a6]
link ka to vb--><path d="M518.056,708.36 C495.356,733.278 466.271,765.207 445.689,787.8 " fill="none" id="ka-to-vb" style="stroke:#A80036;stroke-width:1.0;"/><polygon fill="#A80036" points="442.205,791.625,451.2232,787.6661,445.5724,787.929,445.3095,782.2782,442.205,791.625" style="stroke:#A80036;stroke-width:1.0;"/><!--MD5=[9dfcffb1c80ec3d61f2a6a307dd25248]
link ka to vr--><path d="M578.486,708.36 C593.325,730.696 611.907,758.665 626.41,780.494 " fill="none" id="ka-to-vr" style="stroke:#A80036;stroke-width:1.0;"/><polygon fill="#A80036" points="629.254,784.775,627.6045,775.0653,626.4868,780.6106,620.9414,779.4928,629.254,784.775" style="stroke:#A80036;stroke-width:1.0;"/><!--MD5=[7db026ba0316a7ea12dce3ba9e297fcb]
link vr to sxp--><path d="M579.116,849.127 C524.896,872.937 455.256,903.518 429.84,914.679 " fill="none" id="vr-to-sxp" style="stroke:#A80036;stroke-width:1.0;"/><polygon fill="#A80036" points="425.109,916.756,434.9578,916.7997,429.687,914.7456,431.7411,909.4749,425.109,916.756" style="stroke:#A80036;stroke-width:1.0;"/><!--MD5=[fc36a7e0f55729ec01ae1431d5266645]
link vb to sxp--><path d="M420,842.192 C420,863.398 420,893.192 420,908.702 " fill="none" id="vb-to-sxp" style="stroke:#A80036;stroke-width:1.0;"/><polygon fill="#A80036" points="420,913.727,424,904.727,420,908.727,416,904.727,420,913.727" style="stroke:#A80036;stroke-width:1.0;"/><!--MD5=[ef30d483e4a1810673d67f4c0adad042]
reverse link ba to vnp--><path d="M453.052,1029 C443.116,1029 433.18,1029 423.244,1029 " fill="none" id="ba-backto-vnp" style="stroke:#A80036;stroke-width:1.0;"/><polygon fill="#A80036" points="458.248,1029,449.248,1025,453.248,1029,449.248,1033,458.248,1029" style="stroke:#A80036;stroke-width:1.0;"/><!--MD5=[a0780441f2bf221f76b36d0510597959]
link ba to ra--><path d="M551.783,1054.191 C548.93,1070.56 545.144,1092.279 542.118,1109.64 " fill="none" id="ba-to-ra" style="stroke:#A80036;stroke-width:1.0;"/><polygon fill="#A80036" points="541.205,1114.877,546.691,1106.6975,542.0636,1109.9513,538.8098,1105.3238,541.205,1114.877" style="stroke:#A80036;stroke-width:1.0;"/><!--MD5=[01b2c4f497b6da43dfcbb677566b361f]
link ra to bi--><path d="M572.731,1165.191 C597.952,1182.266 631.771,1205.162 657.912,1222.86 " fill="none" id="ra-to-bi" style="stroke:#A80036;stroke-width:1.0;"/><polygon fill="#A80036" points="662.369,1225.877,657.1588,1217.5191,658.2286,1223.0739,652.6739,1224.1437,662.369,1225.877" style="stroke:#A80036;stroke-width:1.0;"/><!--MD5=[eae6f66daafa49fea7c120cd0cef3756]
link bi to ba--><path d="M693.706,1225.892 C687.806,1197.511 675.186,1149.835 652,1115 C637.208,1092.775 615.206,1072.719 595.996,1057.677 " fill="none" id="bi-to-ba" style="stroke:#A80036;stroke-width:1.0;"/><polygon fill="#A80036" points="591.69,1054.352,596.3686,1063.0186,595.6474,1057.4079,601.2581,1056.6867,591.69,1054.352" style="stroke:#A80036;stroke-width:1.0;"/><text fill="#000000" font-family="sans-serif" font-size="13" lengthAdjust="spacing" textLength="122" x="678" y="1144.5669">weitere Durchläufe</text><!--MD5=[d986afdffbf622967289c336e856d47a]
link bi to vxp--><path d="M710.34,1276.101 C724.55,1303.856 747.206,1348.1055 757.104,1367.4379 " fill="none" id="bi-to-vxp" style="stroke:#A80036;stroke-width:1.0;"/><polygon fill="#A80036" points="759.54,1372.1955,758.9983,1362.3616,757.2611,1367.7451,751.8776,1366.0079,759.54,1372.1955" style="stroke:#A80036;stroke-width:1.0;"/><text fill="#000000" font-family="sans-serif" font-size="13" lengthAdjust="spacing" textLength="108" x="735" y="1319.0669">Durchläufe fertig</text><!--MD5=[810aaa9c9373a6a4cd23eb0b6b60d214]
link s to err--><path d="M804.2817,686.7405 C804.4117,686.8741 804.5423,687.0084 804.6735,687.1433 C805.7232,688.2225 806.8122,689.3422 807.9376,690.4993 C810.1884,692.8135 812.5846,695.2771 815.1019,697.8654 C820.1366,703.0418 825.656,708.7166 831.4665,714.6908 C854.7085,738.5872 882.6085,767.273 902.778,788.011 " fill="none" id="s-to-err" style="stroke:#A80036;stroke-width:1.0;"/><polygon fill="#A80036" points="906.581,791.922,903.1721,782.6819,903.0944,788.3382,897.438,788.2605,906.581,791.922" style="stroke:#A80036;stroke-width:1.0;"/><text fill="#000000" font-family="sans-serif" font-size="13" lengthAdjust="spacing" textLength="116" x="869" y="751.0669">Fehler beim Setup</text><!--MD5=[85c6c7a1058dfd0182dadb91f24e8307]
link *start to tnp--><path d="M20,26.33 C20,47.42 20,98.63 20,120.65 " fill="none" id="*start-to-tnp" style="stroke:#A80036;stroke-width:1.0;"/><polygon fill="#A80036" points="20,125.81,24,116.81,20,120.81,16,116.81,20,125.81" style="stroke:#A80036;stroke-width:1.0;"/><!--MD5=[260cfbe5ac01114fa9c3544abce7be05]
link txp to pnp--><path d="M293,272.22 C293,291.59 293,359.6 293,385.7 " fill="none" id="txp-to-pnp" style="stroke:#A80036;stroke-width:1.0;"/><polygon fill="#A80036" points="293,390.86,297,381.86,293,385.86,289,381.86,293,390.86" style="stroke:#A80036;stroke-width:1.0;"/><!--MD5=[d29433beae00b87af9700a7206a0e8cf]
link pxp to snp--><path d="M312,521.057 C312,542.693 312,627.712 312,657.567 " fill="none" id="pxp-to-snp" style="stroke:#A80036;stroke-width:1.0;"/><polygon fill="#A80036" points="312,662.768,316,653.768,312,657.768,308,653.768,312,662.768" style="stroke:#A80036;stroke-width:1.0;"/><!--MD5=[10256c57c7ff6fbc21f13c345aa9106e]
link sxp to vnp--><path d="M419.855,926.161 C419.389,942.786 417.921,995.163 417.291,1017.615 " fill="none" id="sxp-to-vnp" style="stroke:#A80036;stroke-width:1.0;"/><polygon fill="#A80036" points="417.15,1022.639,421.4004,1013.7545,417.29,1017.641,413.4035,1013.5305,417.15,1022.639" style="stroke:#A80036;stroke-width:1.0;"/><!--MD5=[57f817002b2c3f77091533b8381db39e]
link vxp to Speichern--><path d="M768.143,1378 C794.779,1378 821.416,1378 848.052,1378 " fill="none" id="vxp-to-Speichern" style="stroke:#A80036;stroke-width:1.0;"/><polygon fill="#A80036" points="853.379,1378,844.379,1374,848.379,1378,844.379,1382,853.379,1378" style="stroke:#A80036;stroke-width:1.0;"/><!--MD5=[569fcbeb2cc9c9798d00ec88a7200871]
reverse link *end to Speichern--><path d="M945.217,935.191 C945.511,955.681 946,994.746 946,1028 C946,1028 946,1028 946,1252 C946,1286.94 946.396,1327.3727 946.689,1352.5694 " fill="none" id="*end-backto-Speichern" style="stroke:#A80036;stroke-width:1.0;"/><polygon fill="#A80036" points="945.143,930.16,941.2746,939.2173,945.2159,935.1595,949.2737,939.1007,945.143,930.16" style="stroke:#A80036;stroke-width:1.0;"/><!--MD5=[dfb6e7c2f8b207f8e3f74365dbae73bc]
link err to *end--><path d="M933.593,842.192 C936.49,861.697 940.465,888.466 942.877,904.704 " fill="none" id="err-to-*end" style="stroke:#A80036;stroke-width:1.0;"/><polygon fill="#A80036" points="943.631,909.782,946.2659,900.2921,942.8967,904.8362,938.3526,901.467,943.631,909.782" style="stroke:#A80036;stroke-width:1.0;"/><!--MD5=[ea34fc6c00228fe683dc4155c47d0dde]
@startuml
state "Fehler" as err : informative Fehlermeldung
state Speichern : der Daten in der Datenbank

state "Tutorial" as t {
    state " " as tnp <<entryPoint>>
    state " " as txp <<exitPoint>>
    state "Abfrage von Config" as ac : getConfig()\nSoll Tutorial angezeigt werden?
    state "Tutorial anzeigen" as ta
    tnp -l-> ac
    ac - -> ta : Ja
    ac - -> txp : Nein
    ta -r-> txp
}

state "PreTest" as p {
    state " " as pnp <<entryPoint>>
    state " " as pxp <<exitPoint>>
    state "Abfrage Intro Text" as it : getConfigState()\nWas ist der Intro Inhalt ?
    state "Intro anzeigen" as ia
    pnp -l-> it
    it - -> ia
    ia -r-> pxp
}

state "Setup" as s {
    state " " as snp <<entryPoint>>
    state " " as sxp <<exitPoint>>
    state "Konfiguration abfragen" as ka : imageUrl
    ka : strings, initialSize, timings, showGrid, relativeSize, randomized
    ka: iterations, maxDepth, default Unterteilungen
    state "Vorbereitung Bild" as vb : instanziieren
    state "Vorbereitung Raster" as vr : Größe vom Bild abhängig setzen
    vr : initiale Rasterunterteilung vornehmen
    snp -l-> ka
    ka - -> vb
    ka - -> vr
    vr -d-> sxp
    vb -d-> sxp
}


state "Versuch" as v {
    state " " as vnp <<entryPoint>>
    state " " as vxp <<exitPoint>>
    state "Bild anzeigen" as ba : für in Config eingestellte Zeit
    state "Raster anzeigen" as ra : für in Config eingestellte Zeit
    state "Benutzer Input entgegennehmen" as bi
    vnp -l-> ba
    ba - -> ra
    ra - -> bi
    bi - -> ba : weitere Durchläufe
    bi - -> vxp : Durchläufe fertig
}

s - -> err : Fehler beim Setup
[*] - -> tnp

txp - -> pnp
pxp - -> snp
sxp - -> vnp
vxp -r-> Speichern

Speichern -u-> [*]
err -d-> [*]
@enduml

PlantUML version 1.2022.1beta9(Unknown compile time)
(GPL source distribution)
Java Runtime: Java(TM) SE Runtime Environment
JVM: Java HotSpot(TM) 64-Bit Server VM
Default Encoding: UTF-8
Language: en
Country: US
--></g></svg>