<?xml version="1.0" encoding="UTF-8" standalone="no"?><svg xmlns="http://www.w3.org/2000/svg" xmlns:xlink="http://www.w3.org/1999/xlink" contentScriptType="application/ecmascript" contentStyleType="text/css" height="294px" preserveAspectRatio="none" style="width:648px;height:294px;background:#FFFFFF;" version="1.1" viewBox="0 0 648 294" width="648px" zoomAndPan="magnify"><defs><filter height="300%" id="fht4ae3q4mvmy" width="300%" x="-1" y="-1"><feGaussianBlur result="blurOut" stdDeviation="2.0"/><feColorMatrix in="blurOut" result="blurOut2" type="matrix" values="0 0 0 0 0 0 0 0 0 0 0 0 0 0 0 0 0 0 .4 0"/><feOffset dx="4.0" dy="4.0" in="blurOut2" result="blurOut3"/><feBlend in="SourceGraphic" in2="blurOut3" mode="normal"/></filter></defs><g><text fill="#000000" font-family="sans-serif" font-size="18" lengthAdjust="spacing" textLength="327" x="154" y="16.708">github.weichware10.analyse.config</text><!--MD5=[84aea02c0bbba20ed5584f403d807541]
cluster github.weichware10.analyse.config--><polygon fill="#FFFFFF" filter="url(#fht4ae3q4mvmy)" points="16,26.9531,308,26.9531,315,49.25,631,49.25,631,287.9531,16,287.9531,16,26.9531" style="stroke:#000000;stroke-width:1.5;"/><line style="stroke:#000000;stroke-width:1.5;" x1="16" x2="315" y1="49.25" y2="49.25"/><text fill="#000000" font-family="sans-serif" font-size="14" font-weight="bold" lengthAdjust="spacing" textLength="286" x="20" y="41.9482">github.weichware10.analyse.config</text><!--MD5=[02ce811039b4bc93ad3573cbec2810ee]
class github.weichware10.analyse.config.DiagramConfig--><rect codeLine="5" fill="#FEFECE" filter="url(#fht4ae3q4mvmy)" height="159.2422" id="github.weichware10.analyse.config.DiagramConfig" style="stroke:#A80036;stroke-width:1.5;" width="288" x="327" y="87.4531"/><ellipse cx="422.75" cy="103.4531" fill="#ADD1B2" rx="11" ry="11" style="stroke:#A80036;stroke-width:1.0;"/><path d="M425.0938,99.125 C424.1563,98.6875 423.5625,98.5469 422.6875,98.5469 C420.0625,98.5469 418.0625,100.625 418.0625,103.3438 L418.0625,104.4688 C418.0625,107.0469 420.1719,108.9375 423.0625,108.9375 C424.2813,108.9375 425.4375,108.6406 426.1875,108.0938 C426.7656,107.6875 427.0938,107.2344 427.0938,106.8438 C427.0938,106.3906 426.7031,106 426.2344,106 C426.0156,106 425.8125,106.0781 425.625,106.2656 C425.1719,106.75 425.1719,106.75 424.9844,106.8438 C424.5625,107.1094 423.875,107.2344 423.1094,107.2344 C421.0625,107.2344 419.7656,106.1406 419.7656,104.4375 L419.7656,103.3438 C419.7656,101.5625 421.0156,100.25 422.75,100.25 C423.3281,100.25 423.9375,100.4063 424.4063,100.6563 C424.8906,100.9375 425.0625,101.1563 425.1563,101.5625 C425.2188,101.9688 425.25,102.0938 425.3906,102.2188 C425.5313,102.3594 425.7656,102.4688 425.9844,102.4688 C426.25,102.4688 426.5156,102.3281 426.6875,102.1094 C426.7969,101.9531 426.8281,101.7656 426.8281,101.3438 L426.8281,99.9219 C426.8281,99.4844 426.8125,99.3594 426.7188,99.2031 C426.5625,98.9375 426.2813,98.7969 425.9844,98.7969 C425.6875,98.7969 425.4844,98.8906 425.2656,99.2031 L425.0938,99.125 Z " fill="#000000"/><text fill="#000000" font-family="sans-serif" font-size="12" lengthAdjust="spacing" textLength="88" x="443.25" y="107.6074">DiagramConfig</text><line style="stroke:#A80036;stroke-width:1.5;" x1="328" x2="614" y1="119.4531" y2="119.4531"/><rect fill="none" height="6" style="stroke:#C82930;stroke-width:1.0;" width="6" x="335" y="127.4531"/><text fill="#000000" font-family="sans-serif" font-size="11" lengthAdjust="spacing" textLength="101" x="347" y="133.6636">int stepsBetween</text><rect fill="none" height="6" style="stroke:#C82930;stroke-width:1.0;" width="6" x="335" y="140.2578"/><text fill="#000000" font-family="sans-serif" font-size="11" lengthAdjust="spacing" textLength="98" x="347" y="146.4683">boolean barChart</text><ellipse cx="338" cy="172.8672" fill="#84BE84" rx="3" ry="3" style="stroke:#038048;stroke-width:1.0;"/><text fill="#000000" font-family="sans-serif" font-size="11" lengthAdjust="spacing" textLength="92" x="347" y="176.0776">DiagramConfig()</text><ellipse cx="338" cy="185.6719" fill="#84BE84" rx="3" ry="3" style="stroke:#038048;stroke-width:1.0;"/><text fill="#000000" font-family="sans-serif" font-size="11" lengthAdjust="spacing" textLength="262" x="347" y="188.8823">boolean setStepsBetween(int stepsBetween)</text><ellipse cx="338" cy="198.4766" fill="#84BE84" rx="3" ry="3" style="stroke:#038048;stroke-width:1.0;"/><text fill="#000000" font-family="sans-serif" font-size="11" lengthAdjust="spacing" textLength="130" x="347" y="201.687">int getStepsBetween()</text><ellipse cx="338" cy="211.2813" fill="#84BE84" rx="3" ry="3" style="stroke:#038048;stroke-width:1.0;"/><text fill="#000000" font-family="sans-serif" font-size="11" lengthAdjust="spacing" textLength="116" x="347" y="214.4917">boolean isBarChart()</text><ellipse cx="338" cy="224.0859" fill="#84BE84" rx="3" ry="3" style="stroke:#038048;stroke-width:1.0;"/><text fill="#000000" font-family="sans-serif" font-size="11" lengthAdjust="spacing" textLength="201" x="347" y="227.2964">void setBarChart(boolean barChart)</text><ellipse cx="338" cy="236.8906" fill="#84BE84" rx="3" ry="3" style="stroke:#038048;stroke-width:1.0;"/><text fill="#000000" font-family="sans-serif" font-size="11" lengthAdjust="spacing" textLength="89" x="347" y="240.1011">String toString()</text><line style="stroke:#A80036;stroke-width:1.5;" x1="328" x2="427.5" y1="159.4648" y2="159.4648"/><text fill="#000000" font-family="sans-serif" font-size="11" lengthAdjust="spacing" textLength="87" x="427.5" y="162.7729">public methods</text><line style="stroke:#A80036;stroke-width:1.5;" x1="514.5" x2="614" y1="159.4648" y2="159.4648"/><!--MD5=[dde646a96c25927fd596c69e7f13ac1c]
class github.weichware10.analyse.config.HeatmapConfig--><rect codeLine="17" fill="#FEFECE" filter="url(#fht4ae3q4mvmy)" height="210.4609" id="github.weichware10.analyse.config.HeatmapConfig" style="stroke:#A80036;stroke-width:1.5;" width="259" x="32.5" y="61.9531"/><ellipse cx="111.75" cy="77.9531" fill="#ADD1B2" rx="11" ry="11" style="stroke:#A80036;stroke-width:1.0;"/><path d="M114.0938,73.625 C113.1563,73.1875 112.5625,73.0469 111.6875,73.0469 C109.0625,73.0469 107.0625,75.125 107.0625,77.8438 L107.0625,78.9688 C107.0625,81.5469 109.1719,83.4375 112.0625,83.4375 C113.2813,83.4375 114.4375,83.1406 115.1875,82.5938 C115.7656,82.1875 116.0938,81.7344 116.0938,81.3438 C116.0938,80.8906 115.7031,80.5 115.2344,80.5 C115.0156,80.5 114.8125,80.5781 114.625,80.7656 C114.1719,81.25 114.1719,81.25 113.9844,81.3438 C113.5625,81.6094 112.875,81.7344 112.1094,81.7344 C110.0625,81.7344 108.7656,80.6406 108.7656,78.9375 L108.7656,77.8438 C108.7656,76.0625 110.0156,74.75 111.75,74.75 C112.3281,74.75 112.9375,74.9063 113.4063,75.1563 C113.8906,75.4375 114.0625,75.6563 114.1563,76.0625 C114.2188,76.4688 114.25,76.5938 114.3906,76.7188 C114.5313,76.8594 114.7656,76.9688 114.9844,76.9688 C115.25,76.9688 115.5156,76.8281 115.6875,76.6094 C115.7969,76.4531 115.8281,76.2656 115.8281,75.8438 L115.8281,74.4219 C115.8281,73.9844 115.8125,73.8594 115.7188,73.7031 C115.5625,73.4375 115.2813,73.2969 114.9844,73.2969 C114.6875,73.2969 114.4844,73.3906 114.2656,73.7031 L114.0938,73.625 Z " fill="#000000"/><text fill="#000000" font-family="sans-serif" font-size="12" lengthAdjust="spacing" textLength="92" x="132.25" y="82.1074">HeatmapConfig</text><line style="stroke:#A80036;stroke-width:1.5;" x1="33.5" x2="290.5" y1="93.9531" y2="93.9531"/><rect fill="none" height="6" style="stroke:#C82930;stroke-width:1.0;" width="6" x="40.5" y="101.9531"/><text fill="#000000" font-family="sans-serif" font-size="11" lengthAdjust="spacing" textLength="103" x="52.5" y="108.1636">Color minColorDiff</text><rect fill="none" height="6" style="stroke:#C82930;stroke-width:1.0;" width="6" x="40.5" y="114.7578"/><text fill="#000000" font-family="sans-serif" font-size="11" lengthAdjust="spacing" textLength="107" x="52.5" y="120.9683">Color maxColorDiff</text><rect fill="none" height="6" style="stroke:#C82930;stroke-width:1.0;" width="6" x="40.5" y="127.5625"/><text fill="#000000" font-family="sans-serif" font-size="11" lengthAdjust="spacing" textLength="86" x="52.5" y="133.7729">boolean image</text><ellipse cx="43.5" cy="160.1719" fill="#84BE84" rx="3" ry="3" style="stroke:#038048;stroke-width:1.0;"/><text fill="#000000" font-family="sans-serif" font-size="11" lengthAdjust="spacing" textLength="96" x="52.5" y="163.3823">HeatmapConfig()</text><ellipse cx="43.5" cy="172.9766" fill="#84BE84" rx="3" ry="3" style="stroke:#038048;stroke-width:1.0;"/><text fill="#000000" font-family="sans-serif" font-size="11" lengthAdjust="spacing" textLength="128" x="52.5" y="176.187">Color getMinColorDiff()</text><ellipse cx="43.5" cy="185.7813" fill="#84BE84" rx="3" ry="3" style="stroke:#038048;stroke-width:1.0;"/><text fill="#000000" font-family="sans-serif" font-size="11" lengthAdjust="spacing" textLength="225" x="52.5" y="188.9917">void setMinColorDiff(Color minColorDiff)</text><ellipse cx="43.5" cy="198.5859" fill="#84BE84" rx="3" ry="3" style="stroke:#038048;stroke-width:1.0;"/><text fill="#000000" font-family="sans-serif" font-size="11" lengthAdjust="spacing" textLength="132" x="52.5" y="201.7964">Color getMaxColorDiff()</text><ellipse cx="43.5" cy="211.3906" fill="#84BE84" rx="3" ry="3" style="stroke:#038048;stroke-width:1.0;"/><text fill="#000000" font-family="sans-serif" font-size="11" lengthAdjust="spacing" textLength="233" x="52.5" y="214.6011">void setMaxColorDiff(Color maxColorDiff)</text><ellipse cx="43.5" cy="224.1953" fill="#84BE84" rx="3" ry="3" style="stroke:#038048;stroke-width:1.0;"/><text fill="#000000" font-family="sans-serif" font-size="11" lengthAdjust="spacing" textLength="176" x="52.5" y="227.4058">void setImage(boolean image)</text><ellipse cx="43.5" cy="237" fill="#84BE84" rx="3" ry="3" style="stroke:#038048;stroke-width:1.0;"/><text fill="#000000" font-family="sans-serif" font-size="11" lengthAdjust="spacing" textLength="103" x="52.5" y="240.2104">boolean isImage()</text><ellipse cx="43.5" cy="249.8047" fill="#84BE84" rx="3" ry="3" style="stroke:#038048;stroke-width:1.0;"/><text fill="#000000" font-family="sans-serif" font-size="11" lengthAdjust="spacing" textLength="89" x="52.5" y="253.0151">String toString()</text><ellipse cx="43.5" cy="262.6094" fill="#84BE84" rx="3" ry="3" style="stroke:#038048;stroke-width:1.0;"/><text fill="#000000" font-family="sans-serif" font-size="11" lengthAdjust="spacing" text-decoration="underline" textLength="226" x="52.5" y="265.8198">java.awt.Color fxToAwtColor(Color color)</text><line style="stroke:#A80036;stroke-width:1.5;" x1="33.5" x2="118.5" y1="146.7695" y2="146.7695"/><text fill="#000000" font-family="sans-serif" font-size="11" lengthAdjust="spacing" textLength="87" x="118.5" y="150.0776">public methods</text><line style="stroke:#A80036;stroke-width:1.5;" x1="205.5" x2="290.5" y1="146.7695" y2="146.7695"/><!--MD5=[e60353d972b8ec4c4d1c5b4267254cf1]
@startuml
title github.weichware10.analyse.config

package github.weichware10.analyse.config {

    class github.weichware10.analyse.config.DiagramConfig {
        - int stepsBetween
        - boolean barChart
        __public methods__
        +  DiagramConfig()
        + boolean setStepsBetween(int stepsBetween)
        + int getStepsBetween()
        + boolean isBarChart()
        + void setBarChart(boolean barChart)
        + String toString()
    }

    class github.weichware10.analyse.config.HeatmapConfig {
        - Color minColorDiff
        - Color maxColorDiff
        - boolean image
        __public methods__
        +  HeatmapConfig()
        + Color getMinColorDiff()
        + void setMinColorDiff(Color minColorDiff)
        + Color getMaxColorDiff()
        + void setMaxColorDiff(Color maxColorDiff)
        + void setImage(boolean image)
        + boolean isImage()
        + String toString()
        {static}+ java.awt.Color fxToAwtColor(Color color)
    }

}
@enduml

PlantUML version 1.2022.1beta6(Unknown compile time)
(GPL source distribution)
Java Runtime: Java(TM) SE Runtime Environment
JVM: Java HotSpot(TM) 64-Bit Server VM
Default Encoding: UTF-8
Language: en
Country: US
--></g></svg>