<?xml version="1.0" encoding="UTF-8" standalone="no"?><svg xmlns="http://www.w3.org/2000/svg" xmlns:xlink="http://www.w3.org/1999/xlink" contentScriptType="application/ecmascript" contentStyleType="text/css" height="899px" preserveAspectRatio="none" style="width:1626px;height:899px;background:#FFFFFF;" version="1.1" viewBox="0 0 1626 899" width="1626px" zoomAndPan="magnify"><defs><filter height="300%" id="fojk5qav7oirv" width="300%" x="-1" y="-1"><feGaussianBlur result="blurOut" stdDeviation="2.0"/><feColorMatrix in="blurOut" result="blurOut2" type="matrix" values="0 0 0 0 0 0 0 0 0 0 0 0 0 0 0 0 0 0 .4 0"/><feOffset dx="4.0" dy="4.0" in="blurOut2" result="blurOut3"/><feBlend in="SourceGraphic" in2="blurOut3" mode="normal"/></filter></defs><g><rect fill="#DDDDDD" height="887.5156" style="stroke:#A80036;stroke-width:1.0;" width="858" x="526" y="6"/><text fill="#000000" font-family="sans-serif" font-size="13" font-weight="bold" lengthAdjust="spacing" textLength="89" x="910.5" y="18.0669">CodeCharts</text><rect fill="#FFFFFF" filter="url(#fojk5qav7oirv)" height="699.9219" style="stroke:#A80036;stroke-width:1.0;" width="10" x="27" y="98.2969"/><rect fill="#FFFFFF" filter="url(#fojk5qav7oirv)" height="699.9219" style="stroke:#A80036;stroke-width:1.0;" width="10" x="94" y="98.2969"/><rect fill="#FFFFFF" filter="url(#fojk5qav7oirv)" height="699.9219" style="stroke:#A80036;stroke-width:1.0;" width="10" x="157" y="98.2969"/><rect fill="#FFFFFF" filter="url(#fojk5qav7oirv)" height="349.4609" style="stroke:#A80036;stroke-width:1.0;" width="10" x="576" y="162.5625"/><rect fill="#FFFFFF" filter="url(#fojk5qav7oirv)" height="58.2656" style="stroke:#A80036;stroke-width:1.0;" width="10" x="576" y="730.9531"/><rect fill="#FFFFFF" filter="url(#fojk5qav7oirv)" height="500.125" style="stroke:#A80036;stroke-width:1.0;" width="10" x="796" y="230.8281"/><rect fill="#FFFFFF" filter="url(#fojk5qav7oirv)" height="412.7266" style="stroke:#A80036;stroke-width:1.0;" width="10" x="1158" y="318.2266"/><rect fill="#FFFFFF" filter="url(#fojk5qav7oirv)" height="383.5938" style="stroke:#A80036;stroke-width:1.0;" width="10" x="1306.5" y="347.3594"/><rect fill="#FFFFFF" filter="url(#fojk5qav7oirv)" height="29.1328" style="stroke:#A80036;stroke-width:1.0;" width="10" x="1438" y="259.9609"/><rect fill="#FFFFFF" filter="url(#fojk5qav7oirv)" height="601.5234" style="stroke:#A80036;stroke-width:1.0;" width="10" x="1542.5" y="196.6953"/><rect fill="#FFFFFF" filter="url(#fojk5qav7oirv)" height="225.0625" style="stroke:#000000;stroke-width:2.0;" width="1480" x="129" y="434.625"/><rect fill="#FFFFFF" filter="url(#fojk5qav7oirv)" height="46.2656" style="stroke:#000000;stroke-width:2.0;" width="870" x="520" y="458.7578"/><rect fill="#FFFFFF" filter="url(#fojk5qav7oirv)" height="46.2656" style="stroke:#000000;stroke-width:2.0;" width="902" x="697" y="606.4219"/><line style="stroke:#A80036;stroke-width:1.0;stroke-dasharray:5.0,5.0;" x1="32" x2="32" y1="88.2969" y2="807.2188"/><line style="stroke:#A80036;stroke-width:1.0;stroke-dasharray:5.0,5.0;" x1="99" x2="99" y1="88.2969" y2="807.2188"/><line style="stroke:#A80036;stroke-width:1.0;stroke-dasharray:5.0,5.0;" x1="162" x2="162" y1="88.2969" y2="807.2188"/><line style="stroke:#A80036;stroke-width:1.0;stroke-dasharray:5.0,5.0;" x1="581" x2="581" y1="88.2969" y2="807.2188"/><line style="stroke:#A80036;stroke-width:1.0;stroke-dasharray:5.0,5.0;" x1="801" x2="801" y1="88.2969" y2="807.2188"/><line style="stroke:#A80036;stroke-width:1.0;stroke-dasharray:5.0,5.0;" x1="1163" x2="1163" y1="88.2969" y2="807.2188"/><line style="stroke:#A80036;stroke-width:1.0;stroke-dasharray:5.0,5.0;" x1="1311" x2="1311" y1="88.2969" y2="807.2188"/><line style="stroke:#A80036;stroke-width:1.0;stroke-dasharray:5.0,5.0;" x1="1443" x2="1443" y1="88.2969" y2="807.2188"/><line style="stroke:#A80036;stroke-width:1.0;stroke-dasharray:5.0,5.0;" x1="1547" x2="1547" y1="88.2969" y2="807.2188"/><text fill="#000000" font-family="sans-serif" font-size="14" lengthAdjust="spacing" textLength="48" x="5" y="84.9951">Nutzer</text><ellipse cx="32" cy="15" fill="#FEFECE" filter="url(#fojk5qav7oirv)" rx="8" ry="8" style="stroke:#A80036;stroke-width:2.0;"/><path d="M32,23 L32,50 M19,31 L45,31 M32,50 L19,65 M32,50 L45,65 " fill="none" filter="url(#fojk5qav7oirv)" style="stroke:#A80036;stroke-width:2.0;"/><text fill="#000000" font-family="sans-serif" font-size="14" lengthAdjust="spacing" textLength="48" x="5" y="819.2139">Nutzer</text><ellipse cx="32" cy="832.5156" fill="#FEFECE" filter="url(#fojk5qav7oirv)" rx="8" ry="8" style="stroke:#A80036;stroke-width:2.0;"/><path d="M32,840.5156 L32,867.5156 M19,848.5156 L45,848.5156 M32,867.5156 L19,882.5156 M32,867.5156 L45,882.5156 " fill="none" filter="url(#fojk5qav7oirv)" style="stroke:#A80036;stroke-width:2.0;"/><text fill="#000000" font-family="sans-serif" font-size="14" lengthAdjust="spacing" textLength="54" x="69" y="84.9951">System</text><ellipse cx="99" cy="56" fill="#DA70D5" filter="url(#fojk5qav7oirv)" rx="12" ry="12" style="stroke:#A80036;stroke-width:2.0;"/><line style="stroke:#A80036;stroke-width:2.0;" x1="87" x2="111" y1="70" y2="70"/><text fill="#000000" font-family="sans-serif" font-size="14" lengthAdjust="spacing" textLength="54" x="69" y="819.2139">System</text><ellipse cx="99" cy="838.5156" fill="#DA70D5" filter="url(#fojk5qav7oirv)" rx="12" ry="12" style="stroke:#A80036;stroke-width:2.0;"/><line style="stroke:#A80036;stroke-width:2.0;" x1="87" x2="111" y1="852.5156" y2="852.5156"/><rect fill="#FEFECE" filter="url(#fojk5qav7oirv)" height="30.2969" style="stroke:#A80036;stroke-width:1.5;" width="38" x="143" y="49"/><rect fill="#FEFECE" filter="url(#fojk5qav7oirv)" height="30.2969" style="stroke:#A80036;stroke-width:1.5;" width="38" x="139" y="53"/><text fill="#000000" font-family="sans-serif" font-size="14" lengthAdjust="spacing" textLength="24" x="146" y="72.9951">GUI</text><rect fill="#FEFECE" filter="url(#fojk5qav7oirv)" height="30.2969" style="stroke:#A80036;stroke-width:1.5;" width="38" x="143" y="806.2188"/><rect fill="#FEFECE" filter="url(#fojk5qav7oirv)" height="30.2969" style="stroke:#A80036;stroke-width:1.5;" width="38" x="139" y="810.2188"/><text fill="#000000" font-family="sans-serif" font-size="14" lengthAdjust="spacing" textLength="24" x="146" y="830.2139">GUI</text><rect fill="#FEFECE" filter="url(#fojk5qav7oirv)" height="30.2969" style="stroke:#A80036;stroke-width:1.5;" width="98" x="530" y="53"/><text fill="#000000" font-family="sans-serif" font-size="14" lengthAdjust="spacing" textLength="84" x="537" y="72.9951">CodeCharts</text><rect fill="#FEFECE" filter="url(#fojk5qav7oirv)" height="30.2969" style="stroke:#A80036;stroke-width:1.5;" width="98" x="530" y="806.2188"/><text fill="#000000" font-family="sans-serif" font-size="14" lengthAdjust="spacing" textLength="84" x="537" y="826.2139">CodeCharts</text><rect fill="#FEFECE" filter="url(#fojk5qav7oirv)" height="30.2969" style="stroke:#A80036;stroke-width:1.5;" width="184" x="707" y="53"/><text fill="#000000" font-family="sans-serif" font-size="14" lengthAdjust="spacing" textLength="170" x="714" y="72.9951">CodeChartsCoordinator</text><rect fill="#FEFECE" filter="url(#fojk5qav7oirv)" height="30.2969" style="stroke:#A80036;stroke-width:1.5;" width="184" x="707" y="806.2188"/><text fill="#000000" font-family="sans-serif" font-size="14" lengthAdjust="spacing" textLength="170" x="714" y="826.2139">CodeChartsCoordinator</text><rect fill="#FEFECE" filter="url(#fojk5qav7oirv)" height="30.2969" style="stroke:#A80036;stroke-width:1.5;" width="136" x="1093" y="53"/><text fill="#000000" font-family="sans-serif" font-size="14" lengthAdjust="spacing" textLength="122" x="1100" y="72.9951">CodeChartsInput</text><rect fill="#FEFECE" filter="url(#fojk5qav7oirv)" height="30.2969" style="stroke:#A80036;stroke-width:1.5;" width="136" x="1093" y="806.2188"/><text fill="#000000" font-family="sans-serif" font-size="14" lengthAdjust="spacing" textLength="122" x="1100" y="826.2139">CodeChartsInput</text><rect fill="#FEFECE" filter="url(#fojk5qav7oirv)" height="30.2969" style="stroke:#A80036;stroke-width:1.5;" width="133" x="1243" y="53"/><text fill="#000000" font-family="sans-serif" font-size="14" lengthAdjust="spacing" textLength="119" x="1250" y="72.9951">CodeChartsPane</text><rect fill="#FEFECE" filter="url(#fojk5qav7oirv)" height="30.2969" style="stroke:#A80036;stroke-width:1.5;" width="133" x="1243" y="806.2188"/><text fill="#000000" font-family="sans-serif" font-size="14" lengthAdjust="spacing" textLength="119" x="1250" y="826.2139">CodeChartsPane</text><rect fill="#FEFECE" filter="url(#fojk5qav7oirv)" height="30.2969" style="stroke:#A80036;stroke-width:1.5;" width="102" x="1390" y="53"/><text fill="#000000" font-family="sans-serif" font-size="14" lengthAdjust="spacing" textLength="88" x="1397" y="72.9951">configClient</text><rect fill="#FEFECE" filter="url(#fojk5qav7oirv)" height="30.2969" style="stroke:#A80036;stroke-width:1.5;" width="102" x="1390" y="806.2188"/><text fill="#000000" font-family="sans-serif" font-size="14" lengthAdjust="spacing" textLength="88" x="1397" y="826.2139">configClient</text><rect fill="#FEFECE" filter="url(#fojk5qav7oirv)" height="30.2969" style="stroke:#A80036;stroke-width:1.5;" width="79" x="1506" y="53"/><text fill="#000000" font-family="sans-serif" font-size="14" lengthAdjust="spacing" textLength="65" x="1513" y="72.9951">TrialData</text><rect fill="#FEFECE" filter="url(#fojk5qav7oirv)" height="30.2969" style="stroke:#A80036;stroke-width:1.5;" width="79" x="1506" y="806.2188"/><text fill="#000000" font-family="sans-serif" font-size="14" lengthAdjust="spacing" textLength="65" x="1513" y="826.2139">TrialData</text><rect fill="#FFFFFF" filter="url(#fojk5qav7oirv)" height="699.9219" style="stroke:#A80036;stroke-width:1.0;" width="10" x="27" y="98.2969"/><rect fill="#FFFFFF" filter="url(#fojk5qav7oirv)" height="699.9219" style="stroke:#A80036;stroke-width:1.0;" width="10" x="94" y="98.2969"/><rect fill="#FFFFFF" filter="url(#fojk5qav7oirv)" height="699.9219" style="stroke:#A80036;stroke-width:1.0;" width="10" x="157" y="98.2969"/><rect fill="#FFFFFF" filter="url(#fojk5qav7oirv)" height="349.4609" style="stroke:#A80036;stroke-width:1.0;" width="10" x="576" y="162.5625"/><rect fill="#FFFFFF" filter="url(#fojk5qav7oirv)" height="58.2656" style="stroke:#A80036;stroke-width:1.0;" width="10" x="576" y="730.9531"/><rect fill="#FFFFFF" filter="url(#fojk5qav7oirv)" height="500.125" style="stroke:#A80036;stroke-width:1.0;" width="10" x="796" y="230.8281"/><rect fill="#FFFFFF" filter="url(#fojk5qav7oirv)" height="412.7266" style="stroke:#A80036;stroke-width:1.0;" width="10" x="1158" y="318.2266"/><rect fill="#FFFFFF" filter="url(#fojk5qav7oirv)" height="383.5938" style="stroke:#A80036;stroke-width:1.0;" width="10" x="1306.5" y="347.3594"/><rect fill="#FFFFFF" filter="url(#fojk5qav7oirv)" height="29.1328" style="stroke:#A80036;stroke-width:1.0;" width="10" x="1438" y="259.9609"/><rect fill="#FFFFFF" filter="url(#fojk5qav7oirv)" height="601.5234" style="stroke:#A80036;stroke-width:1.0;" width="10" x="1542.5" y="196.6953"/><rect fill="#EEEEEE" filter="url(#fojk5qav7oirv)" height="3" style="stroke:#EEEEEE;stroke-width:1.0;" width="1619" x="0" y="118.8633"/><line style="stroke:#000000;stroke-width:1.0;" x1="0" x2="1619" y1="118.8633" y2="118.8633"/><line style="stroke:#000000;stroke-width:1.0;" x1="0" x2="1619" y1="121.8633" y2="121.8633"/><rect fill="#EEEEEE" filter="url(#fojk5qav7oirv)" height="23.1328" style="stroke:#000000;stroke-width:2.0;" width="121" x="749" y="108.2969"/><text fill="#000000" font-family="sans-serif" font-size="13" font-weight="bold" lengthAdjust="spacing" textLength="102" x="755" y="124.3638">Initialisierung</text><polygon fill="#A80036" points="564,158.5625,574,162.5625,564,166.5625,568,162.5625" style="stroke:#A80036;stroke-width:1.0;"/><line style="stroke:#A80036;stroke-width:1.0;" x1="167" x2="570" y1="162.5625" y2="162.5625"/><text fill="#000000" font-family="sans-serif" font-size="13" lengthAdjust="spacing" textLength="390" x="174" y="157.4966">new CodeCharts(primaryStage, configClient, dataBaseClient)</text><polygon fill="#A80036" points="1530.5,192.6953,1540.5,196.6953,1530.5,200.6953,1534.5,196.6953" style="stroke:#A80036;stroke-width:1.0;"/><line style="stroke:#A80036;stroke-width:1.0;" x1="586" x2="1536.5" y1="196.6953" y2="196.6953"/><text fill="#000000" font-family="sans-serif" font-size="13" lengthAdjust="spacing" textLength="89" x="593" y="191.6294">new TrialData</text><path d="M220,175.5625 L220,200.5625 L567,200.5625 L567,185.5625 L557,175.5625 L220,175.5625 " fill="#FBFB77" filter="url(#fojk5qav7oirv)" style="stroke:#A80036;stroke-width:1.0;"/><path d="M557,175.5625 L557,185.5625 L567,185.5625 L557,175.5625 " fill="#FBFB77" style="stroke:#A80036;stroke-width:1.0;"/><text fill="#000000" font-family="sans-serif" font-size="13" lengthAdjust="spacing" textLength="317" x="235" y="192.6294">TrialData Objekt zum Abspeichern der Ergebnisse</text><polygon fill="#A80036" points="784,226.8281,794,230.8281,784,234.8281,788,230.8281" style="stroke:#A80036;stroke-width:1.0;"/><line style="stroke:#A80036;stroke-width:1.0;" x1="586" x2="790" y1="230.8281" y2="230.8281"/><text fill="#000000" font-family="sans-serif" font-size="13" lengthAdjust="spacing" textLength="191" x="593" y="225.7622">new CodeChartsCoordinator()</text><polygon fill="#A80036" points="1426,255.9609,1436,259.9609,1426,263.9609,1430,259.9609" style="stroke:#A80036;stroke-width:1.0;"/><line style="stroke:#A80036;stroke-width:1.0;" x1="806" x2="1432" y1="259.9609" y2="259.9609"/><text fill="#000000" font-family="sans-serif" font-size="13" lengthAdjust="spacing" textLength="72" x="813" y="254.895">getConfig()</text><polygon fill="#A80036" points="817,285.0938,807,289.0938,817,293.0938,813,289.0938" style="stroke:#A80036;stroke-width:1.0;"/><line style="stroke:#A80036;stroke-width:1.0;stroke-dasharray:2.0,2.0;" x1="811" x2="1442" y1="289.0938" y2="289.0938"/><text fill="#000000" font-family="sans-serif" font-size="13" lengthAdjust="spacing" textLength="85" x="823" y="284.0278">Konfiguration</text><polygon fill="#A80036" points="1146,314.2266,1156,318.2266,1146,322.2266,1150,318.2266" style="stroke:#A80036;stroke-width:1.0;"/><line style="stroke:#A80036;stroke-width:1.0;" x1="806" x2="1152" y1="318.2266" y2="318.2266"/><text fill="#000000" font-family="sans-serif" font-size="13" lengthAdjust="spacing" textLength="148" x="813" y="313.1606">new CodeChartsInput()</text><polygon fill="#A80036" points="1294.5,343.3594,1304.5,347.3594,1294.5,351.3594,1298.5,347.3594" style="stroke:#A80036;stroke-width:1.0;"/><line style="stroke:#A80036;stroke-width:1.0;" x1="806" x2="1300.5" y1="347.3594" y2="347.3594"/><text fill="#000000" font-family="sans-serif" font-size="13" lengthAdjust="spacing" textLength="148" x="813" y="342.2935">new CodeChartsPane()</text><rect fill="#EEEEEE" filter="url(#fojk5qav7oirv)" height="3" style="stroke:#EEEEEE;stroke-width:1.0;" width="1619" x="0" y="375.9258"/><line style="stroke:#000000;stroke-width:1.0;" x1="0" x2="1619" y1="375.9258" y2="375.9258"/><line style="stroke:#000000;stroke-width:1.0;" x1="0" x2="1619" y1="378.9258" y2="378.9258"/><rect fill="#EEEEEE" filter="url(#fojk5qav7oirv)" height="23.1328" style="stroke:#000000;stroke-width:2.0;" width="55" x="782" y="365.3594"/><text fill="#000000" font-family="sans-serif" font-size="13" font-weight="bold" lengthAdjust="spacing" textLength="36" x="788" y="381.4263">Test</text><polygon fill="#A80036" points="784,415.625,794,419.625,784,423.625,788,419.625" style="stroke:#A80036;stroke-width:1.0;"/><line style="stroke:#A80036;stroke-width:1.0;" x1="586" x2="790" y1="419.625" y2="419.625"/><text fill="#000000" font-family="sans-serif" font-size="13" lengthAdjust="spacing" textLength="52" x="593" y="414.5591">iterate()</text><path d="M129,434.625 L207,434.625 L207,441.625 L197,451.625 L129,451.625 L129,434.625 " fill="#EEEEEE" style="stroke:#000000;stroke-width:1.0;"/><rect fill="none" height="225.0625" style="stroke:#000000;stroke-width:2.0;" width="1480" x="129" y="434.625"/><text fill="#000000" font-family="sans-serif" font-size="13" font-weight="bold" lengthAdjust="spacing" textLength="33" x="144" y="447.6919">loop</text><path d="M520,458.7578 L592,458.7578 L592,465.7578 L582,475.7578 L520,475.7578 L520,458.7578 " fill="#EEEEEE" style="stroke:#000000;stroke-width:1.0;"/><rect fill="none" height="46.2656" style="stroke:#000000;stroke-width:2.0;" width="870" x="520" y="458.7578"/><text fill="#000000" font-family="sans-serif" font-size="13" font-weight="bold" lengthAdjust="spacing" textLength="27" x="535" y="471.8247">opt</text><polygon fill="#A80036" points="1294.5,493.0234,1304.5,497.0234,1294.5,501.0234,1298.5,497.0234" style="stroke:#A80036;stroke-width:1.0;"/><line style="stroke:#A80036;stroke-width:1.0;" x1="586" x2="1300.5" y1="497.0234" y2="497.0234"/><text fill="#000000" font-family="sans-serif" font-size="13" lengthAdjust="spacing" textLength="142" x="593" y="491.9575">Anpassen vom Raster</text><polygon fill="#A80036" points="178,529.1563,168,533.1563,178,537.1563,174,533.1563" style="stroke:#A80036;stroke-width:1.0;"/><line style="stroke:#A80036;stroke-width:1.0;" x1="172" x2="795" y1="533.1563" y2="533.1563"/><text fill="#000000" font-family="sans-serif" font-size="13" lengthAdjust="spacing" textLength="199" x="184" y="528.0903">Aufruf Bild, Raster und Eingabe</text><polygon fill="#A80036" points="1146,558.2891,1156,562.2891,1146,566.2891,1150,562.2891" style="stroke:#A80036;stroke-width:1.0;"/><line style="stroke:#A80036;stroke-width:1.0;" x1="806" x2="1152" y1="562.2891" y2="562.2891"/><text fill="#000000" font-family="sans-serif" font-size="13" lengthAdjust="spacing" textLength="328" x="813" y="557.2231">getInput(currentStrings, currentIteration, iterations)</text><polygon fill="#A80036" points="817,587.4219,807,591.4219,817,595.4219,813,591.4219" style="stroke:#A80036;stroke-width:1.0;"/><line style="stroke:#A80036;stroke-width:1.0;stroke-dasharray:2.0,2.0;" x1="811" x2="1157" y1="591.4219" y2="591.4219"/><text fill="#000000" font-family="sans-serif" font-size="13" lengthAdjust="spacing" textLength="31" x="823" y="586.356">Data</text><path d="M697,606.4219 L769,606.4219 L769,613.4219 L759,623.4219 L697,623.4219 L697,606.4219 " fill="#EEEEEE" style="stroke:#000000;stroke-width:1.0;"/><rect fill="none" height="46.2656" style="stroke:#000000;stroke-width:2.0;" width="902" x="697" y="606.4219"/><text fill="#000000" font-family="sans-serif" font-size="13" font-weight="bold" lengthAdjust="spacing" textLength="27" x="712" y="619.4888">opt</text><text fill="#000000" font-family="sans-serif" font-size="11" font-weight="bold" lengthAdjust="spacing" textLength="99" x="784" y="618.6323">["Data != null"]</text><polygon fill="#A80036" points="1530.5,640.6875,1540.5,644.6875,1530.5,648.6875,1534.5,644.6875" style="stroke:#A80036;stroke-width:1.0;"/><line style="stroke:#A80036;stroke-width:1.0;" x1="806" x2="1536.5" y1="644.6875" y2="644.6875"/><text fill="#000000" font-family="sans-serif" font-size="13" lengthAdjust="spacing" textLength="257" x="813" y="639.6216">trialData.addDataPoint(viewport, depth)</text><rect fill="#EEEEEE" filter="url(#fojk5qav7oirv)" height="3" style="stroke:#EEEEEE;stroke-width:1.0;" width="1619" x="0" y="687.2539"/><line style="stroke:#000000;stroke-width:1.0;" x1="0" x2="1619" y1="687.2539" y2="687.2539"/><line style="stroke:#000000;stroke-width:1.0;" x1="0" x2="1619" y1="690.2539" y2="690.2539"/><rect fill="#EEEEEE" filter="url(#fojk5qav7oirv)" height="23.1328" style="stroke:#000000;stroke-width:2.0;" width="55" x="782" y="676.6875"/><text fill="#000000" font-family="sans-serif" font-size="13" font-weight="bold" lengthAdjust="spacing" textLength="36" x="788" y="692.7544">Ende</text><polygon fill="#A80036" points="597,726.9531,587,730.9531,597,734.9531,593,730.9531" style="stroke:#A80036;stroke-width:1.0;"/><line style="stroke:#A80036;stroke-width:1.0;" x1="591" x2="800" y1="730.9531" y2="730.9531"/><text fill="#000000" font-family="sans-serif" font-size="13" lengthAdjust="spacing" textLength="62" x="603" y="725.8872">endTest()</text><polygon fill="#A80036" points="597,756.0859,587,760.0859,597,764.0859,593,760.0859" style="stroke:#A80036;stroke-width:1.0;"/><line style="stroke:#A80036;stroke-width:1.0;stroke-dasharray:2.0,2.0;" x1="591" x2="1541.5" y1="760.0859" y2="760.0859"/><text fill="#000000" font-family="sans-serif" font-size="13" lengthAdjust="spacing" textLength="104" x="603" y="755.02">Erhobene Daten</text><polygon fill="#A80036" points="178,785.2188,168,789.2188,178,793.2188,174,789.2188" style="stroke:#A80036;stroke-width:1.0;"/><line style="stroke:#A80036;stroke-width:1.0;" x1="172" x2="580" y1="789.2188" y2="789.2188"/><text fill="#000000" font-family="sans-serif" font-size="13" lengthAdjust="spacing" textLength="371" x="184" y="784.1528">End(primaryStage, configClient, dataBaseClient, trialData)</text><!--MD5=[a5b95f13f3fd6373066077ee86b60194]
@startuml
skinparam defaultTextAlignment center

actor       Nutzer          as n
entity      System          as s    #DA70D5
collections GUI             as g

box CodeCharts

participant CodeCharts              as cc
participant CodeChartsCoordinator   as co
participant CodeChartsInput         as ci
participant CodeChartsPane          as cp
end box

participant configClient            as c
participant TrialData               as td

activate n
activate s
activate g

== Initialisierung ==
g -> cc : new CodeCharts(primaryStage, configClient, dataBaseClient)
activate cc
cc -> td : new TrialData
activate td
note left: TrialData Objekt zum Abspeichern der Ergebnisse
cc -> co : new CodeChartsCoordinator()
activate co
co -> c : getConfig()
activate c
c - -> co : Konfiguration
deactivate c
co -> ci : new CodeChartsInput()
activate ci
co -> cp : new CodeChartsPane()
activate cp

== Test ==
cc -> co : iterate()
loop
    opt
        cc -> cp : Anpassen vom Raster
    end
    deactivate cc
    activate co
    co -> g : Aufruf Bild, Raster und Eingabe
    co -> ci : getInput(currentStrings, currentIteration, iterations)
    ci - -> co : Data
    opt "Data != null"
        co -> td : trialData.addDataPoint(viewport, depth)
    end
end

== Ende ==
co -> cc : endTest()
deactivate co
deactivate cp
deactivate ci
activate cc
td - -> cc : Erhobene Daten
cc -> g : End(primaryStage, configClient, dataBaseClient, trialData)
deactivate cc
@enduml

PlantUML version 1.2022.1beta9(Unknown compile time)
(GPL source distribution)
Java Runtime: Java(TM) SE Runtime Environment
JVM: Java HotSpot(TM) 64-Bit Server VM
Default Encoding: UTF-8
Language: en
Country: US
--></g></svg>