<?xml version="1.0" encoding="UTF-8" standalone="no"?><svg xmlns="http://www.w3.org/2000/svg" xmlns:xlink="http://www.w3.org/1999/xlink" contentScriptType="application/ecmascript" contentStyleType="text/css" height="768px" preserveAspectRatio="none" style="width:1613px;height:768px;background:#FFFFFF;" version="1.1" viewBox="0 0 1613 768" width="1613px" zoomAndPan="magnify"><defs><filter height="300%" id="f1nfnlcj9i5usb" width="300%" x="-1" y="-1"><feGaussianBlur result="blurOut" stdDeviation="2.0"/><feColorMatrix in="blurOut" result="blurOut2" type="matrix" values="0 0 0 0 0 0 0 0 0 0 0 0 0 0 0 0 0 0 .4 0"/><feOffset dx="4.0" dy="4.0" in="blurOut2" result="blurOut3"/><feBlend in="SourceGraphic" in2="blurOut3" mode="normal"/></filter></defs><g><rect fill="#DDDDDD" height="756.9844" style="stroke:#A80036;stroke-width:1.0;" width="973" x="512" y="6"/><text fill="#000000" font-family="sans-serif" font-size="13" font-weight="bold" lengthAdjust="spacing" textLength="89" x="954" y="18.0669">CodeCharts</text><rect fill="#FFFFFF" filter="url(#f1nfnlcj9i5usb)" height="569.3906" style="stroke:#A80036;stroke-width:1.0;" width="10" x="27" y="98.2969"/><rect fill="#FFFFFF" filter="url(#f1nfnlcj9i5usb)" height="569.3906" style="stroke:#A80036;stroke-width:1.0;" width="10" x="94" y="98.2969"/><rect fill="#FFFFFF" filter="url(#f1nfnlcj9i5usb)" height="569.3906" style="stroke:#A80036;stroke-width:1.0;" width="10" x="157" y="98.2969"/><rect fill="#FFFFFF" filter="url(#f1nfnlcj9i5usb)" height="300.3281" style="stroke:#A80036;stroke-width:1.0;" width="10" x="562" y="162.5625"/><rect fill="#FFFFFF" filter="url(#f1nfnlcj9i5usb)" height="29.1328" style="stroke:#A80036;stroke-width:1.0;" width="10" x="562" y="629.5547"/><rect fill="#FFFFFF" filter="url(#f1nfnlcj9i5usb)" height="116.5313" style="stroke:#A80036;stroke-width:1.0;" width="10" x="902" y="249.9609"/><rect fill="#FFFFFF" filter="url(#f1nfnlcj9i5usb)" height="166.6641" style="stroke:#A80036;stroke-width:1.0;" width="10" x="902" y="462.8906"/><rect fill="#FFFFFF" filter="url(#f1nfnlcj9i5usb)" height="29.1328" style="stroke:#A80036;stroke-width:1.0;" width="10" x="1259" y="521.1563"/><rect fill="#FFFFFF" filter="url(#f1nfnlcj9i5usb)" height="29.1328" style="stroke:#A80036;stroke-width:1.0;" width="10" x="1541" y="191.6953"/><rect fill="#FFFFFF" filter="url(#f1nfnlcj9i5usb)" height="29.1328" style="stroke:#A80036;stroke-width:1.0;" width="10" x="1541" y="308.2266"/><rect fill="#FFFFFF" filter="url(#f1nfnlcj9i5usb)" height="133.6641" style="stroke:#000000;stroke-width:2.0;" width="1215" x="129" y="424.625"/><line style="stroke:#A80036;stroke-width:1.0;stroke-dasharray:5.0,5.0;" x1="32" x2="32" y1="88.2969" y2="676.6875"/><line style="stroke:#A80036;stroke-width:1.0;stroke-dasharray:5.0,5.0;" x1="99" x2="99" y1="88.2969" y2="676.6875"/><line style="stroke:#A80036;stroke-width:1.0;stroke-dasharray:5.0,5.0;" x1="162" x2="162" y1="88.2969" y2="676.6875"/><line style="stroke:#A80036;stroke-width:1.0;stroke-dasharray:5.0,5.0;" x1="567" x2="567" y1="88.2969" y2="676.6875"/><line style="stroke:#A80036;stroke-width:1.0;stroke-dasharray:5.0,5.0;" x1="715" x2="715" y1="88.2969" y2="676.6875"/><line style="stroke:#A80036;stroke-width:1.0;stroke-dasharray:5.0,5.0;" x1="907" x2="907" y1="88.2969" y2="676.6875"/><line style="stroke:#A80036;stroke-width:1.0;stroke-dasharray:5.0,5.0;" x1="1264" x2="1264" y1="88.2969" y2="676.6875"/><line style="stroke:#A80036;stroke-width:1.0;stroke-dasharray:5.0,5.0;" x1="1412" x2="1412" y1="88.2969" y2="676.6875"/><line style="stroke:#A80036;stroke-width:1.0;stroke-dasharray:5.0,5.0;" x1="1546" x2="1546" y1="88.2969" y2="676.6875"/><text fill="#000000" font-family="sans-serif" font-size="14" lengthAdjust="spacing" textLength="48" x="5" y="84.9951">Nutzer</text><ellipse cx="32" cy="15" fill="#FEFECE" filter="url(#f1nfnlcj9i5usb)" rx="8" ry="8" style="stroke:#A80036;stroke-width:2.0;"/><path d="M32,23 L32,50 M19,31 L45,31 M32,50 L19,65 M32,50 L45,65 " fill="none" filter="url(#f1nfnlcj9i5usb)" style="stroke:#A80036;stroke-width:2.0;"/><text fill="#000000" font-family="sans-serif" font-size="14" lengthAdjust="spacing" textLength="48" x="5" y="688.6826">Nutzer</text><ellipse cx="32" cy="701.9844" fill="#FEFECE" filter="url(#f1nfnlcj9i5usb)" rx="8" ry="8" style="stroke:#A80036;stroke-width:2.0;"/><path d="M32,709.9844 L32,736.9844 M19,717.9844 L45,717.9844 M32,736.9844 L19,751.9844 M32,736.9844 L45,751.9844 " fill="none" filter="url(#f1nfnlcj9i5usb)" style="stroke:#A80036;stroke-width:2.0;"/><text fill="#000000" font-family="sans-serif" font-size="14" lengthAdjust="spacing" textLength="54" x="69" y="84.9951">System</text><ellipse cx="99" cy="56" fill="#DA70D5" filter="url(#f1nfnlcj9i5usb)" rx="12" ry="12" style="stroke:#A80036;stroke-width:2.0;"/><line style="stroke:#A80036;stroke-width:2.0;" x1="87" x2="111" y1="70" y2="70"/><text fill="#000000" font-family="sans-serif" font-size="14" lengthAdjust="spacing" textLength="54" x="69" y="688.6826">System</text><ellipse cx="99" cy="707.9844" fill="#DA70D5" filter="url(#f1nfnlcj9i5usb)" rx="12" ry="12" style="stroke:#A80036;stroke-width:2.0;"/><line style="stroke:#A80036;stroke-width:2.0;" x1="87" x2="111" y1="721.9844" y2="721.9844"/><rect fill="#FEFECE" filter="url(#f1nfnlcj9i5usb)" height="30.2969" style="stroke:#A80036;stroke-width:1.5;" width="38" x="143" y="49"/><rect fill="#FEFECE" filter="url(#f1nfnlcj9i5usb)" height="30.2969" style="stroke:#A80036;stroke-width:1.5;" width="38" x="139" y="53"/><text fill="#000000" font-family="sans-serif" font-size="14" lengthAdjust="spacing" textLength="24" x="146" y="72.9951">GUI</text><rect fill="#FEFECE" filter="url(#f1nfnlcj9i5usb)" height="30.2969" style="stroke:#A80036;stroke-width:1.5;" width="38" x="143" y="675.6875"/><rect fill="#FEFECE" filter="url(#f1nfnlcj9i5usb)" height="30.2969" style="stroke:#A80036;stroke-width:1.5;" width="38" x="139" y="679.6875"/><text fill="#000000" font-family="sans-serif" font-size="14" lengthAdjust="spacing" textLength="24" x="146" y="699.6826">GUI</text><rect fill="#FEFECE" filter="url(#f1nfnlcj9i5usb)" height="30.2969" style="stroke:#A80036;stroke-width:1.5;" width="98" x="516" y="53"/><text fill="#000000" font-family="sans-serif" font-size="14" lengthAdjust="spacing" textLength="84" x="523" y="72.9951">CodeCharts</text><rect fill="#FEFECE" filter="url(#f1nfnlcj9i5usb)" height="30.2969" style="stroke:#A80036;stroke-width:1.5;" width="98" x="516" y="675.6875"/><text fill="#000000" font-family="sans-serif" font-size="14" lengthAdjust="spacing" textLength="84" x="523" y="695.6826">CodeCharts</text><rect fill="#FEFECE" filter="url(#f1nfnlcj9i5usb)" height="30.2969" style="stroke:#A80036;stroke-width:1.5;" width="171" x="628" y="53"/><text fill="#000000" font-family="sans-serif" font-size="14" lengthAdjust="spacing" textLength="157" x="635" y="72.9951">CodeChartsController</text><rect fill="#FEFECE" filter="url(#f1nfnlcj9i5usb)" height="30.2969" style="stroke:#A80036;stroke-width:1.5;" width="171" x="628" y="675.6875"/><text fill="#000000" font-family="sans-serif" font-size="14" lengthAdjust="spacing" textLength="157" x="635" y="695.6826">CodeChartsController</text><rect fill="#FEFECE" filter="url(#f1nfnlcj9i5usb)" height="30.2969" style="stroke:#A80036;stroke-width:1.5;" width="184" x="813" y="53"/><text fill="#000000" font-family="sans-serif" font-size="14" lengthAdjust="spacing" textLength="170" x="820" y="72.9951">CodeChartsCoordinator</text><rect fill="#FEFECE" filter="url(#f1nfnlcj9i5usb)" height="30.2969" style="stroke:#A80036;stroke-width:1.5;" width="184" x="813" y="675.6875"/><text fill="#000000" font-family="sans-serif" font-size="14" lengthAdjust="spacing" textLength="170" x="820" y="695.6826">CodeChartsCoordinator</text><rect fill="#FEFECE" filter="url(#f1nfnlcj9i5usb)" height="30.2969" style="stroke:#A80036;stroke-width:1.5;" width="136" x="1194" y="53"/><text fill="#000000" font-family="sans-serif" font-size="14" lengthAdjust="spacing" textLength="122" x="1201" y="72.9951">CodeChartsInput</text><rect fill="#FEFECE" filter="url(#f1nfnlcj9i5usb)" height="30.2969" style="stroke:#A80036;stroke-width:1.5;" width="136" x="1194" y="675.6875"/><text fill="#000000" font-family="sans-serif" font-size="14" lengthAdjust="spacing" textLength="122" x="1201" y="695.6826">CodeChartsInput</text><rect fill="#FEFECE" filter="url(#f1nfnlcj9i5usb)" height="30.2969" style="stroke:#A80036;stroke-width:1.5;" width="133" x="1344" y="53"/><text fill="#000000" font-family="sans-serif" font-size="14" lengthAdjust="spacing" textLength="119" x="1351" y="72.9951">CodeChartsPane</text><rect fill="#FEFECE" filter="url(#f1nfnlcj9i5usb)" height="30.2969" style="stroke:#A80036;stroke-width:1.5;" width="133" x="1344" y="675.6875"/><text fill="#000000" font-family="sans-serif" font-size="14" lengthAdjust="spacing" textLength="119" x="1351" y="695.6826">CodeChartsPane</text><rect fill="#FEFECE" filter="url(#f1nfnlcj9i5usb)" height="30.2969" style="stroke:#A80036;stroke-width:1.5;" width="102" x="1495" y="49"/><rect fill="#FEFECE" filter="url(#f1nfnlcj9i5usb)" height="30.2969" style="stroke:#A80036;stroke-width:1.5;" width="102" x="1491" y="53"/><text fill="#000000" font-family="sans-serif" font-size="14" lengthAdjust="spacing" textLength="88" x="1498" y="72.9951">configClient</text><rect fill="#FEFECE" filter="url(#f1nfnlcj9i5usb)" height="30.2969" style="stroke:#A80036;stroke-width:1.5;" width="102" x="1495" y="675.6875"/><rect fill="#FEFECE" filter="url(#f1nfnlcj9i5usb)" height="30.2969" style="stroke:#A80036;stroke-width:1.5;" width="102" x="1491" y="679.6875"/><text fill="#000000" font-family="sans-serif" font-size="14" lengthAdjust="spacing" textLength="88" x="1498" y="699.6826">configClient</text><rect fill="#FFFFFF" filter="url(#f1nfnlcj9i5usb)" height="569.3906" style="stroke:#A80036;stroke-width:1.0;" width="10" x="27" y="98.2969"/><rect fill="#FFFFFF" filter="url(#f1nfnlcj9i5usb)" height="569.3906" style="stroke:#A80036;stroke-width:1.0;" width="10" x="94" y="98.2969"/><rect fill="#FFFFFF" filter="url(#f1nfnlcj9i5usb)" height="569.3906" style="stroke:#A80036;stroke-width:1.0;" width="10" x="157" y="98.2969"/><rect fill="#FFFFFF" filter="url(#f1nfnlcj9i5usb)" height="300.3281" style="stroke:#A80036;stroke-width:1.0;" width="10" x="562" y="162.5625"/><rect fill="#FFFFFF" filter="url(#f1nfnlcj9i5usb)" height="29.1328" style="stroke:#A80036;stroke-width:1.0;" width="10" x="562" y="629.5547"/><rect fill="#FFFFFF" filter="url(#f1nfnlcj9i5usb)" height="116.5313" style="stroke:#A80036;stroke-width:1.0;" width="10" x="902" y="249.9609"/><rect fill="#FFFFFF" filter="url(#f1nfnlcj9i5usb)" height="166.6641" style="stroke:#A80036;stroke-width:1.0;" width="10" x="902" y="462.8906"/><rect fill="#FFFFFF" filter="url(#f1nfnlcj9i5usb)" height="29.1328" style="stroke:#A80036;stroke-width:1.0;" width="10" x="1259" y="521.1563"/><rect fill="#FFFFFF" filter="url(#f1nfnlcj9i5usb)" height="29.1328" style="stroke:#A80036;stroke-width:1.0;" width="10" x="1541" y="191.6953"/><rect fill="#FFFFFF" filter="url(#f1nfnlcj9i5usb)" height="29.1328" style="stroke:#A80036;stroke-width:1.0;" width="10" x="1541" y="308.2266"/><rect fill="#EEEEEE" filter="url(#f1nfnlcj9i5usb)" height="3" style="stroke:#EEEEEE;stroke-width:1.0;" width="1606" x="0" y="118.8633"/><line style="stroke:#000000;stroke-width:1.0;" x1="0" x2="1606" y1="118.8633" y2="118.8633"/><line style="stroke:#000000;stroke-width:1.0;" x1="0" x2="1606" y1="121.8633" y2="121.8633"/><rect fill="#EEEEEE" filter="url(#f1nfnlcj9i5usb)" height="23.1328" style="stroke:#000000;stroke-width:2.0;" width="121" x="742.5" y="108.2969"/><text fill="#000000" font-family="sans-serif" font-size="13" font-weight="bold" lengthAdjust="spacing" textLength="102" x="748.5" y="124.3638">Initialisierung</text><polygon fill="#A80036" points="550,158.5625,560,162.5625,550,166.5625,554,162.5625" style="stroke:#A80036;stroke-width:1.0;"/><line style="stroke:#A80036;stroke-width:1.0;" x1="167" x2="556" y1="162.5625" y2="162.5625"/><text fill="#000000" font-family="sans-serif" font-size="13" lengthAdjust="spacing" textLength="359" x="174" y="157.4966">CodeCharts(primaryStage, configClient, dataBaseClient)</text><polygon fill="#A80036" points="1529,187.6953,1539,191.6953,1529,195.6953,1533,191.6953" style="stroke:#A80036;stroke-width:1.0;"/><line style="stroke:#A80036;stroke-width:1.0;" x1="572" x2="1535" y1="191.6953" y2="191.6953"/><text fill="#000000" font-family="sans-serif" font-size="13" lengthAdjust="spacing" textLength="89" x="579" y="186.6294">getTrailData()</text><polygon fill="#A80036" points="583,216.8281,573,220.8281,583,224.8281,579,220.8281" style="stroke:#A80036;stroke-width:1.0;"/><line style="stroke:#A80036;stroke-width:1.0;stroke-dasharray:2.0,2.0;" x1="577" x2="1545" y1="220.8281" y2="220.8281"/><text fill="#000000" font-family="sans-serif" font-size="13" lengthAdjust="spacing" textLength="126" x="589" y="215.7622">trialData : TrailData</text><polygon fill="#A80036" points="890,245.9609,900,249.9609,890,253.9609,894,249.9609" style="stroke:#A80036;stroke-width:1.0;"/><line style="stroke:#A80036;stroke-width:1.0;" x1="572" x2="896" y1="249.9609" y2="249.9609"/><text fill="#000000" font-family="sans-serif" font-size="13" lengthAdjust="spacing" textLength="182" x="579" y="244.895">CodeChartsCoordinator([...])</text><polygon fill="#A80036" points="1252,275.0938,1262,279.0938,1252,283.0938,1256,279.0938" style="stroke:#A80036;stroke-width:1.0;"/><line style="stroke:#A80036;stroke-width:1.0;" x1="912" x2="1258" y1="279.0938" y2="279.0938"/><text fill="#000000" font-family="sans-serif" font-size="13" lengthAdjust="spacing" textLength="117" x="919" y="274.0278">CodeChartsInput()</text><polygon fill="#A80036" points="1529,304.2266,1539,308.2266,1529,312.2266,1533,308.2266" style="stroke:#A80036;stroke-width:1.0;"/><line style="stroke:#A80036;stroke-width:1.0;" x1="912" x2="1535" y1="308.2266" y2="308.2266"/><text fill="#000000" font-family="sans-serif" font-size="13" lengthAdjust="spacing" textLength="52" x="919" y="303.1606">getData</text><polygon fill="#A80036" points="923,333.3594,913,337.3594,923,341.3594,919,337.3594" style="stroke:#A80036;stroke-width:1.0;"/><line style="stroke:#A80036;stroke-width:1.0;stroke-dasharray:2.0,2.0;" x1="917" x2="1545" y1="337.3594" y2="337.3594"/><text fill="#000000" font-family="sans-serif" font-size="13" lengthAdjust="spacing" textLength="31" x="929" y="332.2935">Data</text><polygon fill="#A80036" points="1400.5,362.4922,1410.5,366.4922,1400.5,370.4922,1404.5,366.4922" style="stroke:#A80036;stroke-width:1.0;"/><line style="stroke:#A80036;stroke-width:1.0;" x1="907" x2="1406.5" y1="366.4922" y2="366.4922"/><text fill="#000000" font-family="sans-serif" font-size="13" lengthAdjust="spacing" textLength="79" x="914" y="361.4263">setVariables</text><rect fill="#EEEEEE" filter="url(#f1nfnlcj9i5usb)" height="3" style="stroke:#EEEEEE;stroke-width:1.0;" width="1606" x="0" y="395.0586"/><line style="stroke:#000000;stroke-width:1.0;" x1="0" x2="1606" y1="395.0586" y2="395.0586"/><line style="stroke:#000000;stroke-width:1.0;" x1="0" x2="1606" y1="398.0586" y2="398.0586"/><rect fill="#EEEEEE" filter="url(#f1nfnlcj9i5usb)" height="23.1328" style="stroke:#000000;stroke-width:2.0;" width="55" x="775.5" y="384.4922"/><text fill="#000000" font-family="sans-serif" font-size="13" font-weight="bold" lengthAdjust="spacing" textLength="36" x="781.5" y="400.5591">Test</text><path d="M129,424.625 L207,424.625 L207,431.625 L197,441.625 L129,441.625 L129,424.625 " fill="#EEEEEE" style="stroke:#000000;stroke-width:1.0;"/><rect fill="none" height="133.6641" style="stroke:#000000;stroke-width:2.0;" width="1215" x="129" y="424.625"/><text fill="#000000" font-family="sans-serif" font-size="13" font-weight="bold" lengthAdjust="spacing" textLength="33" x="144" y="437.6919">loop</text><polygon fill="#A80036" points="890,458.8906,900,462.8906,890,466.8906,894,462.8906" style="stroke:#A80036;stroke-width:1.0;"/><line style="stroke:#A80036;stroke-width:1.0;" x1="567" x2="896" y1="462.8906" y2="462.8906"/><text fill="#000000" font-family="sans-serif" font-size="13" lengthAdjust="spacing" textLength="52" x="574" y="457.8247">iterate()</text><polygon fill="#A80036" points="178,488.0234,168,492.0234,178,496.0234,174,492.0234" style="stroke:#A80036;stroke-width:1.0;"/><line style="stroke:#A80036;stroke-width:1.0;" x1="172" x2="901" y1="492.0234" y2="492.0234"/><text fill="#000000" font-family="sans-serif" font-size="13" lengthAdjust="spacing" textLength="199" x="184" y="486.9575">Aufruf Bild, Raster und Eingabe</text><polygon fill="#A80036" points="1247,517.1563,1257,521.1563,1247,525.1563,1251,521.1563" style="stroke:#A80036;stroke-width:1.0;"/><line style="stroke:#A80036;stroke-width:1.0;" x1="912" x2="1253" y1="521.1563" y2="521.1563"/><text fill="#000000" font-family="sans-serif" font-size="13" lengthAdjust="spacing" textLength="328" x="919" y="516.0903">getInput(currentStrings, currentIteration, iterations)</text><polygon fill="#A80036" points="923,546.2891,913,550.2891,923,554.2891,919,550.2891" style="stroke:#A80036;stroke-width:1.0;"/><line style="stroke:#A80036;stroke-width:1.0;stroke-dasharray:2.0,2.0;" x1="917" x2="1263" y1="550.2891" y2="550.2891"/><text fill="#000000" font-family="sans-serif" font-size="13" lengthAdjust="spacing" textLength="31" x="929" y="545.2231">Data</text><rect fill="#EEEEEE" filter="url(#f1nfnlcj9i5usb)" height="3" style="stroke:#EEEEEE;stroke-width:1.0;" width="1606" x="0" y="585.8555"/><line style="stroke:#000000;stroke-width:1.0;" x1="0" x2="1606" y1="585.8555" y2="585.8555"/><line style="stroke:#000000;stroke-width:1.0;" x1="0" x2="1606" y1="588.8555" y2="588.8555"/><rect fill="#EEEEEE" filter="url(#f1nfnlcj9i5usb)" height="23.1328" style="stroke:#000000;stroke-width:2.0;" width="55" x="775.5" y="575.2891"/><text fill="#000000" font-family="sans-serif" font-size="13" font-weight="bold" lengthAdjust="spacing" textLength="36" x="781.5" y="591.356">Ende</text><polygon fill="#A80036" points="583,625.5547,573,629.5547,583,633.5547,579,629.5547" style="stroke:#A80036;stroke-width:1.0;"/><line style="stroke:#A80036;stroke-width:1.0;" x1="577" x2="906" y1="629.5547" y2="629.5547"/><text fill="#000000" font-family="sans-serif" font-size="13" lengthAdjust="spacing" textLength="62" x="589" y="624.4888">endTest()</text><polygon fill="#A80036" points="178,654.6875,168,658.6875,178,662.6875,174,658.6875" style="stroke:#A80036;stroke-width:1.0;"/><line style="stroke:#A80036;stroke-width:1.0;" x1="172" x2="566" y1="658.6875" y2="658.6875"/><text fill="#000000" font-family="sans-serif" font-size="13" lengthAdjust="spacing" textLength="371" x="184" y="653.6216">End(primaryStage, configClient, dataBaseClient, trialData)</text><!--MD5=[c6a224ac393fd9643ad63db0e88a5f06]
@startuml
skinparam defaultTextAlignment center

actor       Nutzer          as n
entity      System          as s    #DA70D5
collections GUI             as g

box CodeCharts

participant CodeCharts              as cc
participant CodeChartsController    as ct
participant CodeChartsCoordinator   as co
participant CodeChartsInput         as ci
participant CodeChartsPane          as cp
end box

collections configClient          as c

activate n
activate s
activate g

== Initialisierung ==
g -> cc : CodeCharts(primaryStage, configClient, dataBaseClient)
activate cc
cc -> c : getTrailData()
activate c
c - -> cc : trialData : TrailData
deactivate c
cc -> co : CodeChartsCoordinator([...])
activate co
co -> ci : CodeChartsInput()
co -> c : getData
activate c
c - -> co : Data
deactivate c
co -> cp : setVariables
deactivate co

== Test ==
loop
    cc -> co : iterate()
    deactivate cc
    activate co
    co -> g : Aufruf Bild, Raster und Eingabe
    co -> ci : getInput(currentStrings, currentIteration, iterations)
    activate ci
    ci - -> co : Data
    deactivate ci
end

== Ende == 
co -> cc : endTest()
deactivate co
activate cc
cc -> g : End(primaryStage, configClient, dataBaseClient, trialData)
deactivate cc
@enduml

PlantUML version 1.2022.1beta6(Unknown compile time)
(GPL source distribution)
Java Runtime: Java(TM) SE Runtime Environment
JVM: Java HotSpot(TM) 64-Bit Server VM
Default Encoding: UTF-8
Language: en
Country: US
--></g></svg>