<?xml version="1.0" encoding="UTF-8" standalone="no"?><svg xmlns="http://www.w3.org/2000/svg" xmlns:xlink="http://www.w3.org/1999/xlink" contentScriptType="application/ecmascript" contentStyleType="text/css" height="788px" preserveAspectRatio="none" style="width:1627px;height:788px;background:#FFFFFF;" version="1.1" viewBox="0 0 1627 788" width="1627px" zoomAndPan="magnify"><defs><filter height="300%" id="fr3hogtmo8icj" width="300%" x="-1" y="-1"><feGaussianBlur result="blurOut" stdDeviation="2.0"/><feColorMatrix in="blurOut" result="blurOut2" type="matrix" values="0 0 0 0 0 0 0 0 0 0 0 0 0 0 0 0 0 0 .4 0"/><feOffset dx="4.0" dy="4.0" in="blurOut2" result="blurOut3"/><feBlend in="SourceGraphic" in2="blurOut3" mode="normal"/></filter></defs><g><rect fill="#DDDDDD" height="776.9844" style="stroke:#A80036;stroke-width:1.0;" width="973" x="526" y="6"/><text fill="#000000" font-family="sans-serif" font-size="13" font-weight="bold" lengthAdjust="spacing" textLength="89" x="968" y="18.0669">CodeCharts</text><rect fill="#FFFFFF" filter="url(#fr3hogtmo8icj)" height="589.3906" style="stroke:#A80036;stroke-width:1.0;" width="10" x="27" y="98.2969"/><rect fill="#FFFFFF" filter="url(#fr3hogtmo8icj)" height="589.3906" style="stroke:#A80036;stroke-width:1.0;" width="10" x="94" y="98.2969"/><rect fill="#FFFFFF" filter="url(#fr3hogtmo8icj)" height="589.3906" style="stroke:#A80036;stroke-width:1.0;" width="10" x="157" y="98.2969"/><rect fill="#FFFFFF" filter="url(#fr3hogtmo8icj)" height="320.3281" style="stroke:#A80036;stroke-width:1.0;" width="10" x="576" y="162.5625"/><rect fill="#FFFFFF" filter="url(#fr3hogtmo8icj)" height="29.1328" style="stroke:#A80036;stroke-width:1.0;" width="10" x="576" y="649.5547"/><rect fill="#FFFFFF" filter="url(#fr3hogtmo8icj)" height="116.5313" style="stroke:#A80036;stroke-width:1.0;" width="10" x="916" y="269.9609"/><rect fill="#FFFFFF" filter="url(#fr3hogtmo8icj)" height="166.6641" style="stroke:#A80036;stroke-width:1.0;" width="10" x="916" y="482.8906"/><rect fill="#FFFFFF" filter="url(#fr3hogtmo8icj)" height="29.1328" style="stroke:#A80036;stroke-width:1.0;" width="10" x="1273" y="541.1563"/><rect fill="#FFFFFF" filter="url(#fr3hogtmo8icj)" height="39.1328" style="stroke:#A80036;stroke-width:1.0;" width="10" x="1555" y="196.6953"/><rect fill="#FFFFFF" filter="url(#fr3hogtmo8icj)" height="29.1328" style="stroke:#A80036;stroke-width:1.0;" width="10" x="1555" y="328.2266"/><rect fill="#FFFFFF" filter="url(#fr3hogtmo8icj)" height="133.6641" style="stroke:#000000;stroke-width:2.0;" width="1229" x="129" y="444.625"/><line style="stroke:#A80036;stroke-width:1.0;stroke-dasharray:5.0,5.0;" x1="32" x2="32" y1="88.2969" y2="696.6875"/><line style="stroke:#A80036;stroke-width:1.0;stroke-dasharray:5.0,5.0;" x1="99" x2="99" y1="88.2969" y2="696.6875"/><line style="stroke:#A80036;stroke-width:1.0;stroke-dasharray:5.0,5.0;" x1="162" x2="162" y1="88.2969" y2="696.6875"/><line style="stroke:#A80036;stroke-width:1.0;stroke-dasharray:5.0,5.0;" x1="581" x2="581" y1="88.2969" y2="696.6875"/><line style="stroke:#A80036;stroke-width:1.0;stroke-dasharray:5.0,5.0;" x1="729" x2="729" y1="88.2969" y2="696.6875"/><line style="stroke:#A80036;stroke-width:1.0;stroke-dasharray:5.0,5.0;" x1="921" x2="921" y1="88.2969" y2="696.6875"/><line style="stroke:#A80036;stroke-width:1.0;stroke-dasharray:5.0,5.0;" x1="1278" x2="1278" y1="88.2969" y2="696.6875"/><line style="stroke:#A80036;stroke-width:1.0;stroke-dasharray:5.0,5.0;" x1="1426" x2="1426" y1="88.2969" y2="696.6875"/><line style="stroke:#A80036;stroke-width:1.0;stroke-dasharray:5.0,5.0;" x1="1560" x2="1560" y1="88.2969" y2="696.6875"/><text fill="#000000" font-family="sans-serif" font-size="14" lengthAdjust="spacing" textLength="48" x="5" y="84.9951">Nutzer</text><ellipse cx="32" cy="15" fill="#FEFECE" filter="url(#fr3hogtmo8icj)" rx="8" ry="8" style="stroke:#A80036;stroke-width:2.0;"/><path d="M32,23 L32,50 M19,31 L45,31 M32,50 L19,65 M32,50 L45,65 " fill="none" filter="url(#fr3hogtmo8icj)" style="stroke:#A80036;stroke-width:2.0;"/><text fill="#000000" font-family="sans-serif" font-size="14" lengthAdjust="spacing" textLength="48" x="5" y="708.6826">Nutzer</text><ellipse cx="32" cy="721.9844" fill="#FEFECE" filter="url(#fr3hogtmo8icj)" rx="8" ry="8" style="stroke:#A80036;stroke-width:2.0;"/><path d="M32,729.9844 L32,756.9844 M19,737.9844 L45,737.9844 M32,756.9844 L19,771.9844 M32,756.9844 L45,771.9844 " fill="none" filter="url(#fr3hogtmo8icj)" style="stroke:#A80036;stroke-width:2.0;"/><text fill="#000000" font-family="sans-serif" font-size="14" lengthAdjust="spacing" textLength="54" x="69" y="84.9951">System</text><ellipse cx="99" cy="56" fill="#DA70D5" filter="url(#fr3hogtmo8icj)" rx="12" ry="12" style="stroke:#A80036;stroke-width:2.0;"/><line style="stroke:#A80036;stroke-width:2.0;" x1="87" x2="111" y1="70" y2="70"/><text fill="#000000" font-family="sans-serif" font-size="14" lengthAdjust="spacing" textLength="54" x="69" y="708.6826">System</text><ellipse cx="99" cy="727.9844" fill="#DA70D5" filter="url(#fr3hogtmo8icj)" rx="12" ry="12" style="stroke:#A80036;stroke-width:2.0;"/><line style="stroke:#A80036;stroke-width:2.0;" x1="87" x2="111" y1="741.9844" y2="741.9844"/><rect fill="#FEFECE" filter="url(#fr3hogtmo8icj)" height="30.2969" style="stroke:#A80036;stroke-width:1.5;" width="38" x="143" y="49"/><rect fill="#FEFECE" filter="url(#fr3hogtmo8icj)" height="30.2969" style="stroke:#A80036;stroke-width:1.5;" width="38" x="139" y="53"/><text fill="#000000" font-family="sans-serif" font-size="14" lengthAdjust="spacing" textLength="24" x="146" y="72.9951">GUI</text><rect fill="#FEFECE" filter="url(#fr3hogtmo8icj)" height="30.2969" style="stroke:#A80036;stroke-width:1.5;" width="38" x="143" y="695.6875"/><rect fill="#FEFECE" filter="url(#fr3hogtmo8icj)" height="30.2969" style="stroke:#A80036;stroke-width:1.5;" width="38" x="139" y="699.6875"/><text fill="#000000" font-family="sans-serif" font-size="14" lengthAdjust="spacing" textLength="24" x="146" y="719.6826">GUI</text><rect fill="#FEFECE" filter="url(#fr3hogtmo8icj)" height="30.2969" style="stroke:#A80036;stroke-width:1.5;" width="98" x="530" y="53"/><text fill="#000000" font-family="sans-serif" font-size="14" lengthAdjust="spacing" textLength="84" x="537" y="72.9951">CodeCharts</text><rect fill="#FEFECE" filter="url(#fr3hogtmo8icj)" height="30.2969" style="stroke:#A80036;stroke-width:1.5;" width="98" x="530" y="695.6875"/><text fill="#000000" font-family="sans-serif" font-size="14" lengthAdjust="spacing" textLength="84" x="537" y="715.6826">CodeCharts</text><rect fill="#FEFECE" filter="url(#fr3hogtmo8icj)" height="30.2969" style="stroke:#A80036;stroke-width:1.5;" width="171" x="642" y="53"/><text fill="#000000" font-family="sans-serif" font-size="14" lengthAdjust="spacing" textLength="157" x="649" y="72.9951">CodeChartsController</text><rect fill="#FEFECE" filter="url(#fr3hogtmo8icj)" height="30.2969" style="stroke:#A80036;stroke-width:1.5;" width="171" x="642" y="695.6875"/><text fill="#000000" font-family="sans-serif" font-size="14" lengthAdjust="spacing" textLength="157" x="649" y="715.6826">CodeChartsController</text><rect fill="#FEFECE" filter="url(#fr3hogtmo8icj)" height="30.2969" style="stroke:#A80036;stroke-width:1.5;" width="184" x="827" y="53"/><text fill="#000000" font-family="sans-serif" font-size="14" lengthAdjust="spacing" textLength="170" x="834" y="72.9951">CodeChartsCoordinator</text><rect fill="#FEFECE" filter="url(#fr3hogtmo8icj)" height="30.2969" style="stroke:#A80036;stroke-width:1.5;" width="184" x="827" y="695.6875"/><text fill="#000000" font-family="sans-serif" font-size="14" lengthAdjust="spacing" textLength="170" x="834" y="715.6826">CodeChartsCoordinator</text><rect fill="#FEFECE" filter="url(#fr3hogtmo8icj)" height="30.2969" style="stroke:#A80036;stroke-width:1.5;" width="136" x="1208" y="53"/><text fill="#000000" font-family="sans-serif" font-size="14" lengthAdjust="spacing" textLength="122" x="1215" y="72.9951">CodeChartsInput</text><rect fill="#FEFECE" filter="url(#fr3hogtmo8icj)" height="30.2969" style="stroke:#A80036;stroke-width:1.5;" width="136" x="1208" y="695.6875"/><text fill="#000000" font-family="sans-serif" font-size="14" lengthAdjust="spacing" textLength="122" x="1215" y="715.6826">CodeChartsInput</text><rect fill="#FEFECE" filter="url(#fr3hogtmo8icj)" height="30.2969" style="stroke:#A80036;stroke-width:1.5;" width="133" x="1358" y="53"/><text fill="#000000" font-family="sans-serif" font-size="14" lengthAdjust="spacing" textLength="119" x="1365" y="72.9951">CodeChartsPane</text><rect fill="#FEFECE" filter="url(#fr3hogtmo8icj)" height="30.2969" style="stroke:#A80036;stroke-width:1.5;" width="133" x="1358" y="695.6875"/><text fill="#000000" font-family="sans-serif" font-size="14" lengthAdjust="spacing" textLength="119" x="1365" y="715.6826">CodeChartsPane</text><rect fill="#FEFECE" filter="url(#fr3hogtmo8icj)" height="30.2969" style="stroke:#A80036;stroke-width:1.5;" width="102" x="1509" y="49"/><rect fill="#FEFECE" filter="url(#fr3hogtmo8icj)" height="30.2969" style="stroke:#A80036;stroke-width:1.5;" width="102" x="1505" y="53"/><text fill="#000000" font-family="sans-serif" font-size="14" lengthAdjust="spacing" textLength="88" x="1512" y="72.9951">configClient</text><rect fill="#FEFECE" filter="url(#fr3hogtmo8icj)" height="30.2969" style="stroke:#A80036;stroke-width:1.5;" width="102" x="1509" y="695.6875"/><rect fill="#FEFECE" filter="url(#fr3hogtmo8icj)" height="30.2969" style="stroke:#A80036;stroke-width:1.5;" width="102" x="1505" y="699.6875"/><text fill="#000000" font-family="sans-serif" font-size="14" lengthAdjust="spacing" textLength="88" x="1512" y="719.6826">configClient</text><rect fill="#FFFFFF" filter="url(#fr3hogtmo8icj)" height="589.3906" style="stroke:#A80036;stroke-width:1.0;" width="10" x="27" y="98.2969"/><rect fill="#FFFFFF" filter="url(#fr3hogtmo8icj)" height="589.3906" style="stroke:#A80036;stroke-width:1.0;" width="10" x="94" y="98.2969"/><rect fill="#FFFFFF" filter="url(#fr3hogtmo8icj)" height="589.3906" style="stroke:#A80036;stroke-width:1.0;" width="10" x="157" y="98.2969"/><rect fill="#FFFFFF" filter="url(#fr3hogtmo8icj)" height="320.3281" style="stroke:#A80036;stroke-width:1.0;" width="10" x="576" y="162.5625"/><rect fill="#FFFFFF" filter="url(#fr3hogtmo8icj)" height="29.1328" style="stroke:#A80036;stroke-width:1.0;" width="10" x="576" y="649.5547"/><rect fill="#FFFFFF" filter="url(#fr3hogtmo8icj)" height="116.5313" style="stroke:#A80036;stroke-width:1.0;" width="10" x="916" y="269.9609"/><rect fill="#FFFFFF" filter="url(#fr3hogtmo8icj)" height="166.6641" style="stroke:#A80036;stroke-width:1.0;" width="10" x="916" y="482.8906"/><rect fill="#FFFFFF" filter="url(#fr3hogtmo8icj)" height="29.1328" style="stroke:#A80036;stroke-width:1.0;" width="10" x="1273" y="541.1563"/><rect fill="#FFFFFF" filter="url(#fr3hogtmo8icj)" height="39.1328" style="stroke:#A80036;stroke-width:1.0;" width="10" x="1555" y="196.6953"/><rect fill="#FFFFFF" filter="url(#fr3hogtmo8icj)" height="29.1328" style="stroke:#A80036;stroke-width:1.0;" width="10" x="1555" y="328.2266"/><rect fill="#EEEEEE" filter="url(#fr3hogtmo8icj)" height="3" style="stroke:#EEEEEE;stroke-width:1.0;" width="1620" x="0" y="118.8633"/><line style="stroke:#000000;stroke-width:1.0;" x1="0" x2="1620" y1="118.8633" y2="118.8633"/><line style="stroke:#000000;stroke-width:1.0;" x1="0" x2="1620" y1="121.8633" y2="121.8633"/><rect fill="#EEEEEE" filter="url(#fr3hogtmo8icj)" height="23.1328" style="stroke:#000000;stroke-width:2.0;" width="121" x="749.5" y="108.2969"/><text fill="#000000" font-family="sans-serif" font-size="13" font-weight="bold" lengthAdjust="spacing" textLength="102" x="755.5" y="124.3638">Initialisierung</text><polygon fill="#A80036" points="564,158.5625,574,162.5625,564,166.5625,568,162.5625" style="stroke:#A80036;stroke-width:1.0;"/><line style="stroke:#A80036;stroke-width:1.0;" x1="167" x2="570" y1="162.5625" y2="162.5625"/><text fill="#000000" font-family="sans-serif" font-size="13" lengthAdjust="spacing" textLength="390" x="174" y="157.4966">new CodeCharts(primaryStage, configClient, dataBaseClient)</text><polygon fill="#A80036" points="1543,192.6953,1553,196.6953,1543,200.6953,1547,196.6953" style="stroke:#A80036;stroke-width:1.0;"/><line style="stroke:#A80036;stroke-width:1.0;" x1="586" x2="1549" y1="196.6953" y2="196.6953"/><text fill="#000000" font-family="sans-serif" font-size="13" lengthAdjust="spacing" textLength="72" x="593" y="191.6294">getConfig()</text><path d="M260,175.5625 L260,200.5625 L567,200.5625 L567,185.5625 L557,175.5625 L260,175.5625 " fill="#FBFB77" filter="url(#fr3hogtmo8icj)" style="stroke:#A80036;stroke-width:1.0;"/><path d="M557,175.5625 L557,185.5625 L567,185.5625 L557,175.5625 " fill="#FBFB77" style="stroke:#A80036;stroke-width:1.0;"/><text fill="#000000" font-family="sans-serif" font-size="13" lengthAdjust="spacing" textLength="277" x="275" y="192.6294">auslesen und verarbieten der Konfiguration</text><polygon fill="#A80036" points="597,231.8281,587,235.8281,597,239.8281,593,235.8281" style="stroke:#A80036;stroke-width:1.0;"/><line style="stroke:#A80036;stroke-width:1.0;stroke-dasharray:2.0,2.0;" x1="591" x2="1559" y1="235.8281" y2="235.8281"/><text fill="#000000" font-family="sans-serif" font-size="13" lengthAdjust="spacing" textLength="31" x="603" y="230.7622">Data</text><path d="M448,214.6953 L448,239.6953 L567,239.6953 L567,224.6953 L557,214.6953 L448,214.6953 " fill="#FBFB77" filter="url(#fr3hogtmo8icj)" style="stroke:#A80036;stroke-width:1.0;"/><path d="M557,214.6953 L557,224.6953 L567,224.6953 L557,214.6953 " fill="#FBFB77" style="stroke:#A80036;stroke-width:1.0;"/><text fill="#000000" font-family="sans-serif" font-size="13" lengthAdjust="spacing" textLength="89" x="463" y="231.7622">new TrailData</text><polygon fill="#A80036" points="904,265.9609,914,269.9609,904,273.9609,908,269.9609" style="stroke:#A80036;stroke-width:1.0;"/><line style="stroke:#A80036;stroke-width:1.0;" x1="586" x2="910" y1="269.9609" y2="269.9609"/><text fill="#000000" font-family="sans-serif" font-size="13" lengthAdjust="spacing" textLength="213" x="593" y="264.895">new CodeChartsCoordinator([...])</text><polygon fill="#A80036" points="1266,295.0938,1276,299.0938,1266,303.0938,1270,299.0938" style="stroke:#A80036;stroke-width:1.0;"/><line style="stroke:#A80036;stroke-width:1.0;" x1="926" x2="1272" y1="299.0938" y2="299.0938"/><text fill="#000000" font-family="sans-serif" font-size="13" lengthAdjust="spacing" textLength="148" x="933" y="294.0278">new CodeChartsInput()</text><polygon fill="#A80036" points="1543,324.2266,1553,328.2266,1543,332.2266,1547,328.2266" style="stroke:#A80036;stroke-width:1.0;"/><line style="stroke:#A80036;stroke-width:1.0;" x1="926" x2="1549" y1="328.2266" y2="328.2266"/><text fill="#000000" font-family="sans-serif" font-size="13" lengthAdjust="spacing" textLength="72" x="933" y="323.1606">getConfig()</text><polygon fill="#A80036" points="937,353.3594,927,357.3594,937,361.3594,933,357.3594" style="stroke:#A80036;stroke-width:1.0;"/><line style="stroke:#A80036;stroke-width:1.0;stroke-dasharray:2.0,2.0;" x1="931" x2="1559" y1="357.3594" y2="357.3594"/><text fill="#000000" font-family="sans-serif" font-size="13" lengthAdjust="spacing" textLength="31" x="943" y="352.2935">Data</text><polygon fill="#A80036" points="1414.5,382.4922,1424.5,386.4922,1414.5,390.4922,1418.5,386.4922" style="stroke:#A80036;stroke-width:1.0;"/><line style="stroke:#A80036;stroke-width:1.0;" x1="921" x2="1420.5" y1="386.4922" y2="386.4922"/><text fill="#000000" font-family="sans-serif" font-size="13" lengthAdjust="spacing" textLength="170" x="928" y="381.4263">new CodeChartsPane([...])</text><rect fill="#EEEEEE" filter="url(#fr3hogtmo8icj)" height="3" style="stroke:#EEEEEE;stroke-width:1.0;" width="1620" x="0" y="415.0586"/><line style="stroke:#000000;stroke-width:1.0;" x1="0" x2="1620" y1="415.0586" y2="415.0586"/><line style="stroke:#000000;stroke-width:1.0;" x1="0" x2="1620" y1="418.0586" y2="418.0586"/><rect fill="#EEEEEE" filter="url(#fr3hogtmo8icj)" height="23.1328" style="stroke:#000000;stroke-width:2.0;" width="55" x="782.5" y="404.4922"/><text fill="#000000" font-family="sans-serif" font-size="13" font-weight="bold" lengthAdjust="spacing" textLength="36" x="788.5" y="420.5591">Test</text><path d="M129,444.625 L207,444.625 L207,451.625 L197,461.625 L129,461.625 L129,444.625 " fill="#EEEEEE" style="stroke:#000000;stroke-width:1.0;"/><rect fill="none" height="133.6641" style="stroke:#000000;stroke-width:2.0;" width="1229" x="129" y="444.625"/><text fill="#000000" font-family="sans-serif" font-size="13" font-weight="bold" lengthAdjust="spacing" textLength="33" x="144" y="457.6919">loop</text><polygon fill="#A80036" points="904,478.8906,914,482.8906,904,486.8906,908,482.8906" style="stroke:#A80036;stroke-width:1.0;"/><line style="stroke:#A80036;stroke-width:1.0;" x1="581" x2="910" y1="482.8906" y2="482.8906"/><text fill="#000000" font-family="sans-serif" font-size="13" lengthAdjust="spacing" textLength="52" x="588" y="477.8247">iterate()</text><polygon fill="#A80036" points="178,508.0234,168,512.0234,178,516.0234,174,512.0234" style="stroke:#A80036;stroke-width:1.0;"/><line style="stroke:#A80036;stroke-width:1.0;" x1="172" x2="915" y1="512.0234" y2="512.0234"/><text fill="#000000" font-family="sans-serif" font-size="13" lengthAdjust="spacing" textLength="199" x="184" y="506.9575">Aufruf Bild, Raster und Eingabe</text><polygon fill="#A80036" points="1261,537.1563,1271,541.1563,1261,545.1563,1265,541.1563" style="stroke:#A80036;stroke-width:1.0;"/><line style="stroke:#A80036;stroke-width:1.0;" x1="926" x2="1267" y1="541.1563" y2="541.1563"/><text fill="#000000" font-family="sans-serif" font-size="13" lengthAdjust="spacing" textLength="328" x="933" y="536.0903">getInput(currentStrings, currentIteration, iterations)</text><polygon fill="#A80036" points="937,566.2891,927,570.2891,937,574.2891,933,570.2891" style="stroke:#A80036;stroke-width:1.0;"/><line style="stroke:#A80036;stroke-width:1.0;stroke-dasharray:2.0,2.0;" x1="931" x2="1277" y1="570.2891" y2="570.2891"/><text fill="#000000" font-family="sans-serif" font-size="13" lengthAdjust="spacing" textLength="31" x="943" y="565.2231">Data</text><rect fill="#EEEEEE" filter="url(#fr3hogtmo8icj)" height="3" style="stroke:#EEEEEE;stroke-width:1.0;" width="1620" x="0" y="605.8555"/><line style="stroke:#000000;stroke-width:1.0;" x1="0" x2="1620" y1="605.8555" y2="605.8555"/><line style="stroke:#000000;stroke-width:1.0;" x1="0" x2="1620" y1="608.8555" y2="608.8555"/><rect fill="#EEEEEE" filter="url(#fr3hogtmo8icj)" height="23.1328" style="stroke:#000000;stroke-width:2.0;" width="55" x="782.5" y="595.2891"/><text fill="#000000" font-family="sans-serif" font-size="13" font-weight="bold" lengthAdjust="spacing" textLength="36" x="788.5" y="611.356">Ende</text><polygon fill="#A80036" points="597,645.5547,587,649.5547,597,653.5547,593,649.5547" style="stroke:#A80036;stroke-width:1.0;"/><line style="stroke:#A80036;stroke-width:1.0;" x1="591" x2="920" y1="649.5547" y2="649.5547"/><text fill="#000000" font-family="sans-serif" font-size="13" lengthAdjust="spacing" textLength="62" x="603" y="644.4888">endTest()</text><polygon fill="#A80036" points="178,674.6875,168,678.6875,178,682.6875,174,678.6875" style="stroke:#A80036;stroke-width:1.0;"/><line style="stroke:#A80036;stroke-width:1.0;" x1="172" x2="580" y1="678.6875" y2="678.6875"/><text fill="#000000" font-family="sans-serif" font-size="13" lengthAdjust="spacing" textLength="371" x="184" y="673.6216">End(primaryStage, configClient, dataBaseClient, trialData)</text><!--MD5=[6f0ec6e2c42560806456def2dcf66ca2]
@startuml
skinparam defaultTextAlignment center

actor       Nutzer          as n
entity      System          as s    #DA70D5
collections GUI             as g

box CodeCharts

participant CodeCharts              as cc
participant CodeChartsController    as ct
participant CodeChartsCoordinator   as co
participant CodeChartsInput         as ci
participant CodeChartsPane          as cp
end box

collections configClient          as c

activate n
activate s
activate g

== Initialisierung ==
g -> cc : new CodeCharts(primaryStage, configClient, dataBaseClient)
activate cc
cc -> c : getConfig()
note left : auslesen und verarbieten der Konfiguration
activate c
c - -> cc : Data
note left : new TrailData 
deactivate c
cc -> co : new CodeChartsCoordinator([...])
activate co
co -> ci : new CodeChartsInput()
co -> c : getConfig()
activate c
c - -> co : Data
deactivate c
co -> cp : new CodeChartsPane([...])
deactivate co

== Test ==
loop
    cc -> co : iterate()
    deactivate cc
    activate co
    co -> g : Aufruf Bild, Raster und Eingabe
    co -> ci : getInput(currentStrings, currentIteration, iterations)
    activate ci
    ci - -> co : Data
    deactivate ci
end

== Ende == 
co -> cc : endTest()
deactivate co
activate cc
cc -> g : End(primaryStage, configClient, dataBaseClient, trialData)
deactivate cc
@enduml

PlantUML version 1.2022.1beta9(Unknown compile time)
(GPL source distribution)
Java Runtime: Java(TM) SE Runtime Environment
JVM: Java HotSpot(TM) 64-Bit Server VM
Default Encoding: UTF-8
Language: en
Country: US
--></g></svg>