<?xml version="1.0" encoding="UTF-8" standalone="no"?><svg xmlns="http://www.w3.org/2000/svg" xmlns:xlink="http://www.w3.org/1999/xlink" contentScriptType="application/ecmascript" contentStyleType="text/css" height="849px" preserveAspectRatio="none" style="width:1721px;height:849px;background:#FFFFFF;" version="1.1" viewBox="0 0 1721 849" width="1721px" zoomAndPan="magnify"><defs><filter height="300%" id="fg6ybosnzffri" width="300%" x="-1" y="-1"><feGaussianBlur result="blurOut" stdDeviation="2.0"/><feColorMatrix in="blurOut" result="blurOut2" type="matrix" values="0 0 0 0 0 0 0 0 0 0 0 0 0 0 0 0 0 0 .4 0"/><feOffset dx="4.0" dy="4.0" in="blurOut2" result="blurOut3"/><feBlend in="SourceGraphic" in2="blurOut3" mode="normal"/></filter></defs><g><rect fill="#DDDDDD" height="837.25" style="stroke:#A80036;stroke-width:1.0;" width="978" x="526" y="6"/><text fill="#000000" font-family="sans-serif" font-size="13" font-weight="bold" lengthAdjust="spacing" textLength="89" x="970.5" y="18.0669">CodeCharts</text><rect fill="#FFFFFF" filter="url(#fg6ybosnzffri)" height="649.6563" style="stroke:#A80036;stroke-width:1.0;" width="10" x="27" y="98.2969"/><rect fill="#FFFFFF" filter="url(#fg6ybosnzffri)" height="649.6563" style="stroke:#A80036;stroke-width:1.0;" width="10" x="94" y="98.2969"/><rect fill="#FFFFFF" filter="url(#fg6ybosnzffri)" height="649.6563" style="stroke:#A80036;stroke-width:1.0;" width="10" x="157" y="98.2969"/><rect fill="#FFFFFF" filter="url(#fg6ybosnzffri)" height="359.4609" style="stroke:#A80036;stroke-width:1.0;" width="10" x="576" y="162.5625"/><rect fill="#FFFFFF" filter="url(#fg6ybosnzffri)" height="58.2656" style="stroke:#A80036;stroke-width:1.0;" width="10" x="576" y="680.6875"/><rect fill="#FFFFFF" filter="url(#fg6ybosnzffri)" height="449.8594" style="stroke:#A80036;stroke-width:1.0;" width="10" x="916" y="230.8281"/><rect fill="#FFFFFF" filter="url(#fg6ybosnzffri)" height="357.4609" style="stroke:#A80036;stroke-width:1.0;" width="10" x="1278" y="323.2266"/><rect fill="#FFFFFF" filter="url(#fg6ybosnzffri)" height="323.3281" style="stroke:#A80036;stroke-width:1.0;" width="10" x="1426.5" y="357.3594"/><rect fill="#FFFFFF" filter="url(#fg6ybosnzffri)" height="29.1328" style="stroke:#A80036;stroke-width:1.0;" width="10" x="1558" y="259.9609"/><rect fill="#FFFFFF" filter="url(#fg6ybosnzffri)" height="551.2578" style="stroke:#A80036;stroke-width:1.0;" width="10" x="1662.5" y="196.6953"/><rect fill="#FFFFFF" filter="url(#fg6ybosnzffri)" height="164.7969" style="stroke:#000000;stroke-width:2.0;" width="1391" x="129" y="444.625"/><rect fill="#FFFFFF" filter="url(#fg6ybosnzffri)" height="46.2656" style="stroke:#000000;stroke-width:2.0;" width="990" x="520" y="468.7578"/><line style="stroke:#A80036;stroke-width:1.0;stroke-dasharray:5.0,5.0;" x1="32" x2="32" y1="88.2969" y2="756.9531"/><line style="stroke:#A80036;stroke-width:1.0;stroke-dasharray:5.0,5.0;" x1="99" x2="99" y1="88.2969" y2="756.9531"/><line style="stroke:#A80036;stroke-width:1.0;stroke-dasharray:5.0,5.0;" x1="162" x2="162" y1="88.2969" y2="756.9531"/><line style="stroke:#A80036;stroke-width:1.0;stroke-dasharray:5.0,5.0;" x1="581" x2="581" y1="88.2969" y2="756.9531"/><line style="stroke:#A80036;stroke-width:1.0;stroke-dasharray:5.0,5.0;" x1="729" x2="729" y1="88.2969" y2="756.9531"/><line style="stroke:#A80036;stroke-width:1.0;stroke-dasharray:5.0,5.0;" x1="921" x2="921" y1="88.2969" y2="756.9531"/><line style="stroke:#A80036;stroke-width:1.0;stroke-dasharray:5.0,5.0;" x1="1283" x2="1283" y1="88.2969" y2="756.9531"/><line style="stroke:#A80036;stroke-width:1.0;stroke-dasharray:5.0,5.0;" x1="1431" x2="1431" y1="88.2969" y2="756.9531"/><line style="stroke:#A80036;stroke-width:1.0;stroke-dasharray:5.0,5.0;" x1="1563" x2="1563" y1="88.2969" y2="756.9531"/><line style="stroke:#A80036;stroke-width:1.0;stroke-dasharray:5.0,5.0;" x1="1667" x2="1667" y1="88.2969" y2="756.9531"/><text fill="#000000" font-family="sans-serif" font-size="14" lengthAdjust="spacing" textLength="48" x="5" y="84.9951">Nutzer</text><ellipse cx="32" cy="15" fill="#FEFECE" filter="url(#fg6ybosnzffri)" rx="8" ry="8" style="stroke:#A80036;stroke-width:2.0;"/><path d="M32,23 L32,50 M19,31 L45,31 M32,50 L19,65 M32,50 L45,65 " fill="none" filter="url(#fg6ybosnzffri)" style="stroke:#A80036;stroke-width:2.0;"/><text fill="#000000" font-family="sans-serif" font-size="14" lengthAdjust="spacing" textLength="48" x="5" y="768.9482">Nutzer</text><ellipse cx="32" cy="782.25" fill="#FEFECE" filter="url(#fg6ybosnzffri)" rx="8" ry="8" style="stroke:#A80036;stroke-width:2.0;"/><path d="M32,790.25 L32,817.25 M19,798.25 L45,798.25 M32,817.25 L19,832.25 M32,817.25 L45,832.25 " fill="none" filter="url(#fg6ybosnzffri)" style="stroke:#A80036;stroke-width:2.0;"/><text fill="#000000" font-family="sans-serif" font-size="14" lengthAdjust="spacing" textLength="54" x="69" y="84.9951">System</text><ellipse cx="99" cy="56" fill="#DA70D5" filter="url(#fg6ybosnzffri)" rx="12" ry="12" style="stroke:#A80036;stroke-width:2.0;"/><line style="stroke:#A80036;stroke-width:2.0;" x1="87" x2="111" y1="70" y2="70"/><text fill="#000000" font-family="sans-serif" font-size="14" lengthAdjust="spacing" textLength="54" x="69" y="768.9482">System</text><ellipse cx="99" cy="788.25" fill="#DA70D5" filter="url(#fg6ybosnzffri)" rx="12" ry="12" style="stroke:#A80036;stroke-width:2.0;"/><line style="stroke:#A80036;stroke-width:2.0;" x1="87" x2="111" y1="802.25" y2="802.25"/><rect fill="#FEFECE" filter="url(#fg6ybosnzffri)" height="30.2969" style="stroke:#A80036;stroke-width:1.5;" width="38" x="143" y="49"/><rect fill="#FEFECE" filter="url(#fg6ybosnzffri)" height="30.2969" style="stroke:#A80036;stroke-width:1.5;" width="38" x="139" y="53"/><text fill="#000000" font-family="sans-serif" font-size="14" lengthAdjust="spacing" textLength="24" x="146" y="72.9951">GUI</text><rect fill="#FEFECE" filter="url(#fg6ybosnzffri)" height="30.2969" style="stroke:#A80036;stroke-width:1.5;" width="38" x="143" y="755.9531"/><rect fill="#FEFECE" filter="url(#fg6ybosnzffri)" height="30.2969" style="stroke:#A80036;stroke-width:1.5;" width="38" x="139" y="759.9531"/><text fill="#000000" font-family="sans-serif" font-size="14" lengthAdjust="spacing" textLength="24" x="146" y="779.9482">GUI</text><rect fill="#FEFECE" filter="url(#fg6ybosnzffri)" height="30.2969" style="stroke:#A80036;stroke-width:1.5;" width="98" x="530" y="53"/><text fill="#000000" font-family="sans-serif" font-size="14" lengthAdjust="spacing" textLength="84" x="537" y="72.9951">CodeCharts</text><rect fill="#FEFECE" filter="url(#fg6ybosnzffri)" height="30.2969" style="stroke:#A80036;stroke-width:1.5;" width="98" x="530" y="755.9531"/><text fill="#000000" font-family="sans-serif" font-size="14" lengthAdjust="spacing" textLength="84" x="537" y="775.9482">CodeCharts</text><rect fill="#FEFECE" filter="url(#fg6ybosnzffri)" height="30.2969" style="stroke:#A80036;stroke-width:1.5;" width="171" x="642" y="53"/><text fill="#000000" font-family="sans-serif" font-size="14" lengthAdjust="spacing" textLength="157" x="649" y="72.9951">CodeChartsController</text><rect fill="#FEFECE" filter="url(#fg6ybosnzffri)" height="30.2969" style="stroke:#A80036;stroke-width:1.5;" width="171" x="642" y="755.9531"/><text fill="#000000" font-family="sans-serif" font-size="14" lengthAdjust="spacing" textLength="157" x="649" y="775.9482">CodeChartsController</text><rect fill="#FEFECE" filter="url(#fg6ybosnzffri)" height="30.2969" style="stroke:#A80036;stroke-width:1.5;" width="184" x="827" y="53"/><text fill="#000000" font-family="sans-serif" font-size="14" lengthAdjust="spacing" textLength="170" x="834" y="72.9951">CodeChartsCoordinator</text><rect fill="#FEFECE" filter="url(#fg6ybosnzffri)" height="30.2969" style="stroke:#A80036;stroke-width:1.5;" width="184" x="827" y="755.9531"/><text fill="#000000" font-family="sans-serif" font-size="14" lengthAdjust="spacing" textLength="170" x="834" y="775.9482">CodeChartsCoordinator</text><rect fill="#FEFECE" filter="url(#fg6ybosnzffri)" height="30.2969" style="stroke:#A80036;stroke-width:1.5;" width="136" x="1213" y="53"/><text fill="#000000" font-family="sans-serif" font-size="14" lengthAdjust="spacing" textLength="122" x="1220" y="72.9951">CodeChartsInput</text><rect fill="#FEFECE" filter="url(#fg6ybosnzffri)" height="30.2969" style="stroke:#A80036;stroke-width:1.5;" width="136" x="1213" y="755.9531"/><text fill="#000000" font-family="sans-serif" font-size="14" lengthAdjust="spacing" textLength="122" x="1220" y="775.9482">CodeChartsInput</text><rect fill="#FEFECE" filter="url(#fg6ybosnzffri)" height="30.2969" style="stroke:#A80036;stroke-width:1.5;" width="133" x="1363" y="53"/><text fill="#000000" font-family="sans-serif" font-size="14" lengthAdjust="spacing" textLength="119" x="1370" y="72.9951">CodeChartsPane</text><rect fill="#FEFECE" filter="url(#fg6ybosnzffri)" height="30.2969" style="stroke:#A80036;stroke-width:1.5;" width="133" x="1363" y="755.9531"/><text fill="#000000" font-family="sans-serif" font-size="14" lengthAdjust="spacing" textLength="119" x="1370" y="775.9482">CodeChartsPane</text><rect fill="#FEFECE" filter="url(#fg6ybosnzffri)" height="30.2969" style="stroke:#A80036;stroke-width:1.5;" width="102" x="1510" y="53"/><text fill="#000000" font-family="sans-serif" font-size="14" lengthAdjust="spacing" textLength="88" x="1517" y="72.9951">configClient</text><rect fill="#FEFECE" filter="url(#fg6ybosnzffri)" height="30.2969" style="stroke:#A80036;stroke-width:1.5;" width="102" x="1510" y="755.9531"/><text fill="#000000" font-family="sans-serif" font-size="14" lengthAdjust="spacing" textLength="88" x="1517" y="775.9482">configClient</text><rect fill="#FEFECE" filter="url(#fg6ybosnzffri)" height="30.2969" style="stroke:#A80036;stroke-width:1.5;" width="79" x="1626" y="53"/><text fill="#000000" font-family="sans-serif" font-size="14" lengthAdjust="spacing" textLength="65" x="1633" y="72.9951">TrialData</text><rect fill="#FEFECE" filter="url(#fg6ybosnzffri)" height="30.2969" style="stroke:#A80036;stroke-width:1.5;" width="79" x="1626" y="755.9531"/><text fill="#000000" font-family="sans-serif" font-size="14" lengthAdjust="spacing" textLength="65" x="1633" y="775.9482">TrialData</text><rect fill="#FFFFFF" filter="url(#fg6ybosnzffri)" height="649.6563" style="stroke:#A80036;stroke-width:1.0;" width="10" x="27" y="98.2969"/><rect fill="#FFFFFF" filter="url(#fg6ybosnzffri)" height="649.6563" style="stroke:#A80036;stroke-width:1.0;" width="10" x="94" y="98.2969"/><rect fill="#FFFFFF" filter="url(#fg6ybosnzffri)" height="649.6563" style="stroke:#A80036;stroke-width:1.0;" width="10" x="157" y="98.2969"/><rect fill="#FFFFFF" filter="url(#fg6ybosnzffri)" height="359.4609" style="stroke:#A80036;stroke-width:1.0;" width="10" x="576" y="162.5625"/><rect fill="#FFFFFF" filter="url(#fg6ybosnzffri)" height="58.2656" style="stroke:#A80036;stroke-width:1.0;" width="10" x="576" y="680.6875"/><rect fill="#FFFFFF" filter="url(#fg6ybosnzffri)" height="449.8594" style="stroke:#A80036;stroke-width:1.0;" width="10" x="916" y="230.8281"/><rect fill="#FFFFFF" filter="url(#fg6ybosnzffri)" height="357.4609" style="stroke:#A80036;stroke-width:1.0;" width="10" x="1278" y="323.2266"/><rect fill="#FFFFFF" filter="url(#fg6ybosnzffri)" height="323.3281" style="stroke:#A80036;stroke-width:1.0;" width="10" x="1426.5" y="357.3594"/><rect fill="#FFFFFF" filter="url(#fg6ybosnzffri)" height="29.1328" style="stroke:#A80036;stroke-width:1.0;" width="10" x="1558" y="259.9609"/><rect fill="#FFFFFF" filter="url(#fg6ybosnzffri)" height="551.2578" style="stroke:#A80036;stroke-width:1.0;" width="10" x="1662.5" y="196.6953"/><rect fill="#EEEEEE" filter="url(#fg6ybosnzffri)" height="3" style="stroke:#EEEEEE;stroke-width:1.0;" width="1714" x="0" y="118.8633"/><line style="stroke:#000000;stroke-width:1.0;" x1="0" x2="1714" y1="118.8633" y2="118.8633"/><line style="stroke:#000000;stroke-width:1.0;" x1="0" x2="1714" y1="121.8633" y2="121.8633"/><rect fill="#EEEEEE" filter="url(#fg6ybosnzffri)" height="23.1328" style="stroke:#000000;stroke-width:2.0;" width="121" x="796.5" y="108.2969"/><text fill="#000000" font-family="sans-serif" font-size="13" font-weight="bold" lengthAdjust="spacing" textLength="102" x="802.5" y="124.3638">Initialisierung</text><polygon fill="#A80036" points="564,158.5625,574,162.5625,564,166.5625,568,162.5625" style="stroke:#A80036;stroke-width:1.0;"/><line style="stroke:#A80036;stroke-width:1.0;" x1="167" x2="570" y1="162.5625" y2="162.5625"/><text fill="#000000" font-family="sans-serif" font-size="13" lengthAdjust="spacing" textLength="390" x="174" y="157.4966">new CodeCharts(primaryStage, configClient, dataBaseClient)</text><polygon fill="#A80036" points="1650.5,192.6953,1660.5,196.6953,1650.5,200.6953,1654.5,196.6953" style="stroke:#A80036;stroke-width:1.0;"/><line style="stroke:#A80036;stroke-width:1.0;" x1="586" x2="1656.5" y1="196.6953" y2="196.6953"/><text fill="#000000" font-family="sans-serif" font-size="13" lengthAdjust="spacing" textLength="89" x="593" y="191.6294">new TrialData</text><path d="M220,175.5625 L220,200.5625 L567,200.5625 L567,185.5625 L557,175.5625 L220,175.5625 " fill="#FBFB77" filter="url(#fg6ybosnzffri)" style="stroke:#A80036;stroke-width:1.0;"/><path d="M557,175.5625 L557,185.5625 L567,185.5625 L557,175.5625 " fill="#FBFB77" style="stroke:#A80036;stroke-width:1.0;"/><text fill="#000000" font-family="sans-serif" font-size="13" lengthAdjust="spacing" textLength="317" x="235" y="192.6294">TrialData Objekt zum Abspeichern der Ergebnisse</text><polygon fill="#A80036" points="904,226.8281,914,230.8281,904,234.8281,908,230.8281" style="stroke:#A80036;stroke-width:1.0;"/><line style="stroke:#A80036;stroke-width:1.0;" x1="586" x2="910" y1="230.8281" y2="230.8281"/><text fill="#000000" font-family="sans-serif" font-size="13" lengthAdjust="spacing" textLength="191" x="593" y="225.7622">new CodeChartsCoordinator()</text><polygon fill="#A80036" points="1546,255.9609,1556,259.9609,1546,263.9609,1550,259.9609" style="stroke:#A80036;stroke-width:1.0;"/><line style="stroke:#A80036;stroke-width:1.0;" x1="926" x2="1552" y1="259.9609" y2="259.9609"/><text fill="#000000" font-family="sans-serif" font-size="13" lengthAdjust="spacing" textLength="72" x="933" y="254.895">getConfig()</text><polygon fill="#A80036" points="937,285.0938,927,289.0938,937,293.0938,933,289.0938" style="stroke:#A80036;stroke-width:1.0;"/><line style="stroke:#A80036;stroke-width:1.0;stroke-dasharray:2.0,2.0;" x1="931" x2="1562" y1="289.0938" y2="289.0938"/><text fill="#000000" font-family="sans-serif" font-size="13" lengthAdjust="spacing" textLength="85" x="943" y="284.0278">Konfiguration</text><polygon fill="#A80036" points="1266,319.2266,1276,323.2266,1266,327.2266,1270,323.2266" style="stroke:#A80036;stroke-width:1.0;"/><line style="stroke:#A80036;stroke-width:1.0;" x1="926" x2="1272" y1="323.2266" y2="323.2266"/><text fill="#000000" font-family="sans-serif" font-size="13" lengthAdjust="spacing" textLength="148" x="933" y="318.1606">new CodeChartsInput()</text><path d="M600,302.0938 L600,327.0938 L907,327.0938 L907,312.0938 L897,302.0938 L600,302.0938 " fill="#FBFB77" filter="url(#fg6ybosnzffri)" style="stroke:#A80036;stroke-width:1.0;"/><path d="M897,302.0938 L897,312.0938 L907,312.0938 L897,302.0938 " fill="#FBFB77" style="stroke:#A80036;stroke-width:1.0;"/><text fill="#000000" font-family="sans-serif" font-size="13" lengthAdjust="spacing" textLength="277" x="615" y="319.1606">auslesen und verarbieten der Konfiguration</text><polygon fill="#A80036" points="1414.5,353.3594,1424.5,357.3594,1414.5,361.3594,1418.5,357.3594" style="stroke:#A80036;stroke-width:1.0;"/><line style="stroke:#A80036;stroke-width:1.0;" x1="926" x2="1420.5" y1="357.3594" y2="357.3594"/><text fill="#000000" font-family="sans-serif" font-size="13" lengthAdjust="spacing" textLength="148" x="933" y="352.2935">new CodeChartsPane()</text><rect fill="#EEEEEE" filter="url(#fg6ybosnzffri)" height="3" style="stroke:#EEEEEE;stroke-width:1.0;" width="1714" x="0" y="385.9258"/><line style="stroke:#000000;stroke-width:1.0;" x1="0" x2="1714" y1="385.9258" y2="385.9258"/><line style="stroke:#000000;stroke-width:1.0;" x1="0" x2="1714" y1="388.9258" y2="388.9258"/><rect fill="#EEEEEE" filter="url(#fg6ybosnzffri)" height="23.1328" style="stroke:#000000;stroke-width:2.0;" width="55" x="829.5" y="375.3594"/><text fill="#000000" font-family="sans-serif" font-size="13" font-weight="bold" lengthAdjust="spacing" textLength="36" x="835.5" y="391.4263">Test</text><polygon fill="#A80036" points="904,425.625,914,429.625,904,433.625,908,429.625" style="stroke:#A80036;stroke-width:1.0;"/><line style="stroke:#A80036;stroke-width:1.0;" x1="586" x2="910" y1="429.625" y2="429.625"/><text fill="#000000" font-family="sans-serif" font-size="13" lengthAdjust="spacing" textLength="52" x="593" y="424.5591">iterate()</text><path d="M129,444.625 L207,444.625 L207,451.625 L197,461.625 L129,461.625 L129,444.625 " fill="#EEEEEE" style="stroke:#000000;stroke-width:1.0;"/><rect fill="none" height="164.7969" style="stroke:#000000;stroke-width:2.0;" width="1391" x="129" y="444.625"/><text fill="#000000" font-family="sans-serif" font-size="13" font-weight="bold" lengthAdjust="spacing" textLength="33" x="144" y="457.6919">loop</text><path d="M520,468.7578 L592,468.7578 L592,475.7578 L582,485.7578 L520,485.7578 L520,468.7578 " fill="#EEEEEE" style="stroke:#000000;stroke-width:1.0;"/><rect fill="none" height="46.2656" style="stroke:#000000;stroke-width:2.0;" width="990" x="520" y="468.7578"/><text fill="#000000" font-family="sans-serif" font-size="13" font-weight="bold" lengthAdjust="spacing" textLength="27" x="535" y="481.8247">opt</text><polygon fill="#A80036" points="1414.5,503.0234,1424.5,507.0234,1414.5,511.0234,1418.5,507.0234" style="stroke:#A80036;stroke-width:1.0;"/><line style="stroke:#A80036;stroke-width:1.0;" x1="586" x2="1420.5" y1="507.0234" y2="507.0234"/><text fill="#000000" font-family="sans-serif" font-size="13" lengthAdjust="spacing" textLength="137" x="593" y="501.9575">Anpassen von Raster</text><polygon fill="#A80036" points="178,539.1563,168,543.1563,178,547.1563,174,543.1563" style="stroke:#A80036;stroke-width:1.0;"/><line style="stroke:#A80036;stroke-width:1.0;" x1="172" x2="915" y1="543.1563" y2="543.1563"/><text fill="#000000" font-family="sans-serif" font-size="13" lengthAdjust="spacing" textLength="199" x="184" y="538.0903">Aufruf Bild, Raster und Eingabe</text><polygon fill="#A80036" points="1266,568.2891,1276,572.2891,1266,576.2891,1270,572.2891" style="stroke:#A80036;stroke-width:1.0;"/><line style="stroke:#A80036;stroke-width:1.0;" x1="926" x2="1272" y1="572.2891" y2="572.2891"/><text fill="#000000" font-family="sans-serif" font-size="13" lengthAdjust="spacing" textLength="328" x="933" y="567.2231">getInput(currentStrings, currentIteration, iterations)</text><polygon fill="#A80036" points="937,597.4219,927,601.4219,937,605.4219,933,601.4219" style="stroke:#A80036;stroke-width:1.0;"/><line style="stroke:#A80036;stroke-width:1.0;stroke-dasharray:2.0,2.0;" x1="931" x2="1277" y1="601.4219" y2="601.4219"/><text fill="#000000" font-family="sans-serif" font-size="13" lengthAdjust="spacing" textLength="31" x="943" y="596.356">Data</text><rect fill="#EEEEEE" filter="url(#fg6ybosnzffri)" height="3" style="stroke:#EEEEEE;stroke-width:1.0;" width="1714" x="0" y="636.9883"/><line style="stroke:#000000;stroke-width:1.0;" x1="0" x2="1714" y1="636.9883" y2="636.9883"/><line style="stroke:#000000;stroke-width:1.0;" x1="0" x2="1714" y1="639.9883" y2="639.9883"/><rect fill="#EEEEEE" filter="url(#fg6ybosnzffri)" height="23.1328" style="stroke:#000000;stroke-width:2.0;" width="55" x="829.5" y="626.4219"/><text fill="#000000" font-family="sans-serif" font-size="13" font-weight="bold" lengthAdjust="spacing" textLength="36" x="835.5" y="642.4888">Ende</text><polygon fill="#A80036" points="597,676.6875,587,680.6875,597,684.6875,593,680.6875" style="stroke:#A80036;stroke-width:1.0;"/><line style="stroke:#A80036;stroke-width:1.0;" x1="591" x2="920" y1="680.6875" y2="680.6875"/><text fill="#000000" font-family="sans-serif" font-size="13" lengthAdjust="spacing" textLength="62" x="603" y="675.6216">endTest()</text><polygon fill="#A80036" points="597,705.8203,587,709.8203,597,713.8203,593,709.8203" style="stroke:#A80036;stroke-width:1.0;"/><line style="stroke:#A80036;stroke-width:1.0;stroke-dasharray:2.0,2.0;" x1="591" x2="1661.5" y1="709.8203" y2="709.8203"/><text fill="#000000" font-family="sans-serif" font-size="13" lengthAdjust="spacing" textLength="104" x="603" y="704.7544">Erhobene Daten</text><polygon fill="#A80036" points="178,734.9531,168,738.9531,178,742.9531,174,738.9531" style="stroke:#A80036;stroke-width:1.0;"/><line style="stroke:#A80036;stroke-width:1.0;" x1="172" x2="580" y1="738.9531" y2="738.9531"/><text fill="#000000" font-family="sans-serif" font-size="13" lengthAdjust="spacing" textLength="371" x="184" y="733.8872">End(primaryStage, configClient, dataBaseClient, trialData)</text><!--MD5=[b958d9090d0d7ff6b2fc107434712db9]
@startuml
skinparam defaultTextAlignment center

actor       Nutzer          as n
entity      System          as s    #DA70D5
collections GUI             as g

box CodeCharts

participant CodeCharts              as cc
participant CodeChartsController    as ct
participant CodeChartsCoordinator   as co
participant CodeChartsInput         as ci
participant CodeChartsPane          as cp
end box

participant configClient            as c
participant TrialData               as td

activate n
activate s
activate g

== Initialisierung ==
g -> cc : new CodeCharts(primaryStage, configClient, dataBaseClient)
activate cc
cc -> td : new TrialData
activate td
note left: TrialData Objekt zum Abspeichern der Ergebnisse
cc -> co : new CodeChartsCoordinator()
activate co
co -> c : getConfig()
activate c
c - -> co : Konfiguration
deactivate c
co -> ci : new CodeChartsInput()
activate ci
note left : auslesen und verarbieten der Konfiguration
co -> cp : new CodeChartsPane()
activate cp

== Test ==
cc -> co : iterate()
loop
    opt
        cc -> cp : Anpassen von Raster
    end
    deactivate cc
    activate co
    co -> g : Aufruf Bild, Raster und Eingabe
    co -> ci : getInput(currentStrings, currentIteration, iterations)
    ci - -> co : Data
end

== Ende == 
co -> cc : endTest()
deactivate co
deactivate cp
deactivate ci
activate cc
td - -> cc : Erhobene Daten
cc -> g : End(primaryStage, configClient, dataBaseClient, trialData)
deactivate cc
@enduml

PlantUML version 1.2022.1beta9(Unknown compile time)
(GPL source distribution)
Java Runtime: Java(TM) SE Runtime Environment
JVM: Java HotSpot(TM) 64-Bit Server VM
Default Encoding: UTF-8
Language: en
Country: US
--></g></svg>