<?xml version="1.0" encoding="UTF-8" standalone="no"?><svg xmlns="http://www.w3.org/2000/svg" xmlns:xlink="http://www.w3.org/1999/xlink" contentScriptType="application/ecmascript" contentStyleType="text/css" height="743px" preserveAspectRatio="none" style="width:1263px;height:743px;background:#FFFFFF;" version="1.1" viewBox="0 0 1263 743" width="1263px" zoomAndPan="magnify"><defs><filter height="300%" id="f2b931kbkck6q" width="300%" x="-1" y="-1"><feGaussianBlur result="blurOut" stdDeviation="2.0"/><feColorMatrix in="blurOut" result="blurOut2" type="matrix" values="0 0 0 0 0 0 0 0 0 0 0 0 0 0 0 0 0 0 .4 0"/><feOffset dx="4.0" dy="4.0" in="blurOut2" result="blurOut3"/><feBlend in="SourceGraphic" in2="blurOut3" mode="normal"/></filter></defs><g><!--MD5=[275afd699dfec56c5bd304e04a3d58a6]
cluster Analyse-Client--><polygon fill="#FFFFFF" filter="url(#f2b931kbkck6q)" points="16,192,138,192,145,214.2969,1246,214.2969,1246,736,16,736,16,192" style="stroke:#000000;stroke-width:1.5;"/><line style="stroke:#000000;stroke-width:1.5;" x1="16" x2="145" y1="214.2969" y2="214.2969"/><text fill="#000000" font-family="sans-serif" font-size="14" font-weight="bold" lengthAdjust="spacing" textLength="116" x="20" y="206.9951">Analyse-Client</text><!--MD5=[a55135535b5c544b99c33b17428c3b14]
cluster Util--><polygon fill="#FFFFFF" filter="url(#f2b931kbkck6q)" points="890,6,925,6,932,28.2969,1178,28.2969,1178,143,890,143,890,6" style="stroke:#000000;stroke-width:1.5;"/><line style="stroke:#000000;stroke-width:1.5;" x1="890" x2="932" y1="28.2969" y2="28.2969"/><text fill="#000000" font-family="sans-serif" font-size="14" font-weight="bold" lengthAdjust="spacing" textLength="29" x="894" y="20.9951">Util</text><!--MD5=[ed6624c6556d5e7b1bd23032162d20b7]
class Client--><rect codeLine="5" fill="#FEFECE" filter="url(#f2b931kbkck6q)" height="172.0469" id="Client" style="stroke:#A80036;stroke-width:1.5;" width="399" x="434.5" y="227"/><ellipse cx="613.25" cy="243" fill="#ADD1B2" rx="11" ry="11" style="stroke:#A80036;stroke-width:1.0;"/><path d="M615.5938,238.6719 C614.6563,238.2344 614.0625,238.0938 613.1875,238.0938 C610.5625,238.0938 608.5625,240.1719 608.5625,242.8906 L608.5625,244.0156 C608.5625,246.5938 610.6719,248.4844 613.5625,248.4844 C614.7813,248.4844 615.9375,248.1875 616.6875,247.6406 C617.2656,247.2344 617.5938,246.7813 617.5938,246.3906 C617.5938,245.9375 617.2031,245.5469 616.7344,245.5469 C616.5156,245.5469 616.3125,245.625 616.125,245.8125 C615.6719,246.2969 615.6719,246.2969 615.4844,246.3906 C615.0625,246.6563 614.375,246.7813 613.6094,246.7813 C611.5625,246.7813 610.2656,245.6875 610.2656,243.9844 L610.2656,242.8906 C610.2656,241.1094 611.5156,239.7969 613.25,239.7969 C613.8281,239.7969 614.4375,239.9531 614.9063,240.2031 C615.3906,240.4844 615.5625,240.7031 615.6563,241.1094 C615.7188,241.5156 615.75,241.6406 615.8906,241.7656 C616.0313,241.9063 616.2656,242.0156 616.4844,242.0156 C616.75,242.0156 617.0156,241.875 617.1875,241.6563 C617.2969,241.5 617.3281,241.3125 617.3281,240.8906 L617.3281,239.4688 C617.3281,239.0313 617.3125,238.9063 617.2188,238.75 C617.0625,238.4844 616.7813,238.3438 616.4844,238.3438 C616.1875,238.3438 615.9844,238.4375 615.7656,238.75 L615.5938,238.6719 Z " fill="#000000"/><text fill="#000000" font-family="sans-serif" font-size="12" lengthAdjust="spacing" textLength="33" x="633.75" y="247.1543">Client</text><line style="stroke:#A80036;stroke-width:1.5;" x1="435.5" x2="832.5" y1="259" y2="259"/><rect fill="none" height="6" style="stroke:#C82930;stroke-width:1.0;" width="6" x="442.5" y="267"/><text fill="#000000" font-family="sans-serif" font-size="11" lengthAdjust="spacing" textLength="80" x="454.5" y="273.2104">data: Util.Data</text><rect fill="none" height="6" style="stroke:#C82930;stroke-width:1.0;" width="6" x="442.5" y="279.8047"/><text fill="#000000" font-family="sans-serif" font-size="11" lengthAdjust="spacing" textLength="130" x="454.5" y="286.0151">dataForComp: Util.Data</text><rect fill="none" height="6" style="stroke:#C82930;stroke-width:1.0;" width="6" x="442.5" y="292.6094"/><text fill="#000000" font-family="sans-serif" font-size="11" lengthAdjust="spacing" textLength="190" x="454.5" y="298.8198">analyseTypes: AnalyseType[0..5]</text><rect fill="none" height="6" style="stroke:#C82930;stroke-width:1.0;" width="6" x="442.5" y="305.4141"/><text fill="#000000" font-family="sans-serif" font-size="11" lengthAdjust="spacing" textLength="134" x="454.5" y="311.6245">analyzedData: String[*]</text><ellipse cx="445.5" cy="338.0234" fill="#84BE84" rx="3" ry="3" style="stroke:#038048;stroke-width:1.0;"/><text fill="#000000" font-family="sans-serif" font-size="11" lengthAdjust="spacing" textLength="373" x="454.5" y="341.2339">getData(start: Date, end: Date, dataType: Util.ToolType): boolean</text><ellipse cx="445.5" cy="350.8281" fill="#84BE84" rx="3" ry="3" style="stroke:#038048;stroke-width:1.0;"/><text fill="#000000" font-family="sans-serif" font-size="11" lengthAdjust="spacing" textLength="160" x="454.5" y="354.0386">setAnalyseTypes(): boolean</text><ellipse cx="445.5" cy="363.6328" fill="#84BE84" rx="3" ry="3" style="stroke:#038048;stroke-width:1.0;"/><text fill="#000000" font-family="sans-serif" font-size="11" lengthAdjust="spacing" textLength="160" x="454.5" y="366.8433">displayAnalyzedData(): void</text><ellipse cx="445.5" cy="376.4375" fill="#84BE84" rx="3" ry="3" style="stroke:#038048;stroke-width:1.0;"/><text fill="#000000" font-family="sans-serif" font-size="11" lengthAdjust="spacing" textLength="98" x="454.5" y="379.6479">export(): boolean</text><ellipse cx="445.5" cy="389.2422" fill="#84BE84" rx="3" ry="3" style="stroke:#038048;stroke-width:1.0;"/><text fill="#000000" font-family="sans-serif" font-size="11" lengthAdjust="spacing" textLength="133" x="454.5" y="392.4526">analyseData(): boolean</text><line style="stroke:#A80036;stroke-width:1.5;" x1="435.5" x2="590.5" y1="324.6211" y2="324.6211"/><text fill="#000000" font-family="sans-serif" font-size="11" lengthAdjust="spacing" textLength="87" x="590.5" y="327.9292">public methods</text><line style="stroke:#A80036;stroke-width:1.5;" x1="677.5" x2="832.5" y1="324.6211" y2="324.6211"/><!--MD5=[90fa35dfc7d13cf977fc160ba1111d24]
class Analyse--><rect codeLine="19" fill="#FEFECE" filter="url(#f2b931kbkck6q)" height="73.6094" id="Analyse" style="stroke:#A80036;stroke-width:1.5;" width="272" x="503" y="646"/><ellipse cx="611.75" cy="662" fill="#A9DCDF" rx="11" ry="11" style="stroke:#A80036;stroke-width:1.0;"/><path d="M613.8281,663.8125 L614.2188,664.7969 L613.8281,664.7969 C613.375,664.7969 613.2656,664.8125 613.1094,664.9219 C612.8594,665.0781 612.7031,665.3594 612.7031,665.6563 C612.7031,665.9219 612.8438,666.1719 613.0625,666.3281 C613.2031,666.4531 613.4063,666.5 613.8281,666.5 L616.1875,666.5 C616.5469,666.5 616.7656,666.4688 616.9063,666.375 C617.1563,666.2344 617.3125,665.9375 617.3125,665.6563 C617.3125,665.375 617.1719,665.125 616.9531,664.9688 C616.7813,664.8281 616.625,664.7969 616.1563,664.7969 L612.7656,656.5938 L609.0938,656.5938 C608.6406,656.5938 608.5156,656.6094 608.3594,656.7031 C608.1094,656.875 607.9531,657.1563 607.9531,657.4375 C607.9531,657.7188 608.0938,657.9688 608.3125,658.1406 C608.4844,658.25 608.6563,658.2813 609.0938,658.2813 L610.1719,658.2813 L607.5313,664.7969 C607.1094,664.7969 606.9531,664.8125 606.7969,664.9219 C606.5469,665.0781 606.3906,665.3594 606.3906,665.6563 C606.3906,666.2188 606.7656,666.5 607.5156,666.5 L609.7813,666.5 C610.1406,666.5 610.3594,666.4688 610.4844,666.375 C610.75,666.2344 610.8906,665.9375 610.8906,665.6563 C610.8906,665.375 610.7656,665.125 610.5469,664.9531 C610.375,664.8281 610.2344,664.7969 609.7813,664.7969 L609.3906,664.7969 L609.7813,663.8125 L613.8281,663.8125 Z M613.125,662.1094 L610.4531,662.1094 L611.7969,658.8438 L613.125,662.1094 Z " fill="#000000"/><text fill="#000000" font-family="sans-serif" font-size="12" font-style="italic" lengthAdjust="spacing" textLength="46" x="632.25" y="666.1543">Analyse</text><line style="stroke:#A80036;stroke-width:1.5;" x1="504" x2="774" y1="678" y2="678"/><line style="stroke:#A80036;stroke-width:1.5;" x1="504" x2="774" y1="686" y2="686"/><rect fill="#F24D5C" height="6" style="stroke:#C82930;stroke-width:1.0;" width="6" x="511" y="694"/><text fill="#000000" font-family="sans-serif" font-size="11" lengthAdjust="spacing" textLength="213" x="523" y="700.2104">calcRelFreq(data: Util.Data): float[*][*]</text><rect fill="#F24D5C" height="6" style="stroke:#C82930;stroke-width:1.0;" width="6" x="511" y="706.8047"/><text fill="#000000" font-family="sans-serif" font-size="11" lengthAdjust="spacing" textLength="246" x="523" y="713.0151">createTimeTable(data: Util.Data): float[*][*]</text><!--MD5=[3f91f8027f14bf24ffa62a72d32476ac]
class Heatmap--><rect codeLine="25" fill="#FEFECE" filter="url(#f2b931kbkck6q)" height="95.2188" id="Heatmap" style="stroke:#A80036;stroke-width:1.5;" width="404" x="826" y="475"/><ellipse cx="996.75" cy="491" fill="#ADD1B2" rx="11" ry="11" style="stroke:#A80036;stroke-width:1.0;"/><path d="M999.0938,486.6719 C998.1563,486.2344 997.5625,486.0938 996.6875,486.0938 C994.0625,486.0938 992.0625,488.1719 992.0625,490.8906 L992.0625,492.0156 C992.0625,494.5938 994.1719,496.4844 997.0625,496.4844 C998.2813,496.4844 999.4375,496.1875 1000.1875,495.6406 C1000.7656,495.2344 1001.0938,494.7813 1001.0938,494.3906 C1001.0938,493.9375 1000.7031,493.5469 1000.2344,493.5469 C1000.0156,493.5469 999.8125,493.625 999.625,493.8125 C999.1719,494.2969 999.1719,494.2969 998.9844,494.3906 C998.5625,494.6563 997.875,494.7813 997.1094,494.7813 C995.0625,494.7813 993.7656,493.6875 993.7656,491.9844 L993.7656,490.8906 C993.7656,489.1094 995.0156,487.7969 996.75,487.7969 C997.3281,487.7969 997.9375,487.9531 998.4063,488.2031 C998.8906,488.4844 999.0625,488.7031 999.1563,489.1094 C999.2188,489.5156 999.25,489.6406 999.3906,489.7656 C999.5313,489.9063 999.7656,490.0156 999.9844,490.0156 C1000.25,490.0156 1000.5156,489.875 1000.6875,489.6563 C1000.7969,489.5 1000.8281,489.3125 1000.8281,488.8906 L1000.8281,487.4688 C1000.8281,487.0313 1000.8125,486.9063 1000.7188,486.75 C1000.5625,486.4844 1000.2813,486.3438 999.9844,486.3438 C999.6875,486.3438 999.4844,486.4375 999.2656,486.75 L999.0938,486.6719 Z " fill="#000000"/><text fill="#000000" font-family="sans-serif" font-size="12" lengthAdjust="spacing" textLength="54" x="1017.25" y="495.1543">Heatmap</text><line style="stroke:#A80036;stroke-width:1.5;" x1="827" x2="1229" y1="507" y2="507"/><rect fill="none" height="6" style="stroke:#C82930;stroke-width:1.0;" width="6" x="834" y="515"/><text fill="#000000" font-family="sans-serif" font-size="11" lengthAdjust="spacing" textLength="111" x="846" y="521.2104">heatmap: float[*][*]</text><ellipse cx="837" cy="547.6094" fill="#84BE84" rx="3" ry="3" style="stroke:#038048;stroke-width:1.0;"/><text fill="#000000" font-family="sans-serif" font-size="11" lengthAdjust="spacing" textLength="217" x="846" y="550.8198">createHeatmap(data: Util.Data): String</text><text fill="#000000" font-family="sans-serif" font-size="11" lengthAdjust="spacing" text-decoration="underline" textLength="378" x="846" y="563.6245">compHeatmaps(heatmap1: Heatmap, heatmap2: Heatmap): String</text><line style="stroke:#A80036;stroke-width:1.5;" x1="827" x2="984.5" y1="534.207" y2="534.207"/><text fill="#000000" font-family="sans-serif" font-size="11" lengthAdjust="spacing" textLength="87" x="984.5" y="537.5151">public methods</text><line style="stroke:#A80036;stroke-width:1.5;" x1="1071.5" x2="1229" y1="534.207" y2="534.207"/><!--MD5=[a75dc2f5d5c9a4a0489ea15a737b99a8]
class Verlauf--><rect codeLine="33" fill="#FEFECE" filter="url(#f2b931kbkck6q)" height="99.2188" id="Verlauf" style="stroke:#A80036;stroke-width:1.5;" width="304" x="487" y="473"/><ellipse cx="613.75" cy="489" fill="#ADD1B2" rx="11" ry="11" style="stroke:#A80036;stroke-width:1.0;"/><path d="M616.0938,484.6719 C615.1563,484.2344 614.5625,484.0938 613.6875,484.0938 C611.0625,484.0938 609.0625,486.1719 609.0625,488.8906 L609.0625,490.0156 C609.0625,492.5938 611.1719,494.4844 614.0625,494.4844 C615.2813,494.4844 616.4375,494.1875 617.1875,493.6406 C617.7656,493.2344 618.0938,492.7813 618.0938,492.3906 C618.0938,491.9375 617.7031,491.5469 617.2344,491.5469 C617.0156,491.5469 616.8125,491.625 616.625,491.8125 C616.1719,492.2969 616.1719,492.2969 615.9844,492.3906 C615.5625,492.6563 614.875,492.7813 614.1094,492.7813 C612.0625,492.7813 610.7656,491.6875 610.7656,489.9844 L610.7656,488.8906 C610.7656,487.1094 612.0156,485.7969 613.75,485.7969 C614.3281,485.7969 614.9375,485.9531 615.4063,486.2031 C615.8906,486.4844 616.0625,486.7031 616.1563,487.1094 C616.2188,487.5156 616.25,487.6406 616.3906,487.7656 C616.5313,487.9063 616.7656,488.0156 616.9844,488.0156 C617.25,488.0156 617.5156,487.875 617.6875,487.6563 C617.7969,487.5 617.8281,487.3125 617.8281,486.8906 L617.8281,485.4688 C617.8281,485.0313 617.8125,484.9063 617.7188,484.75 C617.5625,484.4844 617.2813,484.3438 616.9844,484.3438 C616.6875,484.3438 616.4844,484.4375 616.2656,484.75 L616.0938,484.6719 Z " fill="#000000"/><text fill="#000000" font-family="sans-serif" font-size="12" lengthAdjust="spacing" textLength="42" x="634.25" y="493.1543">Verlauf</text><line style="stroke:#A80036;stroke-width:1.5;" x1="488" x2="790" y1="505" y2="505"/><ellipse cx="498" cy="532.8047" fill="#84BE84" rx="3" ry="3" style="stroke:#038048;stroke-width:1.0;"/><text fill="#000000" font-family="sans-serif" font-size="11" lengthAdjust="spacing" textLength="206" x="507" y="536.0151">createVerlauf(data: Util.Data): String</text><line style="stroke:#A80036;stroke-width:1.5;" x1="488" x2="598.5" y1="519.4023" y2="519.4023"/><text fill="#000000" font-family="sans-serif" font-size="11" lengthAdjust="spacing" textLength="81" x="598.5" y="522.7104">public method</text><line style="stroke:#A80036;stroke-width:1.5;" x1="679.5" x2="790" y1="519.4023" y2="519.4023"/><rect fill="#F24D5C" height="6" style="stroke:#C82930;stroke-width:1.0;" width="6" x="495" y="559.4141"/><text fill="#000000" font-family="sans-serif" font-size="11" lengthAdjust="spacing" textLength="278" x="507" y="565.6245">drawDiagramm(diagrammData: float[*][*]): String</text><line style="stroke:#A80036;stroke-width:1.5;" x1="488" x2="595" y1="549.0117" y2="549.0117"/><text fill="#000000" font-family="sans-serif" font-size="11" lengthAdjust="spacing" textLength="88" x="595" y="552.3198">private method</text><line style="stroke:#A80036;stroke-width:1.5;" x1="683" x2="790" y1="549.0117" y2="549.0117"/><!--MD5=[33dbb5cd9b1593568d30e59c5983c72e]
class Diagramm--><rect codeLine="41" fill="#FEFECE" filter="url(#f2b931kbkck6q)" height="124.8281" id="Diagramm" style="stroke:#A80036;stroke-width:1.5;" width="419" x="32.5" y="460"/><ellipse cx="207.25" cy="476" fill="#ADD1B2" rx="11" ry="11" style="stroke:#A80036;stroke-width:1.0;"/><path d="M209.5938,471.6719 C208.6563,471.2344 208.0625,471.0938 207.1875,471.0938 C204.5625,471.0938 202.5625,473.1719 202.5625,475.8906 L202.5625,477.0156 C202.5625,479.5938 204.6719,481.4844 207.5625,481.4844 C208.7813,481.4844 209.9375,481.1875 210.6875,480.6406 C211.2656,480.2344 211.5938,479.7813 211.5938,479.3906 C211.5938,478.9375 211.2031,478.5469 210.7344,478.5469 C210.5156,478.5469 210.3125,478.625 210.125,478.8125 C209.6719,479.2969 209.6719,479.2969 209.4844,479.3906 C209.0625,479.6563 208.375,479.7813 207.6094,479.7813 C205.5625,479.7813 204.2656,478.6875 204.2656,476.9844 L204.2656,475.8906 C204.2656,474.1094 205.5156,472.7969 207.25,472.7969 C207.8281,472.7969 208.4375,472.9531 208.9063,473.2031 C209.3906,473.4844 209.5625,473.7031 209.6563,474.1094 C209.7188,474.5156 209.75,474.6406 209.8906,474.7656 C210.0313,474.9063 210.2656,475.0156 210.4844,475.0156 C210.75,475.0156 211.0156,474.875 211.1875,474.6563 C211.2969,474.5 211.3281,474.3125 211.3281,473.8906 L211.3281,472.4688 C211.3281,472.0313 211.3125,471.9063 211.2188,471.75 C211.0625,471.4844 210.7813,471.3438 210.4844,471.3438 C210.1875,471.3438 209.9844,471.4375 209.7656,471.75 L209.5938,471.6719 Z " fill="#000000"/><text fill="#000000" font-family="sans-serif" font-size="12" lengthAdjust="spacing" textLength="61" x="227.75" y="480.1543">Diagramm</text><line style="stroke:#A80036;stroke-width:1.5;" x1="33.5" x2="450.5" y1="492" y2="492"/><ellipse cx="43.5" cy="519.8047" fill="#84BE84" rx="3" ry="3" style="stroke:#038048;stroke-width:1.0;"/><text fill="#000000" font-family="sans-serif" font-size="11" lengthAdjust="spacing" textLength="256" x="52.5" y="523.0151">createRelFreqImgArea(data: Util.Data): String</text><ellipse cx="43.5" cy="532.6094" fill="#84BE84" rx="3" ry="3" style="stroke:#038048;stroke-width:1.0;"/><text fill="#000000" font-family="sans-serif" font-size="11" lengthAdjust="spacing" textLength="248" x="52.5" y="535.8198">createViewTimeDistr(data: Util.Data): String</text><line style="stroke:#A80036;stroke-width:1.5;" x1="33.5" x2="198.5" y1="506.4023" y2="506.4023"/><text fill="#000000" font-family="sans-serif" font-size="11" lengthAdjust="spacing" textLength="87" x="198.5" y="509.7104">public methods</text><line style="stroke:#A80036;stroke-width:1.5;" x1="285.5" x2="450.5" y1="506.4023" y2="506.4023"/><rect fill="#F24D5C" height="6" style="stroke:#C82930;stroke-width:1.0;" width="6" x="40.5" y="559.2188"/><text fill="#000000" font-family="sans-serif" font-size="11" lengthAdjust="spacing" textLength="305" x="52.5" y="565.4292">calcViewTimeDistr(timeTableData: float[*][*]): float[4]</text><rect fill="#F24D5C" height="6" style="stroke:#C82930;stroke-width:1.0;" width="6" x="40.5" y="572.0234"/><text fill="#000000" font-family="sans-serif" font-size="11" lengthAdjust="spacing" textLength="393" x="52.5" y="578.2339">drawDiagramm(diagrammData: float[4], type: DiagrammType): String</text><line style="stroke:#A80036;stroke-width:1.5;" x1="33.5" x2="195" y1="548.8164" y2="548.8164"/><text fill="#000000" font-family="sans-serif" font-size="11" lengthAdjust="spacing" textLength="94" x="195" y="552.1245">private methods</text><line style="stroke:#A80036;stroke-width:1.5;" x1="289" x2="450.5" y1="548.8164" y2="548.8164"/><!--MD5=[d91c19779645ffdf11e9e54b9cd0cb0c]
class DiagrammType--><rect codeLine="51" fill="#FEFECE" filter="url(#f2b931kbkck6q)" height="73.6094" id="DiagrammType" style="stroke:#A80036;stroke-width:1.5;" width="123" x="180.5" y="646"/><ellipse cx="195.5" cy="662" fill="#EB937F" rx="11" ry="11" style="stroke:#A80036;stroke-width:1.0;"/><path d="M194.2969,662.875 L195.75,662.875 L195.75,662.9844 C195.75,663.3906 195.7813,663.5469 195.8594,663.7031 C196.0156,663.9531 196.2969,664.1094 196.5938,664.1094 C196.8438,664.1094 197.1094,663.9688 197.2656,663.75 C197.3906,663.5938 197.4219,663.4375 197.4219,662.9844 L197.4219,661.0625 C197.4219,660.9063 197.4219,660.8594 197.4063,660.7031 C197.3438,660.2344 197.0313,659.9219 196.5781,659.9219 C196.3281,659.9219 196.0625,660.0625 195.8906,660.2813 C195.7813,660.4531 195.75,660.6094 195.75,661.0625 L195.75,661.1875 L194.2969,661.1875 L194.2969,658.7813 L198.2813,658.7813 L198.2813,659.6406 C198.2813,660.0469 198.3125,660.2188 198.3906,660.375 C198.5625,660.625 198.8438,660.7813 199.125,660.7813 C199.3906,660.7813 199.6563,660.6406 199.8281,660.4219 C199.9375,660.25 199.9688,660.1094 199.9688,659.6406 L199.9688,657.0938 L192.3438,657.0938 C191.9063,657.0938 191.7813,657.1094 191.625,657.2031 C191.375,657.3594 191.2188,657.6563 191.2188,657.9375 C191.2188,658.2188 191.3594,658.4688 191.5781,658.6406 C191.7344,658.75 191.9219,658.7813 192.3438,658.7813 L192.5938,658.7813 L192.5938,665.2969 L192.3438,665.2969 C191.9375,665.2969 191.7813,665.3125 191.625,665.4219 C191.375,665.5938 191.2188,665.8594 191.2188,666.1563 C191.2188,666.4219 191.3594,666.6719 191.5781,666.8281 C191.7188,666.9531 191.9531,667 192.3438,667 L200.3438,667 L200.3438,664.4219 C200.3438,663.9844 200.3125,663.8438 200.2344,663.6875 C200.0625,663.4375 199.7813,663.2813 199.5,663.2813 C199.2344,663.2813 198.9688,663.3906 198.7969,663.6406 C198.6875,663.7969 198.6563,663.9375 198.6563,664.4219 L198.6563,665.2969 L194.2969,665.2969 L194.2969,662.875 Z " fill="#000000"/><text fill="#000000" font-family="sans-serif" font-size="12" lengthAdjust="spacing" textLength="91" x="209.5" y="666.1543">DiagrammType</text><line style="stroke:#A80036;stroke-width:1.5;" x1="181.5" x2="302.5" y1="678" y2="678"/><text fill="#000000" font-family="sans-serif" font-size="11" lengthAdjust="spacing" textLength="93" x="186.5" y="692.2104">RELFRQIMGAREA</text><text fill="#000000" font-family="sans-serif" font-size="11" lengthAdjust="spacing" textLength="89" x="186.5" y="705.0151">VIEWTIMEDISTR</text><line style="stroke:#A80036;stroke-width:1.5;" x1="181.5" x2="302.5" y1="711.6094" y2="711.6094"/><!--MD5=[187bd564dfbdf57eb75091cc1a4a8baa]
class AnalyseType--><rect codeLine="57" fill="#FEFECE" filter="url(#f2b931kbkck6q)" height="112.0234" id="AnalyseType" style="stroke:#A80036;stroke-width:1.5;" width="109" x="290.5" y="257"/><ellipse cx="305.5" cy="273" fill="#EB937F" rx="11" ry="11" style="stroke:#A80036;stroke-width:1.0;"/><path d="M304.2969,273.875 L305.75,273.875 L305.75,273.9844 C305.75,274.3906 305.7813,274.5469 305.8594,274.7031 C306.0156,274.9531 306.2969,275.1094 306.5938,275.1094 C306.8438,275.1094 307.1094,274.9688 307.2656,274.75 C307.3906,274.5938 307.4219,274.4375 307.4219,273.9844 L307.4219,272.0625 C307.4219,271.9063 307.4219,271.8594 307.4063,271.7031 C307.3438,271.2344 307.0313,270.9219 306.5781,270.9219 C306.3281,270.9219 306.0625,271.0625 305.8906,271.2813 C305.7813,271.4531 305.75,271.6094 305.75,272.0625 L305.75,272.1875 L304.2969,272.1875 L304.2969,269.7813 L308.2813,269.7813 L308.2813,270.6406 C308.2813,271.0469 308.3125,271.2188 308.3906,271.375 C308.5625,271.625 308.8438,271.7813 309.125,271.7813 C309.3906,271.7813 309.6563,271.6406 309.8281,271.4219 C309.9375,271.25 309.9688,271.1094 309.9688,270.6406 L309.9688,268.0938 L302.3438,268.0938 C301.9063,268.0938 301.7813,268.1094 301.625,268.2031 C301.375,268.3594 301.2188,268.6563 301.2188,268.9375 C301.2188,269.2188 301.3594,269.4688 301.5781,269.6406 C301.7344,269.75 301.9219,269.7813 302.3438,269.7813 L302.5938,269.7813 L302.5938,276.2969 L302.3438,276.2969 C301.9375,276.2969 301.7813,276.3125 301.625,276.4219 C301.375,276.5938 301.2188,276.8594 301.2188,277.1563 C301.2188,277.4219 301.3594,277.6719 301.5781,277.8281 C301.7188,277.9531 301.9531,278 302.3438,278 L310.3438,278 L310.3438,275.4219 C310.3438,274.9844 310.3125,274.8438 310.2344,274.6875 C310.0625,274.4375 309.7813,274.2813 309.5,274.2813 C309.2344,274.2813 308.9688,274.3906 308.7969,274.6406 C308.6875,274.7969 308.6563,274.9375 308.6563,275.4219 L308.6563,276.2969 L304.2969,276.2969 L304.2969,273.875 Z " fill="#000000"/><text fill="#000000" font-family="sans-serif" font-size="12" lengthAdjust="spacing" textLength="77" x="319.5" y="277.1543">AnalyseType</text><line style="stroke:#A80036;stroke-width:1.5;" x1="291.5" x2="398.5" y1="289" y2="289"/><text fill="#000000" font-family="sans-serif" font-size="11" lengthAdjust="spacing" textLength="53" x="296.5" y="303.2104">HEATMAP</text><text fill="#000000" font-family="sans-serif" font-size="11" lengthAdjust="spacing" textLength="85" x="296.5" y="316.0151">COMPHEATMAP</text><text fill="#000000" font-family="sans-serif" font-size="11" lengthAdjust="spacing" textLength="50" x="296.5" y="328.8198">VERLAUF</text><text fill="#000000" font-family="sans-serif" font-size="11" lengthAdjust="spacing" textLength="93" x="296.5" y="341.6245">RELFRQIMGAREA</text><text fill="#000000" font-family="sans-serif" font-size="11" lengthAdjust="spacing" textLength="89" x="296.5" y="354.4292">VIEWTIMEDISTR</text><line style="stroke:#A80036;stroke-width:1.5;" x1="291.5" x2="398.5" y1="361.0234" y2="361.0234"/><!--MD5=[3079cd578e216c696855c75c2998d445]
class ClientGUI--><rect codeLine="66" fill="#FEFECE" filter="url(#f2b931kbkck6q)" height="95.2188" id="ClientGUI" style="stroke:#A80036;stroke-width:1.5;" width="147" x="1082.5" y="265.5"/><ellipse cx="1124.95" cy="281.5" fill="#ADD1B2" rx="11" ry="11" style="stroke:#A80036;stroke-width:1.0;"/><path d="M1127.2938,277.1719 C1126.3563,276.7344 1125.7625,276.5938 1124.8875,276.5938 C1122.2625,276.5938 1120.2625,278.6719 1120.2625,281.3906 L1120.2625,282.5156 C1120.2625,285.0938 1122.3719,286.9844 1125.2625,286.9844 C1126.4813,286.9844 1127.6375,286.6875 1128.3875,286.1406 C1128.9656,285.7344 1129.2938,285.2813 1129.2938,284.8906 C1129.2938,284.4375 1128.9031,284.0469 1128.4344,284.0469 C1128.2156,284.0469 1128.0125,284.125 1127.825,284.3125 C1127.3719,284.7969 1127.3719,284.7969 1127.1844,284.8906 C1126.7625,285.1563 1126.075,285.2813 1125.3094,285.2813 C1123.2625,285.2813 1121.9656,284.1875 1121.9656,282.4844 L1121.9656,281.3906 C1121.9656,279.6094 1123.2156,278.2969 1124.95,278.2969 C1125.5281,278.2969 1126.1375,278.4531 1126.6063,278.7031 C1127.0906,278.9844 1127.2625,279.2031 1127.3563,279.6094 C1127.4188,280.0156 1127.45,280.1406 1127.5906,280.2656 C1127.7313,280.4063 1127.9656,280.5156 1128.1844,280.5156 C1128.45,280.5156 1128.7156,280.375 1128.8875,280.1563 C1128.9969,280 1129.0281,279.8125 1129.0281,279.3906 L1129.0281,277.9688 C1129.0281,277.5313 1129.0125,277.4063 1128.9188,277.25 C1128.7625,276.9844 1128.4813,276.8438 1128.1844,276.8438 C1127.8875,276.8438 1127.6844,276.9375 1127.4656,277.25 L1127.2938,277.1719 Z " fill="#000000"/><text fill="#000000" font-family="sans-serif" font-size="12" lengthAdjust="spacing" textLength="54" x="1145.05" y="285.6543">ClientGUI</text><line style="stroke:#A80036;stroke-width:1.5;" x1="1083.5" x2="1228.5" y1="297.5" y2="297.5"/><rect fill="none" height="6" style="stroke:#C82930;stroke-width:1.0;" width="6" x="1090.5" y="305.5"/><text fill="#000000" font-family="sans-serif" font-size="11" lengthAdjust="spacing" textLength="71" x="1102.5" y="311.7104">client: Client</text><rect fill="none" height="6" style="stroke:#C82930;stroke-width:1.0;" width="6" x="1090.5" y="318.3047"/><text fill="#000000" font-family="sans-serif" font-size="11" lengthAdjust="spacing" textLength="75" x="1102.5" y="324.5151">exit: boolean</text><ellipse cx="1093.5" cy="350.9141" fill="#84BE84" rx="3" ry="3" style="stroke:#038048;stroke-width:1.0;"/><text fill="#000000" font-family="sans-serif" font-size="11" lengthAdjust="spacing" textLength="121" x="1102.5" y="354.1245">showClientGUI(): void</text><line style="stroke:#A80036;stroke-width:1.5;" x1="1083.5" x2="1115.5" y1="337.5117" y2="337.5117"/><text fill="#000000" font-family="sans-serif" font-size="11" lengthAdjust="spacing" textLength="81" x="1115.5" y="340.8198">public method</text><line style="stroke:#A80036;stroke-width:1.5;" x1="1196.5" x2="1228.5" y1="337.5117" y2="337.5117"/><polygon fill="#FFFFFF" filter="url(#f2b931kbkck6q)" points="479,57.5,617,57.5,624,79.7969,631,79.7969,631,110.0938,479,110.0938,479,57.5" style="stroke:#000000;stroke-width:1.5;"/><line style="stroke:#000000;stroke-width:1.5;" x1="479" x2="624" y1="79.7969" y2="79.7969"/><text fill="#000000" font-family="sans-serif" font-size="14" font-weight="bold" lengthAdjust="spacing" textLength="132" x="483" y="72.4951">SpeicherMedium</text><!--MD5=[5c39798b83ace9e75333b1274a725e6c]
class ToolType--><rect codeLine="94" fill="#FEFECE" filter="url(#f2b931kbkck6q)" height="86.4141" id="ToolType" style="stroke:#A80036;stroke-width:1.5;" width="91" x="906.5" y="41"/><ellipse cx="922.85" cy="57" fill="#EB937F" rx="11" ry="11" style="stroke:#A80036;stroke-width:1.0;"/><path d="M921.6469,57.875 L923.1,57.875 L923.1,57.9844 C923.1,58.3906 923.1313,58.5469 923.2094,58.7031 C923.3656,58.9531 923.6469,59.1094 923.9438,59.1094 C924.1938,59.1094 924.4594,58.9688 924.6156,58.75 C924.7406,58.5938 924.7719,58.4375 924.7719,57.9844 L924.7719,56.0625 C924.7719,55.9063 924.7719,55.8594 924.7563,55.7031 C924.6938,55.2344 924.3813,54.9219 923.9281,54.9219 C923.6781,54.9219 923.4125,55.0625 923.2406,55.2813 C923.1313,55.4531 923.1,55.6094 923.1,56.0625 L923.1,56.1875 L921.6469,56.1875 L921.6469,53.7813 L925.6313,53.7813 L925.6313,54.6406 C925.6313,55.0469 925.6625,55.2188 925.7406,55.375 C925.9125,55.625 926.1938,55.7813 926.475,55.7813 C926.7406,55.7813 927.0063,55.6406 927.1781,55.4219 C927.2875,55.25 927.3188,55.1094 927.3188,54.6406 L927.3188,52.0938 L919.6938,52.0938 C919.2563,52.0938 919.1313,52.1094 918.975,52.2031 C918.725,52.3594 918.5688,52.6563 918.5688,52.9375 C918.5688,53.2188 918.7094,53.4688 918.9281,53.6406 C919.0844,53.75 919.2719,53.7813 919.6938,53.7813 L919.9438,53.7813 L919.9438,60.2969 L919.6938,60.2969 C919.2875,60.2969 919.1313,60.3125 918.975,60.4219 C918.725,60.5938 918.5688,60.8594 918.5688,61.1563 C918.5688,61.4219 918.7094,61.6719 918.9281,61.8281 C919.0688,61.9531 919.3031,62 919.6938,62 L927.6938,62 L927.6938,59.4219 C927.6938,58.9844 927.6625,58.8438 927.5844,58.6875 C927.4125,58.4375 927.1313,58.2813 926.85,58.2813 C926.5844,58.2813 926.3188,58.3906 926.1469,58.6406 C926.0375,58.7969 926.0063,58.9375 926.0063,59.4219 L926.0063,60.2969 L921.6469,60.2969 L921.6469,57.875 Z " fill="#000000"/><text fill="#000000" font-family="sans-serif" font-size="12" lengthAdjust="spacing" textLength="56" x="937.15" y="61.1543">ToolType</text><line style="stroke:#A80036;stroke-width:1.5;" x1="907.5" x2="996.5" y1="73" y2="73"/><text fill="#000000" font-family="sans-serif" font-size="11" lengthAdjust="spacing" textLength="35" x="912.5" y="87.2104">ZOOM</text><text fill="#000000" font-family="sans-serif" font-size="11" lengthAdjust="spacing" textLength="78" x="912.5" y="100.0151">EYETRACKING</text><text fill="#000000" font-family="sans-serif" font-size="11" lengthAdjust="spacing" textLength="79" x="912.5" y="112.8198">CODECHARTS</text><line style="stroke:#A80036;stroke-width:1.5;" x1="907.5" x2="996.5" y1="119.4141" y2="119.4141"/><!--MD5=[60c9ed31c535bee25c55ce21b5b01399]
class Data--><rect codeLine="101" fill="#FEFECE" filter="url(#f2b931kbkck6q)" height="86.4141" id="Data" style="stroke:#A80036;stroke-width:1.5;" width="129" x="1032.5" y="41"/><ellipse cx="1047.5" cy="57" fill="#ADD1B2" rx="11" ry="11" style="stroke:#A80036;stroke-width:1.0;"/><path d="M1049.8438,52.6719 C1048.9063,52.2344 1048.3125,52.0938 1047.4375,52.0938 C1044.8125,52.0938 1042.8125,54.1719 1042.8125,56.8906 L1042.8125,58.0156 C1042.8125,60.5938 1044.9219,62.4844 1047.8125,62.4844 C1049.0313,62.4844 1050.1875,62.1875 1050.9375,61.6406 C1051.5156,61.2344 1051.8438,60.7813 1051.8438,60.3906 C1051.8438,59.9375 1051.4531,59.5469 1050.9844,59.5469 C1050.7656,59.5469 1050.5625,59.625 1050.375,59.8125 C1049.9219,60.2969 1049.9219,60.2969 1049.7344,60.3906 C1049.3125,60.6563 1048.625,60.7813 1047.8594,60.7813 C1045.8125,60.7813 1044.5156,59.6875 1044.5156,57.9844 L1044.5156,56.8906 C1044.5156,55.1094 1045.7656,53.7969 1047.5,53.7969 C1048.0781,53.7969 1048.6875,53.9531 1049.1563,54.2031 C1049.6406,54.4844 1049.8125,54.7031 1049.9063,55.1094 C1049.9688,55.5156 1050,55.6406 1050.1406,55.7656 C1050.2813,55.9063 1050.5156,56.0156 1050.7344,56.0156 C1051,56.0156 1051.2656,55.875 1051.4375,55.6563 C1051.5469,55.5 1051.5781,55.3125 1051.5781,54.8906 L1051.5781,53.4688 C1051.5781,53.0313 1051.5625,52.9063 1051.4688,52.75 C1051.3125,52.4844 1051.0313,52.3438 1050.7344,52.3438 C1050.4375,52.3438 1050.2344,52.4375 1050.0156,52.75 L1049.8438,52.6719 Z " fill="#000000"/><text fill="#000000" font-family="sans-serif" font-size="12" lengthAdjust="spacing" textLength="27" x="1061.5" y="61.1543">Data</text><rect fill="#FFFFFF" height="15.9688" style="stroke:#000000;stroke-width:1.0;stroke-dasharray:2.0,2.0;" width="68" x="1096.5" y="38"/><text fill="#000000" font-family="sans-serif" font-size="12" font-style="italic" lengthAdjust="spacing" textLength="66" x="1097.5" y="50.1387">t: ToolType</text><line style="stroke:#A80036;stroke-width:1.5;" x1="1033.5" x2="1160.5" y1="73" y2="73"/><ellipse cx="1043.5" cy="84" rx="3" ry="3" style="stroke:#038048;stroke-width:1.0;fill:none;"/><text fill="#000000" font-family="sans-serif" font-size="11" lengthAdjust="spacing" textLength="64" x="1052.5" y="87.2104">t: ToolType</text><ellipse cx="1043.5" cy="96.8047" rx="3" ry="3" style="stroke:#038048;stroke-width:1.0;fill:none;"/><text fill="#000000" font-family="sans-serif" font-size="11" lengthAdjust="spacing" textLength="82" x="1052.5" y="100.0151">data: unknown</text><ellipse cx="1043.5" cy="109.6094" rx="3" ry="3" style="stroke:#038048;stroke-width:1.0;fill:none;"/><text fill="#000000" font-family="sans-serif" font-size="11" lengthAdjust="spacing" textLength="71" x="1052.5" y="112.8198">config_id: int</text><line style="stroke:#A80036;stroke-width:1.5;" x1="1033.5" x2="1160.5" y1="119.4141" y2="119.4141"/><!--MD5=[abea0b42432aea0f9ce66e53feda8644]
entity System--><ellipse cx="701" cy="84" fill="#DA70D5" filter="url(#f2b931kbkck6q)" rx="8" ry="8" style="stroke:#A80036;stroke-width:1.5;"/><text fill="#000000" font-family="sans-serif" font-size="14" lengthAdjust="spacing" textLength="54" x="674" y="113.9951">System</text><!--MD5=[0142a10273876a6498763cbca717bc4b]
link Heatmap to Analyse--><path codeLine="74" d="M913.653,570.091 C860.751,591.647 798.259,617.109 746.261,638.296 " fill="none" id="Heatmap-to-Analyse" style="stroke:#A80036;stroke-width:1.0;"/><polygon fill="none" points="748.779,644.829,727.616,645.893,743.496,631.864,748.779,644.829" style="stroke:#A80036;stroke-width:1.0;"/><!--MD5=[49c5c3aad5e065304b1f0455c88d6c6a]
link Verlauf to Analyse--><path codeLine="75" d="M639,572.349 C639,589.226 639,608.273 639,625.699 " fill="none" id="Verlauf-to-Analyse" style="stroke:#A80036;stroke-width:1.0;"/><polygon fill="none" points="646,625.897,639,645.897,632,625.897,646,625.897" style="stroke:#A80036;stroke-width:1.0;"/><!--MD5=[eec8e75ff2920fb7be4f9035a3a6b788]
link Diagramm to Analyse--><path codeLine="76" d="M396.059,585.007 C440.753,602.851 488.616,621.96 529.94,638.458 " fill="none" id="Diagramm-to-Analyse" style="stroke:#A80036;stroke-width:1.0;"/><polygon fill="none" points="532.758,632.046,548.737,645.963,527.567,645.048,532.758,632.046" style="stroke:#A80036;stroke-width:1.0;"/><!--MD5=[458e23c55b866563aae54fc87d28c1cd]
link Client to Heatmap--><path codeLine="79" d="M795.676,399.147 C843.114,424.13 893.377,450.601 934.972,472.507 " fill="none" id="Client-to-Heatmap" style="stroke:#A80036;stroke-width:1.0;"/><polygon fill="#A80036" points="939.484,474.883,933.3847,467.1501,935.06,472.5531,929.6569,474.2285,939.484,474.883" style="stroke:#A80036;stroke-width:1.0;"/><!--MD5=[28cbb4bcdbacbdc16d11542d97316c4d]
link Client to Verlauf--><path codeLine="80" d="M636.055,399.296 C636.612,422.379 637.198,446.721 637.7,467.551 " fill="none" id="Client-to-Verlauf" style="stroke:#A80036;stroke-width:1.0;"/><polygon fill="#A80036" points="637.826,472.769,641.6088,463.6756,637.706,467.7704,633.6112,463.8676,637.826,472.769" style="stroke:#A80036;stroke-width:1.0;"/><!--MD5=[5a584ab670d8f56708f0929dbbb811bb]
link Client to Diagramm--><path codeLine="81" d="M473.145,399.147 C436.34,418.629 397.826,439.016 363.025,457.437 " fill="none" id="Client-to-Diagramm" style="stroke:#A80036;stroke-width:1.0;"/><polygon fill="#A80036" points="358.36,459.906,368.1856,459.2302,362.7789,457.5666,364.4425,452.1599,358.36,459.906" style="stroke:#A80036;stroke-width:1.0;"/><!--MD5=[f1ae28e25402a7e717ad4fc29abfecff]
link AnalyseType to Client--><path codeLine="82" d="M399.752,313 C411.19,313 422.628,313 434.066,313 " fill="none" id="AnalyseType-Client" style="stroke:#A80036;stroke-width:1.0;"/><!--MD5=[d87b49e9793fa2adf9873dcf0a70cfd9]
reverse link Client to ClientGUI--><path codeLine="83" d="M838.701,313 C924.562,313 1018.96,313 1082.28,313 " fill="none" id="Client-backto-ClientGUI" style="stroke:#A80036;stroke-width:1.0;"/><polygon fill="#A80036" points="833.58,313,842.58,317,838.58,313,842.58,309,833.58,313" style="stroke:#A80036;stroke-width:1.0;"/><polygon fill="#000000" points="851,301.5664,860.0451,304.5053,860.0451,298.6275,851,301.5664" style="stroke:#000000;stroke-width:1.0;"/><text fill="#000000" font-family="sans-serif" font-size="13" lengthAdjust="spacing" textLength="199" x="865" y="306.0669">graphische Benutzeroberfläche</text><!--MD5=[768f06966f6b7deed27764cd6045903b]
link Diagramm to DiagrammType--><path codeLine="84" d="M242,585.234 C242,605.748 242,627.91 242,645.842 " fill="none" id="Diagramm-DiagrammType" style="stroke:#A80036;stroke-width:1.0;"/><!--MD5=[b0bc53235038902673d53aaf3a34627f]
link ToolType to Data--><path codeLine="108" d="M997.596,84 C1009.12,84 1020.63,84 1032.15,84 " fill="none" id="ToolType-Data" style="stroke:#A80036;stroke-width:1.0;"/><!--MD5=[3bc31aaf38fcd7bd4122f97c2621c34e]
link System to Client--><path codeLine="114" d="M698.615,93.079 C692.275,114.562 674.435,175.004 659.103,226.949 " fill="none" id="System-Client" style="stroke:#A80036;stroke-width:1.0;"/><polygon fill="#000000" points="683.4154,162.7709,678.0362,170.6141,683.6736,172.278,683.4154,162.7709" style="stroke:#000000;stroke-width:1.0;"/><text fill="#000000" font-family="sans-serif" font-size="13" lengthAdjust="spacing" textLength="48" x="691" y="172.0669">save to</text><!--MD5=[e915fa9e1e96e39591c06eed7939ff93]
link SpeicherMedium to Client--><path codeLine="115" d="M563.909,110.599 C573.714,138.774 590.001,185.572 604.407,226.968 " fill="none" id="SpeicherMedium-Client" style="stroke:#A80036;stroke-width:1.0;"/><polygon fill="#000000" points="591.6434,172.2886,591.4461,162.7801,585.8948,164.712,591.6434,172.2886" style="stroke:#000000;stroke-width:1.0;"/><text fill="#000000" font-family="sans-serif" font-size="13" lengthAdjust="spacing" textLength="63" x="599" y="172.0669">gets Data</text><!--MD5=[1177e2eb7292c08949eb8e791dcf8b94]
@startuml
' === ANALYSE CLIENT ===
package Analyse-Client{

    ' Client
    class Client {
        - data: Util.Data
        - dataForComp: Util.Data
        - analyseTypes: AnalyseType[0..5]
        - analyzedData: String[*]
        __public methods__
        + getData(start: Date, end: Date, dataType: Util.ToolType): boolean
        + setAnalyseTypes(): boolean
        + displayAnalyzedData(): void
        + export(): boolean
        + analyseData(): boolean
    }

    ' Analyse
    abstract Analyse {
        - calcRelFreq(data: Util.Data): float[*][*]
        - createTimeTable(data: Util.Data): float[*][*]
    }

    ' Heatmap
    class Heatmap {
        - heatmap: float[*][*]
        __public methods__
        + createHeatmap(data: Util.Data): String
        {static} compHeatmaps(heatmap1: Heatmap, heatmap2: Heatmap): String
    }

    ' Verlauf
    class Verlauf {
        __public method__
        + createVerlauf(data: Util.Data): String
        __private method__
        - drawDiagramm(diagrammData: float[*][*]): String
    }

    ' Diagramm
    class Diagramm {
        __public methods__
        + createRelFreqImgArea(data: Util.Data): String
        + createViewTimeDistr(data: Util.Data): String
        __private methods__
        - calcViewTimeDistr(timeTableData: float[*][*]): float[4]
        - drawDiagramm(diagrammData: float[4], type: DiagrammType): String
    }

    ' DiagrammType
    enum DiagrammType {
        RELFRQIMGAREA
        VIEWTIMEDISTR
    }

    ' Type
    enum AnalyseType {
        HEATMAP
        COMPHEATMAP
        VERLAUF
        RELFRQIMGAREA
        VIEWTIMEDISTR
    }

    ' ClientGUI
    class ClientGUI {
        - client: Client
        - exit: boolean
        __public method__
        + showClientGUI(): void
    }

    ' Vererbung
    Analyse <|-u- Heatmap
    Analyse <|-u- Verlauf
    Analyse <|-u- Diagramm

    ' Interaktionen
    Client -d-> Heatmap
    Client -d-> Verlauf
    Client -d-> Diagramm
    Client -l- AnalyseType
    Client <-r- ClientGUI : < graphische Benutzeroberfläche
    Diagramm - - DiagrammType

}

' Blackbox
package SpeicherMedium {}

package Util {

    ' Typen der erhobenen Daten
    enum ToolType {
        ZOOM
        EYETRACKING
        CODECHARTS
    }

    ' Daten
    class Data<t: ToolType> {
        + t: ToolType
        + data: unknown
        + config_id: int
    }

    ' Interaktionen
    Data -l- ToolType
}

() System #DA70D5

' Interaktionen
Client -u- System: > save to
Client -u- SpeicherMedium : < gets Data
@enduml

@startuml
package Analyse-Client{

    class Client {
        - data: Util.Data
        - dataForComp: Util.Data
        - analyseTypes: AnalyseType[0..5]
        - analyzedData: String[*]
        __public methods__
        + getData(start: Date, end: Date, dataType: Util.ToolType): boolean
        + setAnalyseTypes(): boolean
        + displayAnalyzedData(): void
        + export(): boolean
        + analyseData(): boolean
    }

    abstract Analyse {
        - calcRelFreq(data: Util.Data): float[*][*]
        - createTimeTable(data: Util.Data): float[*][*]
    }

    class Heatmap {
        - heatmap: float[*][*]
        __public methods__
        + createHeatmap(data: Util.Data): String
        {static} compHeatmaps(heatmap1: Heatmap, heatmap2: Heatmap): String
    }

    class Verlauf {
        __public method__
        + createVerlauf(data: Util.Data): String
        __private method__
        - drawDiagramm(diagrammData: float[*][*]): String
    }

    class Diagramm {
        __public methods__
        + createRelFreqImgArea(data: Util.Data): String
        + createViewTimeDistr(data: Util.Data): String
        __private methods__
        - calcViewTimeDistr(timeTableData: float[*][*]): float[4]
        - drawDiagramm(diagrammData: float[4], type: DiagrammType): String
    }

    enum DiagrammType {
        RELFRQIMGAREA
        VIEWTIMEDISTR
    }

    enum AnalyseType {
        HEATMAP
        COMPHEATMAP
        VERLAUF
        RELFRQIMGAREA
        VIEWTIMEDISTR
    }

    class ClientGUI {
        - client: Client
        - exit: boolean
        __public method__
        + showClientGUI(): void
    }

    Analyse <|-u- Heatmap
    Analyse <|-u- Verlauf
    Analyse <|-u- Diagramm

    Client -d-> Heatmap
    Client -d-> Verlauf
    Client -d-> Diagramm
    Client -l- AnalyseType
    Client <-r- ClientGUI : < graphische Benutzeroberfläche
    Diagramm - - DiagrammType

}

package SpeicherMedium {}

package Util {

    enum ToolType {
        ZOOM
        EYETRACKING
        CODECHARTS
    }

    class Data<t: ToolType> {
        + t: ToolType
        + data: unknown
        + config_id: int
    }

    Data -l- ToolType
}

() System #DA70D5

Client -u- System: > save to
Client -u- SpeicherMedium : < gets Data
@enduml

PlantUML version 1.2021.14(Fri Nov 12 16:46:50 UTC 2021)
(GPL source distribution)
Java Runtime: Java(TM) SE Runtime Environment
JVM: Java HotSpot(TM) 64-Bit Server VM
Default Encoding: UTF-8
Language: en
Country: US
--></g></svg>