<?xml version="1.0" encoding="UTF-8" standalone="no"?><svg xmlns="http://www.w3.org/2000/svg" xmlns:xlink="http://www.w3.org/1999/xlink" contentScriptType="application/ecmascript" contentStyleType="text/css" height="700px" preserveAspectRatio="none" style="width:1666px;height:700px;background:#FFFFFF;" version="1.1" viewBox="0 0 1666 700" width="1666px" zoomAndPan="magnify"><defs><filter height="300%" id="fzr9e9nsdhb5d" width="300%" x="-1" y="-1"><feGaussianBlur result="blurOut" stdDeviation="2.0"/><feColorMatrix in="blurOut" result="blurOut2" type="matrix" values="0 0 0 0 0 0 0 0 0 0 0 0 0 0 0 0 0 0 .4 0"/><feOffset dx="4.0" dy="4.0" in="blurOut2" result="blurOut3"/><feBlend in="SourceGraphic" in2="blurOut3" mode="normal"/></filter></defs><g><text fill="#000000" font-family="sans-serif" font-size="18" lengthAdjust="spacing" textLength="313" x="670" y="16.708">github.weichware10.analyse.logic</text><!--MD5=[0e3d4e7b3bf62755be2b79a180bc6a05]
cluster github.weichware10.analyse.logic--><polygon fill="#FFFFFF" filter="url(#fzr9e9nsdhb5d)" points="16,26.9531,296,26.9531,303,49.25,1489,49.25,1489,693.9531,16,693.9531,16,26.9531" style="stroke:#000000;stroke-width:1.5;"/><line style="stroke:#000000;stroke-width:1.5;" x1="16" x2="303" y1="49.25" y2="49.25"/><text fill="#000000" font-family="sans-serif" font-size="14" font-weight="bold" lengthAdjust="spacing" textLength="274" x="20" y="41.9482">github.weichware10.analyse.logic</text><!--MD5=[7db3c59d38ae5b37b484eb2df9368145]
cluster java.util--><polygon fill="#FFFFFF" filter="url(#fzr9e9nsdhb5d)" points="1513,65.4531,1586,65.4531,1593,87.75,1649,87.75,1649,164.4531,1513,164.4531,1513,65.4531" style="stroke:#000000;stroke-width:1.5;"/><line style="stroke:#000000;stroke-width:1.5;" x1="1513" x2="1593" y1="87.75" y2="87.75"/><text fill="#000000" font-family="sans-serif" font-size="14" font-weight="bold" lengthAdjust="spacing" textLength="67" x="1517" y="80.4482">java.util</text><!--MD5=[6c5707597ca7ce4834c4522e2eca721b]
class github.weichware10.analyse.logic.Analysis--><rect codeLine="5" fill="#FEFECE" filter="url(#fzr9e9nsdhb5d)" height="82.4141" id="github.weichware10.analyse.logic.Analysis" style="stroke:#A80036;stroke-width:1.5;" width="734" x="32" y="574.4531"/><ellipse cx="370.25" cy="590.4531" fill="#ADD1B2" rx="11" ry="11" style="stroke:#A80036;stroke-width:1.0;"/><path d="M372.5938,586.125 C371.6563,585.6875 371.0625,585.5469 370.1875,585.5469 C367.5625,585.5469 365.5625,587.625 365.5625,590.3438 L365.5625,591.4688 C365.5625,594.0469 367.6719,595.9375 370.5625,595.9375 C371.7813,595.9375 372.9375,595.6406 373.6875,595.0938 C374.2656,594.6875 374.5938,594.2344 374.5938,593.8438 C374.5938,593.3906 374.2031,593 373.7344,593 C373.5156,593 373.3125,593.0781 373.125,593.2656 C372.6719,593.75 372.6719,593.75 372.4844,593.8438 C372.0625,594.1094 371.375,594.2344 370.6094,594.2344 C368.5625,594.2344 367.2656,593.1406 367.2656,591.4375 L367.2656,590.3438 C367.2656,588.5625 368.5156,587.25 370.25,587.25 C370.8281,587.25 371.4375,587.4063 371.9063,587.6563 C372.3906,587.9375 372.5625,588.1563 372.6563,588.5625 C372.7188,588.9688 372.75,589.0938 372.8906,589.2188 C373.0313,589.3594 373.2656,589.4688 373.4844,589.4688 C373.75,589.4688 374.0156,589.3281 374.1875,589.1094 C374.2969,588.9531 374.3281,588.7656 374.3281,588.3438 L374.3281,586.9219 C374.3281,586.4844 374.3125,586.3594 374.2188,586.2031 C374.0625,585.9375 373.7813,585.7969 373.4844,585.7969 C373.1875,585.7969 372.9844,585.8906 372.7656,586.2031 L372.5938,586.125 Z " fill="#000000"/><text fill="#000000" font-family="sans-serif" font-size="12" lengthAdjust="spacing" textLength="49" x="390.75" y="594.6074">Analysis</text><line style="stroke:#A80036;stroke-width:1.5;" x1="33" x2="765" y1="606.4531" y2="606.4531"/><polygon fill="#FFFF44" points="43,629.2578,47,633.2578,43,637.2578,39,633.2578" style="stroke:#B38D22;stroke-width:1.0;"/><text fill="#000000" font-family="sans-serif" font-size="11" lengthAdjust="spacing" text-decoration="underline" textLength="197" x="52" y="637.4683">String saveImage(String imageUrl)</text><polygon fill="#FFFF44" points="43,642.0625,47,646.0625,43,650.0625,39,646.0625" style="stroke:#B38D22;stroke-width:1.0;"/><text fill="#000000" font-family="sans-serif" font-size="11" lengthAdjust="spacing" text-decoration="underline" textLength="708" x="52" y="650.2729">double calculateDepth(DataPoint dataPoint, double imageWidth, double imageHeight, Double minDepth, Double maxDepth)</text><line style="stroke:#A80036;stroke-width:1.5;" x1="33" x2="344.5" y1="620.8555" y2="620.8555"/><text fill="#000000" font-family="sans-serif" font-size="11" lengthAdjust="spacing" textLength="109" x="344.5" y="624.1636">protected methods</text><line style="stroke:#A80036;stroke-width:1.5;" x1="453.5" x2="765" y1="620.8555" y2="620.8555"/><!--MD5=[a28b7eade4103790c25cf224b66fad6d]
class github.weichware10.analyse.logic.DataPointComparator--><rect codeLine="11" fill="#FEFECE" filter="url(#fzr9e9nsdhb5d)" height="69.6094" id="github.weichware10.analyse.logic.DataPointComparator" style="stroke:#A80036;stroke-width:1.5;" width="267" x="1012.5" y="89.4531"/><ellipse cx="1078.75" cy="105.4531" fill="#ADD1B2" rx="11" ry="11" style="stroke:#A80036;stroke-width:1.0;"/><path d="M1081.0938,101.125 C1080.1563,100.6875 1079.5625,100.5469 1078.6875,100.5469 C1076.0625,100.5469 1074.0625,102.625 1074.0625,105.3438 L1074.0625,106.4688 C1074.0625,109.0469 1076.1719,110.9375 1079.0625,110.9375 C1080.2813,110.9375 1081.4375,110.6406 1082.1875,110.0938 C1082.7656,109.6875 1083.0938,109.2344 1083.0938,108.8438 C1083.0938,108.3906 1082.7031,108 1082.2344,108 C1082.0156,108 1081.8125,108.0781 1081.625,108.2656 C1081.1719,108.75 1081.1719,108.75 1080.9844,108.8438 C1080.5625,109.1094 1079.875,109.2344 1079.1094,109.2344 C1077.0625,109.2344 1075.7656,108.1406 1075.7656,106.4375 L1075.7656,105.3438 C1075.7656,103.5625 1077.0156,102.25 1078.75,102.25 C1079.3281,102.25 1079.9375,102.4063 1080.4063,102.6563 C1080.8906,102.9375 1081.0625,103.1563 1081.1563,103.5625 C1081.2188,103.9688 1081.25,104.0938 1081.3906,104.2188 C1081.5313,104.3594 1081.7656,104.4688 1081.9844,104.4688 C1082.25,104.4688 1082.5156,104.3281 1082.6875,104.1094 C1082.7969,103.9531 1082.8281,103.7656 1082.8281,103.3438 L1082.8281,101.9219 C1082.8281,101.4844 1082.8125,101.3594 1082.7188,101.2031 C1082.5625,100.9375 1082.2813,100.7969 1081.9844,100.7969 C1081.6875,100.7969 1081.4844,100.8906 1081.2656,101.2031 L1081.0938,101.125 Z " fill="#000000"/><text fill="#000000" font-family="sans-serif" font-size="12" lengthAdjust="spacing" textLength="126" x="1099.25" y="109.6074">DataPointComparator</text><line style="stroke:#A80036;stroke-width:1.5;" x1="1013.5" x2="1278.5" y1="121.4531" y2="121.4531"/><ellipse cx="1023.5" cy="149.2578" fill="#84BE84" rx="3" ry="3" style="stroke:#038048;stroke-width:1.0;"/><text fill="#000000" font-family="sans-serif" font-size="11" lengthAdjust="spacing" textLength="241" x="1032.5" y="152.4683">int compare(DataPoint dp1, DataPoint dp2)</text><line style="stroke:#A80036;stroke-width:1.5;" x1="1013.5" x2="1105.5" y1="135.8555" y2="135.8555"/><text fill="#000000" font-family="sans-serif" font-size="11" lengthAdjust="spacing" textLength="81" x="1105.5" y="139.1636">public method</text><line style="stroke:#A80036;stroke-width:1.5;" x1="1186.5" x2="1278.5" y1="135.8555" y2="135.8555"/><!--MD5=[00149d98cfe9d6407893e7611771df85]
class github.weichware10.analyse.logic.Diagram--><rect codeLine="16" fill="#FEFECE" filter="url(#fzr9e9nsdhb5d)" height="150.4375" id="github.weichware10.analyse.logic.Diagram" style="stroke:#A80036;stroke-width:1.5;" width="603" x="474.5" y="325.9531"/><ellipse cx="746.75" cy="341.9531" fill="#ADD1B2" rx="11" ry="11" style="stroke:#A80036;stroke-width:1.0;"/><path d="M749.0938,337.625 C748.1563,337.1875 747.5625,337.0469 746.6875,337.0469 C744.0625,337.0469 742.0625,339.125 742.0625,341.8438 L742.0625,342.9688 C742.0625,345.5469 744.1719,347.4375 747.0625,347.4375 C748.2813,347.4375 749.4375,347.1406 750.1875,346.5938 C750.7656,346.1875 751.0938,345.7344 751.0938,345.3438 C751.0938,344.8906 750.7031,344.5 750.2344,344.5 C750.0156,344.5 749.8125,344.5781 749.625,344.7656 C749.1719,345.25 749.1719,345.25 748.9844,345.3438 C748.5625,345.6094 747.875,345.7344 747.1094,345.7344 C745.0625,345.7344 743.7656,344.6406 743.7656,342.9375 L743.7656,341.8438 C743.7656,340.0625 745.0156,338.75 746.75,338.75 C747.3281,338.75 747.9375,338.9063 748.4063,339.1563 C748.8906,339.4375 749.0625,339.6563 749.1563,340.0625 C749.2188,340.4688 749.25,340.5938 749.3906,340.7188 C749.5313,340.8594 749.7656,340.9688 749.9844,340.9688 C750.25,340.9688 750.5156,340.8281 750.6875,340.6094 C750.7969,340.4531 750.8281,340.2656 750.8281,339.8438 L750.8281,338.4219 C750.8281,337.9844 750.8125,337.8594 750.7188,337.7031 C750.5625,337.4375 750.2813,337.2969 749.9844,337.2969 C749.6875,337.2969 749.4844,337.3906 749.2656,337.7031 L749.0938,337.625 Z " fill="#000000"/><text fill="#000000" font-family="sans-serif" font-size="12" lengthAdjust="spacing" textLength="50" x="767.25" y="346.1074">Diagram</text><line style="stroke:#A80036;stroke-width:1.5;" x1="475.5" x2="1076.5" y1="357.9531" y2="357.9531"/><rect fill="none" height="6" style="stroke:#C82930;stroke-width:1.0;" width="6" x="482.5" y="365.9531"/><text fill="#000000" font-family="sans-serif" font-size="11" lengthAdjust="spacing" text-decoration="underline" textLength="188" x="494.5" y="372.1636">DataPointComparator comparator</text><ellipse cx="485.5" cy="398.5625" fill="#84BE84" rx="3" ry="3" style="stroke:#038048;stroke-width:1.0;"/><text fill="#000000" font-family="sans-serif" font-size="11" lengthAdjust="spacing" text-decoration="underline" textLength="522" x="494.5" y="401.7729">BarChart&lt;String, Number&gt; createDiagramBarChart(TrialData trial, DiagramConfig diaConfig)</text><ellipse cx="485.5" cy="411.3672" fill="#84BE84" rx="3" ry="3" style="stroke:#038048;stroke-width:1.0;"/><text fill="#000000" font-family="sans-serif" font-size="11" lengthAdjust="spacing" text-decoration="underline" textLength="415" x="494.5" y="414.5776">PieChart createDiagramPieChart(TrialData trial, DiagramConfig diaConfig)</text><line style="stroke:#A80036;stroke-width:1.5;" x1="475.5" x2="732.5" y1="385.1602" y2="385.1602"/><text fill="#000000" font-family="sans-serif" font-size="11" lengthAdjust="spacing" textLength="87" x="732.5" y="388.4683">public methods</text><line style="stroke:#A80036;stroke-width:1.5;" x1="819.5" x2="1076.5" y1="385.1602" y2="385.1602"/><rect fill="#F24D5C" height="6" style="stroke:#C82930;stroke-width:1.0;" width="6" x="482.5" y="437.9766"/><text fill="#000000" font-family="sans-serif" font-size="11" lengthAdjust="spacing" text-decoration="underline" textLength="567" x="494.5" y="444.187">void fillPixelsWithRelDepth(int width, int height, double[][] pixels, List&lt;DataPoint&gt; sortedDataPoints)</text><rect fill="#F24D5C" height="6" style="stroke:#C82930;stroke-width:1.0;" width="6" x="482.5" y="450.7813"/><text fill="#000000" font-family="sans-serif" font-size="11" lengthAdjust="spacing" text-decoration="underline" textLength="577" x="494.5" y="456.9917">void allocatePixels(double[][] pixels, int amountSteps, double stepWidth, List&lt;Double&gt; diagramData)</text><rect fill="#F24D5C" height="6" style="stroke:#C82930;stroke-width:1.0;" width="6" x="482.5" y="463.5859"/><text fill="#000000" font-family="sans-serif" font-size="11" lengthAdjust="spacing" text-decoration="underline" textLength="417" x="494.5" y="469.7964">void calcRelFreqPerStep(int width, int height, List&lt;Double&gt; diagramData)</text><line style="stroke:#A80036;stroke-width:1.5;" x1="475.5" x2="729" y1="427.5742" y2="427.5742"/><text fill="#000000" font-family="sans-serif" font-size="11" lengthAdjust="spacing" textLength="94" x="729" y="430.8823">private methods</text><line style="stroke:#A80036;stroke-width:1.5;" x1="823" x2="1076.5" y1="427.5742" y2="427.5742"/><!--MD5=[d60e30574ccef20f41c157986a592fed]
class github.weichware10.analyse.logic.Heatmap--><rect codeLine="27" fill="#FEFECE" filter="url(#fzr9e9nsdhb5d)" height="124.8281" id="github.weichware10.analyse.logic.Heatmap" style="stroke:#A80036;stroke-width:1.5;" width="908" x="57" y="61.9531"/><ellipse cx="479.75" cy="77.9531" fill="#ADD1B2" rx="11" ry="11" style="stroke:#A80036;stroke-width:1.0;"/><path d="M482.0938,73.625 C481.1563,73.1875 480.5625,73.0469 479.6875,73.0469 C477.0625,73.0469 475.0625,75.125 475.0625,77.8438 L475.0625,78.9688 C475.0625,81.5469 477.1719,83.4375 480.0625,83.4375 C481.2813,83.4375 482.4375,83.1406 483.1875,82.5938 C483.7656,82.1875 484.0938,81.7344 484.0938,81.3438 C484.0938,80.8906 483.7031,80.5 483.2344,80.5 C483.0156,80.5 482.8125,80.5781 482.625,80.7656 C482.1719,81.25 482.1719,81.25 481.9844,81.3438 C481.5625,81.6094 480.875,81.7344 480.1094,81.7344 C478.0625,81.7344 476.7656,80.6406 476.7656,78.9375 L476.7656,77.8438 C476.7656,76.0625 478.0156,74.75 479.75,74.75 C480.3281,74.75 480.9375,74.9063 481.4063,75.1563 C481.8906,75.4375 482.0625,75.6563 482.1563,76.0625 C482.2188,76.4688 482.25,76.5938 482.3906,76.7188 C482.5313,76.8594 482.7656,76.9688 482.9844,76.9688 C483.25,76.9688 483.5156,76.8281 483.6875,76.6094 C483.7969,76.4531 483.8281,76.2656 483.8281,75.8438 L483.8281,74.4219 C483.8281,73.9844 483.8125,73.8594 483.7188,73.7031 C483.5625,73.4375 483.2813,73.2969 482.9844,73.2969 C482.6875,73.2969 482.4844,73.3906 482.2656,73.7031 L482.0938,73.625 Z " fill="#000000"/><text fill="#000000" font-family="sans-serif" font-size="12" lengthAdjust="spacing" textLength="54" x="500.25" y="82.1074">Heatmap</text><line style="stroke:#A80036;stroke-width:1.5;" x1="58" x2="964" y1="93.9531" y2="93.9531"/><rect fill="none" height="6" style="stroke:#C82930;stroke-width:1.0;" width="6" x="65" y="101.9531"/><text fill="#000000" font-family="sans-serif" font-size="11" lengthAdjust="spacing" text-decoration="underline" textLength="188" x="77" y="108.1636">DataPointComparator comparator</text><rect fill="none" height="6" style="stroke:#C82930;stroke-width:1.0;" width="6" x="65" y="114.7578"/><text fill="#000000" font-family="sans-serif" font-size="11" lengthAdjust="spacing" text-decoration="underline" textLength="65" x="77" y="120.9683">float ALPHA</text><ellipse cx="68" cy="147.3672" fill="#84BE84" rx="3" ry="3" style="stroke:#038048;stroke-width:1.0;"/><text fill="#000000" font-family="sans-serif" font-size="11" lengthAdjust="spacing" text-decoration="underline" textLength="363" x="77" y="150.5776">String createHeatmap(TrialData trial, HeatmapConfig hmConfig)</text><line style="stroke:#A80036;stroke-width:1.5;" x1="58" x2="467.5" y1="133.9648" y2="133.9648"/><text fill="#000000" font-family="sans-serif" font-size="11" lengthAdjust="spacing" textLength="87" x="467.5" y="137.2729">public methods</text><line style="stroke:#A80036;stroke-width:1.5;" x1="554.5" x2="964" y1="133.9648" y2="133.9648"/><rect fill="#F24D5C" height="6" style="stroke:#C82930;stroke-width:1.0;" width="6" x="65" y="173.9766"/><text fill="#000000" font-family="sans-serif" font-size="11" lengthAdjust="spacing" text-decoration="underline" textLength="882" x="77" y="180.187">void createHeatmapFromData(Graphics2D graphic, HeatmapConfig hmConfig, List&lt;DataPoint&gt; sortedDataPoints, double imageWidth, double imageHeight)</text><line style="stroke:#A80036;stroke-width:1.5;" x1="58" x2="467" y1="163.5742" y2="163.5742"/><text fill="#000000" font-family="sans-serif" font-size="11" lengthAdjust="spacing" textLength="88" x="467" y="166.8823">private method</text><line style="stroke:#A80036;stroke-width:1.5;" x1="555" x2="964" y1="163.5742" y2="163.5742"/><!--MD5=[6b3ac0c8958aeeb2324cee9c954aa379]
class github.weichware10.analyse.logic.Verlauf--><rect codeLine="36" fill="#FEFECE" filter="url(#fzr9e9nsdhb5d)" height="124.8281" id="github.weichware10.analyse.logic.Verlauf" style="stroke:#A80036;stroke-width:1.5;" width="627" x="845.5" y="552.9531"/><ellipse cx="1133.75" cy="568.9531" fill="#ADD1B2" rx="11" ry="11" style="stroke:#A80036;stroke-width:1.0;"/><path d="M1136.0938,564.625 C1135.1563,564.1875 1134.5625,564.0469 1133.6875,564.0469 C1131.0625,564.0469 1129.0625,566.125 1129.0625,568.8438 L1129.0625,569.9688 C1129.0625,572.5469 1131.1719,574.4375 1134.0625,574.4375 C1135.2813,574.4375 1136.4375,574.1406 1137.1875,573.5938 C1137.7656,573.1875 1138.0938,572.7344 1138.0938,572.3438 C1138.0938,571.8906 1137.7031,571.5 1137.2344,571.5 C1137.0156,571.5 1136.8125,571.5781 1136.625,571.7656 C1136.1719,572.25 1136.1719,572.25 1135.9844,572.3438 C1135.5625,572.6094 1134.875,572.7344 1134.1094,572.7344 C1132.0625,572.7344 1130.7656,571.6406 1130.7656,569.9375 L1130.7656,568.8438 C1130.7656,567.0625 1132.0156,565.75 1133.75,565.75 C1134.3281,565.75 1134.9375,565.9063 1135.4063,566.1563 C1135.8906,566.4375 1136.0625,566.6563 1136.1563,567.0625 C1136.2188,567.4688 1136.25,567.5938 1136.3906,567.7188 C1136.5313,567.8594 1136.7656,567.9688 1136.9844,567.9688 C1137.25,567.9688 1137.5156,567.8281 1137.6875,567.6094 C1137.7969,567.4531 1137.8281,567.2656 1137.8281,566.8438 L1137.8281,565.4219 C1137.8281,564.9844 1137.8125,564.8594 1137.7188,564.7031 C1137.5625,564.4375 1137.2813,564.2969 1136.9844,564.2969 C1136.6875,564.2969 1136.4844,564.3906 1136.2656,564.7031 L1136.0938,564.625 Z " fill="#000000"/><text fill="#000000" font-family="sans-serif" font-size="12" lengthAdjust="spacing" textLength="42" x="1154.25" y="573.1074">Verlauf</text><line style="stroke:#A80036;stroke-width:1.5;" x1="846.5" x2="1471.5" y1="584.9531" y2="584.9531"/><rect fill="none" height="6" style="stroke:#C82930;stroke-width:1.0;" width="6" x="853.5" y="592.9531"/><text fill="#000000" font-family="sans-serif" font-size="11" lengthAdjust="spacing" text-decoration="underline" textLength="188" x="865.5" y="599.1636">DataPointComparator comparator</text><ellipse cx="856.5" cy="625.5625" fill="#84BE84" rx="3" ry="3" style="stroke:#038048;stroke-width:1.0;"/><text fill="#000000" font-family="sans-serif" font-size="11" lengthAdjust="spacing" text-decoration="underline" textLength="378" x="865.5" y="628.7729">LineChart&lt;Number, Number&gt; createVerlauf(List&lt;TrialData&gt; trials)</text><line style="stroke:#A80036;stroke-width:1.5;" x1="846.5" x2="1118.5" y1="612.1602" y2="612.1602"/><text fill="#000000" font-family="sans-serif" font-size="11" lengthAdjust="spacing" textLength="81" x="1118.5" y="615.4683">public method</text><line style="stroke:#A80036;stroke-width:1.5;" x1="1199.5" x2="1471.5" y1="612.1602" y2="612.1602"/><rect fill="#F24D5C" height="6" style="stroke:#C82930;stroke-width:1.0;" width="6" x="853.5" y="652.1719"/><text fill="#000000" font-family="sans-serif" font-size="11" lengthAdjust="spacing" text-decoration="underline" textLength="595" x="865.5" y="658.3823">void fillSeries(List&lt;DataPoint&gt; dataPoints, double maxDepth, XYChart.Series&lt;Number, Number&gt; series)</text><rect fill="#F24D5C" height="6" style="stroke:#C82930;stroke-width:1.0;" width="6" x="853.5" y="664.9766"/><text fill="#000000" font-family="sans-serif" font-size="11" lengthAdjust="spacing" text-decoration="underline" textLength="601" x="865.5" y="671.187">void fillSeries(List&lt;DataPoint&gt; dataPoints, int width, int height, XYChart.Series&lt;Number, Number&gt; series)</text><line style="stroke:#A80036;stroke-width:1.5;" x1="846.5" x2="1112" y1="641.7695" y2="641.7695"/><text fill="#000000" font-family="sans-serif" font-size="11" lengthAdjust="spacing" textLength="94" x="1112" y="645.0776">private methods</text><line style="stroke:#A80036;stroke-width:1.5;" x1="1206" x2="1471.5" y1="641.7695" y2="641.7695"/><!--MD5=[ab8fa349a1e2e86ca8104897b03d4899]
class java.util.Comparator--><rect codeLine="54" fill="#FEFECE" filter="url(#fzr9e9nsdhb5d)" height="48" id="java.util.Comparator" style="stroke:#A80036;stroke-width:1.5;" width="103" x="1529.5" y="100.4531"/><ellipse cx="1544.5" cy="116.4531" fill="#B4A7E5" rx="11" ry="11" style="stroke:#A80036;stroke-width:1.0;"/><path d="M1545.4531,113.2344 L1547.1719,113.2344 C1547.5625,113.2344 1547.75,113.2031 1547.875,113.125 C1548.1406,112.9688 1548.2813,112.6875 1548.2813,112.3906 C1548.2813,112.125 1548.1719,111.8594 1547.9375,111.6875 C1547.7656,111.5781 1547.625,111.5469 1547.1719,111.5469 L1542.0313,111.5469 C1541.5938,111.5469 1541.4688,111.5625 1541.3125,111.6563 C1541.0625,111.8125 1540.9063,112.1094 1540.9063,112.3906 C1540.9063,112.6719 1541.0469,112.9219 1541.2656,113.0938 C1541.4219,113.2031 1541.6094,113.2344 1542.0313,113.2344 L1543.75,113.2344 L1543.75,119.75 L1542.0313,119.75 C1541.5938,119.75 1541.4688,119.7656 1541.3125,119.875 C1541.0625,120.0313 1540.9063,120.3125 1540.9063,120.6094 C1540.9063,120.8594 1541.0469,121.125 1541.2656,121.2813 C1541.4219,121.4063 1541.625,121.4531 1542.0313,121.4531 L1547.1719,121.4531 C1547.9219,121.4531 1548.2813,121.1719 1548.2813,120.6094 C1548.2813,120.3281 1548.1719,120.0781 1547.9375,119.9063 C1547.7656,119.7813 1547.625,119.75 1547.1719,119.75 L1545.4531,119.75 L1545.4531,113.2344 Z " fill="#000000"/><text fill="#000000" font-family="sans-serif" font-size="12" font-style="italic" lengthAdjust="spacing" textLength="71" x="1558.5" y="120.6074">Comparator</text><line style="stroke:#A80036;stroke-width:1.5;" x1="1530.5" x2="1631.5" y1="132.4531" y2="132.4531"/><line style="stroke:#A80036;stroke-width:1.5;" x1="1530.5" x2="1631.5" y1="140.4531" y2="140.4531"/><!--MD5=[99bd4d0a214b912884b9bcf9c1f2bf06]
link github.weichware10.analyse.logic.DataPointComparator to github.weichware10.analyse.logic.Diagram--><path codeLine="47" d="M1099.89,159.6641 C1046.91,198.9661 958.131,264.8321 886.904,317.6741 " fill="none" id="github.weichware10.analyse.logic.DataPointComparator-to-github.weichware10.analyse.logic.Diagram" style="stroke:#A80036;stroke-width:1.0;"/><polygon fill="#FFFFFF" points="876.081,325.7041,883.283,325.3415,885.7182,318.554,878.5162,318.9167,876.081,325.7041" style="stroke:#A80036;stroke-width:1.0;"/><!--MD5=[1e132a4e0cc00a0b32e97ba8ec42e042]
reverse link github.weichware10.analyse.logic.Heatmap to github.weichware10.analyse.logic.DataPointComparator--><path codeLine="48" d="M978.442,124.4531 C989.692,124.4531 1000.94,124.4531 1012.19,124.4531 " fill="none" id="github.weichware10.analyse.logic.Heatmap-backto-github.weichware10.analyse.logic.DataPointComparator" style="stroke:#A80036;stroke-width:1.0;"/><polygon fill="#FFFFFF" points="965.236,124.4531,971.236,128.4531,977.236,124.4531,971.236,120.4531,965.236,124.4531" style="stroke:#A80036;stroke-width:1.0;"/><!--MD5=[5b86f1c70080147c863e3647d264ff38]
reverse link github.weichware10.analyse.logic.Verlauf to github.weichware10.analyse.logic.DataPointComparator--><path codeLine="49" d="M1157,539.2521 C1154.14,431.6811 1149,238.2271 1146.91,159.8391 " fill="none" id="github.weichware10.analyse.logic.Verlauf-backto-github.weichware10.analyse.logic.DataPointComparator" style="stroke:#A80036;stroke-width:1.0;"/><polygon fill="#FFFFFF" points="1157.35,552.5671,1161.1891,546.4629,1157.031,540.5714,1153.1919,546.6756,1157.35,552.5671" style="stroke:#A80036;stroke-width:1.0;"/><!--MD5=[3366f65398571b44f4993b65347ec044]
link github.weichware10.analyse.logic.Diagram to github.weichware10.analyse.logic.Analysis--><path codeLine="50" d="M644.673,475.9771 C586.022,509.0361 519.214,546.6931 470.087,574.3841 " fill="none" id="github.weichware10.analyse.logic.Diagram-github.weichware10.analyse.logic.Analysis" style="stroke:#A80036;stroke-width:1.0;"/><polygon fill="#000000" points="587.6443,516.9747,596.9669,515.0935,594.0808,509.9731,587.6443,516.9747" style="stroke:#000000;stroke-width:1.0;"/><text fill="#000000" font-family="sans-serif" font-size="13" lengthAdjust="spacing" textLength="30" x="601" y="519.02">uses</text><!--MD5=[3525ab204e8d9b0b18acdaa067617095]
link github.weichware10.analyse.logic.Analysis to github.weichware10.analyse.logic.Heatmap--><path codeLine="51" d="M406.253,574.1371 C416.51,518.2001 436.319,413.9841 457,325.9531 C468.006,279.1031 482.218,226.5901 493.3,187.0621 " fill="none" id="github.weichware10.analyse.logic.Analysis-github.weichware10.analyse.logic.Heatmap" style="stroke:#A80036;stroke-width:1.0;"/><polygon fill="#000000" points="471.903,292.3977,476.7548,284.2178,471.0202,282.9282,471.903,292.3977" style="stroke:#000000;stroke-width:1.0;"/><text fill="#000000" font-family="sans-serif" font-size="13" lengthAdjust="spacing" textLength="30" x="482" y="292.02">uses</text><!--MD5=[1715bd19a95aa05e64520940a665f284]
link github.weichware10.analyse.logic.Analysis to github.weichware10.analyse.logic.Verlauf--><path codeLine="52" d="M766.199,615.4531 C792.651,615.4531 819.186,615.4531 845.29,615.4531 " fill="none" id="github.weichware10.analyse.logic.Analysis-github.weichware10.analyse.logic.Verlauf" style="stroke:#A80036;stroke-width:1.0;"/><polygon fill="#000000" points="783.25,604.0195,792.2951,606.9585,792.2951,601.0806,783.25,604.0195" style="stroke:#000000;stroke-width:1.0;"/><text fill="#000000" font-family="sans-serif" font-size="13" lengthAdjust="spacing" textLength="30" x="797.25" y="608.52">uses</text><!--MD5=[e6b0955a92ca524108a467627c1113aa]
reverse link java.util.Comparator to github.weichware10.analyse.logic.DataPointComparator--><path codeLine="55" d="M1508.77,124.4531 C1432.45,124.4531 1356.13,124.4531 1279.81,124.4531 " fill="none" id="java.util.Comparator-backto-github.weichware10.analyse.logic.DataPointComparator" style="stroke:#A80036;stroke-width:1.0;stroke-dasharray:7.0,7.0;"/><polygon fill="none" points="1509.23,117.4531,1529.23,124.4531,1509.23,131.4531,1509.23,117.4531" style="stroke:#A80036;stroke-width:1.0;"/><!--MD5=[c65566ed3a7a8a250f3284751ec2bdcb]
@startuml
title github.weichware10.analyse.logic

package github.weichware10.analyse.logic {

    class github.weichware10.analyse.logic.Analysis {
        __protected methods__
        {static}# String saveImage(String imageUrl)
        {static}# double calculateDepth(DataPoint dataPoint, double imageWidth, double imageHeight, Double minDepth, Double maxDepth)
    }

    class github.weichware10.analyse.logic.DataPointComparator {
        __public method__
        + int compare(DataPoint dp1, DataPoint dp2)
    }

    class github.weichware10.analyse.logic.Diagram {
        {static}- DataPointComparator comparator
        __public methods__
        {static}+ BarChart<String, Number> createDiagramBarChart(TrialData trial, DiagramConfig diaConfig)
        {static}+ PieChart createDiagramPieChart(TrialData trial, DiagramConfig diaConfig)
        __private methods__
        {static}- void fillPixelsWithRelDepth(int width, int height, double[][] pixels, List<DataPoint> sortedDataPoints)
        {static}- void allocatePixels(double[][] pixels, int amountSteps, double stepWidth, List<Double> diagramData)
        {static}- void calcRelFreqPerStep(int width, int height, List<Double> diagramData)
    }

    class github.weichware10.analyse.logic.Heatmap {
        {static}- DataPointComparator comparator
        {static}- float ALPHA
        __public methods__
        {static}+ String createHeatmap(TrialData trial, HeatmapConfig hmConfig)
        __private method__
        {static}- void createHeatmapFromData(Graphics2D graphic, HeatmapConfig hmConfig, List<DataPoint> sortedDataPoints, double imageWidth, double imageHeight)
    }

    class github.weichware10.analyse.logic.Verlauf {
        {static}- DataPointComparator comparator
        __public method__
        {static}+ LineChart<Number, Number> createVerlauf(List<TrialData> trials)
        __private methods__
        {static}- void fillSeries(List<DataPoint> dataPoints, double maxDepth, XYChart.Series<Number, Number> series)
        {static}- void fillSeries(List<DataPoint> dataPoints, int width, int height, XYChart.Series<Number, Number> series)
    }

}

github.weichware10.analyse.logic.Diagram o-u- - github.weichware10.analyse.logic.DataPointComparator
github.weichware10.analyse.logic.Heatmap o-r- - github.weichware10.analyse.logic.DataPointComparator
github.weichware10.analyse.logic.Verlauf o-d- - github.weichware10.analyse.logic.DataPointComparator
github.weichware10.analyse.logic.Diagram -d- github.weichware10.analyse.logic.Analysis : > uses
github.weichware10.analyse.logic.Heatmap -l- github.weichware10.analyse.logic.Analysis : > uses
github.weichware10.analyse.logic.Verlauf -l- github.weichware10.analyse.logic.Analysis : > uses

interface java.util.Comparator
java.util.Comparator <|.r. github.weichware10.analyse.logic.DataPointComparator
@enduml

PlantUML version 1.2022.1beta6(Unknown compile time)
(GPL source distribution)
Java Runtime: Java(TM) SE Runtime Environment
JVM: Java HotSpot(TM) 64-Bit Server VM
Default Encoding: UTF-8
Language: en
Country: US
--></g></svg>