<?xml version="1.0" encoding="UTF-8" standalone="no"?><svg xmlns="http://www.w3.org/2000/svg" xmlns:xlink="http://www.w3.org/1999/xlink" contentScriptType="application/ecmascript" contentStyleType="text/css" height="497px" preserveAspectRatio="none" style="width:828px;height:497px;background:#FFFFFF;" version="1.1" viewBox="0 0 828 497" width="828px" zoomAndPan="magnify"><defs><filter height="300%" id="fn6catrvrjeib" width="300%" x="-1" y="-1"><feGaussianBlur result="blurOut" stdDeviation="2.0"/><feColorMatrix in="blurOut" result="blurOut2" type="matrix" values="0 0 0 0 0 0 0 0 0 0 0 0 0 0 0 0 0 0 .4 0"/><feOffset dx="4.0" dy="4.0" in="blurOut2" result="blurOut3"/><feBlend in="SourceGraphic" in2="blurOut3" mode="normal"/></filter></defs><g><!--MD5=[6a1fdf58a6ccf033c5989c890f6048c5]
entity n--><ellipse cx="70" cy="14" fill="#FEFECE" filter="url(#fn6catrvrjeib)" rx="8" ry="8" style="stroke:#A80036;stroke-width:1.5;"/><path d="M70,22 L70,49 M57,30 L83,30 M70,49 L57,64 M70,49 L83,64 " fill="none" filter="url(#fn6catrvrjeib)" style="stroke:#A80036;stroke-width:1.5;"/><text fill="#000000" font-family="sans-serif" font-size="14" lengthAdjust="spacing" textLength="48" x="46" y="82.4951">Nutzer</text><!--MD5=[9a03ff78f0bb5f9f1535e6c6919004be]
class k--><rect codeLine="5" fill="#FEFECE" filter="url(#fn6catrvrjeib)" height="86.4141" id="k" style="stroke:#A80036;stroke-width:1.5;" width="126" x="7" y="397.5"/><ellipse cx="22" cy="413.5" fill="#ADD1B2" rx="11" ry="11" style="stroke:#A80036;stroke-width:1.0;"/><path d="M24.3438,409.1719 C23.4063,408.7344 22.8125,408.5938 21.9375,408.5938 C19.3125,408.5938 17.3125,410.6719 17.3125,413.3906 L17.3125,414.5156 C17.3125,417.0938 19.4219,418.9844 22.3125,418.9844 C23.5313,418.9844 24.6875,418.6875 25.4375,418.1406 C26.0156,417.7344 26.3438,417.2813 26.3438,416.8906 C26.3438,416.4375 25.9531,416.0469 25.4844,416.0469 C25.2656,416.0469 25.0625,416.125 24.875,416.3125 C24.4219,416.7969 24.4219,416.7969 24.2344,416.8906 C23.8125,417.1563 23.125,417.2813 22.3594,417.2813 C20.3125,417.2813 19.0156,416.1875 19.0156,414.4844 L19.0156,413.3906 C19.0156,411.6094 20.2656,410.2969 22,410.2969 C22.5781,410.2969 23.1875,410.4531 23.6563,410.7031 C24.1406,410.9844 24.3125,411.2031 24.4063,411.6094 C24.4688,412.0156 24.5,412.1406 24.6406,412.2656 C24.7813,412.4063 25.0156,412.5156 25.2344,412.5156 C25.5,412.5156 25.7656,412.375 25.9375,412.1563 C26.0469,412 26.0781,411.8125 26.0781,411.3906 L26.0781,409.9688 C26.0781,409.5313 26.0625,409.4063 25.9688,409.25 C25.8125,408.9844 25.5313,408.8438 25.2344,408.8438 C24.9375,408.8438 24.7344,408.9375 24.5156,409.25 L24.3438,409.1719 Z " fill="#000000"/><text fill="#000000" font-family="sans-serif" font-size="12" lengthAdjust="spacing" textLength="94" x="36" y="417.6543">Konfigurationen</text><line style="stroke:#A80036;stroke-width:1.5;" x1="8" x2="132" y1="429.5" y2="429.5"/><text fill="#000000" font-family="sans-serif" font-size="11" lengthAdjust="spacing" textLength="46" x="13" y="443.7104">configID</text><text fill="#000000" font-family="sans-serif" font-size="11" lengthAdjust="spacing" textLength="50" x="13" y="456.5151">toolType</text><text fill="#000000" font-family="sans-serif" font-size="11" lengthAdjust="spacing" textLength="82" x="13" y="469.3198">... configDaten</text><line style="stroke:#A80036;stroke-width:1.5;" x1="8" x2="132" y1="475.9141" y2="475.9141"/><!--MD5=[0f2ca8c403c82214a93ba7e447c0ae0d]
class v--><rect codeLine="10" fill="#FEFECE" filter="url(#fn6catrvrjeib)" height="86.4141" id="v" style="stroke:#A80036;stroke-width:1.5;" width="89" x="25.5" y="206"/><ellipse cx="40.5" cy="222" fill="#ADD1B2" rx="11" ry="11" style="stroke:#A80036;stroke-width:1.0;"/><path d="M42.8438,217.6719 C41.9063,217.2344 41.3125,217.0938 40.4375,217.0938 C37.8125,217.0938 35.8125,219.1719 35.8125,221.8906 L35.8125,223.0156 C35.8125,225.5938 37.9219,227.4844 40.8125,227.4844 C42.0313,227.4844 43.1875,227.1875 43.9375,226.6406 C44.5156,226.2344 44.8438,225.7813 44.8438,225.3906 C44.8438,224.9375 44.4531,224.5469 43.9844,224.5469 C43.7656,224.5469 43.5625,224.625 43.375,224.8125 C42.9219,225.2969 42.9219,225.2969 42.7344,225.3906 C42.3125,225.6563 41.625,225.7813 40.8594,225.7813 C38.8125,225.7813 37.5156,224.6875 37.5156,222.9844 L37.5156,221.8906 C37.5156,220.1094 38.7656,218.7969 40.5,218.7969 C41.0781,218.7969 41.6875,218.9531 42.1563,219.2031 C42.6406,219.4844 42.8125,219.7031 42.9063,220.1094 C42.9688,220.5156 43,220.6406 43.1406,220.7656 C43.2813,220.9063 43.5156,221.0156 43.7344,221.0156 C44,221.0156 44.2656,220.875 44.4375,220.6563 C44.5469,220.5 44.5781,220.3125 44.5781,219.8906 L44.5781,218.4688 C44.5781,218.0313 44.5625,217.9063 44.4688,217.75 C44.3125,217.4844 44.0313,217.3438 43.7344,217.3438 C43.4375,217.3438 43.2344,217.4375 43.0156,217.75 L42.8438,217.6719 Z " fill="#000000"/><text fill="#000000" font-family="sans-serif" font-size="12" lengthAdjust="spacing" textLength="57" x="54.5" y="226.1543">Versuche</text><line style="stroke:#A80036;stroke-width:1.5;" x1="26.5" x2="113.5" y1="238" y2="238"/><text fill="#000000" font-family="sans-serif" font-size="11" lengthAdjust="spacing" textLength="33" x="31.5" y="252.2104">trialID</text><text fill="#000000" font-family="sans-serif" font-size="11" lengthAdjust="spacing" textLength="46" x="31.5" y="265.0151">configID</text><text fill="#000000" font-family="sans-serif" font-size="11" lengthAdjust="spacing" textLength="54" x="31.5" y="277.8198">startTime</text><line style="stroke:#A80036;stroke-width:1.5;" x1="26.5" x2="113.5" y1="284.4141" y2="284.4141"/><!--MD5=[8b21583645572a35575c72f7bec0a7ec]
class d--><rect codeLine="16" fill="#FEFECE" filter="url(#fn6catrvrjeib)" height="99.2188" id="d" style="stroke:#A80036;stroke-width:1.5;" width="98" x="519" y="199.5"/><ellipse cx="547.95" cy="215.5" fill="#ADD1B2" rx="11" ry="11" style="stroke:#A80036;stroke-width:1.0;"/><path d="M550.2938,211.1719 C549.3563,210.7344 548.7625,210.5938 547.8875,210.5938 C545.2625,210.5938 543.2625,212.6719 543.2625,215.3906 L543.2625,216.5156 C543.2625,219.0938 545.3719,220.9844 548.2625,220.9844 C549.4813,220.9844 550.6375,220.6875 551.3875,220.1406 C551.9656,219.7344 552.2938,219.2813 552.2938,218.8906 C552.2938,218.4375 551.9031,218.0469 551.4344,218.0469 C551.2156,218.0469 551.0125,218.125 550.825,218.3125 C550.3719,218.7969 550.3719,218.7969 550.1844,218.8906 C549.7625,219.1563 549.075,219.2813 548.3094,219.2813 C546.2625,219.2813 544.9656,218.1875 544.9656,216.4844 L544.9656,215.3906 C544.9656,213.6094 546.2156,212.2969 547.95,212.2969 C548.5281,212.2969 549.1375,212.4531 549.6063,212.7031 C550.0906,212.9844 550.2625,213.2031 550.3563,213.6094 C550.4188,214.0156 550.45,214.1406 550.5906,214.2656 C550.7313,214.4063 550.9656,214.5156 551.1844,214.5156 C551.45,214.5156 551.7156,214.375 551.8875,214.1563 C551.9969,214 552.0281,213.8125 552.0281,213.3906 L552.0281,211.9688 C552.0281,211.5313 552.0125,211.4063 551.9188,211.25 C551.7625,210.9844 551.4813,210.8438 551.1844,210.8438 C550.8875,210.8438 550.6844,210.9375 550.4656,211.25 L550.2938,211.1719 Z " fill="#000000"/><text fill="#000000" font-family="sans-serif" font-size="12" lengthAdjust="spacing" textLength="35" x="565.05" y="219.6543">Daten</text><line style="stroke:#A80036;stroke-width:1.5;" x1="520" x2="616" y1="231.5" y2="231.5"/><text fill="#000000" font-family="sans-serif" font-size="11" lengthAdjust="spacing" textLength="33" x="525" y="245.7104">trialID</text><text fill="#000000" font-family="sans-serif" font-size="11" lengthAdjust="spacing" textLength="86" x="525" y="258.5151">dataID : 0 bis n</text><text fill="#000000" font-family="sans-serif" font-size="11" lengthAdjust="spacing" textLength="26" x="525" y="271.3198">time</text><text fill="#000000" font-family="sans-serif" font-size="11" lengthAdjust="spacing" textLength="34" x="525" y="284.1245">...data</text><line style="stroke:#A80036;stroke-width:1.5;" x1="520" x2="616" y1="290.7188" y2="290.7188"/><path d="M656.5,213.5 L656.5,245 L617.141,249 L656.5,253 L656.5,284.0313 A0,0 0 0 0 656.5,284.0313 L819.5,284.0313 A0,0 0 0 0 819.5,284.0313 L819.5,223.5 L809.5,213.5 L656.5,213.5 A0,0 0 0 0 656.5,213.5 " fill="#FBFB77" filter="url(#fn6catrvrjeib)" style="stroke:#A80036;stroke-width:1.0;"/><path d="M809.5,213.5 L809.5,223.5 L819.5,223.5 L809.5,213.5 " fill="#FBFB77" style="stroke:#A80036;stroke-width:1.0;"/><text fill="#000000" font-family="sans-serif" font-size="13" lengthAdjust="spacing" textLength="59" x="662.5" y="230.5669">SELECT *</text><text fill="#000000" font-family="sans-serif" font-size="13" lengthAdjust="spacing" textLength="71" x="662.5" y="245.6997">FROM Data</text><text fill="#000000" font-family="sans-serif" font-size="13" lengthAdjust="spacing" textLength="128" x="662.5" y="260.8325">WHERE trialId = 420</text><text fill="#000000" font-family="sans-serif" font-size="13" lengthAdjust="spacing" textLength="142" x="662.5" y="275.9653">ORDER BY dataID ASC</text><!--MD5=[6e37c998710ea97628d4ac5c95a77f29]
link n to v--><path codeLine="23" d="M70,85.909 C70,120.517 70,170.455 70,205.737 " fill="none" id="n-v" style="stroke:#A80036;stroke-width:1.0;"/><path d="M75,120.5 L75,160.5 L411,160.5 L411,130.5 L401,120.5 L75,120.5 " fill="#FBFB77" filter="url(#fn6catrvrjeib)" style="stroke:#A80036;stroke-width:1.0;"/><path d="M401,120.5 L401,130.5 L411,130.5 L401,120.5 " fill="#FBFB77" style="stroke:#A80036;stroke-width:1.0;"/><text fill="#000000" font-family="sans-serif" font-size="13" lengthAdjust="spacing" textLength="212" x="81" y="137.5669">1 Nutzer kann mehrere Versuche</text><text fill="#000000" font-family="sans-serif" font-size="13" lengthAdjust="spacing" textLength="315" x="81" y="152.6997">(mit unterschiedlicher Konfiguration) durchführen</text><text fill="#000000" font-family="sans-serif" font-size="13" lengthAdjust="spacing" textLength="8" x="61.3375" y="105.98">1</text><text fill="#000000" font-family="sans-serif" font-size="13" lengthAdjust="spacing" textLength="8" x="61.3875" y="195.0093">n</text><!--MD5=[6836c0b8f505c1d1d4a407cb856603b4]
link v to d--><path codeLine="28" d="M114.632,249 C207.741,249 422.055,249 518.903,249 " fill="none" id="v-d" style="stroke:#A80036;stroke-width:1.0;"/><path d="M138.75,197 L138.75,237 L490.75,237 L490.75,207 L480.75,197 L138.75,197 " fill="#FBFB77" filter="url(#fn6catrvrjeib)" style="stroke:#A80036;stroke-width:1.0;"/><path d="M480.75,197 L480.75,207 L490.75,207 L480.75,197 " fill="#FBFB77" style="stroke:#A80036;stroke-width:1.0;"/><text fill="#000000" font-family="sans-serif" font-size="13" lengthAdjust="spacing" textLength="331" x="144.75" y="214.0669">Ein Datensatz besteht aus mehreren Datenpunkten</text><text fill="#000000" font-family="sans-serif" font-size="13" lengthAdjust="spacing" textLength="189" x="144.75" y="229.1997">und gehört zu einem Versuch</text><text fill="#000000" font-family="sans-serif" font-size="13" lengthAdjust="spacing" textLength="8" x="122.3827" y="244.8492">1</text><text fill="#000000" font-family="sans-serif" font-size="13" lengthAdjust="spacing" textLength="8" x="503.1044" y="244.959">n</text><!--MD5=[feda779434a7dca9007338b880b8d6c5]
link v to k--><path codeLine="33" d="M70,292.056 C70,323.351 70,365.89 70,397.2341 " fill="none" id="v-k" style="stroke:#A80036;stroke-width:1.0;"/><path d="M75,333.5 L75,358.5 L516,358.5 L516,343.5 L506,333.5 L75,333.5 " fill="#FBFB77" filter="url(#fn6catrvrjeib)" style="stroke:#A80036;stroke-width:1.0;"/><path d="M506,333.5 L506,343.5 L516,343.5 L506,333.5 " fill="#FBFB77" style="stroke:#A80036;stroke-width:1.0;"/><text fill="#000000" font-family="sans-serif" font-size="13" lengthAdjust="spacing" textLength="420" x="81" y="350.5669">Eine Konfiguration kann zu mehreren Versuchen gehören (muss!)</text><text fill="#000000" font-family="sans-serif" font-size="13" lengthAdjust="spacing" textLength="8" x="61.3375" y="312.4729">n</text><text fill="#000000" font-family="sans-serif" font-size="13" lengthAdjust="spacing" textLength="8" x="61.3875" y="386.5058">1</text><!--MD5=[e30108310da20389f93768a1ea70c752]
@startuml
allowmixing

actor "Nutzer" as n

class "Konfigurationen" as k {
    configID
    toolType
    ... configDaten
}
class "Versuche" as v {
    trialID
    configID
    startTime
}

class "Daten" as d {
    trialID
    dataID : 0 bis n
    time
    ...data
}

n "1" - - "n" v
note on link
    1 Nutzer kann mehrere Versuche
    (mit unterschiedlicher Konfiguration) durchführen
end note
v "1" -r- "n" d
note on link
    Ein Datensatz besteht aus mehreren Datenpunkten
    und gehört zu einem Versuch
end note
v "n" - - "1" k
note on link
    Eine Konfiguration kann zu mehreren Versuchen gehören (muss!)
end note

note right of d
    SELECT *
    FROM Data
    WHERE trialId = 420
    ORDER BY dataID ASC
end note
@enduml

PlantUML version 1.2021.16beta1(Unknown compile time)
(GPL source distribution)
Java Runtime: Java(TM) SE Runtime Environment
JVM: Java HotSpot(TM) 64-Bit Server VM
Default Encoding: UTF-8
Language: en
Country: US
--></g></svg>