<?xml version="1.0" encoding="UTF-8" standalone="no"?><svg xmlns="http://www.w3.org/2000/svg" xmlns:xlink="http://www.w3.org/1999/xlink" contentScriptType="application/ecmascript" contentStyleType="text/css" height="664px" preserveAspectRatio="none" style="width:1323px;height:664px;background:#FFFFFF;" version="1.1" viewBox="0 0 1323 664" width="1323px" zoomAndPan="magnify"><defs><filter height="300%" id="fucy53nuqqq7s" width="300%" x="-1" y="-1"><feGaussianBlur result="blurOut" stdDeviation="2.0"/><feColorMatrix in="blurOut" result="blurOut2" type="matrix" values="0 0 0 0 0 0 0 0 0 0 0 0 0 0 0 0 0 0 .4 0"/><feOffset dx="4.0" dy="4.0" in="blurOut2" result="blurOut3"/><feBlend in="SourceGraphic" in2="blurOut3" mode="normal"/></filter></defs><g><!--MD5=[6a1fdf58a6ccf033c5989c890f6048c5]
entity n--><ellipse cx="275.5" cy="14" fill="#FEFECE" filter="url(#fucy53nuqqq7s)" rx="8" ry="8" style="stroke:#A80036;stroke-width:1.5;"/><path d="M275.5,22 L275.5,49 M262.5,30 L288.5,30 M275.5,49 L262.5,64 M275.5,49 L288.5,64 " fill="none" filter="url(#fucy53nuqqq7s)" style="stroke:#A80036;stroke-width:1.5;"/><text fill="#000000" font-family="sans-serif" font-size="14" lengthAdjust="spacing" textLength="48" x="251.5" y="82.4951">Nutzer</text><!--MD5=[e3471f280e59d1431a9a122c0f31e779]
class c--><rect codeLine="5" fill="#FEFECE" filter="url(#fucy53nuqqq7s)" height="188.8516" id="c" style="stroke:#A80036;stroke-width:1.5;" width="537" x="7" y="461.5"/><ellipse cx="228.75" cy="477.5" fill="#ADD1B2" rx="11" ry="11" style="stroke:#A80036;stroke-width:1.0;"/><path d="M231.0938,473.1719 C230.1563,472.7344 229.5625,472.5938 228.6875,472.5938 C226.0625,472.5938 224.0625,474.6719 224.0625,477.3906 L224.0625,478.5156 C224.0625,481.0938 226.1719,482.9844 229.0625,482.9844 C230.2813,482.9844 231.4375,482.6875 232.1875,482.1406 C232.7656,481.7344 233.0938,481.2813 233.0938,480.8906 C233.0938,480.4375 232.7031,480.0469 232.2344,480.0469 C232.0156,480.0469 231.8125,480.125 231.625,480.3125 C231.1719,480.7969 231.1719,480.7969 230.9844,480.8906 C230.5625,481.1563 229.875,481.2813 229.1094,481.2813 C227.0625,481.2813 225.7656,480.1875 225.7656,478.4844 L225.7656,477.3906 C225.7656,475.6094 227.0156,474.2969 228.75,474.2969 C229.3281,474.2969 229.9375,474.4531 230.4063,474.7031 C230.8906,474.9844 231.0625,475.2031 231.1563,475.6094 C231.2188,476.0156 231.25,476.1406 231.3906,476.2656 C231.5313,476.4063 231.7656,476.5156 231.9844,476.5156 C232.25,476.5156 232.5156,476.375 232.6875,476.1563 C232.7969,476 232.8281,475.8125 232.8281,475.3906 L232.8281,473.9688 C232.8281,473.5313 232.8125,473.4063 232.7188,473.25 C232.5625,472.9844 232.2813,472.8438 231.9844,472.8438 C231.6875,472.8438 231.4844,472.9375 231.2656,473.25 L231.0938,473.1719 Z " fill="#000000"/><text fill="#000000" font-family="sans-serif" font-size="12" lengthAdjust="spacing" textLength="85" x="249.25" y="481.6543">configurations</text><line style="stroke:#A80036;stroke-width:1.5;" x1="8" x2="543" y1="493.5" y2="493.5"/><text fill="#000000" font-family="sans-serif" font-size="11" font-weight="bold" lengthAdjust="spacing" textLength="55" x="13" y="507.7104">configid</text><text fill="#000000" font-family="sans-serif" font-size="11" lengthAdjust="spacing" textLength="118" x="72" y="507.7104">varchar(255) UNIQUE</text><text fill="#000000" font-family="sans-serif" font-size="11" font-weight="bold" lengthAdjust="spacing" textLength="59" x="13" y="520.5151">tooltype</text><text fill="#000000" font-family="sans-serif" font-size="11" lengthAdjust="spacing" textLength="462" x="76" y="520.5151">varchar(255) CHECK (tooltype LIKE 'CODECHARTS' OR tooltype LIKE 'ZOOMMAPS')</text><text fill="#000000" font-family="sans-serif" font-size="11" font-weight="bold" lengthAdjust="spacing" textLength="53" x="13" y="533.3198">tutorial</text><text fill="#000000" font-family="sans-serif" font-size="11" lengthAdjust="spacing" textLength="218" x="70" y="533.3198">int CHECK (tutorial = 1 OR tutorial = 0)</text><text fill="#000000" font-family="sans-serif" font-size="11" font-weight="bold" lengthAdjust="spacing" textLength="59" x="13" y="546.1245">question</text><text fill="#000000" font-family="sans-serif" font-size="11" lengthAdjust="spacing" textLength="29" x="76" y="546.1245">TEXT</text><text fill="#000000" font-family="sans-serif" font-size="11" font-weight="bold" lengthAdjust="spacing" textLength="47" x="13" y="558.9292">strings</text><text fill="#000000" font-family="sans-serif" font-size="11" lengthAdjust="spacing" textLength="29" x="64" y="558.9292">TEXT</text><text fill="#000000" font-family="sans-serif" font-size="11" font-weight="bold" lengthAdjust="spacing" textLength="78" x="13" y="571.7339">initialsize_x</text><text fill="#000000" font-family="sans-serif" font-size="11" lengthAdjust="spacing" textLength="14" x="95" y="571.7339">int</text><text fill="#000000" font-family="sans-serif" font-size="11" font-weight="bold" lengthAdjust="spacing" textLength="79" x="13" y="584.5386">initialSize_y</text><text fill="#000000" font-family="sans-serif" font-size="11" lengthAdjust="spacing" textLength="14" x="96" y="584.5386">int</text><text fill="#000000" font-family="sans-serif" font-size="11" font-weight="bold" lengthAdjust="spacing" textLength="65" x="13" y="597.3433">timings_0</text><text fill="#000000" font-family="sans-serif" font-size="11" lengthAdjust="spacing" textLength="14" x="82" y="597.3433">int</text><text fill="#000000" font-family="sans-serif" font-size="11" font-weight="bold" lengthAdjust="spacing" textLength="64" x="13" y="610.1479">timings_1</text><text fill="#000000" font-family="sans-serif" font-size="11" lengthAdjust="spacing" textLength="14" x="81" y="610.1479">int</text><text fill="#000000" font-family="sans-serif" font-size="11" font-weight="bold" lengthAdjust="spacing" textLength="39" x="13" y="622.9526">speed</text><text fill="#000000" font-family="sans-serif" font-size="11" lengthAdjust="spacing" textLength="22" x="56" y="622.9526">real</text><line style="stroke:#A80036;stroke-width:1.5;" x1="8" x2="543" y1="629.5469" y2="629.5469"/><text fill="#000000" font-family="sans-serif" font-size="11" lengthAdjust="spacing" textLength="124" x="13" y="643.7573">PRIMARY KEY(configid)</text><!--MD5=[c7ffb9edfd102118430eb07dc6c6f7f9]
class t--><rect codeLine="20" fill="#FEFECE" filter="url(#fucy53nuqqq7s)" height="124.8281" id="t" style="stroke:#A80036;stroke-width:1.5;" width="480" x="35.5" y="218.5"/><ellipse cx="256.75" cy="234.5" fill="#ADD1B2" rx="11" ry="11" style="stroke:#A80036;stroke-width:1.0;"/><path d="M259.0938,230.1719 C258.1563,229.7344 257.5625,229.5938 256.6875,229.5938 C254.0625,229.5938 252.0625,231.6719 252.0625,234.3906 L252.0625,235.5156 C252.0625,238.0938 254.1719,239.9844 257.0625,239.9844 C258.2813,239.9844 259.4375,239.6875 260.1875,239.1406 C260.7656,238.7344 261.0938,238.2813 261.0938,237.8906 C261.0938,237.4375 260.7031,237.0469 260.2344,237.0469 C260.0156,237.0469 259.8125,237.125 259.625,237.3125 C259.1719,237.7969 259.1719,237.7969 258.9844,237.8906 C258.5625,238.1563 257.875,238.2813 257.1094,238.2813 C255.0625,238.2813 253.7656,237.1875 253.7656,235.4844 L253.7656,234.3906 C253.7656,232.6094 255.0156,231.2969 256.75,231.2969 C257.3281,231.2969 257.9375,231.4531 258.4063,231.7031 C258.8906,231.9844 259.0625,232.2031 259.1563,232.6094 C259.2188,233.0156 259.25,233.1406 259.3906,233.2656 C259.5313,233.4063 259.7656,233.5156 259.9844,233.5156 C260.25,233.5156 260.5156,233.375 260.6875,233.1563 C260.7969,233 260.8281,232.8125 260.8281,232.3906 L260.8281,230.9688 C260.8281,230.5313 260.8125,230.4063 260.7188,230.25 C260.5625,229.9844 260.2813,229.8438 259.9844,229.8438 C259.6875,229.8438 259.4844,229.9375 259.2656,230.25 L259.0938,230.1719 Z " fill="#000000"/><text fill="#000000" font-family="sans-serif" font-size="12" lengthAdjust="spacing" textLength="29" x="277.25" y="238.6543">trials</text><line style="stroke:#A80036;stroke-width:1.5;" x1="36.5" x2="514.5" y1="250.5" y2="250.5"/><text fill="#000000" font-family="sans-serif" font-size="11" font-weight="bold" lengthAdjust="spacing" textLength="41" x="41.5" y="264.7104">trialid</text><text fill="#000000" font-family="sans-serif" font-size="11" lengthAdjust="spacing" textLength="118" x="86.5" y="264.7104">varchar(255) UNIQUE</text><text fill="#000000" font-family="sans-serif" font-size="11" font-weight="bold" lengthAdjust="spacing" textLength="55" x="41.5" y="277.5151">configid</text><text fill="#000000" font-family="sans-serif" font-size="11" lengthAdjust="spacing" textLength="71" x="100.5" y="277.5151">varchar(255)</text><text fill="#000000" font-family="sans-serif" font-size="11" font-weight="bold" lengthAdjust="spacing" textLength="66" x="41.5" y="290.3198">starttime</text><text fill="#000000" font-family="sans-serif" font-size="11" lengthAdjust="spacing" textLength="163" x="111.5" y="290.3198">TIMESTAMP WITH TIME ZONE</text><text fill="#000000" font-family="sans-serif" font-size="11" font-weight="bold" lengthAdjust="spacing" textLength="47" x="41.5" y="303.1245">answer</text><text fill="#000000" font-family="sans-serif" font-size="11" lengthAdjust="spacing" textLength="29" x="92.5" y="303.1245">TEXT</text><line style="stroke:#A80036;stroke-width:1.5;" x1="36.5" x2="514.5" y1="309.7188" y2="309.7188"/><text fill="#000000" font-family="sans-serif" font-size="11" lengthAdjust="spacing" textLength="111" x="41.5" y="323.9292">PRIMARY KEY(trialid)</text><text fill="#000000" font-family="sans-serif" font-size="11" lengthAdjust="spacing" textLength="468" x="41.5" y="336.7339">CONSTRAINT fk_config FOREIGN KEY(configid) REFERENCES configurations(configid)</text><!--MD5=[8b21583645572a35575c72f7bec0a7ec]
class d--><rect codeLine="30" fill="#FEFECE" filter="url(#fucy53nuqqq7s)" height="163.2422" id="d" style="stroke:#A80036;stroke-width:1.5;" width="389" x="920" y="199.5"/><ellipse cx="1078.75" cy="215.5" fill="#ADD1B2" rx="11" ry="11" style="stroke:#A80036;stroke-width:1.0;"/><path d="M1081.0938,211.1719 C1080.1563,210.7344 1079.5625,210.5938 1078.6875,210.5938 C1076.0625,210.5938 1074.0625,212.6719 1074.0625,215.3906 L1074.0625,216.5156 C1074.0625,219.0938 1076.1719,220.9844 1079.0625,220.9844 C1080.2813,220.9844 1081.4375,220.6875 1082.1875,220.1406 C1082.7656,219.7344 1083.0938,219.2813 1083.0938,218.8906 C1083.0938,218.4375 1082.7031,218.0469 1082.2344,218.0469 C1082.0156,218.0469 1081.8125,218.125 1081.625,218.3125 C1081.1719,218.7969 1081.1719,218.7969 1080.9844,218.8906 C1080.5625,219.1563 1079.875,219.2813 1079.1094,219.2813 C1077.0625,219.2813 1075.7656,218.1875 1075.7656,216.4844 L1075.7656,215.3906 C1075.7656,213.6094 1077.0156,212.2969 1078.75,212.2969 C1079.3281,212.2969 1079.9375,212.4531 1080.4063,212.7031 C1080.8906,212.9844 1081.0625,213.2031 1081.1563,213.6094 C1081.2188,214.0156 1081.25,214.1406 1081.3906,214.2656 C1081.5313,214.4063 1081.7656,214.5156 1081.9844,214.5156 C1082.25,214.5156 1082.5156,214.375 1082.6875,214.1563 C1082.7969,214 1082.8281,213.8125 1082.8281,213.3906 L1082.8281,211.9688 C1082.8281,211.5313 1082.8125,211.4063 1082.7188,211.25 C1082.5625,210.9844 1082.2813,210.8438 1081.9844,210.8438 C1081.6875,210.8438 1081.4844,210.9375 1081.2656,211.25 L1081.0938,211.1719 Z " fill="#000000"/><text fill="#000000" font-family="sans-serif" font-size="12" lengthAdjust="spacing" textLength="63" x="1099.25" y="219.6543">datapoints</text><line style="stroke:#A80036;stroke-width:1.5;" x1="921" x2="1308" y1="231.5" y2="231.5"/><text fill="#000000" font-family="sans-serif" font-size="11" font-weight="bold" lengthAdjust="spacing" textLength="41" x="926" y="245.7104">trialid</text><text fill="#000000" font-family="sans-serif" font-size="11" lengthAdjust="spacing" textLength="71" x="971" y="245.7104">varchar(255)</text><text fill="#000000" font-family="sans-serif" font-size="11" font-weight="bold" lengthAdjust="spacing" textLength="43" x="926" y="258.5151">dataid</text><text fill="#000000" font-family="sans-serif" font-size="11" lengthAdjust="spacing" textLength="14" x="973" y="258.5151">int</text><text fill="#000000" font-family="sans-serif" font-size="11" font-weight="bold" lengthAdjust="spacing" textLength="76" x="926" y="271.3198">timeoffset</text><text fill="#000000" font-family="sans-serif" font-size="11" lengthAdjust="spacing" textLength="14" x="1006" y="271.3198">int</text><text fill="#000000" font-family="sans-serif" font-size="11" font-weight="bold" lengthAdjust="spacing" textLength="94" x="926" y="284.1245">coordinates_x</text><text fill="#000000" font-family="sans-serif" font-size="11" lengthAdjust="spacing" textLength="14" x="1024" y="284.1245">int</text><text fill="#000000" font-family="sans-serif" font-size="11" font-weight="bold" lengthAdjust="spacing" textLength="94" x="926" y="296.9292">coordinates_y</text><text fill="#000000" font-family="sans-serif" font-size="11" lengthAdjust="spacing" textLength="14" x="1024" y="296.9292">int</text><text fill="#000000" font-family="sans-serif" font-size="11" font-weight="bold" lengthAdjust="spacing" textLength="81" x="926" y="309.7339">rastersize_x</text><text fill="#000000" font-family="sans-serif" font-size="11" lengthAdjust="spacing" textLength="14" x="1011" y="309.7339">int</text><text fill="#000000" font-family="sans-serif" font-size="11" font-weight="bold" lengthAdjust="spacing" textLength="81" x="926" y="322.5386">rastersize_y</text><text fill="#000000" font-family="sans-serif" font-size="11" lengthAdjust="spacing" textLength="14" x="1011" y="322.5386">int</text><text fill="#000000" font-family="sans-serif" font-size="11" font-weight="bold" lengthAdjust="spacing" textLength="68" x="926" y="335.3433">zoomlevel</text><text fill="#000000" font-family="sans-serif" font-size="11" lengthAdjust="spacing" textLength="22" x="998" y="335.3433">real</text><line style="stroke:#A80036;stroke-width:1.5;" x1="921" x2="1308" y1="341.9375" y2="341.9375"/><text fill="#000000" font-family="sans-serif" font-size="11" lengthAdjust="spacing" textLength="377" x="926" y="356.1479">CONSTRAINT fk_trial FOREIGN KEY(trialid) REFERENCES trials(trialid)</text><!--MD5=[70321ffdeec0a295ebae9cb1596307a6]
link n to t--><path codeLine="43" d="M275.5,85.695 C275.5,121.944 275.5,176.113 275.5,218.055 " fill="none" id="n-t" style="stroke:#A80036;stroke-width:1.0;"/><path d="M280.5,120.5 L280.5,160.5 L616.5,160.5 L616.5,130.5 L606.5,120.5 L280.5,120.5 " fill="#FBFB77" filter="url(#fucy53nuqqq7s)" style="stroke:#A80036;stroke-width:1.0;"/><path d="M606.5,120.5 L606.5,130.5 L616.5,130.5 L606.5,120.5 " fill="#FBFB77" style="stroke:#A80036;stroke-width:1.0;"/><text fill="#000000" font-family="sans-serif" font-size="13" lengthAdjust="spacing" textLength="212" x="286.5" y="137.5669">1 Nutzer kann mehrere Versuche</text><text fill="#000000" font-family="sans-serif" font-size="13" lengthAdjust="spacing" textLength="315" x="286.5" y="152.6997">(mit unterschiedlicher Konfiguration) durchführen</text><text fill="#000000" font-family="sans-serif" font-size="13" lengthAdjust="spacing" textLength="8" x="266.8375" y="105.7306">1</text><text fill="#000000" font-family="sans-serif" font-size="13" lengthAdjust="spacing" textLength="8" x="267.0625" y="207.4336">n</text><!--MD5=[3a4d90509a3caca34ebc4e028a5be8de]
link t to d--><path codeLine="48" d="M515.643,281 C643.728,281 799.297,281 919.77,281 " fill="none" id="t-d" style="stroke:#A80036;stroke-width:1.0;"/><path d="M539.75,229 L539.75,269 L891.75,269 L891.75,239 L881.75,229 L539.75,229 " fill="#FBFB77" filter="url(#fucy53nuqqq7s)" style="stroke:#A80036;stroke-width:1.0;"/><path d="M881.75,229 L881.75,239 L891.75,239 L881.75,229 " fill="#FBFB77" style="stroke:#A80036;stroke-width:1.0;"/><text fill="#000000" font-family="sans-serif" font-size="13" lengthAdjust="spacing" textLength="331" x="545.75" y="246.0669">Ein Datensatz besteht aus mehreren Datenpunkten</text><text fill="#000000" font-family="sans-serif" font-size="13" lengthAdjust="spacing" textLength="189" x="545.75" y="261.1997">und gehört zu einem Versuch</text><text fill="#000000" font-family="sans-serif" font-size="13" lengthAdjust="spacing" textLength="8" x="523.6539" y="277.8258">1</text><text fill="#000000" font-family="sans-serif" font-size="13" lengthAdjust="spacing" textLength="8" x="904.0071" y="277.7718">n</text><!--MD5=[b768ed6858f79b791919b593256e12fc]
link t to c--><path codeLine="53" d="M275.5,343.607 C275.5,378.362 275.5,422.499 275.5,461.444 " fill="none" id="t-c" style="stroke:#A80036;stroke-width:1.0;"/><path d="M280.5,397.5 L280.5,422.5 L721.5,422.5 L721.5,407.5 L711.5,397.5 L280.5,397.5 " fill="#FBFB77" filter="url(#fucy53nuqqq7s)" style="stroke:#A80036;stroke-width:1.0;"/><path d="M711.5,397.5 L711.5,407.5 L721.5,407.5 L711.5,397.5 " fill="#FBFB77" style="stroke:#A80036;stroke-width:1.0;"/><text fill="#000000" font-family="sans-serif" font-size="13" lengthAdjust="spacing" textLength="420" x="286.5" y="414.5669">Eine Konfiguration kann zu mehreren Versuchen gehören (muss!)</text><text fill="#000000" font-family="sans-serif" font-size="13" lengthAdjust="spacing" textLength="8" x="267.0625" y="363.3585">n</text><text fill="#000000" font-family="sans-serif" font-size="13" lengthAdjust="spacing" textLength="8" x="267.1813" y="450.3895">1</text><!--MD5=[4f859afc8529b4a38ac6b53bd99f6a52]
@startuml
allowmixing

actor "Nutzer" as n

class "configurations" as c {
    **configid** varchar(255) UNIQUE
    **tooltype** varchar(255) CHECK (tooltype LIKE 'CODECHARTS' OR tooltype LIKE 'ZOOMMAPS')
    **tutorial** int CHECK (tutorial = 1 OR tutorial = 0)
    **question** TEXT
    **strings** TEXT
    **initialsize_x** int
    **initialSize_y** int
    **timings_0** int
    **timings_1** int
    **speed** real
    __
    PRIMARY KEY(configid)
}

class "trials" as t {
    **trialid** varchar(255) UNIQUE
    **configid** varchar(255)
    **starttime** TIMESTAMP WITH TIME ZONE
    **answer** TEXT
    __
    PRIMARY KEY(trialid)
    CONSTRAINT fk_config FOREIGN KEY(configid) REFERENCES configurations(configid)
}

class "datapoints" as d {
    **trialid** varchar(255)
    **dataid** int
    **timeoffset** int
    **coordinates_x** int
    **coordinates_y** int
    **rastersize_x** int
    **rastersize_y** int
    **zoomlevel** real
    __
    CONSTRAINT fk_trial FOREIGN KEY(trialid) REFERENCES trials(trialid)
}

n "1" - - "n" t
note on link
    1 Nutzer kann mehrere Versuche
    (mit unterschiedlicher Konfiguration) durchführen
end note
t "1" -r- "n" d
note on link
    Ein Datensatz besteht aus mehreren Datenpunkten
    und gehört zu einem Versuch
end note
t "n" - - "1" c
note on link
    Eine Konfiguration kann zu mehreren Versuchen gehören (muss!)
end note
@enduml

PlantUML version 1.2021.17beta1(Unknown compile time)
(GPL source distribution)
Java Runtime: Java(TM) SE Runtime Environment
JVM: Java HotSpot(TM) 64-Bit Server VM
Default Encoding: UTF-8
Language: en
Country: US
--></g></svg>