<?xml version="1.0" encoding="UTF-8" standalone="no"?><svg xmlns="http://www.w3.org/2000/svg" xmlns:xlink="http://www.w3.org/1999/xlink" contentScriptType="application/ecmascript" contentStyleType="text/css" height="664px" preserveAspectRatio="none" style="width:1491px;height:664px;background:#FFFFFF;" version="1.1" viewBox="0 0 1491 664" width="1491px" zoomAndPan="magnify"><defs><filter height="300%" id="fsdnxqeehxrnq" width="300%" x="-1" y="-1"><feGaussianBlur result="blurOut" stdDeviation="2.0"/><feColorMatrix in="blurOut" result="blurOut2" type="matrix" values="0 0 0 0 0 0 0 0 0 0 0 0 0 0 0 0 0 0 .4 0"/><feOffset dx="4.0" dy="4.0" in="blurOut2" result="blurOut3"/><feBlend in="SourceGraphic" in2="blurOut3" mode="normal"/></filter></defs><g><!--MD5=[6a1fdf58a6ccf033c5989c890f6048c5]
entity n--><ellipse cx="247" cy="14" fill="#FEFECE" filter="url(#fsdnxqeehxrnq)" rx="8" ry="8" style="stroke:#A80036;stroke-width:1.5;"/><path d="M247,22 L247,49 M234,30 L260,30 M247,49 L234,64 M247,49 L260,64 " fill="none" filter="url(#fsdnxqeehxrnq)" style="stroke:#A80036;stroke-width:1.5;"/><text fill="#000000" font-family="sans-serif" font-size="14" lengthAdjust="spacing" textLength="48" x="223" y="82.4951">Nutzer</text><!--MD5=[e3471f280e59d1431a9a122c0f31e779]
class c--><rect codeLine="5" fill="#FEFECE" filter="url(#fsdnxqeehxrnq)" height="188.8516" id="c" style="stroke:#A80036;stroke-width:1.5;" width="287" x="103.5" y="461.5"/><ellipse cx="200.25" cy="477.5" fill="#ADD1B2" rx="11" ry="11" style="stroke:#A80036;stroke-width:1.0;"/><path d="M202.5938,473.1719 C201.6563,472.7344 201.0625,472.5938 200.1875,472.5938 C197.5625,472.5938 195.5625,474.6719 195.5625,477.3906 L195.5625,478.5156 C195.5625,481.0938 197.6719,482.9844 200.5625,482.9844 C201.7813,482.9844 202.9375,482.6875 203.6875,482.1406 C204.2656,481.7344 204.5938,481.2813 204.5938,480.8906 C204.5938,480.4375 204.2031,480.0469 203.7344,480.0469 C203.5156,480.0469 203.3125,480.125 203.125,480.3125 C202.6719,480.7969 202.6719,480.7969 202.4844,480.8906 C202.0625,481.1563 201.375,481.2813 200.6094,481.2813 C198.5625,481.2813 197.2656,480.1875 197.2656,478.4844 L197.2656,477.3906 C197.2656,475.6094 198.5156,474.2969 200.25,474.2969 C200.8281,474.2969 201.4375,474.4531 201.9063,474.7031 C202.3906,474.9844 202.5625,475.2031 202.6563,475.6094 C202.7188,476.0156 202.75,476.1406 202.8906,476.2656 C203.0313,476.4063 203.2656,476.5156 203.4844,476.5156 C203.75,476.5156 204.0156,476.375 204.1875,476.1563 C204.2969,476 204.3281,475.8125 204.3281,475.3906 L204.3281,473.9688 C204.3281,473.5313 204.3125,473.4063 204.2188,473.25 C204.0625,472.9844 203.7813,472.8438 203.4844,472.8438 C203.1875,472.8438 202.9844,472.9375 202.7656,473.25 L202.5938,473.1719 Z " fill="#000000"/><text fill="#000000" font-family="sans-serif" font-size="12" lengthAdjust="spacing" textLength="85" x="220.75" y="481.6543">configurations</text><line style="stroke:#A80036;stroke-width:1.5;" x1="104.5" x2="389.5" y1="493.5" y2="493.5"/><text fill="#000000" font-family="sans-serif" font-size="11" font-weight="bold" lengthAdjust="spacing" textLength="55" x="109.5" y="507.7104">configid</text><text fill="#000000" font-family="sans-serif" font-size="11" lengthAdjust="spacing" textLength="118" x="168.5" y="507.7104">varchar(255) UNIQUE</text><text fill="#000000" font-family="sans-serif" font-size="11" font-weight="bold" lengthAdjust="spacing" textLength="59" x="109.5" y="520.5151">tooltype</text><text fill="#000000" font-family="sans-serif" font-size="11" lengthAdjust="spacing" textLength="71" x="172.5" y="520.5151">varchar(255)</text><text fill="#000000" font-family="sans-serif" font-size="11" font-weight="bold" lengthAdjust="spacing" textLength="53" x="109.5" y="533.3198">tutorial</text><text fill="#000000" font-family="sans-serif" font-size="11" lengthAdjust="spacing" textLength="218" x="166.5" y="533.3198">int CHECK (tutorial = 1 OR tutorial = 0)</text><text fill="#000000" font-family="sans-serif" font-size="11" font-weight="bold" lengthAdjust="spacing" textLength="59" x="109.5" y="546.1245">question</text><text fill="#000000" font-family="sans-serif" font-size="11" lengthAdjust="spacing" textLength="29" x="172.5" y="546.1245">TEXT</text><text fill="#000000" font-family="sans-serif" font-size="11" font-weight="bold" lengthAdjust="spacing" textLength="47" x="109.5" y="558.9292">strings</text><text fill="#000000" font-family="sans-serif" font-size="11" lengthAdjust="spacing" textLength="29" x="160.5" y="558.9292">TEXT</text><text fill="#000000" font-family="sans-serif" font-size="11" font-weight="bold" lengthAdjust="spacing" textLength="78" x="109.5" y="571.7339">initialsize_x</text><text fill="#000000" font-family="sans-serif" font-size="11" lengthAdjust="spacing" textLength="14" x="191.5" y="571.7339">int</text><text fill="#000000" font-family="sans-serif" font-size="11" font-weight="bold" lengthAdjust="spacing" textLength="79" x="109.5" y="584.5386">initialSize_y</text><text fill="#000000" font-family="sans-serif" font-size="11" lengthAdjust="spacing" textLength="14" x="192.5" y="584.5386">int</text><text fill="#000000" font-family="sans-serif" font-size="11" font-weight="bold" lengthAdjust="spacing" textLength="65" x="109.5" y="597.3433">timings_0</text><text fill="#000000" font-family="sans-serif" font-size="11" lengthAdjust="spacing" textLength="14" x="178.5" y="597.3433">int</text><text fill="#000000" font-family="sans-serif" font-size="11" font-weight="bold" lengthAdjust="spacing" textLength="64" x="109.5" y="610.1479">timings_1</text><text fill="#000000" font-family="sans-serif" font-size="11" lengthAdjust="spacing" textLength="14" x="177.5" y="610.1479">int</text><text fill="#000000" font-family="sans-serif" font-size="11" font-weight="bold" lengthAdjust="spacing" textLength="39" x="109.5" y="622.9526">speed</text><text fill="#000000" font-family="sans-serif" font-size="11" lengthAdjust="spacing" textLength="22" x="152.5" y="622.9526">real</text><line style="stroke:#A80036;stroke-width:1.5;" x1="104.5" x2="389.5" y1="629.5469" y2="629.5469"/><text fill="#000000" font-family="sans-serif" font-size="11" lengthAdjust="spacing" textLength="124" x="109.5" y="643.7573">PRIMARY KEY(configid)</text><!--MD5=[c7ffb9edfd102118430eb07dc6c6f7f9]
class t--><rect codeLine="20" fill="#FEFECE" filter="url(#fsdnxqeehxrnq)" height="137.6328" id="t" style="stroke:#A80036;stroke-width:1.5;" width="480" x="7" y="212"/><ellipse cx="228.25" cy="228" fill="#ADD1B2" rx="11" ry="11" style="stroke:#A80036;stroke-width:1.0;"/><path d="M230.5938,223.6719 C229.6563,223.2344 229.0625,223.0938 228.1875,223.0938 C225.5625,223.0938 223.5625,225.1719 223.5625,227.8906 L223.5625,229.0156 C223.5625,231.5938 225.6719,233.4844 228.5625,233.4844 C229.7813,233.4844 230.9375,233.1875 231.6875,232.6406 C232.2656,232.2344 232.5938,231.7813 232.5938,231.3906 C232.5938,230.9375 232.2031,230.5469 231.7344,230.5469 C231.5156,230.5469 231.3125,230.625 231.125,230.8125 C230.6719,231.2969 230.6719,231.2969 230.4844,231.3906 C230.0625,231.6563 229.375,231.7813 228.6094,231.7813 C226.5625,231.7813 225.2656,230.6875 225.2656,228.9844 L225.2656,227.8906 C225.2656,226.1094 226.5156,224.7969 228.25,224.7969 C228.8281,224.7969 229.4375,224.9531 229.9063,225.2031 C230.3906,225.4844 230.5625,225.7031 230.6563,226.1094 C230.7188,226.5156 230.75,226.6406 230.8906,226.7656 C231.0313,226.9063 231.2656,227.0156 231.4844,227.0156 C231.75,227.0156 232.0156,226.875 232.1875,226.6563 C232.2969,226.5 232.3281,226.3125 232.3281,225.8906 L232.3281,224.4688 C232.3281,224.0313 232.3125,223.9063 232.2188,223.75 C232.0625,223.4844 231.7813,223.3438 231.4844,223.3438 C231.1875,223.3438 230.9844,223.4375 230.7656,223.75 L230.5938,223.6719 Z " fill="#000000"/><text fill="#000000" font-family="sans-serif" font-size="12" lengthAdjust="spacing" textLength="29" x="248.75" y="232.1543">trials</text><line style="stroke:#A80036;stroke-width:1.5;" x1="8" x2="486" y1="244" y2="244"/><text fill="#000000" font-family="sans-serif" font-size="11" font-weight="bold" lengthAdjust="spacing" textLength="41" x="13" y="258.2104">trialid</text><text fill="#000000" font-family="sans-serif" font-size="11" lengthAdjust="spacing" textLength="118" x="58" y="258.2104">varchar(255) UNIQUE</text><text fill="#000000" font-family="sans-serif" font-size="11" font-weight="bold" lengthAdjust="spacing" textLength="55" x="13" y="271.0151">configid</text><text fill="#000000" font-family="sans-serif" font-size="11" lengthAdjust="spacing" textLength="71" x="72" y="271.0151">varchar(255)</text><text fill="#000000" font-family="sans-serif" font-size="11" font-weight="bold" lengthAdjust="spacing" textLength="59" x="13" y="283.8198">tooltype</text><text fill="#000000" font-family="sans-serif" font-size="11" lengthAdjust="spacing" textLength="71" x="76" y="283.8198">varchar(255)</text><text fill="#000000" font-family="sans-serif" font-size="11" font-weight="bold" lengthAdjust="spacing" textLength="66" x="13" y="296.6245">starttime</text><text fill="#000000" font-family="sans-serif" font-size="11" lengthAdjust="spacing" textLength="163" x="83" y="296.6245">TIMESTAMP WITH TIME ZONE</text><text fill="#000000" font-family="sans-serif" font-size="11" font-weight="bold" lengthAdjust="spacing" textLength="47" x="13" y="309.4292">answer</text><text fill="#000000" font-family="sans-serif" font-size="11" lengthAdjust="spacing" textLength="29" x="64" y="309.4292">TEXT</text><text fill="#000000" font-family="sans-serif" font-size="11" font-weight="bold" lengthAdjust="spacing" textLength="57" x="13" y="322.2339">PRIMARY</text><text fill="#000000" font-family="sans-serif" font-size="11" lengthAdjust="spacing" textLength="60" x="74" y="322.2339">KEY(trialid)</text><line style="stroke:#A80036;stroke-width:1.5;" x1="8" x2="486" y1="328.8281" y2="328.8281"/><text fill="#000000" font-family="sans-serif" font-size="11" lengthAdjust="spacing" textLength="468" x="13" y="343.0386">CONSTRAINT fk_config FOREIGN KEY(configid) REFERENCES configurations(configid)</text><!--MD5=[8b21583645572a35575c72f7bec0a7ec]
class d--><rect codeLine="31" fill="#FEFECE" filter="url(#fsdnxqeehxrnq)" height="163.2422" id="d" style="stroke:#A80036;stroke-width:1.5;" width="389" x="891.5" y="199.5"/><ellipse cx="1050.25" cy="215.5" fill="#ADD1B2" rx="11" ry="11" style="stroke:#A80036;stroke-width:1.0;"/><path d="M1052.5938,211.1719 C1051.6563,210.7344 1051.0625,210.5938 1050.1875,210.5938 C1047.5625,210.5938 1045.5625,212.6719 1045.5625,215.3906 L1045.5625,216.5156 C1045.5625,219.0938 1047.6719,220.9844 1050.5625,220.9844 C1051.7813,220.9844 1052.9375,220.6875 1053.6875,220.1406 C1054.2656,219.7344 1054.5938,219.2813 1054.5938,218.8906 C1054.5938,218.4375 1054.2031,218.0469 1053.7344,218.0469 C1053.5156,218.0469 1053.3125,218.125 1053.125,218.3125 C1052.6719,218.7969 1052.6719,218.7969 1052.4844,218.8906 C1052.0625,219.1563 1051.375,219.2813 1050.6094,219.2813 C1048.5625,219.2813 1047.2656,218.1875 1047.2656,216.4844 L1047.2656,215.3906 C1047.2656,213.6094 1048.5156,212.2969 1050.25,212.2969 C1050.8281,212.2969 1051.4375,212.4531 1051.9063,212.7031 C1052.3906,212.9844 1052.5625,213.2031 1052.6563,213.6094 C1052.7188,214.0156 1052.75,214.1406 1052.8906,214.2656 C1053.0313,214.4063 1053.2656,214.5156 1053.4844,214.5156 C1053.75,214.5156 1054.0156,214.375 1054.1875,214.1563 C1054.2969,214 1054.3281,213.8125 1054.3281,213.3906 L1054.3281,211.9688 C1054.3281,211.5313 1054.3125,211.4063 1054.2188,211.25 C1054.0625,210.9844 1053.7813,210.8438 1053.4844,210.8438 C1053.1875,210.8438 1052.9844,210.9375 1052.7656,211.25 L1052.5938,211.1719 Z " fill="#000000"/><text fill="#000000" font-family="sans-serif" font-size="12" lengthAdjust="spacing" textLength="63" x="1070.75" y="219.6543">datapoints</text><line style="stroke:#A80036;stroke-width:1.5;" x1="892.5" x2="1279.5" y1="231.5" y2="231.5"/><text fill="#000000" font-family="sans-serif" font-size="11" font-weight="bold" lengthAdjust="spacing" textLength="41" x="897.5" y="245.7104">trialid</text><text fill="#000000" font-family="sans-serif" font-size="11" lengthAdjust="spacing" textLength="71" x="942.5" y="245.7104">varchar(255)</text><text fill="#000000" font-family="sans-serif" font-size="11" font-weight="bold" lengthAdjust="spacing" textLength="43" x="897.5" y="258.5151">dataid</text><text fill="#000000" font-family="sans-serif" font-size="11" lengthAdjust="spacing" textLength="14" x="944.5" y="258.5151">int</text><text fill="#000000" font-family="sans-serif" font-size="11" font-weight="bold" lengthAdjust="spacing" textLength="76" x="897.5" y="271.3198">timeoffset</text><text fill="#000000" font-family="sans-serif" font-size="11" lengthAdjust="spacing" textLength="14" x="977.5" y="271.3198">int</text><text fill="#000000" font-family="sans-serif" font-size="11" font-weight="bold" lengthAdjust="spacing" textLength="94" x="897.5" y="284.1245">coordinates_x</text><text fill="#000000" font-family="sans-serif" font-size="11" lengthAdjust="spacing" textLength="14" x="995.5" y="284.1245">int</text><text fill="#000000" font-family="sans-serif" font-size="11" font-weight="bold" lengthAdjust="spacing" textLength="94" x="897.5" y="296.9292">coordinates_y</text><text fill="#000000" font-family="sans-serif" font-size="11" lengthAdjust="spacing" textLength="14" x="995.5" y="296.9292">int</text><text fill="#000000" font-family="sans-serif" font-size="11" font-weight="bold" lengthAdjust="spacing" textLength="81" x="897.5" y="309.7339">rastersize_x</text><text fill="#000000" font-family="sans-serif" font-size="11" lengthAdjust="spacing" textLength="14" x="982.5" y="309.7339">int</text><text fill="#000000" font-family="sans-serif" font-size="11" font-weight="bold" lengthAdjust="spacing" textLength="81" x="897.5" y="322.5386">rastersize_y</text><text fill="#000000" font-family="sans-serif" font-size="11" lengthAdjust="spacing" textLength="14" x="982.5" y="322.5386">int</text><text fill="#000000" font-family="sans-serif" font-size="11" font-weight="bold" lengthAdjust="spacing" textLength="68" x="897.5" y="335.3433">zoomlevel</text><text fill="#000000" font-family="sans-serif" font-size="11" lengthAdjust="spacing" textLength="22" x="969.5" y="335.3433">real</text><line style="stroke:#A80036;stroke-width:1.5;" x1="892.5" x2="1279.5" y1="341.9375" y2="341.9375"/><text fill="#000000" font-family="sans-serif" font-size="11" lengthAdjust="spacing" textLength="377" x="897.5" y="356.1479">CONSTRAINT fk_trial FOREIGN KEY(trialid) REFERENCES trials(trialid)</text><path d="M1319.5,245.5 L1319.5,277 L1280.72,281 L1319.5,285 L1319.5,316.0313 A0,0 0 0 0 1319.5,316.0313 L1482.5,316.0313 A0,0 0 0 0 1482.5,316.0313 L1482.5,255.5 L1472.5,245.5 L1319.5,245.5 A0,0 0 0 0 1319.5,245.5 " fill="#FBFB77" filter="url(#fsdnxqeehxrnq)" style="stroke:#A80036;stroke-width:1.0;"/><path d="M1472.5,245.5 L1472.5,255.5 L1482.5,255.5 L1472.5,245.5 " fill="#FBFB77" style="stroke:#A80036;stroke-width:1.0;"/><text fill="#000000" font-family="sans-serif" font-size="13" lengthAdjust="spacing" textLength="59" x="1325.5" y="262.5669">SELECT *</text><text fill="#000000" font-family="sans-serif" font-size="13" lengthAdjust="spacing" textLength="71" x="1325.5" y="277.6997">FROM Data</text><text fill="#000000" font-family="sans-serif" font-size="13" lengthAdjust="spacing" textLength="128" x="1325.5" y="292.8325">WHERE trialId = 420</text><text fill="#000000" font-family="sans-serif" font-size="13" lengthAdjust="spacing" textLength="142" x="1325.5" y="307.9653">ORDER BY dataID ASC</text><!--MD5=[70321ffdeec0a295ebae9cb1596307a6]
link n to t--><path codeLine="44" d="M247,85.695 C247,120.119 247,170.703 247,211.629 " fill="none" id="n-t" style="stroke:#A80036;stroke-width:1.0;"/><path d="M252,120.5 L252,160.5 L588,160.5 L588,130.5 L578,120.5 L252,120.5 " fill="#FBFB77" filter="url(#fsdnxqeehxrnq)" style="stroke:#A80036;stroke-width:1.0;"/><path d="M578,120.5 L578,130.5 L588,130.5 L578,120.5 " fill="#FBFB77" style="stroke:#A80036;stroke-width:1.0;"/><text fill="#000000" font-family="sans-serif" font-size="13" lengthAdjust="spacing" textLength="212" x="258" y="137.5669">1 Nutzer kann mehrere Versuche</text><text fill="#000000" font-family="sans-serif" font-size="13" lengthAdjust="spacing" textLength="315" x="258" y="152.6997">(mit unterschiedlicher Konfiguration) durchführen</text><text fill="#000000" font-family="sans-serif" font-size="13" lengthAdjust="spacing" textLength="8" x="238.3375" y="105.7306">1</text><text fill="#000000" font-family="sans-serif" font-size="13" lengthAdjust="spacing" textLength="8" x="238.5875" y="200.7944">n</text><!--MD5=[3a4d90509a3caca34ebc4e028a5be8de]
link t to d--><path codeLine="49" d="M487.143,281 C615.228,281 770.797,281 891.27,281 " fill="none" id="t-d" style="stroke:#A80036;stroke-width:1.0;"/><path d="M511.25,229 L511.25,269 L863.25,269 L863.25,239 L853.25,229 L511.25,229 " fill="#FBFB77" filter="url(#fsdnxqeehxrnq)" style="stroke:#A80036;stroke-width:1.0;"/><path d="M853.25,229 L853.25,239 L863.25,239 L853.25,229 " fill="#FBFB77" style="stroke:#A80036;stroke-width:1.0;"/><text fill="#000000" font-family="sans-serif" font-size="13" lengthAdjust="spacing" textLength="331" x="517.25" y="246.0669">Ein Datensatz besteht aus mehreren Datenpunkten</text><text fill="#000000" font-family="sans-serif" font-size="13" lengthAdjust="spacing" textLength="189" x="517.25" y="261.1997">und gehört zu einem Versuch</text><text fill="#000000" font-family="sans-serif" font-size="13" lengthAdjust="spacing" textLength="8" x="495.1539" y="277.829">1</text><text fill="#000000" font-family="sans-serif" font-size="13" lengthAdjust="spacing" textLength="8" x="875.5071" y="277.7718">n</text><!--MD5=[b768ed6858f79b791919b593256e12fc]
link t to c--><path codeLine="54" d="M247,350.185 C247,383.825 247,424.922 247,461.45 " fill="none" id="t-c" style="stroke:#A80036;stroke-width:1.0;"/><path d="M252,397.5 L252,422.5 L693,422.5 L693,407.5 L683,397.5 L252,397.5 " fill="#FBFB77" filter="url(#fsdnxqeehxrnq)" style="stroke:#A80036;stroke-width:1.0;"/><path d="M683,397.5 L683,407.5 L693,407.5 L683,397.5 " fill="#FBFB77" style="stroke:#A80036;stroke-width:1.0;"/><text fill="#000000" font-family="sans-serif" font-size="13" lengthAdjust="spacing" textLength="420" x="258" y="414.5669">Eine Konfiguration kann zu mehreren Versuchen gehören (muss!)</text><text fill="#000000" font-family="sans-serif" font-size="13" lengthAdjust="spacing" textLength="8" x="238.6188" y="369.5848">n</text><text fill="#000000" font-family="sans-serif" font-size="13" lengthAdjust="spacing" textLength="8" x="238.6813" y="450.396">1</text><!--MD5=[290d632118c51219738b00beb98ed713]
@startuml
allowmixing

actor "Nutzer" as n

class "configurations" as c {
    **configid** varchar(255) UNIQUE
    **tooltype** varchar(255)
    **tutorial** int CHECK (tutorial = 1 OR tutorial = 0)
    **question** TEXT
    **strings** TEXT
    **initialsize_x** int
    **initialSize_y** int
    **timings_0** int
    **timings_1** int
    **speed** real
    __
    PRIMARY KEY(configid)
}

class "trials" as t {
    **trialid** varchar(255) UNIQUE
    **configid** varchar(255)
    **tooltype** varchar(255)
    **starttime** TIMESTAMP WITH TIME ZONE
    **answer** TEXT
    **PRIMARY** KEY(trialid)
    __
    CONSTRAINT fk_config FOREIGN KEY(configid) REFERENCES configurations(configid)
}

class "datapoints" as d {
    **trialid** varchar(255)
    **dataid** int
    **timeoffset** int
    **coordinates_x** int
    **coordinates_y** int
    **rastersize_x** int
    **rastersize_y** int
    **zoomlevel** real
    __
    CONSTRAINT fk_trial FOREIGN KEY(trialid) REFERENCES trials(trialid)
}

n "1" - - "n" t
note on link
    1 Nutzer kann mehrere Versuche
    (mit unterschiedlicher Konfiguration) durchführen
end note
t "1" -r- "n" d
note on link
    Ein Datensatz besteht aus mehreren Datenpunkten
    und gehört zu einem Versuch
end note
t "n" - - "1" c
note on link
    Eine Konfiguration kann zu mehreren Versuchen gehören (muss!)
end note

note right of d
    SELECT *
    FROM Data
    WHERE trialId = 420
    ORDER BY dataID ASC
end note
@enduml

PlantUML version 1.2021.16beta3(Unknown compile time)
(GPL source distribution)
Java Runtime: Java(TM) SE Runtime Environment
JVM: Java HotSpot(TM) 64-Bit Server VM
Default Encoding: UTF-8
Language: en
Country: US
--></g></svg>