<?xml version="1.0" encoding="UTF-8" standalone="no"?><svg xmlns="http://www.w3.org/2000/svg" xmlns:xlink="http://www.w3.org/1999/xlink" contentScriptType="application/ecmascript" contentStyleType="text/css" height="482px" preserveAspectRatio="none" style="width:768px;height:482px;background:#FFFFFF;" version="1.1" viewBox="0 0 768 482" width="768px" zoomAndPan="magnify"><defs><filter height="300%" id="fjl0k3zjgbrip" width="300%" x="-1" y="-1"><feGaussianBlur result="blurOut" stdDeviation="2.0"/><feColorMatrix in="blurOut" result="blurOut2" type="matrix" values="0 0 0 0 0 0 0 0 0 0 0 0 0 0 0 0 0 0 .4 0"/><feOffset dx="4.0" dy="4.0" in="blurOut2" result="blurOut3"/><feBlend in="SourceGraphic" in2="blurOut3" mode="normal"/></filter></defs><g><!--MD5=[6a1fdf58a6ccf033c5989c890f6048c5]
entity n--><ellipse cx="70" cy="14" fill="#FEFECE" filter="url(#fjl0k3zjgbrip)" rx="8" ry="8" style="stroke:#A80036;stroke-width:1.5;"/><path d="M70,22 L70,49 M57,30 L83,30 M70,49 L57,64 M70,49 L83,64 " fill="none" filter="url(#fjl0k3zjgbrip)" style="stroke:#A80036;stroke-width:1.5;"/><text fill="#000000" font-family="sans-serif" font-size="14" lengthAdjust="spacing" textLength="48" x="46" y="82.4951">Nutzer</text><!--MD5=[9a03ff78f0bb5f9f1535e6c6919004be]
class k--><rect codeLine="5" fill="#FEFECE" filter="url(#fjl0k3zjgbrip)" height="86.4141" id="k" style="stroke:#A80036;stroke-width:1.5;" width="126" x="7" y="382.5"/><ellipse cx="22" cy="398.5" fill="#ADD1B2" rx="11" ry="11" style="stroke:#A80036;stroke-width:1.0;"/><path d="M24.3438,394.1719 C23.4063,393.7344 22.8125,393.5938 21.9375,393.5938 C19.3125,393.5938 17.3125,395.6719 17.3125,398.3906 L17.3125,399.5156 C17.3125,402.0938 19.4219,403.9844 22.3125,403.9844 C23.5313,403.9844 24.6875,403.6875 25.4375,403.1406 C26.0156,402.7344 26.3438,402.2813 26.3438,401.8906 C26.3438,401.4375 25.9531,401.0469 25.4844,401.0469 C25.2656,401.0469 25.0625,401.125 24.875,401.3125 C24.4219,401.7969 24.4219,401.7969 24.2344,401.8906 C23.8125,402.1563 23.125,402.2813 22.3594,402.2813 C20.3125,402.2813 19.0156,401.1875 19.0156,399.4844 L19.0156,398.3906 C19.0156,396.6094 20.2656,395.2969 22,395.2969 C22.5781,395.2969 23.1875,395.4531 23.6563,395.7031 C24.1406,395.9844 24.3125,396.2031 24.4063,396.6094 C24.4688,397.0156 24.5,397.1406 24.6406,397.2656 C24.7813,397.4063 25.0156,397.5156 25.2344,397.5156 C25.5,397.5156 25.7656,397.375 25.9375,397.1563 C26.0469,397 26.0781,396.8125 26.0781,396.3906 L26.0781,394.9688 C26.0781,394.5313 26.0625,394.4063 25.9688,394.25 C25.8125,393.9844 25.5313,393.8438 25.2344,393.8438 C24.9375,393.8438 24.7344,393.9375 24.5156,394.25 L24.3438,394.1719 Z " fill="#000000"/><text fill="#000000" font-family="sans-serif" font-size="12" lengthAdjust="spacing" textLength="94" x="36" y="402.6543">Konfigurationen</text><line style="stroke:#A80036;stroke-width:1.5;" x1="8" x2="132" y1="414.5" y2="414.5"/><text fill="#000000" font-family="sans-serif" font-size="11" lengthAdjust="spacing" textLength="46" x="13" y="428.7104">configID</text><text fill="#000000" font-family="sans-serif" font-size="11" lengthAdjust="spacing" textLength="50" x="13" y="441.5151">toolType</text><text fill="#000000" font-family="sans-serif" font-size="11" lengthAdjust="spacing" textLength="82" x="13" y="454.3198">... configDaten</text><line style="stroke:#A80036;stroke-width:1.5;" x1="8" x2="132" y1="460.9141" y2="460.9141"/><!--MD5=[0f2ca8c403c82214a93ba7e447c0ae0d]
class v--><rect codeLine="10" fill="#FEFECE" filter="url(#fjl0k3zjgbrip)" height="86.4141" id="v" style="stroke:#A80036;stroke-width:1.5;" width="89" x="25.5" y="191"/><ellipse cx="40.5" cy="207" fill="#ADD1B2" rx="11" ry="11" style="stroke:#A80036;stroke-width:1.0;"/><path d="M42.8438,202.6719 C41.9063,202.2344 41.3125,202.0938 40.4375,202.0938 C37.8125,202.0938 35.8125,204.1719 35.8125,206.8906 L35.8125,208.0156 C35.8125,210.5938 37.9219,212.4844 40.8125,212.4844 C42.0313,212.4844 43.1875,212.1875 43.9375,211.6406 C44.5156,211.2344 44.8438,210.7813 44.8438,210.3906 C44.8438,209.9375 44.4531,209.5469 43.9844,209.5469 C43.7656,209.5469 43.5625,209.625 43.375,209.8125 C42.9219,210.2969 42.9219,210.2969 42.7344,210.3906 C42.3125,210.6563 41.625,210.7813 40.8594,210.7813 C38.8125,210.7813 37.5156,209.6875 37.5156,207.9844 L37.5156,206.8906 C37.5156,205.1094 38.7656,203.7969 40.5,203.7969 C41.0781,203.7969 41.6875,203.9531 42.1563,204.2031 C42.6406,204.4844 42.8125,204.7031 42.9063,205.1094 C42.9688,205.5156 43,205.6406 43.1406,205.7656 C43.2813,205.9063 43.5156,206.0156 43.7344,206.0156 C44,206.0156 44.2656,205.875 44.4375,205.6563 C44.5469,205.5 44.5781,205.3125 44.5781,204.8906 L44.5781,203.4688 C44.5781,203.0313 44.5625,202.9063 44.4688,202.75 C44.3125,202.4844 44.0313,202.3438 43.7344,202.3438 C43.4375,202.3438 43.2344,202.4375 43.0156,202.75 L42.8438,202.6719 Z " fill="#000000"/><text fill="#000000" font-family="sans-serif" font-size="12" lengthAdjust="spacing" textLength="57" x="54.5" y="211.1543">Versuche</text><line style="stroke:#A80036;stroke-width:1.5;" x1="26.5" x2="113.5" y1="223" y2="223"/><text fill="#000000" font-family="sans-serif" font-size="11" lengthAdjust="spacing" textLength="33" x="31.5" y="237.2104">trialID</text><text fill="#000000" font-family="sans-serif" font-size="11" lengthAdjust="spacing" textLength="46" x="31.5" y="250.0151">configID</text><text fill="#000000" font-family="sans-serif" font-size="11" lengthAdjust="spacing" textLength="54" x="31.5" y="262.8198">startTime</text><line style="stroke:#A80036;stroke-width:1.5;" x1="26.5" x2="113.5" y1="269.4141" y2="269.4141"/><!--MD5=[8b21583645572a35575c72f7bec0a7ec]
class d--><rect codeLine="16" fill="#FEFECE" filter="url(#fjl0k3zjgbrip)" height="99.2188" id="d" style="stroke:#A80036;stroke-width:1.5;" width="98" x="463" y="184.5"/><ellipse cx="491.95" cy="200.5" fill="#ADD1B2" rx="11" ry="11" style="stroke:#A80036;stroke-width:1.0;"/><path d="M494.2938,196.1719 C493.3563,195.7344 492.7625,195.5938 491.8875,195.5938 C489.2625,195.5938 487.2625,197.6719 487.2625,200.3906 L487.2625,201.5156 C487.2625,204.0938 489.3719,205.9844 492.2625,205.9844 C493.4813,205.9844 494.6375,205.6875 495.3875,205.1406 C495.9656,204.7344 496.2938,204.2813 496.2938,203.8906 C496.2938,203.4375 495.9031,203.0469 495.4344,203.0469 C495.2156,203.0469 495.0125,203.125 494.825,203.3125 C494.3719,203.7969 494.3719,203.7969 494.1844,203.8906 C493.7625,204.1563 493.075,204.2813 492.3094,204.2813 C490.2625,204.2813 488.9656,203.1875 488.9656,201.4844 L488.9656,200.3906 C488.9656,198.6094 490.2156,197.2969 491.95,197.2969 C492.5281,197.2969 493.1375,197.4531 493.6063,197.7031 C494.0906,197.9844 494.2625,198.2031 494.3563,198.6094 C494.4188,199.0156 494.45,199.1406 494.5906,199.2656 C494.7313,199.4063 494.9656,199.5156 495.1844,199.5156 C495.45,199.5156 495.7156,199.375 495.8875,199.1563 C495.9969,199 496.0281,198.8125 496.0281,198.3906 L496.0281,196.9688 C496.0281,196.5313 496.0125,196.4063 495.9188,196.25 C495.7625,195.9844 495.4813,195.8438 495.1844,195.8438 C494.8875,195.8438 494.6844,195.9375 494.4656,196.25 L494.2938,196.1719 Z " fill="#000000"/><text fill="#000000" font-family="sans-serif" font-size="12" lengthAdjust="spacing" textLength="35" x="509.05" y="204.6543">Daten</text><line style="stroke:#A80036;stroke-width:1.5;" x1="464" x2="560" y1="216.5" y2="216.5"/><text fill="#000000" font-family="sans-serif" font-size="11" lengthAdjust="spacing" textLength="33" x="469" y="230.7104">trialID</text><text fill="#000000" font-family="sans-serif" font-size="11" lengthAdjust="spacing" textLength="86" x="469" y="243.5151">dataID : 0 bis n</text><text fill="#000000" font-family="sans-serif" font-size="11" lengthAdjust="spacing" textLength="26" x="469" y="256.3198">time</text><text fill="#000000" font-family="sans-serif" font-size="11" lengthAdjust="spacing" textLength="34" x="469" y="269.1245">...data</text><line style="stroke:#A80036;stroke-width:1.5;" x1="464" x2="560" y1="275.7188" y2="275.7188"/><path d="M596.5,198.5 L596.5,230 L561.281,234 L596.5,238 L596.5,269.0313 A0,0 0 0 0 596.5,269.0313 L759.5,269.0313 A0,0 0 0 0 759.5,269.0313 L759.5,208.5 L749.5,198.5 L596.5,198.5 A0,0 0 0 0 596.5,198.5 " fill="#FBFB77" filter="url(#fjl0k3zjgbrip)" style="stroke:#A80036;stroke-width:1.0;"/><path d="M749.5,198.5 L749.5,208.5 L759.5,208.5 L749.5,198.5 " fill="#FBFB77" style="stroke:#A80036;stroke-width:1.0;"/><text fill="#000000" font-family="sans-serif" font-size="13" lengthAdjust="spacing" textLength="59" x="602.5" y="215.5669">SELECT *</text><text fill="#000000" font-family="sans-serif" font-size="13" lengthAdjust="spacing" textLength="71" x="602.5" y="230.6997">FROM Data</text><text fill="#000000" font-family="sans-serif" font-size="13" lengthAdjust="spacing" textLength="128" x="602.5" y="245.8325">WHERE trialId = 420</text><text fill="#000000" font-family="sans-serif" font-size="13" lengthAdjust="spacing" textLength="142" x="602.5" y="260.9653">ORDER BY dataID ASC</text><!--MD5=[6e37c998710ea97628d4ac5c95a77f29]
link n to v--><path codeLine="23" d="M70,85.658 C70,116.535 70,159.295 70,190.8 " fill="none" id="n-v" style="stroke:#A80036;stroke-width:1.0;"/><path d="M75,120.5 L75,145.5 L627,145.5 L627,130.5 L617,120.5 L75,120.5 " fill="#FBFB77" filter="url(#fjl0k3zjgbrip)" style="stroke:#A80036;stroke-width:1.0;"/><path d="M617,120.5 L617,130.5 L627,130.5 L617,120.5 " fill="#FBFB77" style="stroke:#A80036;stroke-width:1.0;"/><text fill="#000000" font-family="sans-serif" font-size="13" lengthAdjust="spacing" textLength="531" x="81" y="137.5669">1 Nutzer kann mehrere Versuche (mit unterschiedlicher Konfiguration durchführen)</text><text fill="#000000" font-family="sans-serif" font-size="13" lengthAdjust="spacing" textLength="8" x="61.3125" y="105.988">1</text><text fill="#000000" font-family="sans-serif" font-size="13" lengthAdjust="spacing" textLength="8" x="61.3875" y="180.0819">n</text><!--MD5=[6836c0b8f505c1d1d4a407cb856603b4]
link v to d--><path codeLine="27" d="M114.814,234 C198.103,234 376.134,234 462.701,234 " fill="none" id="v-d" style="stroke:#A80036;stroke-width:1.0;"/><path d="M136.75,197 L136.75,222 L436.75,222 L436.75,207 L426.75,197 L136.75,197 " fill="#FBFB77" filter="url(#fjl0k3zjgbrip)" style="stroke:#A80036;stroke-width:1.0;"/><path d="M426.75,197 L426.75,207 L436.75,207 L426.75,197 " fill="#FBFB77" style="stroke:#A80036;stroke-width:1.0;"/><text fill="#000000" font-family="sans-serif" font-size="13" lengthAdjust="spacing" textLength="279" x="142.75" y="214.0669">Ein Datensatz gehört zu einer Konfiguration</text><text fill="#000000" font-family="sans-serif" font-size="13" lengthAdjust="spacing" textLength="8" x="122.5937" y="229.8492">1</text><text fill="#000000" font-family="sans-serif" font-size="13" lengthAdjust="spacing" textLength="8" x="446.8727" y="229.959">1</text><!--MD5=[feda779434a7dca9007338b880b8d6c5]
link v to k--><path codeLine="31" d="M70,277.056 C70,308.351 70,350.89 70,382.2341 " fill="none" id="v-k" style="stroke:#A80036;stroke-width:1.0;"/><path d="M75,318.5 L75,343.5 L516,343.5 L516,328.5 L506,318.5 L75,318.5 " fill="#FBFB77" filter="url(#fjl0k3zjgbrip)" style="stroke:#A80036;stroke-width:1.0;"/><path d="M506,318.5 L506,328.5 L516,328.5 L506,318.5 " fill="#FBFB77" style="stroke:#A80036;stroke-width:1.0;"/><text fill="#000000" font-family="sans-serif" font-size="13" lengthAdjust="spacing" textLength="420" x="81" y="335.5669">Eine Konfiguration kann zu mehreren Versuchen gehören (muss!)</text><text fill="#000000" font-family="sans-serif" font-size="13" lengthAdjust="spacing" textLength="8" x="61.3375" y="297.4729">n</text><text fill="#000000" font-family="sans-serif" font-size="13" lengthAdjust="spacing" textLength="8" x="61.3875" y="371.5058">1</text><!--MD5=[fc020ccc3f05ba98e03f93a083d893ea]
@startuml
allowmixing

actor "Nutzer" as n

class "Konfigurationen" as k {
    configID
    toolType
    ... configDaten
}
class "Versuche" as v {
    trialID
    configID
    startTime
}

class "Daten" as d {
    trialID
    dataID : 0 bis n
    time
    ...data
}

n "1" - - "n" v
note on link
    1 Nutzer kann mehrere Versuche (mit unterschiedlicher Konfiguration durchführen)
end note
v "1" -r- "1" d
note on link
    Ein Datensatz gehört zu einer Konfiguration
end note
v "n" - - "1" k
note on link
    Eine Konfiguration kann zu mehreren Versuchen gehören (muss!)
end note

note right of d
    SELECT *
    FROM Data
    WHERE trialId = 420
    ORDER BY dataID ASC
end note
@enduml

PlantUML version 1.2021.16beta1(Unknown compile time)
(GPL source distribution)
Java Runtime: Java(TM) SE Runtime Environment
JVM: Java HotSpot(TM) 64-Bit Server VM
Default Encoding: UTF-8
Language: en
Country: US
--></g></svg>