<?xml version="1.0" encoding="UTF-8" standalone="no"?><svg xmlns="http://www.w3.org/2000/svg" xmlns:xlink="http://www.w3.org/1999/xlink" contentScriptType="application/ecmascript" contentStyleType="text/css" height="358px" preserveAspectRatio="none" style="width:235px;height:358px;background:#FFFFFF;" version="1.1" viewBox="0 0 235 358" width="235px" zoomAndPan="magnify"><defs><filter height="300%" id="f1gi6r90x867m7" width="300%" x="-1" y="-1"><feGaussianBlur result="blurOut" stdDeviation="2.0"/><feColorMatrix in="blurOut" result="blurOut2" type="matrix" values="0 0 0 0 0 0 0 0 0 0 0 0 0 0 0 0 0 0 .4 0"/><feOffset dx="4.0" dy="4.0" in="blurOut2" result="blurOut3"/><feBlend in="SourceGraphic" in2="blurOut3" mode="normal"/></filter></defs><g><ellipse cx="107.5" cy="20" fill="#000000" filter="url(#f1gi6r90x867m7)" rx="10" ry="10" style="stroke:none;stroke-width:1.0;"/><rect fill="#FEFECE" filter="url(#f1gi6r90x867m7)" height="33.9688" rx="12.5" ry="12.5" style="stroke:#A80036;stroke-width:1.5;" width="95" x="60" y="50"/><text fill="#000000" font-family="sans-serif" font-size="12" lengthAdjust="spacing" textLength="75" x="70" y="71.1387">start() : void</text><rect fill="#FEFECE" filter="url(#f1gi6r90x867m7)" height="33.9688" rx="12.5" ry="12.5" style="stroke:#A80036;stroke-width:1.5;" width="123" x="46" y="152.3711"/><text fill="#000000" font-family="sans-serif" font-size="12" lengthAdjust="spacing" textLength="103" x="56" y="173.5098">show() : boolean</text><rect fill="#FEFECE" filter="url(#f1gi6r90x867m7)" height="33.9688" rx="12.5" ry="12.5" style="stroke:#A80036;stroke-width:1.5;" width="109" x="53" y="221.3398"/><text fill="#000000" font-family="sans-serif" font-size="12" lengthAdjust="spacing" textLength="89" x="63" y="242.4785">tutorial() : void</text><polygon fill="#FEFECE" filter="url(#f1gi6r90x867m7)" points="32,103.9688,183,103.9688,195,115.9688,183,127.9688,32,127.9688,20,115.9688,32,103.9688" style="stroke:#A80036;stroke-width:1.5;"/><text fill="#000000" font-family="sans-serif" font-size="11" lengthAdjust="spacing" textLength="23" x="111.5" y="138.1792">true</text><text fill="#000000" font-family="sans-serif" font-size="11" lengthAdjust="spacing" textLength="151" x="32" y="119.7769">getConfigState() : boolean</text><text fill="#000000" font-family="sans-serif" font-size="11" lengthAdjust="spacing" textLength="28" x="195" y="113.3745">false</text><polygon fill="#FEFECE" filter="url(#f1gi6r90x867m7)" points="107.5,275.3086,119.5,287.3086,107.5,299.3086,95.5,287.3086,107.5,275.3086" style="stroke:#A80036;stroke-width:1.5;"/><ellipse cx="107.5" cy="330.3086" fill="#FFFFFF" filter="url(#f1gi6r90x867m7)" rx="11" ry="11" style="stroke:#000000;stroke-width:1.0;"/><ellipse cx="107.5" cy="330.3086" fill="#000000" rx="6" ry="6" style="stroke:#7F7F7F;stroke-width:1.0;"/><line style="stroke:#A80036;stroke-width:1.5;" x1="107.5" x2="107.5" y1="30" y2="50"/><polygon fill="#A80036" points="103.5,40,107.5,50,111.5,40,107.5,44" style="stroke:#A80036;stroke-width:1.0;"/><line style="stroke:#A80036;stroke-width:1.5;" x1="107.5" x2="107.5" y1="186.3398" y2="221.3398"/><polygon fill="#A80036" points="103.5,211.3398,107.5,221.3398,111.5,211.3398,107.5,215.3398" style="stroke:#A80036;stroke-width:1.0;"/><line style="stroke:#A80036;stroke-width:1.5;" x1="107.5" x2="107.5" y1="127.9688" y2="152.3711"/><polygon fill="#A80036" points="103.5,142.3711,107.5,152.3711,111.5,142.3711,107.5,146.3711" style="stroke:#A80036;stroke-width:1.0;"/><line style="stroke:#A80036;stroke-width:1.5;" x1="195" x2="207" y1="115.9688" y2="115.9688"/><polygon fill="#A80036" points="203,193.8398,207,203.8398,211,193.8398,207,197.8398" style="stroke:#A80036;stroke-width:1.5;"/><line style="stroke:#A80036;stroke-width:1.5;" x1="207" x2="207" y1="115.9688" y2="287.3086"/><line style="stroke:#A80036;stroke-width:1.5;" x1="207" x2="119.5" y1="287.3086" y2="287.3086"/><polygon fill="#A80036" points="129.5,283.3086,119.5,287.3086,129.5,291.3086,125.5,287.3086" style="stroke:#A80036;stroke-width:1.0;"/><line style="stroke:#A80036;stroke-width:1.5;" x1="107.5" x2="107.5" y1="255.3086" y2="275.3086"/><polygon fill="#A80036" points="103.5,265.3086,107.5,275.3086,111.5,265.3086,107.5,269.3086" style="stroke:#A80036;stroke-width:1.0;"/><line style="stroke:#A80036;stroke-width:1.5;" x1="107.5" x2="107.5" y1="83.9688" y2="103.9688"/><polygon fill="#A80036" points="103.5,93.9688,107.5,103.9688,111.5,93.9688,107.5,97.9688" style="stroke:#A80036;stroke-width:1.0;"/><line style="stroke:#A80036;stroke-width:1.5;" x1="107.5" x2="107.5" y1="299.3086" y2="319.3086"/><polygon fill="#A80036" points="103.5,309.3086,107.5,319.3086,111.5,309.3086,107.5,313.3086" style="stroke:#A80036;stroke-width:1.0;"/><!--MD5=[cba8557eb334f3c25d773b8aabbf7054]
@startuml
' 
' (*) - -> start(): void

' if "getConfigState()" then
'   - ->[true] ===B1===
'   - ->"show(): boolean" as show
' else
'   - ->[false] (*)
' endif

' ===B1=== - -> "tutorial()"

' show - -> if "" then
'     - ->[true] (*)
' else
'     - ->[false] setConfigState(false)
'     - -> (*)
' 


start
:start() : void;
if (getConfigState() : boolean) then (true)
    :show() : boolean;
    :tutorial() : void;
else (false)
endif
stop
@enduml

@startuml





start
:start() : void;
if (getConfigState() : boolean) then (true)
    :show() : boolean;
    :tutorial() : void;
else (false)
endif
stop
@enduml

PlantUML version 1.2021.16beta3(Unknown compile time)
(GPL source distribution)
Java Runtime: Java(TM) SE Runtime Environment
JVM: Java HotSpot(TM) 64-Bit Server VM
Default Encoding: UTF-8
Language: en
Country: US
--></g></svg>