<?xml version="1.0" encoding="UTF-8" standalone="no"?><svg xmlns="http://www.w3.org/2000/svg" xmlns:xlink="http://www.w3.org/1999/xlink" contentScriptType="application/ecmascript" contentStyleType="text/css" height="956px" preserveAspectRatio="none" style="width:1058px;height:956px;background:#FFFFFF;" version="1.1" viewBox="0 0 1058 956" width="1058px" zoomAndPan="magnify"><defs><filter height="300%" id="f1ju32zyt98kqn" width="300%" x="-1" y="-1"><feGaussianBlur result="blurOut" stdDeviation="2.0"/><feColorMatrix in="blurOut" result="blurOut2" type="matrix" values="0 0 0 0 0 0 0 0 0 0 0 0 0 0 0 0 0 0 .4 0"/><feOffset dx="4.0" dy="4.0" in="blurOut2" result="blurOut3"/><feBlend in="SourceGraphic" in2="blurOut3" mode="normal"/></filter></defs><g><text fill="#000000" font-family="sans-serif" font-size="18" lengthAdjust="spacing" textLength="370" x="337.5" y="16.708">github.weichware10.toolbox.zoommaps</text><!--MD5=[27c5fd51fd120b37c4c5096b83741b7d]
cluster github.weichware10.toolbox.zoommaps--><polygon fill="#FFFFFF" filter="url(#f1ju32zyt98kqn)" points="186,26.9531,515,26.9531,522,49.25,1041,49.25,1041,949.9531,186,949.9531,186,26.9531" style="stroke:#000000;stroke-width:1.5;"/><line style="stroke:#000000;stroke-width:1.5;" x1="186" x2="522" y1="49.25" y2="49.25"/><text fill="#000000" font-family="sans-serif" font-size="14" font-weight="bold" lengthAdjust="spacing" textLength="323" x="190" y="41.9482">github.weichware10.toolbox.zoommaps</text><!--MD5=[96f992b3ed81aebe7ebea21450f0a309]
cluster javafx.event--><polygon fill="#FFFFFF" filter="url(#f1ju32zyt98kqn)" points="16,812.4531,122,812.4531,129,834.75,162,834.75,162,911.4531,16,911.4531,16,812.4531" style="stroke:#000000;stroke-width:1.5;"/><line style="stroke:#000000;stroke-width:1.5;" x1="16" x2="129" y1="834.75" y2="834.75"/><text fill="#000000" font-family="sans-serif" font-size="14" font-weight="bold" lengthAdjust="spacing" textLength="100" x="20" y="827.4482">javafx.event</text><!--MD5=[dc04f22c312a41271d529d1ee3da4bde]
class github.weichware10.toolbox.zoommaps.ZoomCalculator--><rect codeLine="6" fill="#FEFECE" filter="url(#f1ju32zyt98kqn)" height="163.2422" id="github.weichware10.toolbox.zoommaps.ZoomCalculator" style="stroke:#A80036;stroke-width:1.5;" width="531" x="347.5" y="585.9531"/><ellipse cx="561.25" cy="601.9531" fill="#ADD1B2" rx="11" ry="11" style="stroke:#A80036;stroke-width:1.0;"/><path d="M563.5938,597.625 C562.6563,597.1875 562.0625,597.0469 561.1875,597.0469 C558.5625,597.0469 556.5625,599.125 556.5625,601.8438 L556.5625,602.9688 C556.5625,605.5469 558.6719,607.4375 561.5625,607.4375 C562.7813,607.4375 563.9375,607.1406 564.6875,606.5938 C565.2656,606.1875 565.5938,605.7344 565.5938,605.3438 C565.5938,604.8906 565.2031,604.5 564.7344,604.5 C564.5156,604.5 564.3125,604.5781 564.125,604.7656 C563.6719,605.25 563.6719,605.25 563.4844,605.3438 C563.0625,605.6094 562.375,605.7344 561.6094,605.7344 C559.5625,605.7344 558.2656,604.6406 558.2656,602.9375 L558.2656,601.8438 C558.2656,600.0625 559.5156,598.75 561.25,598.75 C561.8281,598.75 562.4375,598.9063 562.9063,599.1563 C563.3906,599.4375 563.5625,599.6563 563.6563,600.0625 C563.7188,600.4688 563.75,600.5938 563.8906,600.7188 C564.0313,600.8594 564.2656,600.9688 564.4844,600.9688 C564.75,600.9688 565.0156,600.8281 565.1875,600.6094 C565.2969,600.4531 565.3281,600.2656 565.3281,599.8438 L565.3281,598.4219 C565.3281,597.9844 565.3125,597.8594 565.2188,597.7031 C565.0625,597.4375 564.7813,597.2969 564.4844,597.2969 C564.1875,597.2969 563.9844,597.3906 563.7656,597.7031 L563.5938,597.625 Z " fill="#000000"/><text fill="#000000" font-family="sans-serif" font-size="12" lengthAdjust="spacing" textLength="95" x="581.75" y="606.1074">ZoomCalculator</text><line style="stroke:#A80036;stroke-width:1.5;" x1="348.5" x2="877.5" y1="617.9531" y2="617.9531"/><rect fill="none" height="6" style="stroke:#C82930;stroke-width:1.0;" width="6" x="355.5" y="625.9531"/><text fill="#000000" font-family="sans-serif" font-size="11" lengthAdjust="spacing" textLength="79" x="367.5" y="632.1636">double speed</text><rect fill="none" height="6" style="stroke:#C82930;stroke-width:1.0;" width="6" x="355.5" y="638.7578"/><text fill="#000000" font-family="sans-serif" font-size="11" lengthAdjust="spacing" textLength="80" x="367.5" y="644.9683">TrialData data</text><polygon fill="none" points="358.5,650.5625,354.5,656.5625,362.5,656.5625" style="stroke:#1963A0;stroke-width:1.0;"/><text fill="#000000" font-family="sans-serif" font-size="11" lengthAdjust="spacing" textLength="140" x="367.5" y="657.7729">ConfigClient configClient</text><polygon fill="none" points="358.5,663.3672,354.5,669.3672,362.5,669.3672" style="stroke:#1963A0;stroke-width:1.0;"/><text fill="#000000" font-family="sans-serif" font-size="11" lengthAdjust="spacing" textLength="174" x="367.5" y="670.5776">ZoomMapsController controller</text><polygon fill="none" points="358.5,676.1719,354.5,682.1719,362.5,682.1719" style="stroke:#1963A0;stroke-width:1.0;"/><text fill="#000000" font-family="sans-serif" font-size="11" lengthAdjust="spacing" textLength="141" x="367.5" y="683.3823">ZoomImage zoomImage</text><polygon fill="none" points="358.5,688.9766,354.5,694.9766,362.5,694.9766" style="stroke:#1963A0;stroke-width:1.0;"/><text fill="#000000" font-family="sans-serif" font-size="11" lengthAdjust="spacing" textLength="86" x="367.5" y="696.187">String question</text><polygon fill="none" points="358.5,701.7813,354.5,707.7813,362.5,707.7813" style="stroke:#1963A0;stroke-width:1.0;"/><text fill="#000000" font-family="sans-serif" font-size="11" lengthAdjust="spacing" textLength="88" x="367.5" y="708.9917">String imageUrl</text><line style="stroke:#A80036;stroke-width:1.5;" x1="348.5" x2="877.5" y1="715.5859" y2="715.5859"/><ellipse cx="358.5" cy="726.5859" fill="#84BE84" rx="3" ry="3" style="stroke:#038048;stroke-width:1.0;"/><text fill="#000000" font-family="sans-serif" font-size="11" lengthAdjust="spacing" textLength="505" x="367.5" y="729.7964">ZoomCalculator(TrialData data, ConfigClient configClient, ZoomMapsController controller)</text><ellipse cx="358.5" cy="739.3906" fill="#84BE84" rx="3" ry="3" style="stroke:#038048;stroke-width:1.0;"/><text fill="#000000" font-family="sans-serif" font-size="11" lengthAdjust="spacing" textLength="249" x="367.5" y="742.6011">void processInput(Point2D raw, int direction)</text><!--MD5=[d15248ea9e74d460f6e6640ac2627d5f]
class github.weichware10.toolbox.zoommaps.ZoomImage--><rect codeLine="23" fill="#FEFECE" filter="url(#f1ju32zyt98kqn)" height="124.8281" id="github.weichware10.toolbox.zoommaps.ZoomImage" style="stroke:#A80036;stroke-width:1.5;" width="511" x="513.5" y="808.9531"/><ellipse cx="728.25" cy="824.9531" fill="#ADD1B2" rx="11" ry="11" style="stroke:#A80036;stroke-width:1.0;"/><path d="M730.5938,820.625 C729.6563,820.1875 729.0625,820.0469 728.1875,820.0469 C725.5625,820.0469 723.5625,822.125 723.5625,824.8438 L723.5625,825.9688 C723.5625,828.5469 725.6719,830.4375 728.5625,830.4375 C729.7813,830.4375 730.9375,830.1406 731.6875,829.5938 C732.2656,829.1875 732.5938,828.7344 732.5938,828.3438 C732.5938,827.8906 732.2031,827.5 731.7344,827.5 C731.5156,827.5 731.3125,827.5781 731.125,827.7656 C730.6719,828.25 730.6719,828.25 730.4844,828.3438 C730.0625,828.6094 729.375,828.7344 728.6094,828.7344 C726.5625,828.7344 725.2656,827.6406 725.2656,825.9375 L725.2656,824.8438 C725.2656,823.0625 726.5156,821.75 728.25,821.75 C728.8281,821.75 729.4375,821.9063 729.9063,822.1563 C730.3906,822.4375 730.5625,822.6563 730.6563,823.0625 C730.7188,823.4688 730.75,823.5938 730.8906,823.7188 C731.0313,823.8594 731.2656,823.9688 731.4844,823.9688 C731.75,823.9688 732.0156,823.8281 732.1875,823.6094 C732.2969,823.4531 732.3281,823.2656 732.3281,822.8438 L732.3281,821.4219 C732.3281,820.9844 732.3125,820.8594 732.2188,820.7031 C732.0625,820.4375 731.7813,820.2969 731.4844,820.2969 C731.1875,820.2969 730.9844,820.3906 730.7656,820.7031 L730.5938,820.625 Z " fill="#000000"/><text fill="#000000" font-family="sans-serif" font-size="12" lengthAdjust="spacing" textLength="73" x="748.75" y="829.1074">ZoomImage</text><line style="stroke:#A80036;stroke-width:1.5;" x1="514.5" x2="1023.5" y1="840.9531" y2="840.9531"/><ellipse cx="524.5" cy="851.9531" rx="3" ry="3" style="stroke:#038048;stroke-width:1.0;fill:none;"/><text fill="#000000" font-family="sans-serif" font-size="11" lengthAdjust="spacing" textLength="113" x="533.5" y="855.1636">double[] imageSize</text><rect fill="none" height="6" style="stroke:#C82930;stroke-width:1.0;" width="6" x="521.5" y="861.7578"/><text fill="#000000" font-family="sans-serif" font-size="11" lengthAdjust="spacing" textLength="132" x="533.5" y="867.9683">ImageView imageView</text><line style="stroke:#A80036;stroke-width:1.5;" x1="514.5" x2="1023.5" y1="874.5625" y2="874.5625"/><ellipse cx="524.5" cy="885.5625" fill="#84BE84" rx="3" ry="3" style="stroke:#038048;stroke-width:1.0;"/><text fill="#000000" font-family="sans-serif" font-size="11" lengthAdjust="spacing" textLength="485" x="533.5" y="888.7729">ZoomImage(String location, ImageView imageView, ZoomCalculator zoomCalculator)</text><ellipse cx="524.5" cy="898.3672" fill="#84BE84" rx="3" ry="3" style="stroke:#038048;stroke-width:1.0;"/><text fill="#000000" font-family="sans-serif" font-size="11" lengthAdjust="spacing" textLength="357" x="533.5" y="901.5776">Point2D getImageCoordinates(Point2D imageViewCoordinates)</text><polygon fill="#FFFF44" points="524.5,906.1719,528.5,910.1719,524.5,914.1719,520.5,910.1719" style="stroke:#B38D22;stroke-width:1.0;"/><text fill="#000000" font-family="sans-serif" font-size="11" lengthAdjust="spacing" textLength="295" x="533.5" y="914.3823">Rectangle2D move(Point2D position, double speed)</text><rect fill="#F24D5C" height="6" style="stroke:#C82930;stroke-width:1.0;" width="6" x="521.5" y="920.9766"/><text fill="#000000" font-family="sans-serif" font-size="11" lengthAdjust="spacing" textLength="306" x="533.5" y="927.187">double clamp(double value, double min, double max)</text><!--MD5=[16a53f222c85de587b9fa16f1fb6a686]
class github.weichware10.toolbox.zoommaps.ZoomInput--><rect codeLine="37" fill="#FEFECE" filter="url(#f1ju32zyt98kqn)" height="112.0234" id="github.weichware10.toolbox.zoommaps.ZoomInput" style="stroke:#A80036;stroke-width:1.5;" width="276" x="202" y="815.4531"/><ellipse cx="303.25" cy="831.4531" fill="#ADD1B2" rx="11" ry="11" style="stroke:#A80036;stroke-width:1.0;"/><path d="M305.5938,827.125 C304.6563,826.6875 304.0625,826.5469 303.1875,826.5469 C300.5625,826.5469 298.5625,828.625 298.5625,831.3438 L298.5625,832.4688 C298.5625,835.0469 300.6719,836.9375 303.5625,836.9375 C304.7813,836.9375 305.9375,836.6406 306.6875,836.0938 C307.2656,835.6875 307.5938,835.2344 307.5938,834.8438 C307.5938,834.3906 307.2031,834 306.7344,834 C306.5156,834 306.3125,834.0781 306.125,834.2656 C305.6719,834.75 305.6719,834.75 305.4844,834.8438 C305.0625,835.1094 304.375,835.2344 303.6094,835.2344 C301.5625,835.2344 300.2656,834.1406 300.2656,832.4375 L300.2656,831.3438 C300.2656,829.5625 301.5156,828.25 303.25,828.25 C303.8281,828.25 304.4375,828.4063 304.9063,828.6563 C305.3906,828.9375 305.5625,829.1563 305.6563,829.5625 C305.7188,829.9688 305.75,830.0938 305.8906,830.2188 C306.0313,830.3594 306.2656,830.4688 306.4844,830.4688 C306.75,830.4688 307.0156,830.3281 307.1875,830.1094 C307.2969,829.9531 307.3281,829.7656 307.3281,829.3438 L307.3281,827.9219 C307.3281,827.4844 307.3125,827.3594 307.2188,827.2031 C307.0625,826.9375 306.7813,826.7969 306.4844,826.7969 C306.1875,826.7969 305.9844,826.8906 305.7656,827.2031 L305.5938,827.125 Z " fill="#000000"/><text fill="#000000" font-family="sans-serif" font-size="12" lengthAdjust="spacing" textLength="65" x="323.75" y="835.6074">ZoomInput</text><line style="stroke:#A80036;stroke-width:1.5;" x1="203" x2="477" y1="847.4531" y2="847.4531"/><polygon fill="none" points="213,854.4531,209,860.4531,217,860.4531" style="stroke:#1963A0;stroke-width:1.0;"/><text fill="#000000" font-family="sans-serif" font-size="11" lengthAdjust="spacing" textLength="181" x="222" y="861.6636">ZoomCalculator zoomCalculator</text><line style="stroke:#A80036;stroke-width:1.5;" x1="203" x2="477" y1="868.2578" y2="868.2578"/><ellipse cx="213" cy="879.2578" fill="#84BE84" rx="3" ry="3" style="stroke:#038048;stroke-width:1.0;"/><text fill="#000000" font-family="sans-serif" font-size="11" lengthAdjust="spacing" textLength="250" x="222" y="882.4683">ZoomInput(ZoomCalculator zoomCalculator)</text><ellipse cx="213" cy="892.0625" fill="#84BE84" rx="3" ry="3" style="stroke:#038048;stroke-width:1.0;"/><text fill="#000000" font-family="sans-serif" font-size="11" lengthAdjust="spacing" textLength="174" x="222" y="895.2729">void handle(InputEvent event)</text><rect fill="#F24D5C" height="6" style="stroke:#C82930;stroke-width:1.0;" width="6" x="210" y="901.8672"/><text fill="#000000" font-family="sans-serif" font-size="11" lengthAdjust="spacing" textLength="247" x="222" y="908.0776">void handleClick(MouseEvent mouseEvent)</text><ellipse cx="213" cy="917.6719" fill="#84BE84" rx="3" ry="3" style="stroke:#038048;stroke-width:1.0;"/><text fill="#000000" font-family="sans-serif" font-size="11" lengthAdjust="spacing" textLength="236" x="222" y="920.8823">void handleScroll(ScrollEvent scrollEvent)</text><!--MD5=[0b09c3366dfa4c646a574ea68bfde894]
class github.weichware10.toolbox.zoommaps.ZoomMaps--><rect codeLine="50" fill="#FEFECE" filter="url(#f1ju32zyt98kqn)" height="137.6328" id="github.weichware10.toolbox.zoommaps.ZoomMaps" style="stroke:#A80036;stroke-width:1.5;" width="545" x="340.5" y="61.9531"/><ellipse cx="574.75" cy="77.9531" fill="#ADD1B2" rx="11" ry="11" style="stroke:#A80036;stroke-width:1.0;"/><path d="M577.0938,73.625 C576.1563,73.1875 575.5625,73.0469 574.6875,73.0469 C572.0625,73.0469 570.0625,75.125 570.0625,77.8438 L570.0625,78.9688 C570.0625,81.5469 572.1719,83.4375 575.0625,83.4375 C576.2813,83.4375 577.4375,83.1406 578.1875,82.5938 C578.7656,82.1875 579.0938,81.7344 579.0938,81.3438 C579.0938,80.8906 578.7031,80.5 578.2344,80.5 C578.0156,80.5 577.8125,80.5781 577.625,80.7656 C577.1719,81.25 577.1719,81.25 576.9844,81.3438 C576.5625,81.6094 575.875,81.7344 575.1094,81.7344 C573.0625,81.7344 571.7656,80.6406 571.7656,78.9375 L571.7656,77.8438 C571.7656,76.0625 573.0156,74.75 574.75,74.75 C575.3281,74.75 575.9375,74.9063 576.4063,75.1563 C576.8906,75.4375 577.0625,75.6563 577.1563,76.0625 C577.2188,76.4688 577.25,76.5938 577.3906,76.7188 C577.5313,76.8594 577.7656,76.9688 577.9844,76.9688 C578.25,76.9688 578.5156,76.8281 578.6875,76.6094 C578.7969,76.4531 578.8281,76.2656 578.8281,75.8438 L578.8281,74.4219 C578.8281,73.9844 578.8125,73.8594 578.7188,73.7031 C578.5625,73.4375 578.2813,73.2969 577.9844,73.2969 C577.6875,73.2969 577.4844,73.3906 577.2656,73.7031 L577.0938,73.625 Z " fill="#000000"/><text fill="#000000" font-family="sans-serif" font-size="12" lengthAdjust="spacing" textLength="68" x="595.25" y="82.1074">ZoomMaps</text><line style="stroke:#A80036;stroke-width:1.5;" x1="341.5" x2="884.5" y1="93.9531" y2="93.9531"/><rect fill="none" height="6" style="stroke:#C82930;stroke-width:1.0;" width="6" x="348.5" y="101.9531"/><text fill="#000000" font-family="sans-serif" font-size="11" lengthAdjust="spacing" textLength="115" x="360.5" y="108.1636">Stage primaryStage</text><rect fill="none" height="6" style="stroke:#C82930;stroke-width:1.0;" width="6" x="348.5" y="114.7578"/><text fill="#000000" font-family="sans-serif" font-size="11" lengthAdjust="spacing" textLength="180" x="360.5" y="120.9683">DataBaseClient dataBaseClient</text><rect fill="none" height="6" style="stroke:#C82930;stroke-width:1.0;" width="6" x="348.5" y="127.5625"/><text fill="#000000" font-family="sans-serif" font-size="11" lengthAdjust="spacing" textLength="103" x="360.5" y="133.7729">TrialData trialData</text><rect fill="none" height="6" style="stroke:#C82930;stroke-width:1.0;" width="6" x="348.5" y="140.3672"/><text fill="#000000" font-family="sans-serif" font-size="11" lengthAdjust="spacing" textLength="140" x="360.5" y="146.5776">ConfigClient configClient</text><polygon fill="none" points="351.5,152.1719,347.5,158.1719,355.5,158.1719" style="stroke:#1963A0;stroke-width:1.0;"/><text fill="#000000" font-family="sans-serif" font-size="11" lengthAdjust="spacing" textLength="174" x="360.5" y="159.3823">ZoomMapsController controller</text><line style="stroke:#A80036;stroke-width:1.5;" x1="341.5" x2="884.5" y1="165.9766" y2="165.9766"/><ellipse cx="351.5" cy="176.9766" fill="#84BE84" rx="3" ry="3" style="stroke:#038048;stroke-width:1.0;"/><text fill="#000000" font-family="sans-serif" font-size="11" lengthAdjust="spacing" textLength="519" x="360.5" y="180.187">ZoomMaps(Stage primaryStage, ConfigClient configClient, DataBaseClient dataBaseClient)</text><ellipse cx="351.5" cy="189.7813" fill="#84BE84" rx="3" ry="3" style="stroke:#038048;stroke-width:1.0;"/><text fill="#000000" font-family="sans-serif" font-size="11" lengthAdjust="spacing" textLength="161" x="360.5" y="192.9917">void endTest(String answer)</text><!--MD5=[c0a30215f830456bdd1728d86ddc7104]
class github.weichware10.toolbox.zoommaps.ZoomMapsController--><rect codeLine="65" fill="#FEFECE" filter="url(#f1ju32zyt98kqn)" height="265.6797" id="github.weichware10.toolbox.zoommaps.ZoomMapsController" style="stroke:#A80036;stroke-width:1.5;" width="329" x="448.5" y="259.9531"/><ellipse cx="545.25" cy="275.9531" fill="#ADD1B2" rx="11" ry="11" style="stroke:#A80036;stroke-width:1.0;"/><path d="M547.5938,271.625 C546.6563,271.1875 546.0625,271.0469 545.1875,271.0469 C542.5625,271.0469 540.5625,273.125 540.5625,275.8438 L540.5625,276.9688 C540.5625,279.5469 542.6719,281.4375 545.5625,281.4375 C546.7813,281.4375 547.9375,281.1406 548.6875,280.5938 C549.2656,280.1875 549.5938,279.7344 549.5938,279.3438 C549.5938,278.8906 549.2031,278.5 548.7344,278.5 C548.5156,278.5 548.3125,278.5781 548.125,278.7656 C547.6719,279.25 547.6719,279.25 547.4844,279.3438 C547.0625,279.6094 546.375,279.7344 545.6094,279.7344 C543.5625,279.7344 542.2656,278.6406 542.2656,276.9375 L542.2656,275.8438 C542.2656,274.0625 543.5156,272.75 545.25,272.75 C545.8281,272.75 546.4375,272.9063 546.9063,273.1563 C547.3906,273.4375 547.5625,273.6563 547.6563,274.0625 C547.7188,274.4688 547.75,274.5938 547.8906,274.7188 C548.0313,274.8594 548.2656,274.9688 548.4844,274.9688 C548.75,274.9688 549.0156,274.8281 549.1875,274.6094 C549.2969,274.4531 549.3281,274.2656 549.3281,273.8438 L549.3281,272.4219 C549.3281,271.9844 549.3125,271.8594 549.2188,271.7031 C549.0625,271.4375 548.7813,271.2969 548.4844,271.2969 C548.1875,271.2969 547.9844,271.3906 547.7656,271.7031 L547.5938,271.625 Z " fill="#000000"/><text fill="#000000" font-family="sans-serif" font-size="12" lengthAdjust="spacing" textLength="127" x="565.75" y="280.1074">ZoomMapsController</text><line style="stroke:#A80036;stroke-width:1.5;" x1="449.5" x2="776.5" y1="291.9531" y2="291.9531"/><rect fill="none" height="6" style="stroke:#C82930;stroke-width:1.0;" width="6" x="456.5" y="299.9531"/><text fill="#000000" font-family="sans-serif" font-size="11" lengthAdjust="spacing" textLength="153" x="468.5" y="306.1636">ResourceBundle resources</text><rect fill="none" height="6" style="stroke:#C82930;stroke-width:1.0;" width="6" x="456.5" y="312.7578"/><text fill="#000000" font-family="sans-serif" font-size="11" lengthAdjust="spacing" textLength="69" x="468.5" y="318.9683">URL location</text><rect fill="none" height="6" style="stroke:#C82930;stroke-width:1.0;" width="6" x="456.5" y="325.5625"/><text fill="#000000" font-family="sans-serif" font-size="11" lengthAdjust="spacing" textLength="125" x="468.5" y="331.7729">TextField answerField</text><rect fill="none" height="6" style="stroke:#C82930;stroke-width:1.0;" width="6" x="456.5" y="338.3672"/><text fill="#000000" font-family="sans-serif" font-size="11" lengthAdjust="spacing" textLength="132" x="468.5" y="344.5776">ImageView imageView</text><rect fill="none" height="6" style="stroke:#C82930;stroke-width:1.0;" width="6" x="456.5" y="351.1719"/><text fill="#000000" font-family="sans-serif" font-size="11" lengthAdjust="spacing" textLength="115" x="468.5" y="357.3823">Label questionLabel</text><rect fill="none" height="6" style="stroke:#C82930;stroke-width:1.0;" width="6" x="456.5" y="363.9766"/><text fill="#000000" font-family="sans-serif" font-size="11" lengthAdjust="spacing" textLength="116" x="468.5" y="370.187">Button submitButton</text><rect fill="none" height="6" style="stroke:#C82930;stroke-width:1.0;" width="6" x="456.5" y="376.7813"/><text fill="#000000" font-family="sans-serif" font-size="11" lengthAdjust="spacing" textLength="83" x="468.5" y="382.9917">Text warnText</text><rect fill="none" height="6" style="stroke:#C82930;stroke-width:1.0;" width="6" x="456.5" y="389.5859"/><text fill="#000000" font-family="sans-serif" font-size="11" lengthAdjust="spacing" textLength="127" x="468.5" y="395.7964">ZoomMaps zoomMaps</text><line style="stroke:#A80036;stroke-width:1.5;" x1="449.5" x2="776.5" y1="402.3906" y2="402.3906"/><ellipse cx="459.5" cy="413.3906" fill="#84BE84" rx="3" ry="3" style="stroke:#038048;stroke-width:1.0;"/><text fill="#000000" font-family="sans-serif" font-size="11" lengthAdjust="spacing" textLength="159" x="468.5" y="416.6011">ImageView getImageView()</text><ellipse cx="459.5" cy="426.1953" fill="#84BE84" rx="3" ry="3" style="stroke:#038048;stroke-width:1.0;"/><text fill="#000000" font-family="sans-serif" font-size="11" lengthAdjust="spacing" textLength="303" x="468.5" y="429.4058">void setImageViewSize(double width, double height)</text><ellipse cx="459.5" cy="439" fill="#84BE84" rx="3" ry="3" style="stroke:#038048;stroke-width:1.0;"/><text fill="#000000" font-family="sans-serif" font-size="11" lengthAdjust="spacing" textLength="166" x="468.5" y="442.2104">void setImage(Image image)</text><ellipse cx="459.5" cy="451.8047" fill="#84BE84" rx="3" ry="3" style="stroke:#038048;stroke-width:1.0;"/><text fill="#000000" font-family="sans-serif" font-size="11" lengthAdjust="spacing" textLength="191" x="468.5" y="455.0151">void setQuestion(String question)</text><ellipse cx="459.5" cy="464.6094" fill="#84BE84" rx="3" ry="3" style="stroke:#038048;stroke-width:1.0;"/><text fill="#000000" font-family="sans-serif" font-size="11" lengthAdjust="spacing" textLength="243" x="468.5" y="467.8198">void setZoomMaps(ZoomMaps zoomMaps)</text><ellipse cx="459.5" cy="477.4141" fill="#84BE84" rx="3" ry="3" style="stroke:#038048;stroke-width:1.0;"/><text fill="#000000" font-family="sans-serif" font-size="11" lengthAdjust="spacing" textLength="147" x="468.5" y="480.6245">void setWarn(String warn)</text><polygon fill="#4177AF" points="459.5,486.2188,455.5,492.2188,463.5,492.2188" style="stroke:#1963A0;stroke-width:1.0;"/><text fill="#000000" font-family="sans-serif" font-size="11" lengthAdjust="spacing" textLength="222" x="468.5" y="493.4292">void endTestOnEnter(KeyEvent event)</text><polygon fill="#4177AF" points="459.5,499.0234,455.5,505.0234,463.5,505.0234" style="stroke:#1963A0;stroke-width:1.0;"/><text fill="#000000" font-family="sans-serif" font-size="11" lengthAdjust="spacing" textLength="83" x="468.5" y="506.2339">void endTest()</text><polygon fill="#4177AF" points="459.5,511.8281,455.5,517.8281,463.5,517.8281" style="stroke:#1963A0;stroke-width:1.0;"/><text fill="#000000" font-family="sans-serif" font-size="11" lengthAdjust="spacing" textLength="84" x="468.5" y="519.0386">void initialize()</text><!--MD5=[f945d8e8897be8354a283c66b6f89094]
class javafx.event.EventHandler--><rect codeLine="99" fill="#FEFECE" filter="url(#f1ju32zyt98kqn)" height="48" id="javafx.event.EventHandler" style="stroke:#A80036;stroke-width:1.5;" width="114" x="32" y="847.4531"/><ellipse cx="47" cy="863.4531" fill="#B4A7E5" rx="11" ry="11" style="stroke:#A80036;stroke-width:1.0;"/><path d="M47.9531,860.2344 L49.6719,860.2344 C50.0625,860.2344 50.25,860.2031 50.375,860.125 C50.6406,859.9688 50.7813,859.6875 50.7813,859.3906 C50.7813,859.125 50.6719,858.8594 50.4375,858.6875 C50.2656,858.5781 50.125,858.5469 49.6719,858.5469 L44.5313,858.5469 C44.0938,858.5469 43.9688,858.5625 43.8125,858.6563 C43.5625,858.8125 43.4063,859.1094 43.4063,859.3906 C43.4063,859.6719 43.5469,859.9219 43.7656,860.0938 C43.9219,860.2031 44.1094,860.2344 44.5313,860.2344 L46.25,860.2344 L46.25,866.75 L44.5313,866.75 C44.0938,866.75 43.9688,866.7656 43.8125,866.875 C43.5625,867.0313 43.4063,867.3125 43.4063,867.6094 C43.4063,867.8594 43.5469,868.125 43.7656,868.2813 C43.9219,868.4063 44.125,868.4531 44.5313,868.4531 L49.6719,868.4531 C50.4219,868.4531 50.7813,868.1719 50.7813,867.6094 C50.7813,867.3281 50.6719,867.0781 50.4375,866.9063 C50.2656,866.7813 50.125,866.75 49.6719,866.75 L47.9531,866.75 L47.9531,860.2344 Z " fill="#000000"/><text fill="#000000" font-family="sans-serif" font-size="12" font-style="italic" lengthAdjust="spacing" textLength="82" x="61" y="867.6074">EventHandler</text><line style="stroke:#A80036;stroke-width:1.5;" x1="33" x2="145" y1="879.4531" y2="879.4531"/><line style="stroke:#A80036;stroke-width:1.5;" x1="33" x2="145" y1="887.4531" y2="887.4531"/><!--MD5=[2597319564578cfc381341c5a4445335]
link github.weichware10.toolbox.zoommaps.ZoomMapsController to github.weichware10.toolbox.zoommaps.ZoomCalculator--><path codeLine="93" d="M613,526.2121 C613,541.7851 613,557.4281 613,572.3261 " fill="none" id="github.weichware10.toolbox.zoommaps.ZoomMapsController-to-github.weichware10.toolbox.zoommaps.ZoomCalculator" style="stroke:#A80036;stroke-width:1.0;"/><polygon fill="#FFFFFF" points="613,585.7741,617,579.7741,613,573.7741,609,579.7741,613,585.7741" style="stroke:#A80036;stroke-width:1.0;"/><!--MD5=[b466b9f098f53959bfce3509218089cd]
reverse link github.weichware10.toolbox.zoommaps.ZoomCalculator to github.weichware10.toolbox.zoommaps.ZoomImage--><path codeLine="94" d="M683.311,759.4961 C696.211,776.2001 709.394,793.2711 721.431,808.8571 " fill="none" id="github.weichware10.toolbox.zoommaps.ZoomCalculator-backto-github.weichware10.toolbox.zoommaps.ZoomImage" style="stroke:#A80036;stroke-width:1.0;"/><polygon fill="#FFFFFF" points="675.328,749.1601,675.8302,756.3537,682.6636,758.6569,682.1614,751.4633,675.328,749.1601" style="stroke:#A80036;stroke-width:1.0;"/><!--MD5=[51f42ab4564f34a2ec026c3ca31f3206]
link github.weichware10.toolbox.zoommaps.ZoomCalculator to github.weichware10.toolbox.zoommaps.ZoomInput--><path codeLine="95" d="M503.926,749.1601 C477.676,768.5831 450.014,789.0511 425.043,807.5271 " fill="none" id="github.weichware10.toolbox.zoommaps.ZoomCalculator-to-github.weichware10.toolbox.zoommaps.ZoomInput" style="stroke:#A80036;stroke-width:1.0;"/><polygon fill="#FFFFFF" points="414.518,815.3151,421.7204,814.9615,424.1642,808.1771,416.9617,808.5307,414.518,815.3151" style="stroke:#A80036;stroke-width:1.0;"/><!--MD5=[96f348173f101ffcfccd3842913d1ba4]
reverse link github.weichware10.toolbox.zoommaps.ZoomMaps to github.weichware10.toolbox.zoommaps.ZoomMapsController--><path codeLine="96" d="M613,213.5521 C613,228.3491 613,244.1211 613,259.9331 " fill="none" id="github.weichware10.toolbox.zoommaps.ZoomMaps-backto-github.weichware10.toolbox.zoommaps.ZoomMapsController" style="stroke:#A80036;stroke-width:1.0;"/><polygon fill="#FFFFFF" points="613,200.2651,609,206.2651,613,212.2651,617,206.2651,613,200.2651" style="stroke:#A80036;stroke-width:1.0;"/><!--MD5=[39b033f6cbcc5bff71b0f45c76af717d]
reverse link javafx.event.EventHandler to github.weichware10.toolbox.zoommaps.ZoomInput--><path codeLine="100" d="M166.772,871.4531 C178.499,871.4531 190.227,871.4531 201.954,871.4531 " fill="none" id="javafx.event.EventHandler-backto-github.weichware10.toolbox.zoommaps.ZoomInput" style="stroke:#A80036;stroke-width:1.0;stroke-dasharray:7.0,7.0;"/><polygon fill="none" points="166.357,878.453,146.357,871.4531,166.357,864.4531,166.357,878.453" style="stroke:#A80036;stroke-width:1.0;"/><!--MD5=[89e5f19a78417a0953144bf28f3d8661]
@startuml
title github.weichware10.toolbox.zoommaps

package github.weichware10.toolbox.zoommaps {

    ' -=- classes (github.weichware10.toolbox.zoommaps) -=-
    class github.weichware10.toolbox.zoommaps.ZoomCalculator {
        ' - - - values (github.weichware10.toolbox.zoommaps.ZoomCalculator) - - -

        ' - - - fields (github.weichware10.toolbox.zoommaps.ZoomCalculator) - - -
        - double speed
        - TrialData data
        ~ ConfigClient configClient
        ~ ZoomMapsController controller
        ~ ZoomImage zoomImage
        ~ String question
        ~ String imageUrl

        ' - - - methods (github.weichware10.toolbox.zoommaps.ZoomCalculator) - - -
        +  ZoomCalculator(TrialData data, ConfigClient configClient, ZoomMapsController controller)
        + void processInput(Point2D raw, int direction)
    }

    class github.weichware10.toolbox.zoommaps.ZoomImage {
        ' - - - values (github.weichware10.toolbox.zoommaps.ZoomImage) - - -

        ' - - - fields (github.weichware10.toolbox.zoommaps.ZoomImage) - - -
        + double[] imageSize
        - ImageView imageView

        ' - - - methods (github.weichware10.toolbox.zoommaps.ZoomImage) - - -
        +  ZoomImage(String location, ImageView imageView, ZoomCalculator zoomCalculator)
        + Point2D getImageCoordinates(Point2D imageViewCoordinates)
        # Rectangle2D move(Point2D position, double speed)
        - double clamp(double value, double min, double max)
    }

    class github.weichware10.toolbox.zoommaps.ZoomInput {
        ' - - - values (github.weichware10.toolbox.zoommaps.ZoomInput) - - -

        ' - - - fields (github.weichware10.toolbox.zoommaps.ZoomInput) - - -
        ~ ZoomCalculator zoomCalculator

        ' - - - methods (github.weichware10.toolbox.zoommaps.ZoomInput) - - -
        +  ZoomInput(ZoomCalculator zoomCalculator)
        + void handle(InputEvent event)
        - void handleClick(MouseEvent mouseEvent)
        + void handleScroll(ScrollEvent scrollEvent)
    }

    class github.weichware10.toolbox.zoommaps.ZoomMaps {
        ' - - - values (github.weichware10.toolbox.zoommaps.ZoomMaps) - - -

        ' - - - fields (github.weichware10.toolbox.zoommaps.ZoomMaps) - - -
        - Stage primaryStage
        - DataBaseClient dataBaseClient
        - TrialData trialData
        - ConfigClient configClient
        ~ ZoomMapsController controller

        ' - - - methods (github.weichware10.toolbox.zoommaps.ZoomMaps) - - -
        +  ZoomMaps(Stage primaryStage, ConfigClient configClient, DataBaseClient dataBaseClient)
        + void endTest(String answer)
    }

    class github.weichware10.toolbox.zoommaps.ZoomMapsController {
        ' - - - values (github.weichware10.toolbox.zoommaps.ZoomMapsController) - - -

        ' - - - fields (github.weichware10.toolbox.zoommaps.ZoomMapsController) - - -
        - ResourceBundle resources
        - URL location
        - TextField answerField
        - ImageView imageView
        - Label questionLabel
        - Button submitButton
        - Text warnText
        - ZoomMaps zoomMaps

        ' - - - methods (github.weichware10.toolbox.zoommaps.ZoomMapsController) - - -
        + ImageView getImageView()
        + void setImageViewSize(double width, double height)
        + void setImage(Image image)
        + void setQuestion(String question)
        + void setZoomMaps(ZoomMaps zoomMaps)
        + void setWarn(String warn)
        ~ void endTestOnEnter(KeyEvent event)
        ~ void endTest()
        ~ void initialize()
    }

}

' autogenerated field links, may be faulty.
github.weichware10.toolbox.zoommaps.ZoomCalculator o-u- github.weichware10.toolbox.zoommaps.ZoomMapsController
github.weichware10.toolbox.zoommaps.ZoomCalculator o- - github.weichware10.toolbox.zoommaps.ZoomImage
github.weichware10.toolbox.zoommaps.ZoomInput o-u- github.weichware10.toolbox.zoommaps.ZoomCalculator
github.weichware10.toolbox.zoommaps.ZoomMaps o-d- github.weichware10.toolbox.zoommaps.ZoomMapsController

' autogenerated inheritances, may be faulty.
interface javafx.event.EventHandler
javafx.event.EventHandler <|.r. github.weichware10.toolbox.zoommaps.ZoomInput
@enduml

@startuml
title github.weichware10.toolbox.zoommaps

package github.weichware10.toolbox.zoommaps {

    class github.weichware10.toolbox.zoommaps.ZoomCalculator {

        - double speed
        - TrialData data
        ~ ConfigClient configClient
        ~ ZoomMapsController controller
        ~ ZoomImage zoomImage
        ~ String question
        ~ String imageUrl

        +  ZoomCalculator(TrialData data, ConfigClient configClient, ZoomMapsController controller)
        + void processInput(Point2D raw, int direction)
    }

    class github.weichware10.toolbox.zoommaps.ZoomImage {

        + double[] imageSize
        - ImageView imageView

        +  ZoomImage(String location, ImageView imageView, ZoomCalculator zoomCalculator)
        + Point2D getImageCoordinates(Point2D imageViewCoordinates)
        # Rectangle2D move(Point2D position, double speed)
        - double clamp(double value, double min, double max)
    }

    class github.weichware10.toolbox.zoommaps.ZoomInput {

        ~ ZoomCalculator zoomCalculator

        +  ZoomInput(ZoomCalculator zoomCalculator)
        + void handle(InputEvent event)
        - void handleClick(MouseEvent mouseEvent)
        + void handleScroll(ScrollEvent scrollEvent)
    }

    class github.weichware10.toolbox.zoommaps.ZoomMaps {

        - Stage primaryStage
        - DataBaseClient dataBaseClient
        - TrialData trialData
        - ConfigClient configClient
        ~ ZoomMapsController controller

        +  ZoomMaps(Stage primaryStage, ConfigClient configClient, DataBaseClient dataBaseClient)
        + void endTest(String answer)
    }

    class github.weichware10.toolbox.zoommaps.ZoomMapsController {

        - ResourceBundle resources
        - URL location
        - TextField answerField
        - ImageView imageView
        - Label questionLabel
        - Button submitButton
        - Text warnText
        - ZoomMaps zoomMaps

        + ImageView getImageView()
        + void setImageViewSize(double width, double height)
        + void setImage(Image image)
        + void setQuestion(String question)
        + void setZoomMaps(ZoomMaps zoomMaps)
        + void setWarn(String warn)
        ~ void endTestOnEnter(KeyEvent event)
        ~ void endTest()
        ~ void initialize()
    }

}

github.weichware10.toolbox.zoommaps.ZoomCalculator o-u- github.weichware10.toolbox.zoommaps.ZoomMapsController
github.weichware10.toolbox.zoommaps.ZoomCalculator o- - github.weichware10.toolbox.zoommaps.ZoomImage
github.weichware10.toolbox.zoommaps.ZoomInput o-u- github.weichware10.toolbox.zoommaps.ZoomCalculator
github.weichware10.toolbox.zoommaps.ZoomMaps o-d- github.weichware10.toolbox.zoommaps.ZoomMapsController

interface javafx.event.EventHandler
javafx.event.EventHandler <|.r. github.weichware10.toolbox.zoommaps.ZoomInput
@enduml

PlantUML version 1.2022.1beta9(Unknown compile time)
(GPL source distribution)
Java Runtime: Java(TM) SE Runtime Environment
JVM: Java HotSpot(TM) 64-Bit Server VM
Default Encoding: UTF-8
Language: en
Country: US
--></g></svg>