<?xml version="1.0" encoding="UTF-8" standalone="no"?><svg xmlns="http://www.w3.org/2000/svg" xmlns:xlink="http://www.w3.org/1999/xlink" contentScriptType="application/ecmascript" contentStyleType="text/css" height="1211px" preserveAspectRatio="none" style="width:818px;height:1211px;background:#FFFFFF;" version="1.1" viewBox="0 0 818 1211" width="818px" zoomAndPan="magnify"><defs><filter height="300%" id="fmpg31cpv7dqr" width="300%" x="-1" y="-1"><feGaussianBlur result="blurOut" stdDeviation="2.0"/><feColorMatrix in="blurOut" result="blurOut2" type="matrix" values="0 0 0 0 0 0 0 0 0 0 0 0 0 0 0 0 0 0 .4 0"/><feOffset dx="4.0" dy="4.0" in="blurOut2" result="blurOut3"/><feBlend in="SourceGraphic" in2="blurOut3" mode="normal"/></filter></defs><g><!--MD5=[726bf5ae9c58ccf600049f91f38a1f22]
cluster t--><rect fill="#FEFECE" filter="url(#fmpg31cpv7dqr)" height="339" rx="12.5" ry="12.5" style="stroke:#A80036;stroke-width:1.5;" width="266" x="135" y="81"/><rect fill="#FFFFFF" height="306.7031" rx="12.5" ry="12.5" style="stroke:#FFFFFF;stroke-width:1.0;" width="260" x="138" y="110.2969"/><line style="stroke:#A80036;stroke-width:1.5;" x1="135" x2="401" y1="107.2969" y2="107.2969"/><text fill="#000000" font-family="sans-serif" font-size="14" lengthAdjust="spacing" textLength="55" x="240.5" y="97.9951">Tutorial</text><!--MD5=[57cfc2015c9d3964671bcbff5cacbb7f]
cluster s--><rect fill="#FEFECE" filter="url(#fmpg31cpv7dqr)" height="347" rx="12.5" ry="12.5" style="stroke:#A80036;stroke-width:1.5;" width="244" x="336" y="469"/><rect fill="#FFFFFF" height="314.7031" rx="12.5" ry="12.5" style="stroke:#FFFFFF;stroke-width:1.0;" width="238" x="339" y="498.2969"/><line style="stroke:#A80036;stroke-width:1.5;" x1="336" x2="580" y1="495.2969" y2="495.2969"/><text fill="#000000" font-family="sans-serif" font-size="14" lengthAdjust="spacing" textLength="43" x="436.5" y="485.9951">Setup</text><!--MD5=[79ba9fe6bd8680a6494d18e09b39dfb5]
cluster v--><rect fill="#FEFECE" filter="url(#fmpg31cpv7dqr)" height="612" rx="12.5" ry="12.5" style="stroke:#A80036;stroke-width:1.5;" width="289" x="7" y="587"/><rect fill="#FFFFFF" height="579.7031" rx="12.5" ry="12.5" style="stroke:#FFFFFF;stroke-width:1.0;" width="283" x="10" y="616.2969"/><line style="stroke:#A80036;stroke-width:1.5;" x1="7" x2="296" y1="613.2969" y2="613.2969"/><text fill="#000000" font-family="sans-serif" font-size="14" lengthAdjust="spacing" textLength="57" x="123" y="603.9951">Versuch</text><g id="t.ac"><rect fill="#FEFECE" filter="url(#fmpg31cpv7dqr)" height="64.2344" rx="12.5" ry="12.5" style="stroke:#A80036;stroke-width:1.5;" width="210" x="167" y="205"/><line style="stroke:#A80036;stroke-width:1.5;" x1="167" x2="377" y1="231.2969" y2="231.2969"/><text fill="#000000" font-family="sans-serif" font-size="14" lengthAdjust="spacing" textLength="139" x="202.5" y="222.9951">Abfrage von Config</text><text fill="#000000" font-family="sans-serif" font-size="12" lengthAdjust="spacing" textLength="99" x="172" y="247.4355">getConfigState()</text><text fill="#000000" font-family="sans-serif" font-size="12" lengthAdjust="spacing" textLength="190" x="172" y="261.4043">Soll Tutorial angezeigt werden?</text></g><g id="t.ta"><rect fill="#FEFECE" filter="url(#fmpg31cpv7dqr)" height="50" rx="12.5" ry="12.5" style="stroke:#A80036;stroke-width:1.5;" width="144" x="175" y="346"/><line style="stroke:#A80036;stroke-width:1.5;" x1="175" x2="319" y1="372.2969" y2="372.2969"/><text fill="#000000" font-family="sans-serif" font-size="14" lengthAdjust="spacing" textLength="124" x="185" y="363.9951">Tutorial anzeigen</text></g><ellipse cx="272" cy="134" fill="#000000" filter="url(#fmpg31cpv7dqr)" rx="10" ry="10" style="stroke:none;stroke-width:1.0;"/><g id="s.ka"><rect fill="#FEFECE" filter="url(#fmpg31cpv7dqr)" height="50.2656" rx="12.5" ry="12.5" style="stroke:#A80036;stroke-width:1.5;" width="187" x="368.5" y="615"/><line style="stroke:#A80036;stroke-width:1.5;" x1="368.5" x2="555.5" y1="641.2969" y2="641.2969"/><text fill="#000000" font-family="sans-serif" font-size="14" lengthAdjust="spacing" textLength="167" x="378.5" y="632.9951">Konfiguration abfragen</text><text fill="#000000" font-family="sans-serif" font-size="12" lengthAdjust="spacing" textLength="157" x="373.5" y="657.4355">speed und image location</text></g><g id="s.vb"><rect fill="#FEFECE" filter="url(#fmpg31cpv7dqr)" height="50.2656" rx="12.5" ry="12.5" style="stroke:#A80036;stroke-width:1.5;" width="181" x="368.5" y="742"/><line style="stroke:#A80036;stroke-width:1.5;" x1="368.5" x2="549.5" y1="768.2969" y2="768.2969"/><text fill="#000000" font-family="sans-serif" font-size="14" lengthAdjust="spacing" textLength="127" x="395.5" y="759.9951">Vorbereitung Bild</text><text fill="#000000" font-family="sans-serif" font-size="12" lengthAdjust="spacing" textLength="161" x="373.5" y="784.4355">instanziieren und anzeigen</text></g><ellipse cx="462" cy="522" fill="#000000" filter="url(#fmpg31cpv7dqr)" rx="10" ry="10" style="stroke:none;stroke-width:1.0;"/><g id="v.bi"><rect fill="#FEFECE" filter="url(#fmpg31cpv7dqr)" height="50.2656" rx="12.5" ry="12.5" style="stroke:#A80036;stroke-width:1.5;" width="206" x="44" y="742"/><line style="stroke:#A80036;stroke-width:1.5;" x1="44" x2="250" y1="768.2969" y2="768.2969"/><text fill="#000000" font-family="sans-serif" font-size="14" lengthAdjust="spacing" textLength="186" x="54" y="759.9951">Auf Benutzerinput warten</text><text fill="#000000" font-family="sans-serif" font-size="12" lengthAdjust="spacing" textLength="122" x="49" y="784.4355">Scrollen und Klicken</text></g><g id="v.bb"><rect fill="#FEFECE" filter="url(#fmpg31cpv7dqr)" height="50.2656" rx="12.5" ry="12.5" style="stroke:#A80036;stroke-width:1.5;" width="196" x="31" y="887"/><line style="stroke:#A80036;stroke-width:1.5;" x1="31" x2="227" y1="913.2969" y2="913.2969"/><text fill="#000000" font-family="sans-serif" font-size="14" lengthAdjust="spacing" textLength="176" x="41" y="904.9951">Berechnung Bildposition</text><text fill="#000000" font-family="sans-serif" font-size="12" lengthAdjust="spacing" textLength="81" x="36" y="929.4355">aus Rohdaten</text></g><g id="v.ab"><rect fill="#FEFECE" filter="url(#fmpg31cpv7dqr)" height="50.2656" rx="12.5" ry="12.5" style="stroke:#A80036;stroke-width:1.5;" width="187" x="38.5" y="998"/><line style="stroke:#A80036;stroke-width:1.5;" x1="38.5" x2="225.5" y1="1024.2969" y2="1024.2969"/><text fill="#000000" font-family="sans-serif" font-size="14" lengthAdjust="spacing" textLength="167" x="48.5" y="1015.9951">Anpassung Bildposition</text><text fill="#000000" font-family="sans-serif" font-size="12" lengthAdjust="spacing" textLength="161" x="43.5" y="1040.4355">Dauer hängt von speed ab</text></g><g id="v.ap"><rect fill="#FEFECE" filter="url(#fmpg31cpv7dqr)" height="50" rx="12.5" ry="12.5" style="stroke:#A80036;stroke-width:1.5;" width="218" x="46" y="1125"/><line style="stroke:#A80036;stroke-width:1.5;" x1="46" x2="264" y1="1151.2969" y2="1151.2969"/><text fill="#000000" font-family="sans-serif" font-size="14" lengthAdjust="spacing" textLength="198" x="56" y="1142.9951">Abspeichern neuer Position</text></g><ellipse cx="147" cy="640" fill="#000000" filter="url(#fmpg31cpv7dqr)" rx="10" ry="10" style="stroke:none;stroke-width:1.0;"/><g id="err"><rect fill="#FEFECE" filter="url(#fmpg31cpv7dqr)" height="50.2656" rx="12.5" ry="12.5" style="stroke:#A80036;stroke-width:1.5;" width="181" x="604.5" y="742"/><line style="stroke:#A80036;stroke-width:1.5;" x1="604.5" x2="785.5" y1="768.2969" y2="768.2969"/><text fill="#000000" font-family="sans-serif" font-size="14" lengthAdjust="spacing" textLength="45" x="672.5" y="759.9951">Fehler</text><text fill="#000000" font-family="sans-serif" font-size="12" lengthAdjust="spacing" textLength="161" x="609.5" y="784.4355">informative Fehlermeldung</text></g><g id="Speichern"><rect fill="#FEFECE" filter="url(#fmpg31cpv7dqr)" height="50.2656" rx="12.5" ry="12.5" style="stroke:#A80036;stroke-width:1.5;" width="196" x="337" y="998"/><line style="stroke:#A80036;stroke-width:1.5;" x1="337" x2="533" y1="1024.2969" y2="1024.2969"/><text fill="#000000" font-family="sans-serif" font-size="14" lengthAdjust="spacing" textLength="73" x="398.5" y="1015.9951">Speichern</text><text fill="#000000" font-family="sans-serif" font-size="12" lengthAdjust="spacing" textLength="176" x="342" y="1040.4355">der Data im Speichermedium</text></g><ellipse cx="143" cy="16" fill="#000000" filter="url(#fmpg31cpv7dqr)" rx="10" ry="10" style="stroke:none;stroke-width:1.0;"/><ellipse cx="608" cy="912" filter="url(#fmpg31cpv7dqr)" rx="10" ry="10" style="stroke:#000000;stroke-width:1.0;fill:none;"/><ellipse cx="608.5" cy="912.5" fill="#000000" rx="6" ry="6" style="stroke:none;stroke-width:1.0;"/><!--MD5=[ef553cc5e735e7c5d4f29d037fe5b309]
link *start*t to ac--><path d="M272,144.32 C272,156.78 272,179.6 272,199.35 " fill="none" id="*start*t-to-ac" style="stroke:#A80036;stroke-width:1.0;"/><polygon fill="#A80036" points="272,204.56,276,195.56,272,199.56,268,195.56,272,204.56" style="stroke:#A80036;stroke-width:1.0;"/><!--MD5=[3f19270b61e07219a5c7c6cf1c9c77be]
link ac to ta--><path d="M266.075,269.282 C261.958,291.021 256.511,319.784 252.491,341.006 " fill="none" id="ac-to-ta" style="stroke:#A80036;stroke-width:1.0;"/><polygon fill="#A80036" points="251.554,345.957,257.1582,337.858,252.484,341.0442,249.2978,336.3701,251.554,345.957" style="stroke:#A80036;stroke-width:1.0;"/><text fill="#000000" font-family="sans-serif" font-size="13" lengthAdjust="spacing" textLength="12" x="262" y="312.0669">Ja</text><!--MD5=[5ac8e12c74ae5b9a44bdd7f99523310d]
link ac to s--><path d="M296.056,269.14 C310.497,289.738 327.64,318.017 336,346 C346.9695,382.7175 349.079,425.6848 348.3926,459.8549 C348.3497,461.9905 348.2959,464.0918 348.2326,466.155 C348.2168,466.6708 348.2004,467.1842 348.1835,467.6952 C348.175,467.9507 348.1663,468.2056 348.1576,468.4599 " fill="none" id="ac-to-s" style="stroke:#A80036;stroke-width:1.0;"/><polygon fill="#A80036" points="348.1576,468.4599,352.4653,459.6031,348.3299,463.4629,344.4701,459.3274,348.1576,468.4599" style="stroke:#A80036;stroke-width:1.0;"/><text fill="#000000" font-family="sans-serif" font-size="13" lengthAdjust="spacing" textLength="28" x="350" y="375.5669">Nein</text><!--MD5=[e4e242f717290620a24dfd329e19e573]
link ta to s--><path d="M262.801,396.271 C276.329,417.0515 296.2107,447.5915 312.9146,473.25 C321.2666,486.0793 328.824,497.6881 334.3956,506.2465 C334.7438,506.7814 335.0843,507.3044 335.4167,507.815 C335.5829,508.0703 335.7471,508.3225 335.9092,508.5716 " fill="none" id="ta-to-s" style="stroke:#A80036;stroke-width:1.0;"/><polygon fill="#A80036" points="335.9092,508.5716,334.3512,498.8468,333.1813,504.3813,327.6468,503.2114,335.9092,508.5716" style="stroke:#A80036;stroke-width:1.0;"/><!--MD5=[ae04446a7846041b6057d12e992ea081]
link *start*s to ka--><path d="M462,532.102 C462,548.557 462,583.915 462,609.468 " fill="none" id="*start*s-to-ka" style="stroke:#A80036;stroke-width:1.0;"/><polygon fill="#A80036" points="462,614.762,466,605.762,462,609.762,458,605.762,462,614.762" style="stroke:#A80036;stroke-width:1.0;"/><!--MD5=[4be6b3dfff7856a8e2c6bf554a3bc2a6]
link ka to vb--><path d="M459.826,665.172 C459.089,674.486 458.361,685.23 458,695 C457.498,708.582 457.613,723.634 457.908,736.371 " fill="none" id="ka-to-vb" style="stroke:#A80036;stroke-width:1.0;"/><polygon fill="#A80036" points="458.044,741.676,461.8112,732.5761,457.9154,736.6777,453.8138,732.7819,458.044,741.676" style="stroke:#A80036;stroke-width:1.0;"/><text fill="#000000" font-family="sans-serif" font-size="13" lengthAdjust="spacing" textLength="142" x="459" y="708.0669">Konfiguration erhalten</text><!--MD5=[7a0602b176e0ac1bfdc26c13c49b5ff9]
link ka to err--><path d="M539.875,665.126 C561.896,673.288 585.448,683.34 606,695 C627.237,707.049 648.702,724.002 665.23,738.32 " fill="none" id="ka-to-err" style="stroke:#A80036;stroke-width:1.0;"/><polygon fill="#A80036" points="669.322,741.899,665.1816,732.9627,665.5587,738.607,659.9144,738.984,669.322,741.899" style="stroke:#A80036;stroke-width:1.0;"/><text fill="#000000" font-family="sans-serif" font-size="13" lengthAdjust="spacing" textLength="177" x="633" y="708.0669">Konfiguration nicht erhalten</text><!--MD5=[46b38ccc348d7f386dbe5d455d50919a]
reverse link v to vb--><path d="M296.043,646.8796 C296.2571,647.0361 296.4751,647.1954 296.6968,647.3575 C297.1402,647.6816 297.5986,648.0167 298.0716,648.3625 C299.9636,649.7455 302.0887,651.2989 304.4179,653.0015 C313.7345,659.8119 326.3159,669.0089 340.3001,679.2313 C368.2685,699.676 401.848,724.2225 426.143,741.982 " fill="none" id="v-backto-vb" style="stroke:#A80036;stroke-width:1.0;"/><polygon fill="#A80036" points="296.043,646.8796,300.9482,655.42,300.0795,649.8302,305.6693,648.9615,296.043,646.8796" style="stroke:#A80036;stroke-width:1.0;"/><!--MD5=[04f5d494f5c1d974e130f4b849bb4ba7]
link *start*v to bi--><path d="M147,650.395 C147,668.462 147,708.723 147,736.614 " fill="none" id="*start*v-to-bi" style="stroke:#A80036;stroke-width:1.0;"/><polygon fill="#A80036" points="147,741.669,151,732.669,147,736.669,143,732.669,147,741.669" style="stroke:#A80036;stroke-width:1.0;"/><!--MD5=[f33a61aa82e0e3d4a582a87c5d5fbc85]
link bi to bb--><path d="M143.947,792.258 C140.843,816.91 136.033,855.125 132.712,881.511 " fill="none" id="bi-to-bb" style="stroke:#A80036;stroke-width:1.0;"/><polygon fill="#A80036" points="132.068,886.623,137.1606,878.193,132.6924,881.6621,129.2232,877.1939,132.068,886.623" style="stroke:#A80036;stroke-width:1.0;"/><text fill="#000000" font-family="sans-serif" font-size="13" lengthAdjust="spacing" textLength="32" x="139" y="853.0669">Input</text><!--MD5=[e8521f136bd787fc37b5c3611c03d098]
link bb to ab--><path d="M129.666,937.191 C130.116,953.56 130.714,975.279 131.192,992.64 " fill="none" id="bb-to-ab" style="stroke:#A80036;stroke-width:1.0;"/><polygon fill="#A80036" points="131.336,997.877,135.0877,988.7707,131.1989,992.8789,127.0907,988.9901,131.336,997.877" style="stroke:#A80036;stroke-width:1.0;"/><!--MD5=[045b4c2267f8e7115227f2d3e2828dad]
link ab to ap--><path d="M136.435,1048.101 C140.205,1068.593 145.63,1098.076 149.643,1119.884 " fill="none" id="ab-to-ap" style="stroke:#A80036;stroke-width:1.0;"/><polygon fill="#A80036" points="150.579,1124.9727,152.8852,1115.3977,149.6746,1120.0552,145.0171,1116.8446,150.579,1124.9727" style="stroke:#A80036;stroke-width:1.0;"/><!--MD5=[ae50478485bf74b4e5b2eac0d4032364]
link ap to bi--><path d="M185.273,1124.7263 C205.847,1106.183 231.36,1078.657 243,1048 C258.249,1007.837 251.559,908.238 244,887 C231.105,850.77 201.934,817.579 178.929,795.509 " fill="none" id="ap-to-bi" style="stroke:#A80036;stroke-width:1.0;"/><polygon fill="#A80036" points="175.293,792.064,179.0761,801.1573,178.923,795.5025,184.5777,795.3494,175.293,792.064" style="stroke:#A80036;stroke-width:1.0;"/><!--MD5=[7c2c491790def1943b0ac6dd1fa50c5f]
reverse link Speichern to ap--><path d="M376.297,1050.206 C326.887,1072.265 256.802,1103.552 208.821,1124.9727 " fill="none" id="Speichern-backto-ap" style="stroke:#A80036;stroke-width:1.0;"/><polygon fill="#A80036" points="381.013,1048.101,371.1642,1048.1179,376.4474,1050.1395,374.4258,1055.4228,381.013,1048.101" style="stroke:#A80036;stroke-width:1.0;"/><text fill="#000000" font-family="sans-serif" font-size="13" lengthAdjust="spacing" textLength="109" x="313" y="1091.0669">Versuch beendet</text><!--MD5=[412d8b86e5883c1996899c04f0dae9d0]
link *start to t--><path d="M143,26.1 C143,32.83 143,42.7219 143,53.8117 C143,59.3566 143,65.2011 143,71.0995 C143,74.0487 143,77.0114 143,79.9569 C143,80.141 143,80.325 143,80.509 " fill="none" id="*start-to-t" style="stroke:#A80036;stroke-width:1.0;"/><polygon fill="#A80036" points="143,80.509,147,71.509,143,75.509,139,71.509,143,80.509" style="stroke:#A80036;stroke-width:1.0;"/><!--MD5=[569fcbeb2cc9c9798d00ec88a7200871]
reverse link *end to Speichern--><path d="M595.316,920.992 C569.987,936.95 512.251,973.327 473.435,997.784 " fill="none" id="*end-backto-Speichern" style="stroke:#A80036;stroke-width:1.0;"/><polygon fill="#A80036" points="599.656,918.257,589.9089,919.669,595.4253,920.9217,594.1725,926.4381,599.656,918.257" style="stroke:#A80036;stroke-width:1.0;"/><!--MD5=[dfb6e7c2f8b207f8e3f74365dbae73bc]
link err to *end--><path d="M680.242,792.258 C661.516,823.036 629.93,874.954 615.544,898.6 " fill="none" id="err-to-*end" style="stroke:#A80036;stroke-width:1.0;"/><polygon fill="#A80036" points="612.905,902.938,621.0013,897.33,615.5047,898.667,614.1677,893.1704,612.905,902.938" style="stroke:#A80036;stroke-width:1.0;"/><!--MD5=[1137174cee1d6de728e491946c66f7fa]
@startuml
state "Fehler" as err : informative Fehlermeldung
state Speichern : der Data im Speichermedium

state "Tutorial" as t {
    state "Abfrage von Config" as ac : getConfigState()\nSoll Tutorial angezeigt werden?
    state "Tutorial anzeigen" as ta
    [*] - -> ac
    ac - -> ta : Ja
    ac - -> s : Nein
    ta - -> s
}

state "Setup" as s {
    state "Konfiguration abfragen" as ka : speed und image location
    state "Vorbereitung Bild" as vb : instanziieren und anzeigen
    [*] - -> ka
    ka - -> vb : Konfiguration erhalten
    ka -d-> err : Konfiguration nicht erhalten
    vb -l-> v
}

state "Versuch" as v {
    state "Auf Benutzerinput warten" as bi : Scrollen und Klicken
    state "Berechnung Bildposition" as bb : aus Rohdaten
    state "Anpassung Bildposition" as ab : Dauer hängt von speed ab
    state "Abspeichern neuer Position" as ap
    [*] - -> bi
    bi - -> bb : Input
    bb - -> ab
    ab - -> ap
    ap - -> bi
    ap -u-> Speichern : Versuch beendet
}

[*] - -> t
Speichern -u-> [*]
err -d-> [*]
@enduml

PlantUML version 1.2022.1beta6(Unknown compile time)
(GPL source distribution)
Java Runtime: Java(TM) SE Runtime Environment
JVM: Java HotSpot(TM) 64-Bit Server VM
Default Encoding: UTF-8
Language: en
Country: US
--></g></svg>