<?xml version="1.0" encoding="UTF-8" standalone="no"?><svg xmlns="http://www.w3.org/2000/svg" xmlns:xlink="http://www.w3.org/1999/xlink" contentScriptType="application/ecmascript" contentStyleType="text/css" height="1583px" preserveAspectRatio="none" style="width:1049px;height:1583px;background:#FFFFFF;" version="1.1" viewBox="0 0 1049 1583" width="1049px" zoomAndPan="magnify"><defs><filter height="300%" id="fhvbv56k7mkb5" width="300%" x="-1" y="-1"><feGaussianBlur result="blurOut" stdDeviation="2.0"/><feColorMatrix in="blurOut" result="blurOut2" type="matrix" values="0 0 0 0 0 0 0 0 0 0 0 0 0 0 0 0 0 0 .4 0"/><feOffset dx="4.0" dy="4.0" in="blurOut2" result="blurOut3"/><feBlend in="SourceGraphic" in2="blurOut3" mode="normal"/></filter></defs><g><!--MD5=[726bf5ae9c58ccf600049f91f38a1f22]
cluster t--><rect fill="#FEFECE" filter="url(#fhvbv56k7mkb5)" height="339" rx="12.5" ry="12.5" style="stroke:#A80036;stroke-width:1.5;" width="266" x="66" y="81"/><rect fill="#FFFFFF" height="306.7031" rx="12.5" ry="12.5" style="stroke:#FFFFFF;stroke-width:1.0;" width="260" x="69" y="110.2969"/><line style="stroke:#A80036;stroke-width:1.5;" x1="66" x2="332" y1="107.2969" y2="107.2969"/><text fill="#000000" font-family="sans-serif" font-size="14" lengthAdjust="spacing" textLength="55" x="171.5" y="97.9951">Tutorial</text><!--MD5=[22b2c9f3a262b015613f9858f220a5ed]
cluster p--><rect fill="#FEFECE" filter="url(#fhvbv56k7mkb5)" height="323" rx="12.5" ry="12.5" style="stroke:#A80036;stroke-width:1.5;" width="222" x="229" y="469"/><rect fill="#FFFFFF" height="290.7031" rx="12.5" ry="12.5" style="stroke:#FFFFFF;stroke-width:1.0;" width="216" x="232" y="498.2969"/><line style="stroke:#A80036;stroke-width:1.5;" x1="229" x2="451" y1="495.2969" y2="495.2969"/><text fill="#000000" font-family="sans-serif" font-size="14" lengthAdjust="spacing" textLength="56" x="312" y="485.9951">PreTest</text><!--MD5=[57cfc2015c9d3964671bcbff5cacbb7f]
cluster s--><rect fill="#FEFECE" filter="url(#fhvbv56k7mkb5)" height="347" rx="12.5" ry="12.5" style="stroke:#A80036;stroke-width:1.5;" width="494" x="336" y="841"/><rect fill="#FFFFFF" height="314.7031" rx="12.5" ry="12.5" style="stroke:#FFFFFF;stroke-width:1.0;" width="488" x="339" y="870.2969"/><line style="stroke:#A80036;stroke-width:1.5;" x1="336" x2="830" y1="867.2969" y2="867.2969"/><text fill="#000000" font-family="sans-serif" font-size="14" lengthAdjust="spacing" textLength="43" x="561.5" y="857.9951">Setup</text><!--MD5=[79ba9fe6bd8680a6494d18e09b39dfb5]
cluster v--><rect fill="#FEFECE" filter="url(#fhvbv56k7mkb5)" height="612" rx="12.5" ry="12.5" style="stroke:#A80036;stroke-width:1.5;" width="289" x="7" y="959"/><rect fill="#FFFFFF" height="579.7031" rx="12.5" ry="12.5" style="stroke:#FFFFFF;stroke-width:1.0;" width="283" x="10" y="988.2969"/><line style="stroke:#A80036;stroke-width:1.5;" x1="7" x2="296" y1="985.2969" y2="985.2969"/><text fill="#000000" font-family="sans-serif" font-size="14" lengthAdjust="spacing" textLength="57" x="123" y="975.9951">Versuch</text><g id="t.ac"><rect fill="#FEFECE" filter="url(#fhvbv56k7mkb5)" height="64.2344" rx="12.5" ry="12.5" style="stroke:#A80036;stroke-width:1.5;" width="210" x="98" y="205"/><line style="stroke:#A80036;stroke-width:1.5;" x1="98" x2="308" y1="231.2969" y2="231.2969"/><text fill="#000000" font-family="sans-serif" font-size="14" lengthAdjust="spacing" textLength="139" x="133.5" y="222.9951">Abfrage von Config</text><text fill="#000000" font-family="sans-serif" font-size="12" lengthAdjust="spacing" textLength="99" x="103" y="247.4355">getConfigState()</text><text fill="#000000" font-family="sans-serif" font-size="12" lengthAdjust="spacing" textLength="190" x="103" y="261.4043">Soll Tutorial angezeigt werden?</text></g><g id="t.ta"><rect fill="#FEFECE" filter="url(#fhvbv56k7mkb5)" height="50" rx="12.5" ry="12.5" style="stroke:#A80036;stroke-width:1.5;" width="144" x="106" y="346"/><line style="stroke:#A80036;stroke-width:1.5;" x1="106" x2="250" y1="372.2969" y2="372.2969"/><text fill="#000000" font-family="sans-serif" font-size="14" lengthAdjust="spacing" textLength="124" x="116" y="363.9951">Tutorial anzeigen</text></g><ellipse cx="203" cy="134" fill="#000000" filter="url(#fhvbv56k7mkb5)" rx="10" ry="10" style="stroke:none;stroke-width:1.0;"/><g id="p.it"><rect fill="#FEFECE" filter="url(#fhvbv56k7mkb5)" height="64.2344" rx="12.5" ry="12.5" style="stroke:#A80036;stroke-width:1.5;" width="165" x="261.5" y="593"/><line style="stroke:#A80036;stroke-width:1.5;" x1="261.5" x2="426.5" y1="619.2969" y2="619.2969"/><text fill="#000000" font-family="sans-serif" font-size="14" lengthAdjust="spacing" textLength="134" x="277" y="610.9951">Abfrage Intro Text</text><text fill="#000000" font-family="sans-serif" font-size="12" lengthAdjust="spacing" textLength="99" x="266.5" y="635.4355">getConfigState()</text><text fill="#000000" font-family="sans-serif" font-size="12" lengthAdjust="spacing" textLength="145" x="266.5" y="649.4043">Was ist der Intro Inhalt ?</text></g><g id="p.ia"><rect fill="#FEFECE" filter="url(#fhvbv56k7mkb5)" height="50" rx="12.5" ry="12.5" style="stroke:#A80036;stroke-width:1.5;" width="124" x="282" y="718"/><line style="stroke:#A80036;stroke-width:1.5;" x1="282" x2="406" y1="744.2969" y2="744.2969"/><text fill="#000000" font-family="sans-serif" font-size="14" lengthAdjust="spacing" textLength="104" x="292" y="735.9951">Intro anzeigen</text></g><ellipse cx="344" cy="522" fill="#000000" filter="url(#fhvbv56k7mkb5)" rx="10" ry="10" style="stroke:none;stroke-width:1.0;"/><g id="s.ka"><rect fill="#FEFECE" filter="url(#fhvbv56k7mkb5)" height="50.2656" rx="12.5" ry="12.5" style="stroke:#A80036;stroke-width:1.5;" width="438" x="368" y="987"/><line style="stroke:#A80036;stroke-width:1.5;" x1="368" x2="806" y1="1013.2969" y2="1013.2969"/><text fill="#000000" font-family="sans-serif" font-size="14" lengthAdjust="spacing" textLength="167" x="503.5" y="1004.9951">Konfiguration abfragen</text><text fill="#000000" font-family="sans-serif" font-size="12" lengthAdjust="spacing" textLength="418" x="373" y="1029.4355">speed, image location, imageViewWidth, imageViewHeight, Question</text></g><g id="s.vb"><rect fill="#FEFECE" filter="url(#fhvbv56k7mkb5)" height="50.2656" rx="12.5" ry="12.5" style="stroke:#A80036;stroke-width:1.5;" width="181" x="400.5" y="1114"/><line style="stroke:#A80036;stroke-width:1.5;" x1="400.5" x2="581.5" y1="1140.2969" y2="1140.2969"/><text fill="#000000" font-family="sans-serif" font-size="14" lengthAdjust="spacing" textLength="127" x="427.5" y="1131.9951">Vorbereitung Bild</text><text fill="#000000" font-family="sans-serif" font-size="12" lengthAdjust="spacing" textLength="161" x="405.5" y="1156.4355">instanziieren und anzeigen</text></g><ellipse cx="587" cy="894" fill="#000000" filter="url(#fhvbv56k7mkb5)" rx="10" ry="10" style="stroke:none;stroke-width:1.0;"/><g id="v.bi"><rect fill="#FEFECE" filter="url(#fhvbv56k7mkb5)" height="50.2656" rx="12.5" ry="12.5" style="stroke:#A80036;stroke-width:1.5;" width="206" x="44" y="1114"/><line style="stroke:#A80036;stroke-width:1.5;" x1="44" x2="250" y1="1140.2969" y2="1140.2969"/><text fill="#000000" font-family="sans-serif" font-size="14" lengthAdjust="spacing" textLength="186" x="54" y="1131.9951">Auf Benutzerinput warten</text><text fill="#000000" font-family="sans-serif" font-size="12" lengthAdjust="spacing" textLength="122" x="49" y="1156.4355">Scrollen und Klicken</text></g><g id="v.bb"><rect fill="#FEFECE" filter="url(#fhvbv56k7mkb5)" height="50.2656" rx="12.5" ry="12.5" style="stroke:#A80036;stroke-width:1.5;" width="196" x="31" y="1259"/><line style="stroke:#A80036;stroke-width:1.5;" x1="31" x2="227" y1="1285.2969" y2="1285.2969"/><text fill="#000000" font-family="sans-serif" font-size="14" lengthAdjust="spacing" textLength="176" x="41" y="1276.9951">Berechnung Bildposition</text><text fill="#000000" font-family="sans-serif" font-size="12" lengthAdjust="spacing" textLength="168" x="36" y="1301.4355">aus ImageView Koordinaten</text></g><g id="v.ab"><rect fill="#FEFECE" filter="url(#fhvbv56k7mkb5)" height="50.2656" rx="12.5" ry="12.5" style="stroke:#A80036;stroke-width:1.5;" width="187" x="38.5" y="1370"/><line style="stroke:#A80036;stroke-width:1.5;" x1="38.5" x2="225.5" y1="1396.2969" y2="1396.2969"/><text fill="#000000" font-family="sans-serif" font-size="14" lengthAdjust="spacing" textLength="167" x="48.5" y="1387.9951">Anpassung Bildposition</text><text fill="#000000" font-family="sans-serif" font-size="12" lengthAdjust="spacing" textLength="161" x="43.5" y="1412.4355">Dauer hängt von speed ab</text></g><g id="v.ap"><rect fill="#FEFECE" filter="url(#fhvbv56k7mkb5)" height="50" rx="12.5" ry="12.5" style="stroke:#A80036;stroke-width:1.5;" width="218" x="46" y="1497"/><line style="stroke:#A80036;stroke-width:1.5;" x1="46" x2="264" y1="1523.2969" y2="1523.2969"/><text fill="#000000" font-family="sans-serif" font-size="14" lengthAdjust="spacing" textLength="198" x="56" y="1514.9951">Abspeichern neuer Position</text></g><ellipse cx="147" cy="1012" fill="#000000" filter="url(#fhvbv56k7mkb5)" rx="10" ry="10" style="stroke:none;stroke-width:1.0;"/><g id="err"><rect fill="#FEFECE" filter="url(#fhvbv56k7mkb5)" height="50.2656" rx="12.5" ry="12.5" style="stroke:#A80036;stroke-width:1.5;" width="181" x="854.5" y="1114"/><line style="stroke:#A80036;stroke-width:1.5;" x1="854.5" x2="1035.5" y1="1140.2969" y2="1140.2969"/><text fill="#000000" font-family="sans-serif" font-size="14" lengthAdjust="spacing" textLength="45" x="922.5" y="1131.9951">Fehler</text><text fill="#000000" font-family="sans-serif" font-size="12" lengthAdjust="spacing" textLength="161" x="859.5" y="1156.4355">informative Fehlermeldung</text></g><g id="Speichern"><rect fill="#FEFECE" filter="url(#fhvbv56k7mkb5)" height="50.2656" rx="12.5" ry="12.5" style="stroke:#A80036;stroke-width:1.5;" width="187" x="353.5" y="1370"/><line style="stroke:#A80036;stroke-width:1.5;" x1="353.5" x2="540.5" y1="1396.2969" y2="1396.2969"/><text fill="#000000" font-family="sans-serif" font-size="14" lengthAdjust="spacing" textLength="73" x="410.5" y="1387.9951">Speichern</text><text fill="#000000" font-family="sans-serif" font-size="12" lengthAdjust="spacing" textLength="167" x="358.5" y="1412.4355">der Daten in der Datenbank</text></g><ellipse cx="74" cy="16" fill="#000000" filter="url(#fhvbv56k7mkb5)" rx="10" ry="10" style="stroke:none;stroke-width:1.0;"/><ellipse cx="778" cy="1284" filter="url(#fhvbv56k7mkb5)" rx="10" ry="10" style="stroke:#000000;stroke-width:1.0;fill:none;"/><ellipse cx="778.5" cy="1284.5" fill="#000000" rx="6" ry="6" style="stroke:none;stroke-width:1.0;"/><!--MD5=[ef553cc5e735e7c5d4f29d037fe5b309]
link *start*t to ac--><path d="M203,144.32 C203,156.78 203,179.6 203,199.35 " fill="none" id="*start*t-to-ac" style="stroke:#A80036;stroke-width:1.0;"/><polygon fill="#A80036" points="203,204.56,207,195.56,203,199.56,199,195.56,203,204.56" style="stroke:#A80036;stroke-width:1.0;"/><!--MD5=[3f19270b61e07219a5c7c6cf1c9c77be]
link ac to ta--><path d="M197.075,269.28 C192.958,291.02 187.511,319.78 183.491,341.01 " fill="none" id="ac-to-ta" style="stroke:#A80036;stroke-width:1.0;"/><polygon fill="#A80036" points="182.554,345.96,188.1559,337.8595,183.4826,341.047,180.2951,336.3737,182.554,345.96" style="stroke:#A80036;stroke-width:1.0;"/><text fill="#000000" font-family="sans-serif" font-size="13" lengthAdjust="spacing" textLength="12" x="193" y="312.0669">Ja</text><!--MD5=[f84e5b74347a0f3a1699ea7d0f690775]
link ac to p--><path d="M227.492,269.01 C242.108,289.56 259.281,317.83 267,346 C277.572,384.58 284.631,400.1 267,436 C261.554,447.09 251.086,442.25 245,453 C243.185,456.2075 241.6923,459.6353 240.4704,463.183 C239.8594,464.9569 239.3162,466.7608 238.8342,468.582 C238.8041,468.6959 238.7742,468.8098 238.7445,468.9237 " fill="none" id="ac-to-p" style="stroke:#A80036;stroke-width:1.0;"/><polygon fill="#A80036" points="238.7445,468.9237,244.8815,461.2206,240.0033,464.0848,237.1392,459.2066,238.7445,468.9237" style="stroke:#A80036;stroke-width:1.0;"/><text fill="#000000" font-family="sans-serif" font-size="13" lengthAdjust="spacing" textLength="28" x="279" y="375.5669">Nein</text><!--MD5=[4f914c978bcc99ed0781ee5dd3a03cc1]
link ta to p--><path d="M187.611,396.27 C195.8395,417.05 207.9325,447.59 218.0925,473.2488 C220.6325,479.6634 223.0517,485.773 225.2595,491.3488 C226.3634,494.1367 227.4144,496.7911 228.4013,499.2835 C228.5246,499.595 228.647,499.904 228.7683,500.2105 C228.829,500.3637 228.8894,500.5162 228.9496,500.6681 " fill="none" id="ta-to-p" style="stroke:#A80036;stroke-width:1.0;"/><polygon fill="#A80036" points="228.9496,500.6681,229.3553,490.8276,227.1088,496.0193,221.9172,493.7728,228.9496,500.6681" style="stroke:#A80036;stroke-width:1.0;"/><!--MD5=[a69da87c0da5f8a3b28ecd5813a0e580]
link *start*p to it--><path d="M344,532.32 C344,544.78 344,567.6 344,587.35 " fill="none" id="*start*p-to-it" style="stroke:#A80036;stroke-width:1.0;"/><polygon fill="#A80036" points="344,592.56,348,583.56,344,587.56,340,583.56,344,592.56" style="stroke:#A80036;stroke-width:1.0;"/><!--MD5=[bcda4bb889f58413a6da785fdfde5006]
link it to ia--><path d="M344,657.086 C344,674.358 344,695.723 344,712.701 " fill="none" id="it-to-ia" style="stroke:#A80036;stroke-width:1.0;"/><polygon fill="#A80036" points="344,717.819,348,708.819,344,712.819,340,708.819,344,717.819" style="stroke:#A80036;stroke-width:1.0;"/><!--MD5=[fa1662f9892c425c0470e3655fa5a51f]
link ia to s--><path d="M344,768.271 C344,778.6613 344,791.4914 344,804.9313 C344,811.6512 344,818.5236 344,825.3196 C344,828.7176 344,832.0966 344,835.4278 C344,837.0935 344,838.7472 344,840.3854 C344,840.5902 344,840.7947 344,840.999 " fill="none" id="ia-to-s" style="stroke:#A80036;stroke-width:1.0;"/><polygon fill="#A80036" points="344,840.999,348,831.999,344,835.999,340,831.999,344,840.999" style="stroke:#A80036;stroke-width:1.0;"/><!--MD5=[ae04446a7846041b6057d12e992ea081]
link *start*s to ka--><path d="M587,904.102 C587,920.557 587,955.915 587,981.468 " fill="none" id="*start*s-to-ka" style="stroke:#A80036;stroke-width:1.0;"/><polygon fill="#A80036" points="587,986.762,591,977.762,587,981.762,583,977.762,587,986.762" style="stroke:#A80036;stroke-width:1.0;"/><!--MD5=[4be6b3dfff7856a8e2c6bf554a3bc2a6]
link ka to vb--><path d="M568.49,1037.101 C552.487,1057.939 529.343,1088.074 512.518,1109.982 " fill="none" id="ka-to-vb" style="stroke:#A80036;stroke-width:1.0;"/><polygon fill="#A80036" points="509.453,1113.973,518.1081,1109.2731,512.4992,1110.0081,511.7642,1104.3992,509.453,1113.973" style="stroke:#A80036;stroke-width:1.0;"/><text fill="#000000" font-family="sans-serif" font-size="13" lengthAdjust="spacing" textLength="142" x="546" y="1080.0669">Konfiguration erhalten</text><!--MD5=[7a0602b176e0ac1bfdc26c13c49b5ff9]
link ka to err--><path d="M656.026,1037.101 C717.81,1058.674 808.134,1090.211 871.305,1112.268 " fill="none" id="ka-to-err" style="stroke:#A80036;stroke-width:1.0;"/><polygon fill="#A80036" points="876.186,1113.973,869.0077,1107.2297,871.4655,1112.3247,866.3705,1114.7826,876.186,1113.973" style="stroke:#A80036;stroke-width:1.0;"/><text fill="#000000" font-family="sans-serif" font-size="13" lengthAdjust="spacing" textLength="177" x="788" y="1080.0669">Konfiguration nicht erhalten</text><!--MD5=[46b38ccc348d7f386dbe5d455d50919a]
reverse link v to vb--><path d="M296.0777,1017.9742 C296.3135,1018.1194 296.554,1018.2675 296.7991,1018.4184 C297.7794,1019.0221 298.8332,1019.671 299.9563,1020.3625 C302.2023,1021.7455 304.7251,1023.2989 307.4902,1025.0015 C318.5503,1031.8119 333.4861,1041.0089 350.0873,1051.2313 C383.2895,1071.676 423.153,1096.2225 451.995,1113.982 " fill="none" id="v-backto-vb" style="stroke:#A80036;stroke-width:1.0;"/><polygon fill="#A80036" points="296.0777,1017.9742,301.6441,1026.0992,300.3353,1020.5958,305.8387,1019.2871,296.0777,1017.9742" style="stroke:#A80036;stroke-width:1.0;"/><!--MD5=[04f5d494f5c1d974e130f4b849bb4ba7]
link *start*v to bi--><path d="M147,1022.395 C147,1040.462 147,1080.723 147,1108.614 " fill="none" id="*start*v-to-bi" style="stroke:#A80036;stroke-width:1.0;"/><polygon fill="#A80036" points="147,1113.669,151,1104.669,147,1108.669,143,1104.669,147,1113.669" style="stroke:#A80036;stroke-width:1.0;"/><!--MD5=[f33a61aa82e0e3d4a582a87c5d5fbc85]
link bi to bb--><path d="M143.947,1164.258 C140.843,1188.91 136.033,1227.125 132.712,1253.511 " fill="none" id="bi-to-bb" style="stroke:#A80036;stroke-width:1.0;"/><polygon fill="#A80036" points="132.068,1258.623,137.1606,1250.193,132.6924,1253.6621,129.2232,1249.1939,132.068,1258.623" style="stroke:#A80036;stroke-width:1.0;"/><text fill="#000000" font-family="sans-serif" font-size="13" lengthAdjust="spacing" textLength="32" x="139" y="1225.0669">Input</text><!--MD5=[e8521f136bd787fc37b5c3611c03d098]
link bb to ab--><path d="M129.666,1309.191 C130.116,1325.56 130.714,1347.279 131.192,1364.64 " fill="none" id="bb-to-ab" style="stroke:#A80036;stroke-width:1.0;"/><polygon fill="#A80036" points="131.336,1369.877,135.0877,1360.7707,131.1989,1364.8789,127.0907,1360.9901,131.336,1369.877" style="stroke:#A80036;stroke-width:1.0;"/><!--MD5=[045b4c2267f8e7115227f2d3e2828dad]
link ab to ap--><path d="M136.435,1420.101 C140.205,1440.593 145.63,1470.076 149.643,1491.884 " fill="none" id="ab-to-ap" style="stroke:#A80036;stroke-width:1.0;"/><polygon fill="#A80036" points="150.579,1496.9727,152.8852,1487.3977,149.6746,1492.0552,145.0171,1488.8446,150.579,1496.9727" style="stroke:#A80036;stroke-width:1.0;"/><!--MD5=[ae50478485bf74b4e5b2eac0d4032364]
link ap to bi--><path d="M185.273,1496.7263 C205.847,1478.183 231.36,1450.657 243,1420 C258.249,1379.837 251.559,1280.238 244,1259 C231.105,1222.77 201.934,1189.579 178.929,1167.509 " fill="none" id="ap-to-bi" style="stroke:#A80036;stroke-width:1.0;"/><polygon fill="#A80036" points="175.293,1164.064,179.0761,1173.1573,178.923,1167.5025,184.5777,1167.3494,175.293,1164.064" style="stroke:#A80036;stroke-width:1.0;"/><!--MD5=[7c2c491790def1943b0ac6dd1fa50c5f]
reverse link Speichern to ap--><path d="M386.093,1422.073 C334.548,1444.139 261.266,1475.509 211.128,1496.9727 " fill="none" id="Speichern-backto-ap" style="stroke:#A80036;stroke-width:1.0;"/><polygon fill="#A80036" points="390.699,1420.101,380.8511,1419.9667,386.1027,1422.0692,384.0002,1427.3208,390.699,1420.101" style="stroke:#A80036;stroke-width:1.0;"/><text fill="#000000" font-family="sans-serif" font-size="13" lengthAdjust="spacing" textLength="109" x="320" y="1463.0669">Versuch beendet</text><!--MD5=[412d8b86e5883c1996899c04f0dae9d0]
link *start to t--><path d="M74,26.1 C74,32.83 74,42.7219 74,53.8117 C74,59.3566 74,65.2011 74,71.0995 C74,74.0487 74,77.0114 74,79.9569 C74,80.141 74,80.325 74,80.509 " fill="none" id="*start-to-t" style="stroke:#A80036;stroke-width:1.0;"/><polygon fill="#A80036" points="74,80.509,78,71.509,74,75.509,70,71.509,74,80.509" style="stroke:#A80036;stroke-width:1.0;"/><!--MD5=[569fcbeb2cc9c9798d00ec88a7200871]
reverse link *end to Speichern--><path d="M763.973,1289.619 C722.774,1303.186 599.999,1343.617 519.899,1369.994 " fill="none" id="*end-backto-Speichern" style="stroke:#A80036;stroke-width:1.0;"/><polygon fill="#A80036" points="768.802,1288.029,759.0023,1287.0458,764.053,1289.5934,761.5054,1294.6441,768.802,1288.029" style="stroke:#A80036;stroke-width:1.0;"/><!--MD5=[dfb6e7c2f8b207f8e3f74365dbae73bc]
link err to *end--><path d="M916.671,1164.258 C879.372,1196.197 815.489,1250.899 789.502,1273.151 " fill="none" id="err-to-*end" style="stroke:#A80036;stroke-width:1.0;"/><polygon fill="#A80036" points="785.384,1276.677,794.8218,1273.8613,789.1818,1273.4248,789.6183,1267.7848,785.384,1276.677" style="stroke:#A80036;stroke-width:1.0;"/><!--MD5=[2ab6bf0f6e1913c8f0ecab1492836cce]
@startuml
state "Fehler" as err : informative Fehlermeldung
state Speichern : der Daten in der Datenbank

state "Tutorial" as t {
    state "Abfrage von Config" as ac : getConfigState()\nSoll Tutorial angezeigt werden?
    state "Tutorial anzeigen" as ta
    [*] - -> ac
    ac - -> ta : Ja
    ac - -> p : Nein
    ta - -> p
}

state "PreTest" as p {
    state "Abfrage Intro Text" as it : getConfigState()\nWas ist der Intro Inhalt ?
    state "Intro anzeigen" as ia
    [*] - -> it
    it - -> ia
    ia - -> s
}

state "Setup" as s {
    state "Konfiguration abfragen" as ka : speed, image location, imageViewWidth, imageViewHeight, Question
    state "Vorbereitung Bild" as vb : instanziieren und anzeigen
    [*] - -> ka
    ka - -> vb : Konfiguration erhalten
    ka -d-> err : Konfiguration nicht erhalten
    vb -l-> v
}

state "Versuch" as v {
    state "Auf Benutzerinput warten" as bi : Scrollen und Klicken
    state "Berechnung Bildposition" as bb : aus ImageView Koordinaten
    state "Anpassung Bildposition" as ab : Dauer hängt von speed ab
    state "Abspeichern neuer Position" as ap
    [*] - -> bi
    bi - -> bb : Input
    bb - -> ab
    ab - -> ap
    ap - -> bi
    ap -u-> Speichern : Versuch beendet
}

[*] - -> t
Speichern -u-> [*]
err -d-> [*]
@enduml

PlantUML version 1.2022.1beta6(Unknown compile time)
(GPL source distribution)
Java Runtime: Java(TM) SE Runtime Environment
JVM: Java HotSpot(TM) 64-Bit Server VM
Default Encoding: UTF-8
Language: en
Country: US
--></g></svg>