<?xml version="1.0" encoding="UTF-8" standalone="no"?><svg xmlns="http://www.w3.org/2000/svg" xmlns:xlink="http://www.w3.org/1999/xlink" contentScriptType="application/ecmascript" contentStyleType="text/css" height="1523px" preserveAspectRatio="none" style="width:1089px;height:1523px;background:#FFFFFF;" version="1.1" viewBox="0 0 1089 1523" width="1089px" zoomAndPan="magnify"><defs><filter height="300%" id="fzr9p43v2d8jk" width="300%" x="-1" y="-1"><feGaussianBlur result="blurOut" stdDeviation="2.0"/><feColorMatrix in="blurOut" result="blurOut2" type="matrix" values="0 0 0 0 0 0 0 0 0 0 0 0 0 0 0 0 0 0 .4 0"/><feOffset dx="4.0" dy="4.0" in="blurOut2" result="blurOut3"/><feBlend in="SourceGraphic" in2="blurOut3" mode="normal"/></filter></defs><g><text fill="#000000" font-family="sans-serif" font-size="18" lengthAdjust="spacing" textLength="289" x="393.75" y="16.708">Zustandsdiagramm ZoomMaps</text><!--MD5=[726bf5ae9c58ccf600049f91f38a1f22]
cluster t--><rect fill="#FEFECE" filter="url(#fzr9p43v2d8jk)" height="242" rx="12.5" ry="12.5" style="stroke:#A80036;stroke-width:1.5;" width="273" x="20" y="85.9531"/><rect fill="#FFFFFF" height="209.7031" rx="12.5" ry="12.5" style="stroke:#FFFFFF;stroke-width:1.0;" width="267" x="23" y="115.25"/><line style="stroke:#A80036;stroke-width:1.5;" x1="20" x2="293" y1="112.25" y2="112.25"/><text fill="#000000" font-family="sans-serif" font-size="14" lengthAdjust="spacing" textLength="55" x="129" y="103.9482">Tutorial</text><!--MD5=[22b2c9f3a262b015613f9858f220a5ed]
cluster p--><rect fill="#FEFECE" filter="url(#fzr9p43v2d8jk)" height="226" rx="12.5" ry="12.5" style="stroke:#A80036;stroke-width:1.5;" width="223" x="293" y="350.9531"/><rect fill="#FFFFFF" height="193.7031" rx="12.5" ry="12.5" style="stroke:#FFFFFF;stroke-width:1.0;" width="217" x="296" y="380.25"/><line style="stroke:#A80036;stroke-width:1.5;" x1="293" x2="516" y1="377.25" y2="377.25"/><text fill="#000000" font-family="sans-serif" font-size="14" lengthAdjust="spacing" textLength="56" x="376.5" y="368.9482">PreTest</text><!--MD5=[57cfc2015c9d3964671bcbff5cacbb7f]
cluster s--><rect fill="#FEFECE" filter="url(#fzr9p43v2d8jk)" height="291" rx="12.5" ry="12.5" style="stroke:#A80036;stroke-width:1.5;" width="530" x="312" y="607.9531"/><rect fill="#FFFFFF" height="258.7031" rx="12.5" ry="12.5" style="stroke:#FFFFFF;stroke-width:1.0;" width="524" x="315" y="637.25"/><line style="stroke:#A80036;stroke-width:1.5;" x1="312" x2="842" y1="634.25" y2="634.25"/><text fill="#000000" font-family="sans-serif" font-size="14" lengthAdjust="spacing" textLength="43" x="555.5" y="625.9482">Setup</text><!--MD5=[79ba9fe6bd8680a6494d18e09b39dfb5]
cluster v--><rect fill="#FEFECE" filter="url(#fzr9p43v2d8jk)" height="536" rx="12.5" ry="12.5" style="stroke:#A80036;stroke-width:1.5;" width="271" x="567" y="947.9531"/><rect fill="#FFFFFF" height="503.7031" rx="12.5" ry="12.5" style="stroke:#FFFFFF;stroke-width:1.0;" width="265" x="570" y="977.25"/><line style="stroke:#A80036;stroke-width:1.5;" x1="567" x2="838" y1="974.25" y2="974.25"/><text fill="#000000" font-family="sans-serif" font-size="14" lengthAdjust="spacing" textLength="57" x="674" y="965.9482">Versuch</text><text fill="#000000" font-family="sans-serif" font-size="14" lengthAdjust="spacing" textLength="0" x="22" y="131.6514"/><ellipse cx="20" cy="152.9531" fill="#FEFECE" rx="6" ry="6" style="stroke:#A80036;stroke-width:1.5;"/><text fill="#000000" font-family="sans-serif" font-size="14" lengthAdjust="spacing" textLength="0" x="295" y="305.9482"/><ellipse cx="293" cy="286.9531" fill="#FEFECE" rx="6" ry="6" style="stroke:#A80036;stroke-width:1.5;"/><line style="stroke:#A80036;stroke-width:1.5;" x1="297.3891" x2="289.6109" y1="291.3422" y2="283.564"/><line style="stroke:#A80036;stroke-width:1.5;" x1="297.3891" x2="289.6109" y1="283.564" y2="291.3422"/><g id="t.ac"><rect fill="#FEFECE" filter="url(#fzr9p43v2d8jk)" height="64.2344" rx="12.5" ry="12.5" style="stroke:#A80036;stroke-width:1.5;" width="210" x="61" y="120.9531"/><line style="stroke:#A80036;stroke-width:1.5;" x1="61" x2="271" y1="147.25" y2="147.25"/><text fill="#000000" font-family="sans-serif" font-size="14" lengthAdjust="spacing" textLength="139" x="96.5" y="138.9482">Abfrage von Config</text><text fill="#000000" font-family="sans-serif" font-size="12" lengthAdjust="spacing" textLength="68" x="66" y="163.3887">getConfig()</text><text fill="#000000" font-family="sans-serif" font-size="12" lengthAdjust="spacing" textLength="190" x="66" y="177.3574">Soll Tutorial angezeigt werden?</text></g><g id="t.ta"><rect fill="#FEFECE" filter="url(#fzr9p43v2d8jk)" height="50" rx="12.5" ry="12.5" style="stroke:#A80036;stroke-width:1.5;" width="144" x="104" y="261.9531"/><line style="stroke:#A80036;stroke-width:1.5;" x1="104" x2="248" y1="288.25" y2="288.25"/><text fill="#000000" font-family="sans-serif" font-size="14" lengthAdjust="spacing" textLength="124" x="114" y="279.9482">Tutorial anzeigen</text></g><text fill="#000000" font-family="sans-serif" font-size="14" lengthAdjust="spacing" textLength="0" x="295" y="396.6514"/><ellipse cx="293" cy="417.9531" fill="#FEFECE" rx="6" ry="6" style="stroke:#A80036;stroke-width:1.5;"/><text fill="#000000" font-family="sans-serif" font-size="14" lengthAdjust="spacing" textLength="0" x="314" y="554.9482"/><ellipse cx="312" cy="535.9531" fill="#FEFECE" rx="6" ry="6" style="stroke:#A80036;stroke-width:1.5;"/><line style="stroke:#A80036;stroke-width:1.5;" x1="316.3891" x2="308.6109" y1="540.3422" y2="532.564"/><line style="stroke:#A80036;stroke-width:1.5;" x1="316.3891" x2="308.6109" y1="532.564" y2="540.3422"/><g id="p.it"><rect fill="#FEFECE" filter="url(#fzr9p43v2d8jk)" height="64.2344" rx="12.5" ry="12.5" style="stroke:#A80036;stroke-width:1.5;" width="165" x="334.5" y="385.9531"/><line style="stroke:#A80036;stroke-width:1.5;" x1="334.5" x2="499.5" y1="412.25" y2="412.25"/><text fill="#000000" font-family="sans-serif" font-size="14" lengthAdjust="spacing" textLength="134" x="350" y="403.9482">Abfrage Intro Text</text><text fill="#000000" font-family="sans-serif" font-size="12" lengthAdjust="spacing" textLength="99" x="339.5" y="428.3887">getConfigState()</text><text fill="#000000" font-family="sans-serif" font-size="12" lengthAdjust="spacing" textLength="145" x="339.5" y="442.3574">Was ist der Intro Inhalt ?</text></g><g id="p.ia"><rect fill="#FEFECE" filter="url(#fzr9p43v2d8jk)" height="50" rx="12.5" ry="12.5" style="stroke:#A80036;stroke-width:1.5;" width="124" x="353" y="510.9531"/><line style="stroke:#A80036;stroke-width:1.5;" x1="353" x2="477" y1="537.25" y2="537.25"/><text fill="#000000" font-family="sans-serif" font-size="14" lengthAdjust="spacing" textLength="104" x="363" y="528.9482">Intro anzeigen</text></g><text fill="#000000" font-family="sans-serif" font-size="14" lengthAdjust="spacing" textLength="0" x="314" y="654.6514"/><ellipse cx="312" cy="675.9531" fill="#FEFECE" rx="6" ry="6" style="stroke:#A80036;stroke-width:1.5;"/><text fill="#000000" font-family="sans-serif" font-size="14" lengthAdjust="spacing" textLength="0" x="569" y="917.9482"/><ellipse cx="567" cy="898.9531" fill="#FEFECE" rx="6" ry="6" style="stroke:#A80036;stroke-width:1.5;"/><line style="stroke:#A80036;stroke-width:1.5;" x1="571.3891" x2="563.6109" y1="903.3422" y2="895.564"/><line style="stroke:#A80036;stroke-width:1.5;" x1="571.3891" x2="563.6109" y1="895.564" y2="903.3422"/><g id="s.ka"><rect fill="#FEFECE" filter="url(#fzr9p43v2d8jk)" height="50.2656" rx="12.5" ry="12.5" style="stroke:#A80036;stroke-width:1.5;" width="438" x="353" y="650.9531"/><line style="stroke:#A80036;stroke-width:1.5;" x1="353" x2="791" y1="677.25" y2="677.25"/><text fill="#000000" font-family="sans-serif" font-size="14" lengthAdjust="spacing" textLength="167" x="488.5" y="668.9482">Konfiguration abfragen</text><text fill="#000000" font-family="sans-serif" font-size="12" lengthAdjust="spacing" textLength="418" x="358" y="693.3887">speed, image location, imageViewWidth, imageViewHeight, Question</text></g><g id="s.vb"><rect fill="#FEFECE" filter="url(#fzr9p43v2d8jk)" height="50.2656" rx="12.5" ry="12.5" style="stroke:#A80036;stroke-width:1.5;" width="181" x="476.5" y="777.9531"/><line style="stroke:#A80036;stroke-width:1.5;" x1="476.5" x2="657.5" y1="804.25" y2="804.25"/><text fill="#000000" font-family="sans-serif" font-size="14" lengthAdjust="spacing" textLength="127" x="503.5" y="795.9482">Vorbereitung Bild</text><text fill="#000000" font-family="sans-serif" font-size="12" lengthAdjust="spacing" textLength="161" x="481.5" y="820.3887">instanziieren und anzeigen</text></g><text fill="#000000" font-family="sans-serif" font-size="14" lengthAdjust="spacing" textLength="0" x="569" y="986.6514"/><ellipse cx="567" cy="1007.9531" fill="#FEFECE" rx="6" ry="6" style="stroke:#A80036;stroke-width:1.5;"/><text fill="#000000" font-family="sans-serif" font-size="14" lengthAdjust="spacing" textLength="0" x="762" y="1502.9482"/><ellipse cx="760" cy="1483.9531" fill="#FEFECE" rx="6" ry="6" style="stroke:#A80036;stroke-width:1.5;"/><line style="stroke:#A80036;stroke-width:1.5;" x1="764.3891" x2="756.6109" y1="1488.3422" y2="1480.564"/><line style="stroke:#A80036;stroke-width:1.5;" x1="764.3891" x2="756.6109" y1="1480.564" y2="1488.3422"/><g id="v.bi"><rect fill="#FEFECE" filter="url(#fzr9p43v2d8jk)" height="50.2656" rx="12.5" ry="12.5" style="stroke:#A80036;stroke-width:1.5;" width="206" x="608" y="982.9531"/><line style="stroke:#A80036;stroke-width:1.5;" x1="608" x2="814" y1="1009.25" y2="1009.25"/><text fill="#000000" font-family="sans-serif" font-size="14" lengthAdjust="spacing" textLength="186" x="618" y="1000.9482">Auf Benutzerinput warten</text><text fill="#000000" font-family="sans-serif" font-size="12" lengthAdjust="spacing" textLength="122" x="613" y="1025.3887">Scrollen und Klicken</text></g><g id="v.bb"><rect fill="#FEFECE" filter="url(#fzr9p43v2d8jk)" height="50.2656" rx="12.5" ry="12.5" style="stroke:#A80036;stroke-width:1.5;" width="196" x="589" y="1109.9531"/><line style="stroke:#A80036;stroke-width:1.5;" x1="589" x2="785" y1="1136.25" y2="1136.25"/><text fill="#000000" font-family="sans-serif" font-size="14" lengthAdjust="spacing" textLength="176" x="599" y="1127.9482">Berechnung Bildposition</text><text fill="#000000" font-family="sans-serif" font-size="12" lengthAdjust="spacing" textLength="168" x="594" y="1152.3887">aus ImageView Koordinaten</text></g><g id="v.ab"><rect fill="#FEFECE" filter="url(#fzr9p43v2d8jk)" height="50.2656" rx="12.5" ry="12.5" style="stroke:#A80036;stroke-width:1.5;" width="187" x="596.5" y="1220.9531"/><line style="stroke:#A80036;stroke-width:1.5;" x1="596.5" x2="783.5" y1="1247.25" y2="1247.25"/><text fill="#000000" font-family="sans-serif" font-size="14" lengthAdjust="spacing" textLength="167" x="606.5" y="1238.9482">Anpassung Bildposition</text><text fill="#000000" font-family="sans-serif" font-size="12" lengthAdjust="spacing" textLength="161" x="601.5" y="1263.3887">Dauer hängt von speed ab</text></g><g id="v.ap"><rect fill="#FEFECE" filter="url(#fzr9p43v2d8jk)" height="50.2656" rx="12.5" ry="12.5" style="stroke:#A80036;stroke-width:1.5;" width="218" x="604" y="1331.9531"/><line style="stroke:#A80036;stroke-width:1.5;" x1="604" x2="822" y1="1358.25" y2="1358.25"/><text fill="#000000" font-family="sans-serif" font-size="14" lengthAdjust="spacing" textLength="198" x="614" y="1349.9482">Abspeichern neuer Position</text><text fill="#000000" font-family="sans-serif" font-size="12" lengthAdjust="spacing" textLength="52" x="609" y="1374.3887">TrialData</text></g><g id="err"><rect fill="#FEFECE" filter="url(#fzr9p43v2d8jk)" height="50.2656" rx="12.5" ry="12.5" style="stroke:#A80036;stroke-width:1.5;" width="181" x="866.5" y="777.9531"/><line style="stroke:#A80036;stroke-width:1.5;" x1="866.5" x2="1047.5" y1="804.25" y2="804.25"/><text fill="#000000" font-family="sans-serif" font-size="14" lengthAdjust="spacing" textLength="45" x="934.5" y="795.9482">Fehler</text><text fill="#000000" font-family="sans-serif" font-size="12" lengthAdjust="spacing" textLength="161" x="871.5" y="820.3887">informative Fehlermeldung</text></g><g id="Speichern"><rect fill="#FEFECE" filter="url(#fzr9p43v2d8jk)" height="50.2656" rx="12.5" ry="12.5" style="stroke:#A80036;stroke-width:1.5;" width="229" x="846.5" y="1458.9531"/><line style="stroke:#A80036;stroke-width:1.5;" x1="846.5" x2="1075.5" y1="1485.25" y2="1485.25"/><text fill="#000000" font-family="sans-serif" font-size="14" lengthAdjust="spacing" textLength="73" x="924.5" y="1476.9482">Speichern</text><text fill="#000000" font-family="sans-serif" font-size="12" lengthAdjust="spacing" textLength="209" x="851.5" y="1501.3887">der Daten in der Datenbank / JSON</text></g><ellipse cx="20" cy="36.9531" fill="#000000" filter="url(#fzr9p43v2d8jk)" rx="10" ry="10" style="stroke:none;stroke-width:1.0;"/><ellipse cx="960" cy="898.9531" filter="url(#fzr9p43v2d8jk)" rx="10" ry="10" style="stroke:#000000;stroke-width:1.0;fill:none;"/><ellipse cx="960.5" cy="899.4531" fill="#000000" rx="6" ry="6" style="stroke:none;stroke-width:1.0;"/><!--MD5=[a61c082f6f6ee4e456ea32296a7fd8f1]
reverse link ac to tnp--><path d="M55.7875,152.9531 C45.9495,152.9531 36.1115,152.9531 26.2734,152.9531 " fill="none" id="ac-backto-tnp" style="stroke:#A80036;stroke-width:1.0;"/><polygon fill="#A80036" points="60.9322,152.9531,51.9322,148.9531,55.9322,152.9531,51.9322,156.9531,60.9322,152.9531" style="stroke:#A80036;stroke-width:1.0;"/><!--MD5=[3f19270b61e07219a5c7c6cf1c9c77be]
link ac to ta--><path d="M163.989,185.1431 C163.48,199.4431 163.451,216.5931 165,231.9531 C165.827,240.1531 167.342,248.9431 168.989,257.0031 " fill="none" id="ac-to-ta" style="stroke:#A80036;stroke-width:1.0;"/><polygon fill="#A80036" points="170.027,261.9231,172.063,252.287,168.9847,257.033,164.2388,253.9547,170.027,261.9231" style="stroke:#A80036;stroke-width:1.0;"/><text fill="#000000" font-family="sans-serif" font-size="13" lengthAdjust="spacing" textLength="12" x="166" y="228.02">Ja</text><!--MD5=[447026dc2e60cf6b4c54c0209a9e1569]
link ac to txp--><path d="M207.885,185.0531 C232.331,204.9031 262.331,232.3831 283,261.9531 C285.974,266.2031 288.294,271.4831 289.948,276.0031 " fill="none" id="ac-to-txp" style="stroke:#A80036;stroke-width:1.0;"/><polygon fill="#A80036" points="291.582,280.8531,292.5192,271.049,289.9953,276.1116,284.9327,273.5877,291.582,280.8531" style="stroke:#A80036;stroke-width:1.0;"/><text fill="#000000" font-family="sans-serif" font-size="13" lengthAdjust="spacing" textLength="28" x="260" y="228.02">Nein</text><!--MD5=[d59850e57f5f4af29ecc2d4c8b6ba28e]
link ta to txp--><path d="M248.211,286.9531 C259.337,286.9531 270.463,286.9531 281.59,286.9531 " fill="none" id="ta-to-txp" style="stroke:#A80036;stroke-width:1.0;"/><polygon fill="#A80036" points="286.702,286.9531,277.702,282.9531,281.702,286.9531,277.702,290.9531,286.702,286.9531" style="stroke:#A80036;stroke-width:1.0;"/><!--MD5=[9f61c41cbd373ee46fb7d2223f1744a9]
reverse link it to pnp--><path d="M329.053,417.9531 C319.134,417.9531 309.216,417.9531 299.297,417.9531 " fill="none" id="it-backto-pnp" style="stroke:#A80036;stroke-width:1.0;"/><polygon fill="#A80036" points="334.24,417.9531,325.24,413.9531,329.24,417.9531,325.24,421.9531,334.24,417.9531" style="stroke:#A80036;stroke-width:1.0;"/><!--MD5=[bcda4bb889f58413a6da785fdfde5006]
link it to ia--><path d="M416.464,450.0431 C416.166,467.3131 415.798,488.6731 415.505,505.6531 " fill="none" id="it-to-ia" style="stroke:#A80036;stroke-width:1.0;"/><polygon fill="#A80036" points="415.417,510.7721,419.5707,501.842,415.5027,505.7729,411.5719,501.7049,415.417,510.7721" style="stroke:#A80036;stroke-width:1.0;"/><!--MD5=[26e2ac85139c797a27c4734c2e73fa42]
link ia to pxp--><path d="M352.882,535.9531 C342.991,535.9531 333.099,535.9531 323.208,535.9531 " fill="none" id="ia-to-pxp" style="stroke:#A80036;stroke-width:1.0;"/><polygon fill="#A80036" points="318.035,535.9531,327.035,539.9531,323.035,535.9531,327.035,531.9531,318.035,535.9531" style="stroke:#A80036;stroke-width:1.0;"/><!--MD5=[630da2a7745013a00f9175d6079ffc9e]
reverse link ka to snp--><path d="M347.655,675.9531 C337.801,675.9531 327.947,675.9531 318.094,675.9531 " fill="none" id="ka-backto-snp" style="stroke:#A80036;stroke-width:1.0;"/><polygon fill="#A80036" points="352.807,675.9531,343.807,671.9531,347.807,675.9531,343.807,679.9531,352.807,675.9531" style="stroke:#A80036;stroke-width:1.0;"/><!--MD5=[4be6b3dfff7856a8e2c6bf554a3bc2a6]
link ka to vb--><path d="M571.036,701.0541 C570.216,721.5461 569.037,751.0291 568.165,772.8371 " fill="none" id="ka-to-vb" style="stroke:#A80036;stroke-width:1.0;"/><polygon fill="#A80036" points="567.961,777.9261,572.3177,769.0933,568.161,772.9301,564.3241,768.7734,567.961,777.9261" style="stroke:#A80036;stroke-width:1.0;"/><!--MD5=[fc36a7e0f55729ec01ae1431d5266645]
link vb to sxp--><path d="M567,828.1601 C567,847.3901 567,873.3361 567,887.5571 " fill="none" id="vb-to-sxp" style="stroke:#A80036;stroke-width:1.0;"/><polygon fill="#A80036" points="567,892.8801,571,883.8801,567,887.8801,563,883.8801,567,892.8801" style="stroke:#A80036;stroke-width:1.0;"/><!--MD5=[2e8ca0df0a9ec6a8ea9f450ae53915b4]
reverse link bi to vnp--><path d="M602.756,1007.9531 C592.9,1007.9531 583.044,1007.9531 573.188,1007.9531 " fill="none" id="bi-backto-vnp" style="stroke:#A80036;stroke-width:1.0;"/><polygon fill="#A80036" points="607.91,1007.9531,598.91,1003.9531,602.91,1007.9531,598.91,1011.9531,607.91,1007.9531" style="stroke:#A80036;stroke-width:1.0;"/><!--MD5=[f33a61aa82e0e3d4a582a87c5d5fbc85]
link bi to bb--><path d="M706.373,1033.0541 C702.438,1053.5461 696.777,1083.0291 692.59,1104.8371 " fill="none" id="bi-to-bb" style="stroke:#A80036;stroke-width:1.0;"/><polygon fill="#A80036" points="691.613,1109.9261,697.238,1101.8416,692.5556,1105.0158,689.3815,1100.3334,691.613,1109.9261" style="stroke:#A80036;stroke-width:1.0;"/><text fill="#000000" font-family="sans-serif" font-size="13" lengthAdjust="spacing" textLength="32" x="702" y="1076.02">Input</text><!--MD5=[e8521f136bd787fc37b5c3611c03d098]
link bb to ab--><path d="M687.666,1160.1441 C688.116,1176.5131 688.714,1198.2321 689.192,1215.5931 " fill="none" id="bb-to-ab" style="stroke:#A80036;stroke-width:1.0;"/><polygon fill="#A80036" points="689.336,1220.8301,693.0877,1211.7238,689.1989,1215.832,685.0907,1211.9432,689.336,1220.8301" style="stroke:#A80036;stroke-width:1.0;"/><!--MD5=[045b4c2267f8e7115227f2d3e2828dad]
link ab to ap--><path d="M695.104,1271.1441 C698.559,1287.5131 703.142,1309.2321 706.805,1326.5931 " fill="none" id="ab-to-ap" style="stroke:#A80036;stroke-width:1.0;"/><polygon fill="#A80036" points="707.91,1331.8301,709.9649,1322.198,706.8773,1326.9379,702.1374,1323.8504,707.91,1331.8301" style="stroke:#A80036;stroke-width:1.0;"/><!--MD5=[ae50478485bf74b4e5b2eac0d4032364]
link ap to bi--><path d="M749.402,1331.8351 C768.609,1316.8501 790.349,1295.7371 801,1270.9531 C817.898,1231.6311 810.302,1131.5701 802,1109.9531 C790.768,1080.7071 766.718,1054.6351 746.163,1036.3091 " fill="none" id="ap-to-bi" style="stroke:#A80036;stroke-width:1.0;"/><polygon fill="#A80036" points="742.369,1032.9791,746.4933,1041.9229,746.1264,1036.2779,751.7713,1035.911,742.369,1032.9791" style="stroke:#A80036;stroke-width:1.0;"/><!--MD5=[a6c882b0d57cb3d27f76a1a243385ec4]
link ap to vxp--><path d="M722.062,1382.0541 C732.498,1409.8091 749.136,1454.0586 756.405,1473.391 " fill="none" id="ap-to-vxp" style="stroke:#A80036;stroke-width:1.0;"/><polygon fill="#A80036" points="758.194,1478.1486,758.7705,1468.3167,756.4343,1473.4685,751.2824,1471.1323,758.194,1478.1486" style="stroke:#A80036;stroke-width:1.0;"/><text fill="#000000" font-family="sans-serif" font-size="13" lengthAdjust="spacing" textLength="109" x="741" y="1425.02">Versuch beendet</text><!--MD5=[810aaa9c9373a6a4cd23eb0b6b60d214]
link s to err--><path d="M842.2094,692.4202 C842.3286,692.5339 842.4483,692.6481 842.5685,692.7628 C842.8089,692.9922 843.0513,693.2235 843.2958,693.4568 C845.2514,695.3228 847.3355,697.3114 849.5279,699.4034 C853.9128,703.5874 858.7312,708.1852 863.8231,713.0439 C884.1908,732.4786 908.9335,756.0881 927.802,774.0921 " fill="none" id="s-to-err" style="stroke:#A80036;stroke-width:1.0;"/><polygon fill="#A80036" points="931.829,777.9351,928.079,768.8281,928.2116,774.4834,922.5563,774.616,931.829,777.9351" style="stroke:#A80036;stroke-width:1.0;"/><text fill="#000000" font-family="sans-serif" font-size="13" lengthAdjust="spacing" textLength="116" x="900" y="744.02">Fehler beim Setup</text><!--MD5=[85c6c7a1058dfd0182dadb91f24e8307]
link *start to tnp--><path d="M20,47.2831 C20,68.3731 20,119.5831 20,141.6031 " fill="none" id="*start-to-tnp" style="stroke:#A80036;stroke-width:1.0;"/><polygon fill="#A80036" points="20,146.7631,24,137.7631,20,141.7631,16,137.7631,20,146.7631" style="stroke:#A80036;stroke-width:1.0;"/><!--MD5=[260cfbe5ac01114fa9c3544abce7be05]
link txp to pnp--><path d="M293,293.1731 C293,312.5431 293,380.5531 293,406.6531 " fill="none" id="txp-to-pnp" style="stroke:#A80036;stroke-width:1.0;"/><polygon fill="#A80036" points="293,411.8131,297,402.8131,293,406.8131,289,402.8131,293,411.8131" style="stroke:#A80036;stroke-width:1.0;"/><!--MD5=[d29433beae00b87af9700a7206a0e8cf]
link pxp to snp--><path d="M312,542.1941 C312,562.6021 312,636.9831 312,664.5671 " fill="none" id="pxp-to-snp" style="stroke:#A80036;stroke-width:1.0;"/><polygon fill="#A80036" points="312,669.7071,316,660.7071,312,664.7071,308,660.7071,312,669.7071" style="stroke:#A80036;stroke-width:1.0;"/><!--MD5=[10256c57c7ff6fbc21f13c345aa9106e]
link sxp to vnp--><path d="M567,905.1141 C567,921.7391 567,974.1161 567,996.5681 " fill="none" id="sxp-to-vnp" style="stroke:#A80036;stroke-width:1.0;"/><polygon fill="#A80036" points="567,1001.5921,571,992.5921,567,996.5921,563,992.5921,567,1001.5921" style="stroke:#A80036;stroke-width:1.0;"/><!--MD5=[57f817002b2c3f77091533b8381db39e]
link vxp to Speichern--><path d="M766.281,1483.9531 C791.135,1483.9531 815.989,1483.9531 840.843,1483.9531 " fill="none" id="vxp-to-Speichern" style="stroke:#A80036;stroke-width:1.0;"/><polygon fill="#A80036" points="846.146,1483.9531,837.146,1479.9531,841.146,1483.9531,837.146,1487.9531,846.146,1483.9531" style="stroke:#A80036;stroke-width:1.0;"/><!--MD5=[569fcbeb2cc9c9798d00ec88a7200871]
reverse link *end to Speichern--><path d="M960,914.1441 C960,934.6351 960,973.7011 960,1006.9531 C960,1006.9531 960,1006.9531 960,1357.9531 C960,1392.8931 960.396,1433.3258 960.689,1458.5225 " fill="none" id="*end-backto-Speichern" style="stroke:#A80036;stroke-width:1.0;"/><polygon fill="#A80036" points="960,909.1131,956,918.1131,960,914.1131,964,918.1131,960,909.1131" style="stroke:#A80036;stroke-width:1.0;"/><!--MD5=[dfb6e7c2f8b207f8e3f74365dbae73bc]
link err to *end--><path d="M957.773,828.1601 C958.335,845.7951 959.078,869.0791 959.548,883.7881 " fill="none" id="err-to-*end" style="stroke:#A80036;stroke-width:1.0;"/><polygon fill="#A80036" points="959.708,888.7931,963.4205,879.6708,959.5494,883.7956,955.4246,879.9245,959.708,888.7931" style="stroke:#A80036;stroke-width:1.0;"/><!--MD5=[c4e4dbad0554e5dd14fea55baf0ecf7a]
@startuml
title Zustandsdiagramm ZoomMaps
state "Fehler" as err : informative Fehlermeldung
state Speichern : der Daten in der Datenbank / JSON

state "Tutorial" as t {
    state " " as tnp <<entryPoint>>
    state " " as txp <<exitPoint>>
    state "Abfrage von Config" as ac : getConfig()\nSoll Tutorial angezeigt werden?
    state "Tutorial anzeigen" as ta
    tnp -l-> ac
    ac - -> ta : Ja
    ac - -> txp : Nein
    ta -r-> txp
}

state "PreTest" as p {
    state " " as pnp <<entryPoint>>
    state " " as pxp <<exitPoint>>
    state "Abfrage Intro Text" as it : getConfigState()\nWas ist der Intro Inhalt ?
    state "Intro anzeigen" as ia
    pnp -l-> it
    it - -> ia
    ia -r-> pxp
}

state "Setup" as s {
    state " " as snp <<entryPoint>>
    state " " as sxp <<exitPoint>>
    state "Konfiguration abfragen" as ka : speed, image location, imageViewWidth, imageViewHeight, Question
    state "Vorbereitung Bild" as vb : instanziieren und anzeigen
    snp -l-> ka
    ka - -> vb
    vb -d-> sxp
}


state "Versuch" as v {
    state " " as vnp <<entryPoint>>
    state " " as vxp <<exitPoint>>
    state "Auf Benutzerinput warten" as bi : Scrollen und Klicken
    state "Berechnung Bildposition" as bb : aus ImageView Koordinaten
    state "Anpassung Bildposition" as ab : Dauer hängt von speed ab
    state "Abspeichern neuer Position" as ap : TrialData
    vnp -l-> bi
    bi - -> bb : Input
    bb - -> ab
    ab - -> ap
    ap - -> bi
    ap -d-> vxp : Versuch beendet
}

s - -> err : Fehler beim Setup
[*] - -> tnp

txp - -> pnp
pxp - -> snp
sxp - -> vnp
vxp -r-> Speichern

Speichern -u-> [*]
err -d-> [*]
@enduml

PlantUML version 1.2022.1beta9(Unknown compile time)
(GPL source distribution)
Java Runtime: Java(TM) SE Runtime Environment
JVM: Java HotSpot(TM) 64-Bit Server VM
Default Encoding: UTF-8
Language: en
Country: US
--></g></svg>