<?xml version="1.0" encoding="UTF-8" standalone="no"?><svg xmlns="http://www.w3.org/2000/svg" xmlns:xlink="http://www.w3.org/1999/xlink" contentScriptType="application/ecmascript" contentStyleType="text/css" height="1502px" preserveAspectRatio="none" style="width:1053px;height:1502px;background:#FFFFFF;" version="1.1" viewBox="0 0 1053 1502" width="1053px" zoomAndPan="magnify"><defs><filter height="300%" id="fvi6zv770nqu6" width="300%" x="-1" y="-1"><feGaussianBlur result="blurOut" stdDeviation="2.0"/><feColorMatrix in="blurOut" result="blurOut2" type="matrix" values="0 0 0 0 0 0 0 0 0 0 0 0 0 0 0 0 0 0 .4 0"/><feOffset dx="4.0" dy="4.0" in="blurOut2" result="blurOut3"/><feBlend in="SourceGraphic" in2="blurOut3" mode="normal"/></filter></defs><g><!--MD5=[726bf5ae9c58ccf600049f91f38a1f22]
cluster t--><rect fill="#FEFECE" filter="url(#fvi6zv770nqu6)" height="242" rx="12.5" ry="12.5" style="stroke:#A80036;stroke-width:1.5;" width="273" x="20" y="65"/><rect fill="#FFFFFF" height="209.7031" rx="12.5" ry="12.5" style="stroke:#FFFFFF;stroke-width:1.0;" width="267" x="23" y="94.2969"/><line style="stroke:#A80036;stroke-width:1.5;" x1="20" x2="293" y1="91.2969" y2="91.2969"/><text fill="#000000" font-family="sans-serif" font-size="14" lengthAdjust="spacing" textLength="55" x="129" y="82.9951">Tutorial</text><!--MD5=[22b2c9f3a262b015613f9858f220a5ed]
cluster p--><rect fill="#FEFECE" filter="url(#fvi6zv770nqu6)" height="226" rx="12.5" ry="12.5" style="stroke:#A80036;stroke-width:1.5;" width="223" x="293" y="330"/><rect fill="#FFFFFF" height="193.7031" rx="12.5" ry="12.5" style="stroke:#FFFFFF;stroke-width:1.0;" width="217" x="296" y="359.2969"/><line style="stroke:#A80036;stroke-width:1.5;" x1="293" x2="516" y1="356.2969" y2="356.2969"/><text fill="#000000" font-family="sans-serif" font-size="14" lengthAdjust="spacing" textLength="56" x="376.5" y="347.9951">PreTest</text><!--MD5=[57cfc2015c9d3964671bcbff5cacbb7f]
cluster s--><rect fill="#FEFECE" filter="url(#fvi6zv770nqu6)" height="291" rx="12.5" ry="12.5" style="stroke:#A80036;stroke-width:1.5;" width="530" x="312" y="587"/><rect fill="#FFFFFF" height="258.7031" rx="12.5" ry="12.5" style="stroke:#FFFFFF;stroke-width:1.0;" width="524" x="315" y="616.2969"/><line style="stroke:#A80036;stroke-width:1.5;" x1="312" x2="842" y1="613.2969" y2="613.2969"/><text fill="#000000" font-family="sans-serif" font-size="14" lengthAdjust="spacing" textLength="43" x="555.5" y="604.9951">Setup</text><!--MD5=[79ba9fe6bd8680a6494d18e09b39dfb5]
cluster v--><rect fill="#FEFECE" filter="url(#fvi6zv770nqu6)" height="536" rx="12.5" ry="12.5" style="stroke:#A80036;stroke-width:1.5;" width="271" x="573" y="927"/><rect fill="#FFFFFF" height="503.7031" rx="12.5" ry="12.5" style="stroke:#FFFFFF;stroke-width:1.0;" width="265" x="576" y="956.2969"/><line style="stroke:#A80036;stroke-width:1.5;" x1="573" x2="844" y1="953.2969" y2="953.2969"/><text fill="#000000" font-family="sans-serif" font-size="14" lengthAdjust="spacing" textLength="57" x="680" y="944.9951">Versuch</text><text fill="#000000" font-family="sans-serif" font-size="14" lengthAdjust="spacing" textLength="0" x="22" y="110.6982"/><ellipse cx="20" cy="132" fill="#FEFECE" rx="6" ry="6" style="stroke:#A80036;stroke-width:1.5;"/><text fill="#000000" font-family="sans-serif" font-size="14" lengthAdjust="spacing" textLength="0" x="295" y="284.9951"/><ellipse cx="293" cy="266" fill="#FEFECE" rx="6" ry="6" style="stroke:#A80036;stroke-width:1.5;"/><line style="stroke:#A80036;stroke-width:1.5;" x1="297.3891" x2="289.6109" y1="270.3891" y2="262.6109"/><line style="stroke:#A80036;stroke-width:1.5;" x1="297.3891" x2="289.6109" y1="262.6109" y2="270.3891"/><g id="t.ac"><rect fill="#FEFECE" filter="url(#fvi6zv770nqu6)" height="64.2344" rx="12.5" ry="12.5" style="stroke:#A80036;stroke-width:1.5;" width="210" x="61" y="100"/><line style="stroke:#A80036;stroke-width:1.5;" x1="61" x2="271" y1="126.2969" y2="126.2969"/><text fill="#000000" font-family="sans-serif" font-size="14" lengthAdjust="spacing" textLength="139" x="96.5" y="117.9951">Abfrage von Config</text><text fill="#000000" font-family="sans-serif" font-size="12" lengthAdjust="spacing" textLength="68" x="66" y="142.4355">getConfig()</text><text fill="#000000" font-family="sans-serif" font-size="12" lengthAdjust="spacing" textLength="190" x="66" y="156.4043">Soll Tutorial angezeigt werden?</text></g><g id="t.ta"><rect fill="#FEFECE" filter="url(#fvi6zv770nqu6)" height="50" rx="12.5" ry="12.5" style="stroke:#A80036;stroke-width:1.5;" width="144" x="104" y="241"/><line style="stroke:#A80036;stroke-width:1.5;" x1="104" x2="248" y1="267.2969" y2="267.2969"/><text fill="#000000" font-family="sans-serif" font-size="14" lengthAdjust="spacing" textLength="124" x="114" y="258.9951">Tutorial anzeigen</text></g><text fill="#000000" font-family="sans-serif" font-size="14" lengthAdjust="spacing" textLength="0" x="295" y="375.6982"/><ellipse cx="293" cy="397" fill="#FEFECE" rx="6" ry="6" style="stroke:#A80036;stroke-width:1.5;"/><text fill="#000000" font-family="sans-serif" font-size="14" lengthAdjust="spacing" textLength="0" x="314" y="533.9951"/><ellipse cx="312" cy="515" fill="#FEFECE" rx="6" ry="6" style="stroke:#A80036;stroke-width:1.5;"/><line style="stroke:#A80036;stroke-width:1.5;" x1="316.3891" x2="308.6109" y1="519.3891" y2="511.6109"/><line style="stroke:#A80036;stroke-width:1.5;" x1="316.3891" x2="308.6109" y1="511.6109" y2="519.3891"/><g id="p.it"><rect fill="#FEFECE" filter="url(#fvi6zv770nqu6)" height="64.2344" rx="12.5" ry="12.5" style="stroke:#A80036;stroke-width:1.5;" width="165" x="334.5" y="365"/><line style="stroke:#A80036;stroke-width:1.5;" x1="334.5" x2="499.5" y1="391.2969" y2="391.2969"/><text fill="#000000" font-family="sans-serif" font-size="14" lengthAdjust="spacing" textLength="134" x="350" y="382.9951">Abfrage Intro Text</text><text fill="#000000" font-family="sans-serif" font-size="12" lengthAdjust="spacing" textLength="99" x="339.5" y="407.4355">getConfigState()</text><text fill="#000000" font-family="sans-serif" font-size="12" lengthAdjust="spacing" textLength="145" x="339.5" y="421.4043">Was ist der Intro Inhalt ?</text></g><g id="p.ia"><rect fill="#FEFECE" filter="url(#fvi6zv770nqu6)" height="50" rx="12.5" ry="12.5" style="stroke:#A80036;stroke-width:1.5;" width="124" x="353" y="490"/><line style="stroke:#A80036;stroke-width:1.5;" x1="353" x2="477" y1="516.2969" y2="516.2969"/><text fill="#000000" font-family="sans-serif" font-size="14" lengthAdjust="spacing" textLength="104" x="363" y="507.9951">Intro anzeigen</text></g><text fill="#000000" font-family="sans-serif" font-size="14" lengthAdjust="spacing" textLength="0" x="314" y="633.6982"/><ellipse cx="312" cy="655" fill="#FEFECE" rx="6" ry="6" style="stroke:#A80036;stroke-width:1.5;"/><text fill="#000000" font-family="sans-serif" font-size="14" lengthAdjust="spacing" textLength="0" x="575" y="896.9951"/><ellipse cx="573" cy="878" fill="#FEFECE" rx="6" ry="6" style="stroke:#A80036;stroke-width:1.5;"/><line style="stroke:#A80036;stroke-width:1.5;" x1="577.3891" x2="569.6109" y1="882.3891" y2="874.6109"/><line style="stroke:#A80036;stroke-width:1.5;" x1="577.3891" x2="569.6109" y1="874.6109" y2="882.3891"/><g id="s.ka"><rect fill="#FEFECE" filter="url(#fvi6zv770nqu6)" height="50.2656" rx="12.5" ry="12.5" style="stroke:#A80036;stroke-width:1.5;" width="438" x="353" y="630"/><line style="stroke:#A80036;stroke-width:1.5;" x1="353" x2="791" y1="656.2969" y2="656.2969"/><text fill="#000000" font-family="sans-serif" font-size="14" lengthAdjust="spacing" textLength="167" x="488.5" y="647.9951">Konfiguration abfragen</text><text fill="#000000" font-family="sans-serif" font-size="12" lengthAdjust="spacing" textLength="418" x="358" y="672.4355">speed, image location, imageViewWidth, imageViewHeight, Question</text></g><g id="s.vb"><rect fill="#FEFECE" filter="url(#fvi6zv770nqu6)" height="50.2656" rx="12.5" ry="12.5" style="stroke:#A80036;stroke-width:1.5;" width="181" x="482.5" y="757"/><line style="stroke:#A80036;stroke-width:1.5;" x1="482.5" x2="663.5" y1="783.2969" y2="783.2969"/><text fill="#000000" font-family="sans-serif" font-size="14" lengthAdjust="spacing" textLength="127" x="509.5" y="774.9951">Vorbereitung Bild</text><text fill="#000000" font-family="sans-serif" font-size="12" lengthAdjust="spacing" textLength="161" x="487.5" y="799.4355">instanziieren und anzeigen</text></g><text fill="#000000" font-family="sans-serif" font-size="14" lengthAdjust="spacing" textLength="0" x="575" y="965.6982"/><ellipse cx="573" cy="987" fill="#FEFECE" rx="6" ry="6" style="stroke:#A80036;stroke-width:1.5;"/><text fill="#000000" font-family="sans-serif" font-size="14" lengthAdjust="spacing" textLength="0" x="768" y="1481.9951"/><ellipse cx="766" cy="1463" fill="#FEFECE" rx="6" ry="6" style="stroke:#A80036;stroke-width:1.5;"/><line style="stroke:#A80036;stroke-width:1.5;" x1="770.3891" x2="762.6109" y1="1467.3891" y2="1459.6109"/><line style="stroke:#A80036;stroke-width:1.5;" x1="770.3891" x2="762.6109" y1="1459.6109" y2="1467.3891"/><g id="v.bi"><rect fill="#FEFECE" filter="url(#fvi6zv770nqu6)" height="50.2656" rx="12.5" ry="12.5" style="stroke:#A80036;stroke-width:1.5;" width="206" x="614" y="962"/><line style="stroke:#A80036;stroke-width:1.5;" x1="614" x2="820" y1="988.2969" y2="988.2969"/><text fill="#000000" font-family="sans-serif" font-size="14" lengthAdjust="spacing" textLength="186" x="624" y="979.9951">Auf Benutzerinput warten</text><text fill="#000000" font-family="sans-serif" font-size="12" lengthAdjust="spacing" textLength="122" x="619" y="1004.4355">Scrollen und Klicken</text></g><g id="v.bb"><rect fill="#FEFECE" filter="url(#fvi6zv770nqu6)" height="50.2656" rx="12.5" ry="12.5" style="stroke:#A80036;stroke-width:1.5;" width="196" x="595" y="1089"/><line style="stroke:#A80036;stroke-width:1.5;" x1="595" x2="791" y1="1115.2969" y2="1115.2969"/><text fill="#000000" font-family="sans-serif" font-size="14" lengthAdjust="spacing" textLength="176" x="605" y="1106.9951">Berechnung Bildposition</text><text fill="#000000" font-family="sans-serif" font-size="12" lengthAdjust="spacing" textLength="168" x="600" y="1131.4355">aus ImageView Koordinaten</text></g><g id="v.ab"><rect fill="#FEFECE" filter="url(#fvi6zv770nqu6)" height="50.2656" rx="12.5" ry="12.5" style="stroke:#A80036;stroke-width:1.5;" width="187" x="602.5" y="1200"/><line style="stroke:#A80036;stroke-width:1.5;" x1="602.5" x2="789.5" y1="1226.2969" y2="1226.2969"/><text fill="#000000" font-family="sans-serif" font-size="14" lengthAdjust="spacing" textLength="167" x="612.5" y="1217.9951">Anpassung Bildposition</text><text fill="#000000" font-family="sans-serif" font-size="12" lengthAdjust="spacing" textLength="161" x="607.5" y="1242.4355">Dauer hängt von speed ab</text></g><g id="v.ap"><rect fill="#FEFECE" filter="url(#fvi6zv770nqu6)" height="50.2656" rx="12.5" ry="12.5" style="stroke:#A80036;stroke-width:1.5;" width="218" x="610" y="1311"/><line style="stroke:#A80036;stroke-width:1.5;" x1="610" x2="828" y1="1337.2969" y2="1337.2969"/><text fill="#000000" font-family="sans-serif" font-size="14" lengthAdjust="spacing" textLength="198" x="620" y="1328.9951">Abspeichern neuer Position</text><text fill="#000000" font-family="sans-serif" font-size="12" lengthAdjust="spacing" textLength="52" x="615" y="1353.4355">TrialData</text></g><g id="err"><rect fill="#FEFECE" filter="url(#fvi6zv770nqu6)" height="50.2656" rx="12.5" ry="12.5" style="stroke:#A80036;stroke-width:1.5;" width="181" x="858.5" y="757"/><line style="stroke:#A80036;stroke-width:1.5;" x1="858.5" x2="1039.5" y1="783.2969" y2="783.2969"/><text fill="#000000" font-family="sans-serif" font-size="14" lengthAdjust="spacing" textLength="45" x="926.5" y="774.9951">Fehler</text><text fill="#000000" font-family="sans-serif" font-size="12" lengthAdjust="spacing" textLength="161" x="863.5" y="799.4355">informative Fehlermeldung</text></g><g id="Speichern"><rect fill="#FEFECE" filter="url(#fvi6zv770nqu6)" height="50.2656" rx="12.5" ry="12.5" style="stroke:#A80036;stroke-width:1.5;" width="187" x="852.5" y="1438"/><line style="stroke:#A80036;stroke-width:1.5;" x1="852.5" x2="1039.5" y1="1464.2969" y2="1464.2969"/><text fill="#000000" font-family="sans-serif" font-size="14" lengthAdjust="spacing" textLength="73" x="909.5" y="1455.9951">Speichern</text><text fill="#000000" font-family="sans-serif" font-size="12" lengthAdjust="spacing" textLength="167" x="857.5" y="1480.4355">der Daten in der Datenbank</text></g><ellipse cx="20" cy="16" fill="#000000" filter="url(#fvi6zv770nqu6)" rx="10" ry="10" style="stroke:none;stroke-width:1.0;"/><ellipse cx="946" cy="878" filter="url(#fvi6zv770nqu6)" rx="10" ry="10" style="stroke:#000000;stroke-width:1.0;fill:none;"/><ellipse cx="946.5" cy="878.5" fill="#000000" rx="6" ry="6" style="stroke:none;stroke-width:1.0;"/><!--MD5=[a61c082f6f6ee4e456ea32296a7fd8f1]
reverse link ac to tnp--><path d="M55.7875,132 C45.9495,132 36.1115,132 26.2734,132 " fill="none" id="ac-backto-tnp" style="stroke:#A80036;stroke-width:1.0;"/><polygon fill="#A80036" points="60.9322,132,51.9322,128,55.9322,132,51.9322,136,60.9322,132" style="stroke:#A80036;stroke-width:1.0;"/><!--MD5=[3f19270b61e07219a5c7c6cf1c9c77be]
link ac to ta--><path d="M163.989,164.19 C163.48,178.49 163.451,195.64 165,211 C165.827,219.2 167.342,227.99 168.989,236.05 " fill="none" id="ac-to-ta" style="stroke:#A80036;stroke-width:1.0;"/><polygon fill="#A80036" points="170.027,240.97,172.063,231.3339,168.9847,236.0798,164.2388,233.0015,170.027,240.97" style="stroke:#A80036;stroke-width:1.0;"/><text fill="#000000" font-family="sans-serif" font-size="13" lengthAdjust="spacing" textLength="12" x="166" y="207.0669">Ja</text><!--MD5=[447026dc2e60cf6b4c54c0209a9e1569]
link ac to txp--><path d="M207.885,164.1 C232.331,183.95 262.331,211.43 283,241 C285.974,245.25 288.294,250.53 289.948,255.05 " fill="none" id="ac-to-txp" style="stroke:#A80036;stroke-width:1.0;"/><polygon fill="#A80036" points="291.582,259.9,292.5192,250.0958,289.9953,255.1584,284.9327,252.6346,291.582,259.9" style="stroke:#A80036;stroke-width:1.0;"/><text fill="#000000" font-family="sans-serif" font-size="13" lengthAdjust="spacing" textLength="28" x="260" y="207.0669">Nein</text><!--MD5=[d59850e57f5f4af29ecc2d4c8b6ba28e]
link ta to txp--><path d="M248.211,266 C259.337,266 270.463,266 281.59,266 " fill="none" id="ta-to-txp" style="stroke:#A80036;stroke-width:1.0;"/><polygon fill="#A80036" points="286.702,266,277.702,262,281.702,266,277.702,270,286.702,266" style="stroke:#A80036;stroke-width:1.0;"/><!--MD5=[9f61c41cbd373ee46fb7d2223f1744a9]
reverse link it to pnp--><path d="M329.053,397 C319.134,397 309.216,397 299.297,397 " fill="none" id="it-backto-pnp" style="stroke:#A80036;stroke-width:1.0;"/><polygon fill="#A80036" points="334.24,397,325.24,393,329.24,397,325.24,401,334.24,397" style="stroke:#A80036;stroke-width:1.0;"/><!--MD5=[bcda4bb889f58413a6da785fdfde5006]
link it to ia--><path d="M416.464,429.09 C416.166,446.36 415.798,467.72 415.505,484.7 " fill="none" id="it-to-ia" style="stroke:#A80036;stroke-width:1.0;"/><polygon fill="#A80036" points="415.417,489.819,419.5707,480.8889,415.5027,484.8197,411.5719,480.7518,415.417,489.819" style="stroke:#A80036;stroke-width:1.0;"/><!--MD5=[26e2ac85139c797a27c4734c2e73fa42]
link ia to pxp--><path d="M352.882,515 C342.991,515 333.099,515 323.208,515 " fill="none" id="ia-to-pxp" style="stroke:#A80036;stroke-width:1.0;"/><polygon fill="#A80036" points="318.035,515,327.035,519,323.035,515,327.035,511,318.035,515" style="stroke:#A80036;stroke-width:1.0;"/><!--MD5=[630da2a7745013a00f9175d6079ffc9e]
reverse link ka to snp--><path d="M347.655,655 C337.801,655 327.947,655 318.094,655 " fill="none" id="ka-backto-snp" style="stroke:#A80036;stroke-width:1.0;"/><polygon fill="#A80036" points="352.807,655,343.807,651,347.807,655,343.807,659,352.807,655" style="stroke:#A80036;stroke-width:1.0;"/><!--MD5=[4be6b3dfff7856a8e2c6bf554a3bc2a6]
link ka to vb--><path d="M572.193,680.101 C572.357,700.593 572.593,730.076 572.767,751.884 " fill="none" id="ka-to-vb" style="stroke:#A80036;stroke-width:1.0;"/><polygon fill="#A80036" points="572.808,756.973,576.7359,747.9413,572.768,751.9732,568.7361,748.0053,572.808,756.973" style="stroke:#A80036;stroke-width:1.0;"/><!--MD5=[fc36a7e0f55729ec01ae1431d5266645]
link vb to sxp--><path d="M573,807.207 C573,826.437 573,852.383 573,866.604 " fill="none" id="vb-to-sxp" style="stroke:#A80036;stroke-width:1.0;"/><polygon fill="#A80036" points="573,871.927,577,862.927,573,866.927,569,862.927,573,871.927" style="stroke:#A80036;stroke-width:1.0;"/><!--MD5=[2e8ca0df0a9ec6a8ea9f450ae53915b4]
reverse link bi to vnp--><path d="M608.756,987 C598.9,987 589.044,987 579.188,987 " fill="none" id="bi-backto-vnp" style="stroke:#A80036;stroke-width:1.0;"/><polygon fill="#A80036" points="613.91,987,604.91,983,608.91,987,604.91,991,613.91,987" style="stroke:#A80036;stroke-width:1.0;"/><!--MD5=[f33a61aa82e0e3d4a582a87c5d5fbc85]
link bi to bb--><path d="M712.373,1012.101 C708.438,1032.593 702.777,1062.076 698.59,1083.884 " fill="none" id="bi-to-bb" style="stroke:#A80036;stroke-width:1.0;"/><polygon fill="#A80036" points="697.613,1088.973,703.238,1080.8885,698.5556,1084.0627,695.3815,1079.3803,697.613,1088.973" style="stroke:#A80036;stroke-width:1.0;"/><text fill="#000000" font-family="sans-serif" font-size="13" lengthAdjust="spacing" textLength="32" x="708" y="1055.0669">Input</text><!--MD5=[e8521f136bd787fc37b5c3611c03d098]
link bb to ab--><path d="M693.666,1139.191 C694.116,1155.56 694.714,1177.279 695.192,1194.64 " fill="none" id="bb-to-ab" style="stroke:#A80036;stroke-width:1.0;"/><polygon fill="#A80036" points="695.336,1199.877,699.0877,1190.7707,695.1989,1194.8789,691.0907,1190.9901,695.336,1199.877" style="stroke:#A80036;stroke-width:1.0;"/><!--MD5=[045b4c2267f8e7115227f2d3e2828dad]
link ab to ap--><path d="M701.104,1250.191 C704.559,1266.56 709.142,1288.279 712.805,1305.64 " fill="none" id="ab-to-ap" style="stroke:#A80036;stroke-width:1.0;"/><polygon fill="#A80036" points="713.91,1310.877,715.9649,1301.2449,712.8773,1305.9848,708.1374,1302.8972,713.91,1310.877" style="stroke:#A80036;stroke-width:1.0;"/><!--MD5=[ae50478485bf74b4e5b2eac0d4032364]
link ap to bi--><path d="M755.402,1310.882 C774.609,1295.897 796.349,1274.784 807,1250 C823.898,1210.678 816.302,1110.617 808,1089 C796.768,1059.754 772.718,1033.682 752.163,1015.356 " fill="none" id="ap-to-bi" style="stroke:#A80036;stroke-width:1.0;"/><polygon fill="#A80036" points="748.369,1012.026,752.4933,1020.9697,752.1264,1015.3248,757.7713,1014.9579,748.369,1012.026" style="stroke:#A80036;stroke-width:1.0;"/><!--MD5=[a6c882b0d57cb3d27f76a1a243385ec4]
link ap to vxp--><path d="M728.062,1361.101 C738.498,1388.856 755.136,1433.1055 762.405,1452.4379 " fill="none" id="ap-to-vxp" style="stroke:#A80036;stroke-width:1.0;"/><polygon fill="#A80036" points="764.194,1457.1955,764.7705,1447.3635,762.4343,1452.5154,757.2824,1450.1791,764.194,1457.1955" style="stroke:#A80036;stroke-width:1.0;"/><text fill="#000000" font-family="sans-serif" font-size="13" lengthAdjust="spacing" textLength="109" x="747" y="1404.0669">Versuch beendet</text><!--MD5=[810aaa9c9373a6a4cd23eb0b6b60d214]
link s to err--><path d="M842.2393,672.5036 C844.0755,674.3697 846.0323,676.3583 848.0908,678.4503 C852.2079,682.6343 856.7321,687.2321 861.513,692.0908 C880.6368,711.5255 903.8685,735.135 921.585,753.139 " fill="none" id="s-to-err" style="stroke:#A80036;stroke-width:1.0;"/><polygon fill="#A80036" points="925.366,756.982,921.9067,747.7606,921.8599,753.4173,916.2032,753.3704,925.366,756.982" style="stroke:#A80036;stroke-width:1.0;"/><text fill="#000000" font-family="sans-serif" font-size="13" lengthAdjust="spacing" textLength="116" x="895" y="723.0669">Fehler beim Setup</text><!--MD5=[85c6c7a1058dfd0182dadb91f24e8307]
link *start to tnp--><path d="M20,26.33 C20,47.42 20,98.63 20,120.65 " fill="none" id="*start-to-tnp" style="stroke:#A80036;stroke-width:1.0;"/><polygon fill="#A80036" points="20,125.81,24,116.81,20,120.81,16,116.81,20,125.81" style="stroke:#A80036;stroke-width:1.0;"/><!--MD5=[260cfbe5ac01114fa9c3544abce7be05]
link txp to pnp--><path d="M293,272.22 C293,291.59 293,359.6 293,385.7 " fill="none" id="txp-to-pnp" style="stroke:#A80036;stroke-width:1.0;"/><polygon fill="#A80036" points="293,390.86,297,381.86,293,385.86,289,381.86,293,390.86" style="stroke:#A80036;stroke-width:1.0;"/><!--MD5=[d29433beae00b87af9700a7206a0e8cf]
link pxp to snp--><path d="M312,521.241 C312,541.649 312,616.03 312,643.614 " fill="none" id="pxp-to-snp" style="stroke:#A80036;stroke-width:1.0;"/><polygon fill="#A80036" points="312,648.754,316,639.754,312,643.754,308,639.754,312,648.754" style="stroke:#A80036;stroke-width:1.0;"/><!--MD5=[10256c57c7ff6fbc21f13c345aa9106e]
link sxp to vnp--><path d="M573,884.161 C573,900.786 573,953.163 573,975.615 " fill="none" id="sxp-to-vnp" style="stroke:#A80036;stroke-width:1.0;"/><polygon fill="#A80036" points="573,980.639,577,971.639,573,975.639,569,971.639,573,980.639" style="stroke:#A80036;stroke-width:1.0;"/><!--MD5=[57f817002b2c3f77091533b8381db39e]
link vxp to Speichern--><path d="M772.328,1463 C797.344,1463 822.361,1463 847.377,1463 " fill="none" id="vxp-to-Speichern" style="stroke:#A80036;stroke-width:1.0;"/><polygon fill="#A80036" points="852.38,1463,843.38,1459,847.38,1463,843.38,1467,852.38,1463" style="stroke:#A80036;stroke-width:1.0;"/><!--MD5=[569fcbeb2cc9c9798d00ec88a7200871]
reverse link *end to Speichern--><path d="M946,893.191 C946,913.682 946,952.748 946,986 C946,986 946,986 946,1337 C946,1371.939 946,1412.3718 946,1437.5689 " fill="none" id="*end-backto-Speichern" style="stroke:#A80036;stroke-width:1.0;"/><polygon fill="#A80036" points="946,888.16,942,897.16,946,893.16,950,897.16,946,888.16" style="stroke:#A80036;stroke-width:1.0;"/><!--MD5=[dfb6e7c2f8b207f8e3f74365dbae73bc]
link err to *end--><path d="M948.227,807.207 C947.665,824.842 946.922,848.126 946.452,862.835 " fill="none" id="err-to-*end" style="stroke:#A80036;stroke-width:1.0;"/><polygon fill="#A80036" points="946.292,867.84,950.5754,858.9714,946.4506,862.8425,942.5795,858.7177,946.292,867.84" style="stroke:#A80036;stroke-width:1.0;"/><!--MD5=[08fc607caa65f5544c08a93df44e3f14]
@startuml
state "Fehler" as err : informative Fehlermeldung
state Speichern : der Daten in der Datenbank

state "Tutorial" as t {
    state " " as tnp <<entryPoint>>
    state " " as txp <<exitPoint>>
    state "Abfrage von Config" as ac : getConfig()\nSoll Tutorial angezeigt werden?
    state "Tutorial anzeigen" as ta
    tnp -l-> ac
    ac - -> ta : Ja
    ac - -> txp : Nein
    ta -r-> txp
}

state "PreTest" as p {
    state " " as pnp <<entryPoint>>
    state " " as pxp <<exitPoint>>
    state "Abfrage Intro Text" as it : getConfigState()\nWas ist der Intro Inhalt ?
    state "Intro anzeigen" as ia
    pnp -l-> it
    it - -> ia
    ia -r-> pxp
}

state "Setup" as s {
    state " " as snp <<entryPoint>>
    state " " as sxp <<exitPoint>>
    state "Konfiguration abfragen" as ka : speed, image location, imageViewWidth, imageViewHeight, Question
    state "Vorbereitung Bild" as vb : instanziieren und anzeigen
    snp -l-> ka
    ka - -> vb
    vb -d-> sxp
}


state "Versuch" as v {
    state " " as vnp <<entryPoint>>
    state " " as vxp <<exitPoint>>
    state "Auf Benutzerinput warten" as bi : Scrollen und Klicken
    state "Berechnung Bildposition" as bb : aus ImageView Koordinaten
    state "Anpassung Bildposition" as ab : Dauer hängt von speed ab
    state "Abspeichern neuer Position" as ap : TrialData
    vnp -l-> bi
    bi - -> bb : Input
    bb - -> ab
    ab - -> ap
    ap - -> bi
    ap -d-> vxp : Versuch beendet
}

s - -> err : Fehler beim Setup
[*] - -> tnp

txp - -> pnp
pxp - -> snp
sxp - -> vnp
vxp -r-> Speichern

Speichern -u-> [*]
err -d-> [*]
@enduml

PlantUML version 1.2022.1beta9(Unknown compile time)
(GPL source distribution)
Java Runtime: Java(TM) SE Runtime Environment
JVM: Java HotSpot(TM) 64-Bit Server VM
Default Encoding: UTF-8
Language: en
Country: US
--></g></svg>