<?xml version="1.0" encoding="UTF-8" standalone="no"?><svg xmlns="http://www.w3.org/2000/svg" xmlns:xlink="http://www.w3.org/1999/xlink" contentScriptType="application/ecmascript" contentStyleType="text/css" height="856px" preserveAspectRatio="none" style="width:1705px;height:856px;background:#FFFFFF;" version="1.1" viewBox="0 0 1705 856" width="1705px" zoomAndPan="magnify"><defs><filter height="300%" id="fbd183x1iyfbn" width="300%" x="-1" y="-1"><feGaussianBlur result="blurOut" stdDeviation="2.0"/><feColorMatrix in="blurOut" result="blurOut2" type="matrix" values="0 0 0 0 0 0 0 0 0 0 0 0 0 0 0 0 0 0 .4 0"/><feOffset dx="4.0" dy="4.0" in="blurOut2" result="blurOut3"/><feBlend in="SourceGraphic" in2="blurOut3" mode="normal"/></filter></defs><g><rect fill="#DDDDDD" height="844.3828" style="stroke:#A80036;stroke-width:1.0;" width="948.5" x="628.5" y="6"/><text fill="#000000" font-family="sans-serif" font-size="13" font-weight="bold" lengthAdjust="spacing" textLength="83" x="1061.25" y="18.0669">ZoomMaps</text><rect fill="#FFFFFF" filter="url(#fbd183x1iyfbn)" height="656.7891" style="stroke:#A80036;stroke-width:1.0;" width="10" x="42" y="98.2969"/><rect fill="#FFFFFF" filter="url(#fbd183x1iyfbn)" height="656.7891" style="stroke:#A80036;stroke-width:1.0;" width="10" x="208" y="98.2969"/><rect fill="#FFFFFF" filter="url(#fbd183x1iyfbn)" height="656.7891" style="stroke:#A80036;stroke-width:1.0;" width="10" x="271" y="98.2969"/><rect fill="#FFFFFF" filter="url(#fbd183x1iyfbn)" height="87.3984" style="stroke:#A80036;stroke-width:1.0;" width="10" x="676" y="162.5625"/><rect fill="#FFFFFF" filter="url(#fbd183x1iyfbn)" height="29.1328" style="stroke:#A80036;stroke-width:1.0;" width="10" x="676" y="716.9531"/><rect fill="#FFFFFF" filter="url(#fbd183x1iyfbn)" height="87.3984" style="stroke:#A80036;stroke-width:1.0;" width="10" x="1024" y="249.9609"/><rect fill="#FFFFFF" filter="url(#fbd183x1iyfbn)" height="116.5313" style="stroke:#A80036;stroke-width:1.0;" width="10" x="1024" y="521.1563"/><rect fill="#FFFFFF" filter="url(#fbd183x1iyfbn)" height="29.1328" style="stroke:#A80036;stroke-width:1.0;" width="10" x="1309" y="337.3594"/><rect fill="#FFFFFF" filter="url(#fbd183x1iyfbn)" height="29.1328" style="stroke:#A80036;stroke-width:1.0;" width="10" x="1309" y="550.2891"/><rect fill="#FFFFFF" filter="url(#fbd183x1iyfbn)" height="29.1328" style="stroke:#A80036;stroke-width:1.0;" width="10" x="1309" y="608.5547"/><rect fill="#FFFFFF" filter="url(#fbd183x1iyfbn)" height="388.5938" style="stroke:#A80036;stroke-width:1.0;" width="10" x="1519" y="366.4922"/><rect fill="#FFFFFF" filter="url(#fbd183x1iyfbn)" height="29.1328" style="stroke:#A80036;stroke-width:1.0;" width="10" x="1633" y="191.6953"/><rect fill="#FFFFFF" filter="url(#fbd183x1iyfbn)" height="29.1328" style="stroke:#A80036;stroke-width:1.0;" width="10" x="1633" y="279.0938"/><rect fill="#FFFFFF" filter="url(#fbd183x1iyfbn)" height="221.0625" style="stroke:#000000;stroke-width:2.0;" width="1573" x="10" y="424.625"/><line style="stroke:#A80036;stroke-width:1.0;stroke-dasharray:5.0,5.0;" x1="47" x2="47" y1="88.2969" y2="764.0859"/><line style="stroke:#A80036;stroke-width:1.0;stroke-dasharray:5.0,5.0;" x1="213" x2="213" y1="88.2969" y2="764.0859"/><line style="stroke:#A80036;stroke-width:1.0;stroke-dasharray:5.0,5.0;" x1="276" x2="276" y1="88.2969" y2="764.0859"/><line style="stroke:#A80036;stroke-width:1.0;stroke-dasharray:5.0,5.0;" x1="680.5" x2="680.5" y1="88.2969" y2="764.0859"/><line style="stroke:#A80036;stroke-width:1.0;stroke-dasharray:5.0,5.0;" x1="1029" x2="1029" y1="88.2969" y2="764.0859"/><line style="stroke:#A80036;stroke-width:1.0;stroke-dasharray:5.0,5.0;" x1="1314" x2="1314" y1="88.2969" y2="764.0859"/><line style="stroke:#A80036;stroke-width:1.0;stroke-dasharray:5.0,5.0;" x1="1524" x2="1524" y1="88.2969" y2="764.0859"/><line style="stroke:#A80036;stroke-width:1.0;stroke-dasharray:5.0,5.0;" x1="1638" x2="1638" y1="88.2969" y2="764.0859"/><text fill="#000000" font-family="sans-serif" font-size="14" lengthAdjust="spacing" textLength="48" x="20" y="84.9951">Nutzer</text><ellipse cx="47" cy="15" fill="#FEFECE" filter="url(#fbd183x1iyfbn)" rx="8" ry="8" style="stroke:#A80036;stroke-width:2.0;"/><path d="M47,23 L47,50 M34,31 L60,31 M47,50 L34,65 M47,50 L60,65 " fill="none" filter="url(#fbd183x1iyfbn)" style="stroke:#A80036;stroke-width:2.0;"/><text fill="#000000" font-family="sans-serif" font-size="14" lengthAdjust="spacing" textLength="48" x="20" y="776.0811">Nutzer</text><ellipse cx="47" cy="789.3828" fill="#FEFECE" filter="url(#fbd183x1iyfbn)" rx="8" ry="8" style="stroke:#A80036;stroke-width:2.0;"/><path d="M47,797.3828 L47,824.3828 M34,805.3828 L60,805.3828 M47,824.3828 L34,839.3828 M47,824.3828 L60,839.3828 " fill="none" filter="url(#fbd183x1iyfbn)" style="stroke:#A80036;stroke-width:2.0;"/><text fill="#000000" font-family="sans-serif" font-size="14" lengthAdjust="spacing" textLength="54" x="183" y="84.9951">System</text><ellipse cx="213" cy="56" fill="#DA70D5" filter="url(#fbd183x1iyfbn)" rx="12" ry="12" style="stroke:#A80036;stroke-width:2.0;"/><line style="stroke:#A80036;stroke-width:2.0;" x1="201" x2="225" y1="70" y2="70"/><text fill="#000000" font-family="sans-serif" font-size="14" lengthAdjust="spacing" textLength="54" x="183" y="776.0811">System</text><ellipse cx="213" cy="795.3828" fill="#DA70D5" filter="url(#fbd183x1iyfbn)" rx="12" ry="12" style="stroke:#A80036;stroke-width:2.0;"/><line style="stroke:#A80036;stroke-width:2.0;" x1="201" x2="225" y1="809.3828" y2="809.3828"/><rect fill="#FEFECE" filter="url(#fbd183x1iyfbn)" height="30.2969" style="stroke:#A80036;stroke-width:1.5;" width="38" x="257" y="49"/><rect fill="#FEFECE" filter="url(#fbd183x1iyfbn)" height="30.2969" style="stroke:#A80036;stroke-width:1.5;" width="38" x="253" y="53"/><text fill="#000000" font-family="sans-serif" font-size="14" lengthAdjust="spacing" textLength="24" x="260" y="72.9951">GUI</text><rect fill="#FEFECE" filter="url(#fbd183x1iyfbn)" height="30.2969" style="stroke:#A80036;stroke-width:1.5;" width="38" x="257" y="763.0859"/><rect fill="#FEFECE" filter="url(#fbd183x1iyfbn)" height="30.2969" style="stroke:#A80036;stroke-width:1.5;" width="38" x="253" y="767.0859"/><text fill="#000000" font-family="sans-serif" font-size="14" lengthAdjust="spacing" textLength="24" x="260" y="787.0811">GUI</text><rect fill="#FEFECE" filter="url(#fbd183x1iyfbn)" height="30.2969" style="stroke:#A80036;stroke-width:1.5;" width="93" x="632.5" y="53"/><text fill="#000000" font-family="sans-serif" font-size="14" lengthAdjust="spacing" textLength="79" x="639.5" y="72.9951">ZoomMaps</text><rect fill="#FEFECE" filter="url(#fbd183x1iyfbn)" height="30.2969" style="stroke:#A80036;stroke-width:1.5;" width="93" x="632.5" y="763.0859"/><text fill="#000000" font-family="sans-serif" font-size="14" lengthAdjust="spacing" textLength="79" x="639.5" y="783.0811">ZoomMaps</text><rect fill="#FEFECE" filter="url(#fbd183x1iyfbn)" height="30.2969" style="stroke:#A80036;stroke-width:1.5;" width="128" x="963" y="53"/><text fill="#000000" font-family="sans-serif" font-size="14" lengthAdjust="spacing" textLength="114" x="970" y="72.9951">ZoomCalculator</text><rect fill="#FEFECE" filter="url(#fbd183x1iyfbn)" height="30.2969" style="stroke:#A80036;stroke-width:1.5;" width="128" x="963" y="763.0859"/><text fill="#000000" font-family="sans-serif" font-size="14" lengthAdjust="spacing" textLength="114" x="970" y="783.0811">ZoomCalculator</text><rect fill="#FEFECE" filter="url(#fbd183x1iyfbn)" height="30.2969" style="stroke:#A80036;stroke-width:1.5;" width="100" x="1262" y="53"/><text fill="#000000" font-family="sans-serif" font-size="14" lengthAdjust="spacing" textLength="86" x="1269" y="72.9951">ZoomImage</text><rect fill="#FEFECE" filter="url(#fbd183x1iyfbn)" height="30.2969" style="stroke:#A80036;stroke-width:1.5;" width="100" x="1262" y="763.0859"/><text fill="#000000" font-family="sans-serif" font-size="14" lengthAdjust="spacing" textLength="86" x="1269" y="783.0811">ZoomImage</text><rect fill="#FEFECE" filter="url(#fbd183x1iyfbn)" height="30.2969" style="stroke:#A80036;stroke-width:1.5;" width="94" x="1475" y="53"/><text fill="#000000" font-family="sans-serif" font-size="14" lengthAdjust="spacing" textLength="80" x="1482" y="72.9951">ZoomInput</text><rect fill="#FEFECE" filter="url(#fbd183x1iyfbn)" height="30.2969" style="stroke:#A80036;stroke-width:1.5;" width="94" x="1475" y="763.0859"/><text fill="#000000" font-family="sans-serif" font-size="14" lengthAdjust="spacing" textLength="80" x="1482" y="783.0811">ZoomInput</text><rect fill="#FEFECE" filter="url(#fbd183x1iyfbn)" height="30.2969" style="stroke:#A80036;stroke-width:1.5;" width="102" x="1587" y="49"/><rect fill="#FEFECE" filter="url(#fbd183x1iyfbn)" height="30.2969" style="stroke:#A80036;stroke-width:1.5;" width="102" x="1583" y="53"/><text fill="#000000" font-family="sans-serif" font-size="14" lengthAdjust="spacing" textLength="88" x="1590" y="72.9951">configClient</text><rect fill="#FEFECE" filter="url(#fbd183x1iyfbn)" height="30.2969" style="stroke:#A80036;stroke-width:1.5;" width="102" x="1587" y="763.0859"/><rect fill="#FEFECE" filter="url(#fbd183x1iyfbn)" height="30.2969" style="stroke:#A80036;stroke-width:1.5;" width="102" x="1583" y="767.0859"/><text fill="#000000" font-family="sans-serif" font-size="14" lengthAdjust="spacing" textLength="88" x="1590" y="787.0811">configClient</text><rect fill="#FFFFFF" filter="url(#fbd183x1iyfbn)" height="656.7891" style="stroke:#A80036;stroke-width:1.0;" width="10" x="42" y="98.2969"/><rect fill="#FFFFFF" filter="url(#fbd183x1iyfbn)" height="656.7891" style="stroke:#A80036;stroke-width:1.0;" width="10" x="208" y="98.2969"/><rect fill="#FFFFFF" filter="url(#fbd183x1iyfbn)" height="656.7891" style="stroke:#A80036;stroke-width:1.0;" width="10" x="271" y="98.2969"/><rect fill="#FFFFFF" filter="url(#fbd183x1iyfbn)" height="87.3984" style="stroke:#A80036;stroke-width:1.0;" width="10" x="676" y="162.5625"/><rect fill="#FFFFFF" filter="url(#fbd183x1iyfbn)" height="29.1328" style="stroke:#A80036;stroke-width:1.0;" width="10" x="676" y="716.9531"/><rect fill="#FFFFFF" filter="url(#fbd183x1iyfbn)" height="87.3984" style="stroke:#A80036;stroke-width:1.0;" width="10" x="1024" y="249.9609"/><rect fill="#FFFFFF" filter="url(#fbd183x1iyfbn)" height="116.5313" style="stroke:#A80036;stroke-width:1.0;" width="10" x="1024" y="521.1563"/><rect fill="#FFFFFF" filter="url(#fbd183x1iyfbn)" height="29.1328" style="stroke:#A80036;stroke-width:1.0;" width="10" x="1309" y="337.3594"/><rect fill="#FFFFFF" filter="url(#fbd183x1iyfbn)" height="29.1328" style="stroke:#A80036;stroke-width:1.0;" width="10" x="1309" y="550.2891"/><rect fill="#FFFFFF" filter="url(#fbd183x1iyfbn)" height="29.1328" style="stroke:#A80036;stroke-width:1.0;" width="10" x="1309" y="608.5547"/><rect fill="#FFFFFF" filter="url(#fbd183x1iyfbn)" height="388.5938" style="stroke:#A80036;stroke-width:1.0;" width="10" x="1519" y="366.4922"/><rect fill="#FFFFFF" filter="url(#fbd183x1iyfbn)" height="29.1328" style="stroke:#A80036;stroke-width:1.0;" width="10" x="1633" y="191.6953"/><rect fill="#FFFFFF" filter="url(#fbd183x1iyfbn)" height="29.1328" style="stroke:#A80036;stroke-width:1.0;" width="10" x="1633" y="279.0938"/><rect fill="#EEEEEE" filter="url(#fbd183x1iyfbn)" height="3" style="stroke:#EEEEEE;stroke-width:1.0;" width="1698" x="0" y="118.8633"/><line style="stroke:#000000;stroke-width:1.0;" x1="0" x2="1698" y1="118.8633" y2="118.8633"/><line style="stroke:#000000;stroke-width:1.0;" x1="0" x2="1698" y1="121.8633" y2="121.8633"/><rect fill="#EEEEEE" filter="url(#fbd183x1iyfbn)" height="23.1328" style="stroke:#000000;stroke-width:2.0;" width="121" x="788.5" y="108.2969"/><text fill="#000000" font-family="sans-serif" font-size="13" font-weight="bold" lengthAdjust="spacing" textLength="102" x="794.5" y="124.3638">Initialisierung</text><polygon fill="#A80036" points="664,158.5625,674,162.5625,664,166.5625,668,162.5625" style="stroke:#A80036;stroke-width:1.0;"/><line style="stroke:#A80036;stroke-width:1.0;" x1="281" x2="670" y1="162.5625" y2="162.5625"/><text fill="#000000" font-family="sans-serif" font-size="13" lengthAdjust="spacing" textLength="356" x="288" y="157.4966">ZoomMaps(primaryStage, configClient, dataBaseClient)</text><polygon fill="#A80036" points="1621,187.6953,1631,191.6953,1621,195.6953,1625,191.6953" style="stroke:#A80036;stroke-width:1.0;"/><line style="stroke:#A80036;stroke-width:1.0;" x1="686" x2="1627" y1="191.6953" y2="191.6953"/><text fill="#000000" font-family="sans-serif" font-size="13" lengthAdjust="spacing" textLength="89" x="693" y="186.6294">getTrailData()</text><polygon fill="#A80036" points="697,216.8281,687,220.8281,697,224.8281,693,220.8281" style="stroke:#A80036;stroke-width:1.0;"/><line style="stroke:#A80036;stroke-width:1.0;stroke-dasharray:2.0,2.0;" x1="691" x2="1637" y1="220.8281" y2="220.8281"/><text fill="#000000" font-family="sans-serif" font-size="13" lengthAdjust="spacing" textLength="126" x="703" y="215.7622">trialData : TrailData</text><polygon fill="#A80036" points="1012,245.9609,1022,249.9609,1012,253.9609,1016,249.9609" style="stroke:#A80036;stroke-width:1.0;"/><line style="stroke:#A80036;stroke-width:1.0;" x1="681" x2="1018" y1="249.9609" y2="249.9609"/><text fill="#000000" font-family="sans-serif" font-size="13" lengthAdjust="spacing" textLength="319" x="688" y="244.895">ZoomCalculator(trialData, configClient, controller)</text><polygon fill="#A80036" points="1621,275.0938,1631,279.0938,1621,283.0938,1625,279.0938" style="stroke:#A80036;stroke-width:1.0;"/><line style="stroke:#A80036;stroke-width:1.0;" x1="1034" x2="1627" y1="279.0938" y2="279.0938"/><text fill="#000000" font-family="sans-serif" font-size="13" lengthAdjust="spacing" textLength="62" x="1041" y="274.0278">getData()</text><polygon fill="#A80036" points="1045,304.2266,1035,308.2266,1045,312.2266,1041,308.2266" style="stroke:#A80036;stroke-width:1.0;"/><line style="stroke:#A80036;stroke-width:1.0;stroke-dasharray:2.0,2.0;" x1="1039" x2="1637" y1="308.2266" y2="308.2266"/><text fill="#000000" font-family="sans-serif" font-size="13" lengthAdjust="spacing" textLength="167" x="1051" y="303.1606">imageUrl, question, speed</text><polygon fill="#A80036" points="1297,333.3594,1307,337.3594,1297,341.3594,1301,337.3594" style="stroke:#A80036;stroke-width:1.0;"/><line style="stroke:#A80036;stroke-width:1.0;" x1="1029" x2="1303" y1="337.3594" y2="337.3594"/><text fill="#000000" font-family="sans-serif" font-size="13" lengthAdjust="spacing" textLength="256" x="1036" y="332.2935">ZoomImage(imageUrl, ImageView, this)</text><polygon fill="#A80036" points="1507,362.4922,1517,366.4922,1507,370.4922,1511,366.4922" style="stroke:#A80036;stroke-width:1.0;"/><line style="stroke:#A80036;stroke-width:1.0;" x1="1314" x2="1513" y1="366.4922" y2="366.4922"/><text fill="#000000" font-family="sans-serif" font-size="13" lengthAdjust="spacing" textLength="181" x="1321" y="361.4263">ZoomInput(zoomCalculator)</text><rect fill="#EEEEEE" filter="url(#fbd183x1iyfbn)" height="3" style="stroke:#EEEEEE;stroke-width:1.0;" width="1698" x="0" y="395.0586"/><line style="stroke:#000000;stroke-width:1.0;" x1="0" x2="1698" y1="395.0586" y2="395.0586"/><line style="stroke:#000000;stroke-width:1.0;" x1="0" x2="1698" y1="398.0586" y2="398.0586"/><rect fill="#EEEEEE" filter="url(#fbd183x1iyfbn)" height="23.1328" style="stroke:#000000;stroke-width:2.0;" width="55" x="821.5" y="384.4922"/><text fill="#000000" font-family="sans-serif" font-size="13" font-weight="bold" lengthAdjust="spacing" textLength="36" x="827.5" y="400.5591">Test</text><path d="M10,424.625 L88,424.625 L88,431.625 L78,441.625 L10,441.625 L10,424.625 " fill="#EEEEEE" style="stroke:#000000;stroke-width:1.0;"/><rect fill="none" height="221.0625" style="stroke:#000000;stroke-width:2.0;" width="1573" x="10" y="424.625"/><text fill="#000000" font-family="sans-serif" font-size="13" font-weight="bold" lengthAdjust="spacing" textLength="33" x="25" y="437.6919">loop</text><polygon fill="#A80036" points="196,458.8906,206,462.8906,196,466.8906,200,462.8906" style="stroke:#A80036;stroke-width:1.0;"/><line style="stroke:#A80036;stroke-width:1.0;" x1="52" x2="202" y1="462.8906" y2="462.8906"/><text fill="#000000" font-family="sans-serif" font-size="13" lengthAdjust="spacing" textLength="132" x="59" y="457.8247">Scrollen bzw. Klicken</text><polygon fill="#A80036" points="1507,488.0234,1517,492.0234,1507,496.0234,1511,492.0234" style="stroke:#A80036;stroke-width:1.0;"/><line style="stroke:#A80036;stroke-width:1.0;" x1="218" x2="1513" y1="492.0234" y2="492.0234"/><text fill="#000000" font-family="sans-serif" font-size="13" lengthAdjust="spacing" textLength="37" x="225" y="486.9575">Event</text><polygon fill="#A80036" points="1045,517.1563,1035,521.1563,1045,525.1563,1041,521.1563" style="stroke:#A80036;stroke-width:1.0;"/><line style="stroke:#A80036;stroke-width:1.0;" x1="1039" x2="1518" y1="521.1563" y2="521.1563"/><text fill="#000000" font-family="sans-serif" font-size="13" lengthAdjust="spacing" textLength="205" x="1051" y="516.0903">processInput(Point2D, direction)</text><polygon fill="#A80036" points="1297,546.2891,1307,550.2891,1297,554.2891,1301,550.2891" style="stroke:#A80036;stroke-width:1.0;"/><line style="stroke:#A80036;stroke-width:1.0;" x1="1034" x2="1303" y1="550.2891" y2="550.2891"/><text fill="#000000" font-family="sans-serif" font-size="13" lengthAdjust="spacing" textLength="180" x="1041" y="545.2231">getImageCoordinbates(raw)</text><polygon fill="#A80036" points="1045,575.4219,1035,579.4219,1045,583.4219,1041,579.4219" style="stroke:#A80036;stroke-width:1.0;"/><line style="stroke:#A80036;stroke-width:1.0;stroke-dasharray:2.0,2.0;" x1="1039" x2="1313" y1="579.4219" y2="579.4219"/><text fill="#000000" font-family="sans-serif" font-size="13" lengthAdjust="spacing" textLength="50" x="1051" y="574.356">Point2D</text><polygon fill="#A80036" points="1297,604.5547,1307,608.5547,1297,612.5547,1301,608.5547" style="stroke:#A80036;stroke-width:1.0;"/><line style="stroke:#A80036;stroke-width:1.0;" x1="1034" x2="1303" y1="608.5547" y2="608.5547"/><text fill="#000000" font-family="sans-serif" font-size="13" lengthAdjust="spacing" textLength="188" x="1041" y="603.4888">move(img, direction * speed)</text><polygon fill="#A80036" points="1040,633.6875,1030,637.6875,1040,641.6875,1036,637.6875" style="stroke:#A80036;stroke-width:1.0;"/><line style="stroke:#A80036;stroke-width:1.0;" x1="1034" x2="1313" y1="637.6875" y2="637.6875"/><text fill="#000000" font-family="sans-serif" font-size="13" lengthAdjust="spacing" textLength="56" x="1046" y="632.6216">viewport</text><rect fill="#EEEEEE" filter="url(#fbd183x1iyfbn)" height="3" style="stroke:#EEEEEE;stroke-width:1.0;" width="1698" x="0" y="673.2539"/><line style="stroke:#000000;stroke-width:1.0;" x1="0" x2="1698" y1="673.2539" y2="673.2539"/><line style="stroke:#000000;stroke-width:1.0;" x1="0" x2="1698" y1="676.2539" y2="676.2539"/><rect fill="#EEEEEE" filter="url(#fbd183x1iyfbn)" height="23.1328" style="stroke:#000000;stroke-width:2.0;" width="55" x="821.5" y="662.6875"/><text fill="#000000" font-family="sans-serif" font-size="13" font-weight="bold" lengthAdjust="spacing" textLength="36" x="827.5" y="678.7544">Ende</text><polygon fill="#A80036" points="664,712.9531,674,716.9531,664,720.9531,668,716.9531" style="stroke:#A80036;stroke-width:1.0;"/><line style="stroke:#A80036;stroke-width:1.0;" x1="281" x2="670" y1="716.9531" y2="716.9531"/><text fill="#000000" font-family="sans-serif" font-size="13" lengthAdjust="spacing" textLength="150" x="288" y="711.8872">endTest(String answer)</text><polygon fill="#A80036" points="292,742.0859,282,746.0859,292,750.0859,288,746.0859" style="stroke:#A80036;stroke-width:1.0;"/><line style="stroke:#A80036;stroke-width:1.0;" x1="286" x2="680" y1="746.0859" y2="746.0859"/><text fill="#000000" font-family="sans-serif" font-size="13" lengthAdjust="spacing" textLength="371" x="298" y="741.02">End(primaryStage, configClient, dataBaseClient, trialData)</text><!--MD5=[5e0f4ee3b0010a47e40cc94546c50a8f]
@startuml
skinparam defaultTextAlignment center


actor       Nutzer          as n
entity      System          as s    #DA70D5
collections GUI             as g

box ZoomMaps

participant ZoomMaps        as zm
participant ZoomCalculator  as zc
participant ZoomImage       as zb
participant ZoomInput       as zi
end box

collections configClient          as c

activate n
activate s
activate g

== Initialisierung ==
g -> zm : ZoomMaps(primaryStage, configClient, dataBaseClient)
activate zm
zm -> c : getTrailData()
activate c
c - -> zm : trialData : TrailData
deactivate c

zm -> zc : ZoomCalculator(trialData, configClient, controller)
deactivate zm
activate zc
zc -> c : getData()
activate c
c - -> zc : imageUrl, question, speed
deactivate c
zc -> zb : ZoomImage(imageUrl, ImageView, this)
deactivate zc
activate zb
zb -> zi : ZoomInput(zoomCalculator)
deactivate zb
activate zi

== Test ==
loop
    n -> s : Scrollen bzw. Klicken
    s -> zi : Event
    zi -> zc : processInput(Point2D, direction)
    activate zc
    zc -> zb : getImageCoordinbates(raw)
    activate zb
    zb - -> zc : Point2D
    deactivate zb
    zc -> zb : move(img, direction * speed)
    activate zb
    zb -> zc : viewport
    deactivate zb
    deactivate zc

end

== Ende == 
g -> zm : endTest(String answer)
activate zm
zm -> g : End(primaryStage, configClient, dataBaseClient, trialData)
deactivate zm
@enduml

PlantUML version 1.2022.1beta6(Unknown compile time)
(GPL source distribution)
Java Runtime: Java(TM) SE Runtime Environment
JVM: Java HotSpot(TM) 64-Bit Server VM
Default Encoding: UTF-8
Language: en
Country: US
--></g></svg>