<?xml version="1.0" encoding="UTF-8" standalone="no"?><svg xmlns="http://www.w3.org/2000/svg" xmlns:xlink="http://www.w3.org/1999/xlink" contentScriptType="application/ecmascript" contentStyleType="text/css" height="924px" preserveAspectRatio="none" style="width:1913px;height:924px;background:#FFFFFF;" version="1.1" viewBox="0 0 1913 924" width="1913px" zoomAndPan="magnify"><defs><filter height="300%" id="fufmen20hn8r0" width="300%" x="-1" y="-1"><feGaussianBlur result="blurOut" stdDeviation="2.0"/><feColorMatrix in="blurOut" result="blurOut2" type="matrix" values="0 0 0 0 0 0 0 0 0 0 0 0 0 0 0 0 0 0 .4 0"/><feOffset dx="4.0" dy="4.0" in="blurOut2" result="blurOut3"/><feBlend in="SourceGraphic" in2="blurOut3" mode="normal"/></filter></defs><g><rect fill="#DDDDDD" height="912.6484" style="stroke:#A80036;stroke-width:1.0;" width="1041.5" x="639.5" y="6"/><text fill="#000000" font-family="sans-serif" font-size="13" font-weight="bold" lengthAdjust="spacing" textLength="83" x="1118.75" y="18.0669">ZoomMaps</text><rect fill="#FFFFFF" filter="url(#fufmen20hn8r0)" height="725.0547" style="stroke:#A80036;stroke-width:1.0;" width="10" x="42" y="98.2969"/><rect fill="#FFFFFF" filter="url(#fufmen20hn8r0)" height="725.0547" style="stroke:#A80036;stroke-width:1.0;" width="10" x="208" y="98.2969"/><rect fill="#FFFFFF" filter="url(#fufmen20hn8r0)" height="725.0547" style="stroke:#A80036;stroke-width:1.0;" width="10" x="271" y="98.2969"/><rect fill="#FFFFFF" filter="url(#fufmen20hn8r0)" height="651.7891" style="stroke:#A80036;stroke-width:1.0;" width="10" x="687" y="162.5625"/><rect fill="#FFFFFF" filter="url(#fufmen20hn8r0)" height="525.2578" style="stroke:#A80036;stroke-width:1.0;" width="10" x="1066" y="259.9609"/><rect fill="#FFFFFF" filter="url(#fufmen20hn8r0)" height="437.8594" style="stroke:#A80036;stroke-width:1.0;" width="10" x="1382" y="347.3594"/><rect fill="#FFFFFF" filter="url(#fufmen20hn8r0)" height="408.7266" style="stroke:#A80036;stroke-width:1.0;" width="10" x="1623" y="376.4922"/><rect fill="#FFFFFF" filter="url(#fufmen20hn8r0)" height="29.1328" style="stroke:#A80036;stroke-width:1.0;" width="10" x="1735" y="289.0938"/><rect fill="#FFFFFF" filter="url(#fufmen20hn8r0)" height="593.5234" style="stroke:#A80036;stroke-width:1.0;" width="10" x="1839.5" y="191.6953"/><rect fill="#FFFFFF" filter="url(#fufmen20hn8r0)" height="250.1953" style="stroke:#000000;stroke-width:2.0;" width="1886" x="10" y="434.625"/><line style="stroke:#A80036;stroke-width:1.0;stroke-dasharray:5.0,5.0;" x1="47" x2="47" y1="88.2969" y2="832.3516"/><line style="stroke:#A80036;stroke-width:1.0;stroke-dasharray:5.0,5.0;" x1="213" x2="213" y1="88.2969" y2="832.3516"/><line style="stroke:#A80036;stroke-width:1.0;stroke-dasharray:5.0,5.0;" x1="276" x2="276" y1="88.2969" y2="832.3516"/><line style="stroke:#A80036;stroke-width:1.0;stroke-dasharray:5.0,5.0;" x1="691.5" x2="691.5" y1="88.2969" y2="832.3516"/><line style="stroke:#A80036;stroke-width:1.0;stroke-dasharray:5.0,5.0;" x1="1071" x2="1071" y1="88.2969" y2="832.3516"/><line style="stroke:#A80036;stroke-width:1.0;stroke-dasharray:5.0,5.0;" x1="1387" x2="1387" y1="88.2969" y2="832.3516"/><line style="stroke:#A80036;stroke-width:1.0;stroke-dasharray:5.0,5.0;" x1="1628" x2="1628" y1="88.2969" y2="832.3516"/><line style="stroke:#A80036;stroke-width:1.0;stroke-dasharray:5.0,5.0;" x1="1740" x2="1740" y1="88.2969" y2="832.3516"/><line style="stroke:#A80036;stroke-width:1.0;stroke-dasharray:5.0,5.0;" x1="1844" x2="1844" y1="88.2969" y2="832.3516"/><text fill="#000000" font-family="sans-serif" font-size="14" lengthAdjust="spacing" textLength="48" x="20" y="84.9951">Nutzer</text><ellipse cx="47" cy="15" fill="#FEFECE" filter="url(#fufmen20hn8r0)" rx="8" ry="8" style="stroke:#A80036;stroke-width:2.0;"/><path d="M47,23 L47,50 M34,31 L60,31 M47,50 L34,65 M47,50 L60,65 " fill="none" filter="url(#fufmen20hn8r0)" style="stroke:#A80036;stroke-width:2.0;"/><text fill="#000000" font-family="sans-serif" font-size="14" lengthAdjust="spacing" textLength="48" x="20" y="844.3467">Nutzer</text><ellipse cx="47" cy="857.6484" fill="#FEFECE" filter="url(#fufmen20hn8r0)" rx="8" ry="8" style="stroke:#A80036;stroke-width:2.0;"/><path d="M47,865.6484 L47,892.6484 M34,873.6484 L60,873.6484 M47,892.6484 L34,907.6484 M47,892.6484 L60,907.6484 " fill="none" filter="url(#fufmen20hn8r0)" style="stroke:#A80036;stroke-width:2.0;"/><text fill="#000000" font-family="sans-serif" font-size="14" lengthAdjust="spacing" textLength="54" x="183" y="84.9951">System</text><ellipse cx="213" cy="56" fill="#DA70D5" filter="url(#fufmen20hn8r0)" rx="12" ry="12" style="stroke:#A80036;stroke-width:2.0;"/><line style="stroke:#A80036;stroke-width:2.0;" x1="201" x2="225" y1="70" y2="70"/><text fill="#000000" font-family="sans-serif" font-size="14" lengthAdjust="spacing" textLength="54" x="183" y="844.3467">System</text><ellipse cx="213" cy="863.6484" fill="#DA70D5" filter="url(#fufmen20hn8r0)" rx="12" ry="12" style="stroke:#A80036;stroke-width:2.0;"/><line style="stroke:#A80036;stroke-width:2.0;" x1="201" x2="225" y1="877.6484" y2="877.6484"/><rect fill="#FEFECE" filter="url(#fufmen20hn8r0)" height="30.2969" style="stroke:#A80036;stroke-width:1.5;" width="38" x="257" y="49"/><rect fill="#FEFECE" filter="url(#fufmen20hn8r0)" height="30.2969" style="stroke:#A80036;stroke-width:1.5;" width="38" x="253" y="53"/><text fill="#000000" font-family="sans-serif" font-size="14" lengthAdjust="spacing" textLength="24" x="260" y="72.9951">GUI</text><rect fill="#FEFECE" filter="url(#fufmen20hn8r0)" height="30.2969" style="stroke:#A80036;stroke-width:1.5;" width="38" x="257" y="831.3516"/><rect fill="#FEFECE" filter="url(#fufmen20hn8r0)" height="30.2969" style="stroke:#A80036;stroke-width:1.5;" width="38" x="253" y="835.3516"/><text fill="#000000" font-family="sans-serif" font-size="14" lengthAdjust="spacing" textLength="24" x="260" y="855.3467">GUI</text><rect fill="#FEFECE" filter="url(#fufmen20hn8r0)" height="30.2969" style="stroke:#A80036;stroke-width:1.5;" width="93" x="643.5" y="53"/><text fill="#000000" font-family="sans-serif" font-size="14" lengthAdjust="spacing" textLength="79" x="650.5" y="72.9951">ZoomMaps</text><rect fill="#FEFECE" filter="url(#fufmen20hn8r0)" height="30.2969" style="stroke:#A80036;stroke-width:1.5;" width="93" x="643.5" y="831.3516"/><text fill="#000000" font-family="sans-serif" font-size="14" lengthAdjust="spacing" textLength="79" x="650.5" y="851.3467">ZoomMaps</text><rect fill="#FEFECE" filter="url(#fufmen20hn8r0)" height="30.2969" style="stroke:#A80036;stroke-width:1.5;" width="128" x="1005" y="53"/><text fill="#000000" font-family="sans-serif" font-size="14" lengthAdjust="spacing" textLength="114" x="1012" y="72.9951">ZoomCalculator</text><rect fill="#FEFECE" filter="url(#fufmen20hn8r0)" height="30.2969" style="stroke:#A80036;stroke-width:1.5;" width="128" x="1005" y="831.3516"/><text fill="#000000" font-family="sans-serif" font-size="14" lengthAdjust="spacing" textLength="114" x="1012" y="851.3467">ZoomCalculator</text><rect fill="#FEFECE" filter="url(#fufmen20hn8r0)" height="30.2969" style="stroke:#A80036;stroke-width:1.5;" width="100" x="1335" y="53"/><text fill="#000000" font-family="sans-serif" font-size="14" lengthAdjust="spacing" textLength="86" x="1342" y="72.9951">ZoomImage</text><rect fill="#FEFECE" filter="url(#fufmen20hn8r0)" height="30.2969" style="stroke:#A80036;stroke-width:1.5;" width="100" x="1335" y="831.3516"/><text fill="#000000" font-family="sans-serif" font-size="14" lengthAdjust="spacing" textLength="86" x="1342" y="851.3467">ZoomImage</text><rect fill="#FEFECE" filter="url(#fufmen20hn8r0)" height="30.2969" style="stroke:#A80036;stroke-width:1.5;" width="94" x="1579" y="53"/><text fill="#000000" font-family="sans-serif" font-size="14" lengthAdjust="spacing" textLength="80" x="1586" y="72.9951">ZoomInput</text><rect fill="#FEFECE" filter="url(#fufmen20hn8r0)" height="30.2969" style="stroke:#A80036;stroke-width:1.5;" width="94" x="1579" y="831.3516"/><text fill="#000000" font-family="sans-serif" font-size="14" lengthAdjust="spacing" textLength="80" x="1586" y="851.3467">ZoomInput</text><rect fill="#FEFECE" filter="url(#fufmen20hn8r0)" height="30.2969" style="stroke:#A80036;stroke-width:1.5;" width="102" x="1687" y="53"/><text fill="#000000" font-family="sans-serif" font-size="14" lengthAdjust="spacing" textLength="88" x="1694" y="72.9951">configClient</text><rect fill="#FEFECE" filter="url(#fufmen20hn8r0)" height="30.2969" style="stroke:#A80036;stroke-width:1.5;" width="102" x="1687" y="831.3516"/><text fill="#000000" font-family="sans-serif" font-size="14" lengthAdjust="spacing" textLength="88" x="1694" y="851.3467">configClient</text><rect fill="#FEFECE" filter="url(#fufmen20hn8r0)" height="30.2969" style="stroke:#A80036;stroke-width:1.5;" width="79" x="1803" y="53"/><text fill="#000000" font-family="sans-serif" font-size="14" lengthAdjust="spacing" textLength="65" x="1810" y="72.9951">TrialData</text><rect fill="#FEFECE" filter="url(#fufmen20hn8r0)" height="30.2969" style="stroke:#A80036;stroke-width:1.5;" width="79" x="1803" y="831.3516"/><text fill="#000000" font-family="sans-serif" font-size="14" lengthAdjust="spacing" textLength="65" x="1810" y="851.3467">TrialData</text><rect fill="#FFFFFF" filter="url(#fufmen20hn8r0)" height="725.0547" style="stroke:#A80036;stroke-width:1.0;" width="10" x="42" y="98.2969"/><rect fill="#FFFFFF" filter="url(#fufmen20hn8r0)" height="725.0547" style="stroke:#A80036;stroke-width:1.0;" width="10" x="208" y="98.2969"/><rect fill="#FFFFFF" filter="url(#fufmen20hn8r0)" height="725.0547" style="stroke:#A80036;stroke-width:1.0;" width="10" x="271" y="98.2969"/><rect fill="#FFFFFF" filter="url(#fufmen20hn8r0)" height="651.7891" style="stroke:#A80036;stroke-width:1.0;" width="10" x="687" y="162.5625"/><rect fill="#FFFFFF" filter="url(#fufmen20hn8r0)" height="525.2578" style="stroke:#A80036;stroke-width:1.0;" width="10" x="1066" y="259.9609"/><rect fill="#FFFFFF" filter="url(#fufmen20hn8r0)" height="437.8594" style="stroke:#A80036;stroke-width:1.0;" width="10" x="1382" y="347.3594"/><rect fill="#FFFFFF" filter="url(#fufmen20hn8r0)" height="408.7266" style="stroke:#A80036;stroke-width:1.0;" width="10" x="1623" y="376.4922"/><rect fill="#FFFFFF" filter="url(#fufmen20hn8r0)" height="29.1328" style="stroke:#A80036;stroke-width:1.0;" width="10" x="1735" y="289.0938"/><rect fill="#FFFFFF" filter="url(#fufmen20hn8r0)" height="593.5234" style="stroke:#A80036;stroke-width:1.0;" width="10" x="1839.5" y="191.6953"/><rect fill="#EEEEEE" filter="url(#fufmen20hn8r0)" height="3" style="stroke:#EEEEEE;stroke-width:1.0;" width="1906" x="0" y="118.8633"/><line style="stroke:#000000;stroke-width:1.0;" x1="0" x2="1906" y1="118.8633" y2="118.8633"/><line style="stroke:#000000;stroke-width:1.0;" x1="0" x2="1906" y1="121.8633" y2="121.8633"/><rect fill="#EEEEEE" filter="url(#fufmen20hn8r0)" height="23.1328" style="stroke:#000000;stroke-width:2.0;" width="121" x="892.5" y="108.2969"/><text fill="#000000" font-family="sans-serif" font-size="13" font-weight="bold" lengthAdjust="spacing" textLength="102" x="898.5" y="124.3638">Initialisierung</text><polygon fill="#A80036" points="675,158.5625,685,162.5625,675,166.5625,679,162.5625" style="stroke:#A80036;stroke-width:1.0;"/><line style="stroke:#A80036;stroke-width:1.0;" x1="281" x2="681" y1="162.5625" y2="162.5625"/><text fill="#000000" font-family="sans-serif" font-size="13" lengthAdjust="spacing" textLength="387" x="288" y="157.4966">new ZoomMaps(primaryStage, configClient, dataBaseClient)</text><polygon fill="#A80036" points="1827.5,187.6953,1837.5,191.6953,1827.5,195.6953,1831.5,191.6953" style="stroke:#A80036;stroke-width:1.0;"/><line style="stroke:#A80036;stroke-width:1.0;" x1="697" x2="1833.5" y1="191.6953" y2="191.6953"/><text fill="#000000" font-family="sans-serif" font-size="13" lengthAdjust="spacing" textLength="89" x="704" y="186.6294">new TrialData</text><polygon fill="#A80036" points="708,221.8281,698,225.8281,708,229.8281,704,225.8281" style="stroke:#A80036;stroke-width:1.0;"/><line style="stroke:#A80036;stroke-width:1.0;stroke-dasharray:2.0,2.0;" x1="702" x2="1838.5" y1="225.8281" y2="225.8281"/><text fill="#000000" font-family="sans-serif" font-size="13" lengthAdjust="spacing" textLength="286" x="714" y="220.7622">TrialData Objekt zum Abspeichern der Daten</text><path d="M559,204.6953 L559,229.6953 L678,229.6953 L678,214.6953 L668,204.6953 L559,204.6953 " fill="#FBFB77" filter="url(#fufmen20hn8r0)" style="stroke:#A80036;stroke-width:1.0;"/><path d="M668,204.6953 L668,214.6953 L678,214.6953 L668,204.6953 " fill="#FBFB77" style="stroke:#A80036;stroke-width:1.0;"/><text fill="#000000" font-family="sans-serif" font-size="13" lengthAdjust="spacing" textLength="89" x="574" y="221.7622">new TrialData</text><polygon fill="#A80036" points="1054,255.9609,1064,259.9609,1054,263.9609,1058,259.9609" style="stroke:#A80036;stroke-width:1.0;"/><line style="stroke:#A80036;stroke-width:1.0;" x1="697" x2="1060" y1="259.9609" y2="259.9609"/><text fill="#000000" font-family="sans-serif" font-size="13" lengthAdjust="spacing" textLength="350" x="704" y="254.895">new ZoomCalculator(trialData, configClient, controller)</text><polygon fill="#A80036" points="1723,285.0938,1733,289.0938,1723,293.0938,1727,289.0938" style="stroke:#A80036;stroke-width:1.0;"/><line style="stroke:#A80036;stroke-width:1.0;" x1="1076" x2="1729" y1="289.0938" y2="289.0938"/><text fill="#000000" font-family="sans-serif" font-size="13" lengthAdjust="spacing" textLength="72" x="1083" y="284.0278">getConfig()</text><polygon fill="#A80036" points="1087,314.2266,1077,318.2266,1087,322.2266,1083,318.2266" style="stroke:#A80036;stroke-width:1.0;"/><line style="stroke:#A80036;stroke-width:1.0;stroke-dasharray:2.0,2.0;" x1="1081" x2="1739" y1="318.2266" y2="318.2266"/><text fill="#000000" font-family="sans-serif" font-size="13" lengthAdjust="spacing" textLength="85" x="1093" y="313.1606">Konfiguration</text><polygon fill="#A80036" points="1370,343.3594,1380,347.3594,1370,351.3594,1374,347.3594" style="stroke:#A80036;stroke-width:1.0;"/><line style="stroke:#A80036;stroke-width:1.0;" x1="1076" x2="1376" y1="347.3594" y2="347.3594"/><text fill="#000000" font-family="sans-serif" font-size="13" lengthAdjust="spacing" textLength="287" x="1083" y="342.2935">new ZoomImage(imageUrl, ImageView, this)</text><polygon fill="#A80036" points="1611,372.4922,1621,376.4922,1611,380.4922,1615,376.4922" style="stroke:#A80036;stroke-width:1.0;"/><line style="stroke:#A80036;stroke-width:1.0;" x1="1392" x2="1617" y1="376.4922" y2="376.4922"/><text fill="#000000" font-family="sans-serif" font-size="13" lengthAdjust="spacing" textLength="212" x="1399" y="371.4263">new ZoomInput(zoomCalculator)</text><rect fill="#EEEEEE" filter="url(#fufmen20hn8r0)" height="3" style="stroke:#EEEEEE;stroke-width:1.0;" width="1906" x="0" y="405.0586"/><line style="stroke:#000000;stroke-width:1.0;" x1="0" x2="1906" y1="405.0586" y2="405.0586"/><line style="stroke:#000000;stroke-width:1.0;" x1="0" x2="1906" y1="408.0586" y2="408.0586"/><rect fill="#EEEEEE" filter="url(#fufmen20hn8r0)" height="23.1328" style="stroke:#000000;stroke-width:2.0;" width="55" x="925.5" y="394.4922"/><text fill="#000000" font-family="sans-serif" font-size="13" font-weight="bold" lengthAdjust="spacing" textLength="36" x="931.5" y="410.5591">Test</text><path d="M10,434.625 L88,434.625 L88,441.625 L78,451.625 L10,451.625 L10,434.625 " fill="#EEEEEE" style="stroke:#000000;stroke-width:1.0;"/><rect fill="none" height="250.1953" style="stroke:#000000;stroke-width:2.0;" width="1886" x="10" y="434.625"/><text fill="#000000" font-family="sans-serif" font-size="13" font-weight="bold" lengthAdjust="spacing" textLength="33" x="25" y="447.6919">loop</text><polygon fill="#A80036" points="196,468.8906,206,472.8906,196,476.8906,200,472.8906" style="stroke:#A80036;stroke-width:1.0;"/><line style="stroke:#A80036;stroke-width:1.0;" x1="52" x2="202" y1="472.8906" y2="472.8906"/><text fill="#000000" font-family="sans-serif" font-size="13" lengthAdjust="spacing" textLength="132" x="59" y="467.8247">Scrollen bzw. Klicken</text><polygon fill="#A80036" points="1611,498.0234,1621,502.0234,1611,506.0234,1615,502.0234" style="stroke:#A80036;stroke-width:1.0;"/><line style="stroke:#A80036;stroke-width:1.0;" x1="218" x2="1617" y1="502.0234" y2="502.0234"/><text fill="#000000" font-family="sans-serif" font-size="13" lengthAdjust="spacing" textLength="37" x="225" y="496.9575">Event</text><polygon fill="#A80036" points="1087,527.1563,1077,531.1563,1087,535.1563,1083,531.1563" style="stroke:#A80036;stroke-width:1.0;"/><line style="stroke:#A80036;stroke-width:1.0;" x1="1081" x2="1622" y1="531.1563" y2="531.1563"/><text fill="#000000" font-family="sans-serif" font-size="13" lengthAdjust="spacing" textLength="205" x="1093" y="526.0903">processInput(Point2D, direction)</text><polygon fill="#A80036" points="1370,556.2891,1380,560.2891,1370,564.2891,1374,560.2891" style="stroke:#A80036;stroke-width:1.0;"/><line style="stroke:#A80036;stroke-width:1.0;" x1="1076" x2="1376" y1="560.2891" y2="560.2891"/><text fill="#000000" font-family="sans-serif" font-size="13" lengthAdjust="spacing" textLength="180" x="1083" y="555.2231">getImageCoordinbates(raw)</text><polygon fill="#A80036" points="1087,585.4219,1077,589.4219,1087,593.4219,1083,589.4219" style="stroke:#A80036;stroke-width:1.0;"/><line style="stroke:#A80036;stroke-width:1.0;stroke-dasharray:2.0,2.0;" x1="1081" x2="1381" y1="589.4219" y2="589.4219"/><text fill="#000000" font-family="sans-serif" font-size="13" lengthAdjust="spacing" textLength="50" x="1093" y="584.356">Point2D</text><polygon fill="#A80036" points="1370,614.5547,1380,618.5547,1370,622.5547,1374,618.5547" style="stroke:#A80036;stroke-width:1.0;"/><line style="stroke:#A80036;stroke-width:1.0;" x1="1076" x2="1376" y1="618.5547" y2="618.5547"/><text fill="#000000" font-family="sans-serif" font-size="13" lengthAdjust="spacing" textLength="188" x="1083" y="613.4888">move(img, direction * speed)</text><polygon fill="#A80036" points="1087,643.6875,1077,647.6875,1087,651.6875,1083,647.6875" style="stroke:#A80036;stroke-width:1.0;"/><line style="stroke:#A80036;stroke-width:1.0;" x1="1081" x2="1381" y1="647.6875" y2="647.6875"/><text fill="#000000" font-family="sans-serif" font-size="13" lengthAdjust="spacing" textLength="56" x="1093" y="642.6216">viewport</text><polygon fill="#A80036" points="1827.5,672.8203,1837.5,676.8203,1827.5,680.8203,1831.5,676.8203" style="stroke:#A80036;stroke-width:1.0;"/><line style="stroke:#A80036;stroke-width:1.0;" x1="1076" x2="1833.5" y1="676.8203" y2="676.8203"/><text fill="#000000" font-family="sans-serif" font-size="13" lengthAdjust="spacing" textLength="153" x="1083" y="671.7544">addDataPoint(viewport)</text><rect fill="#EEEEEE" filter="url(#fufmen20hn8r0)" height="3" style="stroke:#EEEEEE;stroke-width:1.0;" width="1906" x="0" y="712.3867"/><line style="stroke:#000000;stroke-width:1.0;" x1="0" x2="1906" y1="712.3867" y2="712.3867"/><line style="stroke:#000000;stroke-width:1.0;" x1="0" x2="1906" y1="715.3867" y2="715.3867"/><rect fill="#EEEEEE" filter="url(#fufmen20hn8r0)" height="23.1328" style="stroke:#000000;stroke-width:2.0;" width="55" x="925.5" y="701.8203"/><text fill="#000000" font-family="sans-serif" font-size="13" font-weight="bold" lengthAdjust="spacing" textLength="36" x="931.5" y="717.8872">Ende</text><polygon fill="#A80036" points="675,752.0859,685,756.0859,675,760.0859,679,756.0859" style="stroke:#A80036;stroke-width:1.0;"/><line style="stroke:#A80036;stroke-width:1.0;" x1="281" x2="681" y1="756.0859" y2="756.0859"/><text fill="#000000" font-family="sans-serif" font-size="13" lengthAdjust="spacing" textLength="150" x="288" y="751.02">endTest(String answer)</text><polygon fill="#A80036" points="708,781.2188,698,785.2188,708,789.2188,704,785.2188" style="stroke:#A80036;stroke-width:1.0;"/><line style="stroke:#A80036;stroke-width:1.0;stroke-dasharray:2.0,2.0;" x1="702" x2="1843.5" y1="785.2188" y2="785.2188"/><text fill="#000000" font-family="sans-serif" font-size="13" lengthAdjust="spacing" textLength="104" x="714" y="780.1528">erhobene Daten</text><polygon fill="#A80036" points="292,810.3516,282,814.3516,292,818.3516,288,814.3516" style="stroke:#A80036;stroke-width:1.0;"/><line style="stroke:#A80036;stroke-width:1.0;" x1="286" x2="691" y1="814.3516" y2="814.3516"/><text fill="#000000" font-family="sans-serif" font-size="13" lengthAdjust="spacing" textLength="371" x="298" y="809.2856">End(primaryStage, configClient, dataBaseClient, trialData)</text><!--MD5=[5c360768fb0cdb4aa34d2bdddbbff74f]
@startuml
skinparam defaultTextAlignment center

actor       Nutzer          as n
entity      System          as s    #DA70D5
collections GUI             as g

box ZoomMaps

participant ZoomMaps        as zm
participant ZoomCalculator  as zc
participant ZoomImage       as zb
participant ZoomInput       as zi
end box

participant configClient    as c
participant TrialData       as td

activate n
activate s
activate g

== Initialisierung ==
g -> zm : new ZoomMaps(primaryStage, configClient, dataBaseClient)
activate zm

zm -> td : new TrialData
activate td
td - -> zm : TrialData Objekt zum Abspeichern der Daten
note left : new TrialData
deactivate c

zm -> zc : new ZoomCalculator(trialData, configClient, controller)
activate zc
zc -> c : getConfig()
activate c
c - -> zc : Konfiguration
deactivate c
zc -> zb : new ZoomImage(imageUrl, ImageView, this)
activate zb
zb -> zi : new ZoomInput(zoomCalculator)
activate zi

== Test ==
loop
    n -> s : Scrollen bzw. Klicken
    s -> zi : Event
    zi -> zc : processInput(Point2D, direction)
    zc -> zb : getImageCoordinbates(raw)
    zb - -> zc : Point2D
    zc -> zb : move(img, direction * speed)
    zb -> zc : viewport
    zc -> td : addDataPoint(viewport)

end

== Ende ==
g -> zm : endTest(String answer)
td - -> zm : erhobene Daten
deactivate zb
deactivate td
deactivate zc
deactivate zi
zm -> g : End(primaryStage, configClient, dataBaseClient, trialData)
deactivate zm
@enduml

PlantUML version 1.2022.1beta9(Unknown compile time)
(GPL source distribution)
Java Runtime: Java(TM) SE Runtime Environment
JVM: Java HotSpot(TM) 64-Bit Server VM
Default Encoding: UTF-8
Language: en
Country: US
--></g></svg>