<?xml version="1.0" encoding="UTF-8" standalone="no"?><svg xmlns="http://www.w3.org/2000/svg" xmlns:xlink="http://www.w3.org/1999/xlink" contentScriptType="application/ecmascript" contentStyleType="text/css" height="925px" preserveAspectRatio="none" style="width:1913px;height:925px;background:#FFFFFF;" version="1.1" viewBox="0 0 1913 925" width="1913px" zoomAndPan="magnify"><defs><filter height="300%" id="f13p0og6taqlgd" width="300%" x="-1" y="-1"><feGaussianBlur result="blurOut" stdDeviation="2.0"/><feColorMatrix in="blurOut" result="blurOut2" type="matrix" values="0 0 0 0 0 0 0 0 0 0 0 0 0 0 0 0 0 0 .4 0"/><feOffset dx="4.0" dy="4.0" in="blurOut2" result="blurOut3"/><feBlend in="SourceGraphic" in2="blurOut3" mode="normal"/></filter></defs><g><rect fill="#DDDDDD" height="913.5156" style="stroke:#A80036;stroke-width:1.0;" width="1041.5" x="639.5" y="6"/><text fill="#000000" font-family="sans-serif" font-size="13" font-weight="bold" lengthAdjust="spacing" textLength="83" x="1118.75" y="18.0669">ZoomMaps</text><rect fill="#FFFFFF" filter="url(#f13p0og6taqlgd)" height="725.9219" style="stroke:#A80036;stroke-width:1.0;" width="10" x="42" y="98.2969"/><rect fill="#FFFFFF" filter="url(#f13p0og6taqlgd)" height="725.9219" style="stroke:#A80036;stroke-width:1.0;" width="10" x="208" y="98.2969"/><rect fill="#FFFFFF" filter="url(#f13p0og6taqlgd)" height="725.9219" style="stroke:#A80036;stroke-width:1.0;" width="10" x="271" y="98.2969"/><rect fill="#FFFFFF" filter="url(#f13p0og6taqlgd)" height="652.6563" style="stroke:#A80036;stroke-width:1.0;" width="10" x="687" y="162.5625"/><rect fill="#FFFFFF" filter="url(#f13p0og6taqlgd)" height="525.2578" style="stroke:#A80036;stroke-width:1.0;" width="10" x="1066" y="260.8281"/><rect fill="#FFFFFF" filter="url(#f13p0og6taqlgd)" height="437.8594" style="stroke:#A80036;stroke-width:1.0;" width="10" x="1382" y="348.2266"/><rect fill="#FFFFFF" filter="url(#f13p0og6taqlgd)" height="408.7266" style="stroke:#A80036;stroke-width:1.0;" width="10" x="1623" y="377.3594"/><rect fill="#FFFFFF" filter="url(#f13p0og6taqlgd)" height="29.1328" style="stroke:#A80036;stroke-width:1.0;" width="10" x="1735" y="289.9609"/><rect fill="#FFFFFF" filter="url(#f13p0og6taqlgd)" height="589.3906" style="stroke:#A80036;stroke-width:1.0;" width="10" x="1839.5" y="196.6953"/><rect fill="#FFFFFF" filter="url(#f13p0og6taqlgd)" height="250.1953" style="stroke:#000000;stroke-width:2.0;" width="1886" x="10" y="435.4922"/><line style="stroke:#A80036;stroke-width:1.0;stroke-dasharray:5.0,5.0;" x1="47" x2="47" y1="88.2969" y2="833.2188"/><line style="stroke:#A80036;stroke-width:1.0;stroke-dasharray:5.0,5.0;" x1="213" x2="213" y1="88.2969" y2="833.2188"/><line style="stroke:#A80036;stroke-width:1.0;stroke-dasharray:5.0,5.0;" x1="276" x2="276" y1="88.2969" y2="833.2188"/><line style="stroke:#A80036;stroke-width:1.0;stroke-dasharray:5.0,5.0;" x1="691.5" x2="691.5" y1="88.2969" y2="833.2188"/><line style="stroke:#A80036;stroke-width:1.0;stroke-dasharray:5.0,5.0;" x1="1071" x2="1071" y1="88.2969" y2="833.2188"/><line style="stroke:#A80036;stroke-width:1.0;stroke-dasharray:5.0,5.0;" x1="1387" x2="1387" y1="88.2969" y2="833.2188"/><line style="stroke:#A80036;stroke-width:1.0;stroke-dasharray:5.0,5.0;" x1="1628" x2="1628" y1="88.2969" y2="833.2188"/><line style="stroke:#A80036;stroke-width:1.0;stroke-dasharray:5.0,5.0;" x1="1740" x2="1740" y1="88.2969" y2="833.2188"/><line style="stroke:#A80036;stroke-width:1.0;stroke-dasharray:5.0,5.0;" x1="1844" x2="1844" y1="88.2969" y2="833.2188"/><text fill="#000000" font-family="sans-serif" font-size="14" lengthAdjust="spacing" textLength="48" x="20" y="84.9951">Nutzer</text><ellipse cx="47" cy="15" fill="#FEFECE" filter="url(#f13p0og6taqlgd)" rx="8" ry="8" style="stroke:#A80036;stroke-width:2.0;"/><path d="M47,23 L47,50 M34,31 L60,31 M47,50 L34,65 M47,50 L60,65 " fill="none" filter="url(#f13p0og6taqlgd)" style="stroke:#A80036;stroke-width:2.0;"/><text fill="#000000" font-family="sans-serif" font-size="14" lengthAdjust="spacing" textLength="48" x="20" y="845.2139">Nutzer</text><ellipse cx="47" cy="858.5156" fill="#FEFECE" filter="url(#f13p0og6taqlgd)" rx="8" ry="8" style="stroke:#A80036;stroke-width:2.0;"/><path d="M47,866.5156 L47,893.5156 M34,874.5156 L60,874.5156 M47,893.5156 L34,908.5156 M47,893.5156 L60,908.5156 " fill="none" filter="url(#f13p0og6taqlgd)" style="stroke:#A80036;stroke-width:2.0;"/><text fill="#000000" font-family="sans-serif" font-size="14" lengthAdjust="spacing" textLength="54" x="183" y="84.9951">System</text><ellipse cx="213" cy="56" fill="#DA70D5" filter="url(#f13p0og6taqlgd)" rx="12" ry="12" style="stroke:#A80036;stroke-width:2.0;"/><line style="stroke:#A80036;stroke-width:2.0;" x1="201" x2="225" y1="70" y2="70"/><text fill="#000000" font-family="sans-serif" font-size="14" lengthAdjust="spacing" textLength="54" x="183" y="845.2139">System</text><ellipse cx="213" cy="864.5156" fill="#DA70D5" filter="url(#f13p0og6taqlgd)" rx="12" ry="12" style="stroke:#A80036;stroke-width:2.0;"/><line style="stroke:#A80036;stroke-width:2.0;" x1="201" x2="225" y1="878.5156" y2="878.5156"/><rect fill="#FEFECE" filter="url(#f13p0og6taqlgd)" height="30.2969" style="stroke:#A80036;stroke-width:1.5;" width="38" x="257" y="49"/><rect fill="#FEFECE" filter="url(#f13p0og6taqlgd)" height="30.2969" style="stroke:#A80036;stroke-width:1.5;" width="38" x="253" y="53"/><text fill="#000000" font-family="sans-serif" font-size="14" lengthAdjust="spacing" textLength="24" x="260" y="72.9951">GUI</text><rect fill="#FEFECE" filter="url(#f13p0og6taqlgd)" height="30.2969" style="stroke:#A80036;stroke-width:1.5;" width="38" x="257" y="832.2188"/><rect fill="#FEFECE" filter="url(#f13p0og6taqlgd)" height="30.2969" style="stroke:#A80036;stroke-width:1.5;" width="38" x="253" y="836.2188"/><text fill="#000000" font-family="sans-serif" font-size="14" lengthAdjust="spacing" textLength="24" x="260" y="856.2139">GUI</text><rect fill="#FEFECE" filter="url(#f13p0og6taqlgd)" height="30.2969" style="stroke:#A80036;stroke-width:1.5;" width="93" x="643.5" y="53"/><text fill="#000000" font-family="sans-serif" font-size="14" lengthAdjust="spacing" textLength="79" x="650.5" y="72.9951">ZoomMaps</text><rect fill="#FEFECE" filter="url(#f13p0og6taqlgd)" height="30.2969" style="stroke:#A80036;stroke-width:1.5;" width="93" x="643.5" y="832.2188"/><text fill="#000000" font-family="sans-serif" font-size="14" lengthAdjust="spacing" textLength="79" x="650.5" y="852.2139">ZoomMaps</text><rect fill="#FEFECE" filter="url(#f13p0og6taqlgd)" height="30.2969" style="stroke:#A80036;stroke-width:1.5;" width="128" x="1005" y="53"/><text fill="#000000" font-family="sans-serif" font-size="14" lengthAdjust="spacing" textLength="114" x="1012" y="72.9951">ZoomCalculator</text><rect fill="#FEFECE" filter="url(#f13p0og6taqlgd)" height="30.2969" style="stroke:#A80036;stroke-width:1.5;" width="128" x="1005" y="832.2188"/><text fill="#000000" font-family="sans-serif" font-size="14" lengthAdjust="spacing" textLength="114" x="1012" y="852.2139">ZoomCalculator</text><rect fill="#FEFECE" filter="url(#f13p0og6taqlgd)" height="30.2969" style="stroke:#A80036;stroke-width:1.5;" width="100" x="1335" y="53"/><text fill="#000000" font-family="sans-serif" font-size="14" lengthAdjust="spacing" textLength="86" x="1342" y="72.9951">ZoomImage</text><rect fill="#FEFECE" filter="url(#f13p0og6taqlgd)" height="30.2969" style="stroke:#A80036;stroke-width:1.5;" width="100" x="1335" y="832.2188"/><text fill="#000000" font-family="sans-serif" font-size="14" lengthAdjust="spacing" textLength="86" x="1342" y="852.2139">ZoomImage</text><rect fill="#FEFECE" filter="url(#f13p0og6taqlgd)" height="30.2969" style="stroke:#A80036;stroke-width:1.5;" width="94" x="1579" y="53"/><text fill="#000000" font-family="sans-serif" font-size="14" lengthAdjust="spacing" textLength="80" x="1586" y="72.9951">ZoomInput</text><rect fill="#FEFECE" filter="url(#f13p0og6taqlgd)" height="30.2969" style="stroke:#A80036;stroke-width:1.5;" width="94" x="1579" y="832.2188"/><text fill="#000000" font-family="sans-serif" font-size="14" lengthAdjust="spacing" textLength="80" x="1586" y="852.2139">ZoomInput</text><rect fill="#FEFECE" filter="url(#f13p0og6taqlgd)" height="30.2969" style="stroke:#A80036;stroke-width:1.5;" width="102" x="1687" y="53"/><text fill="#000000" font-family="sans-serif" font-size="14" lengthAdjust="spacing" textLength="88" x="1694" y="72.9951">configClient</text><rect fill="#FEFECE" filter="url(#f13p0og6taqlgd)" height="30.2969" style="stroke:#A80036;stroke-width:1.5;" width="102" x="1687" y="832.2188"/><text fill="#000000" font-family="sans-serif" font-size="14" lengthAdjust="spacing" textLength="88" x="1694" y="852.2139">configClient</text><rect fill="#FEFECE" filter="url(#f13p0og6taqlgd)" height="30.2969" style="stroke:#A80036;stroke-width:1.5;" width="79" x="1803" y="53"/><text fill="#000000" font-family="sans-serif" font-size="14" lengthAdjust="spacing" textLength="65" x="1810" y="72.9951">TrialData</text><rect fill="#FEFECE" filter="url(#f13p0og6taqlgd)" height="30.2969" style="stroke:#A80036;stroke-width:1.5;" width="79" x="1803" y="832.2188"/><text fill="#000000" font-family="sans-serif" font-size="14" lengthAdjust="spacing" textLength="65" x="1810" y="852.2139">TrialData</text><rect fill="#FFFFFF" filter="url(#f13p0og6taqlgd)" height="725.9219" style="stroke:#A80036;stroke-width:1.0;" width="10" x="42" y="98.2969"/><rect fill="#FFFFFF" filter="url(#f13p0og6taqlgd)" height="725.9219" style="stroke:#A80036;stroke-width:1.0;" width="10" x="208" y="98.2969"/><rect fill="#FFFFFF" filter="url(#f13p0og6taqlgd)" height="725.9219" style="stroke:#A80036;stroke-width:1.0;" width="10" x="271" y="98.2969"/><rect fill="#FFFFFF" filter="url(#f13p0og6taqlgd)" height="652.6563" style="stroke:#A80036;stroke-width:1.0;" width="10" x="687" y="162.5625"/><rect fill="#FFFFFF" filter="url(#f13p0og6taqlgd)" height="525.2578" style="stroke:#A80036;stroke-width:1.0;" width="10" x="1066" y="260.8281"/><rect fill="#FFFFFF" filter="url(#f13p0og6taqlgd)" height="437.8594" style="stroke:#A80036;stroke-width:1.0;" width="10" x="1382" y="348.2266"/><rect fill="#FFFFFF" filter="url(#f13p0og6taqlgd)" height="408.7266" style="stroke:#A80036;stroke-width:1.0;" width="10" x="1623" y="377.3594"/><rect fill="#FFFFFF" filter="url(#f13p0og6taqlgd)" height="29.1328" style="stroke:#A80036;stroke-width:1.0;" width="10" x="1735" y="289.9609"/><rect fill="#FFFFFF" filter="url(#f13p0og6taqlgd)" height="589.3906" style="stroke:#A80036;stroke-width:1.0;" width="10" x="1839.5" y="196.6953"/><rect fill="#EEEEEE" filter="url(#f13p0og6taqlgd)" height="3" style="stroke:#EEEEEE;stroke-width:1.0;" width="1906" x="0" y="118.8633"/><line style="stroke:#000000;stroke-width:1.0;" x1="0" x2="1906" y1="118.8633" y2="118.8633"/><line style="stroke:#000000;stroke-width:1.0;" x1="0" x2="1906" y1="121.8633" y2="121.8633"/><rect fill="#EEEEEE" filter="url(#f13p0og6taqlgd)" height="23.1328" style="stroke:#000000;stroke-width:2.0;" width="121" x="892.5" y="108.2969"/><text fill="#000000" font-family="sans-serif" font-size="13" font-weight="bold" lengthAdjust="spacing" textLength="102" x="898.5" y="124.3638">Initialisierung</text><polygon fill="#A80036" points="675,158.5625,685,162.5625,675,166.5625,679,162.5625" style="stroke:#A80036;stroke-width:1.0;"/><line style="stroke:#A80036;stroke-width:1.0;" x1="281" x2="681" y1="162.5625" y2="162.5625"/><text fill="#000000" font-family="sans-serif" font-size="13" lengthAdjust="spacing" textLength="387" x="288" y="157.4966">new ZoomMaps(primaryStage, configClient, dataBaseClient)</text><polygon fill="#A80036" points="1827.5,192.6953,1837.5,196.6953,1827.5,200.6953,1831.5,196.6953" style="stroke:#A80036;stroke-width:1.0;"/><line style="stroke:#A80036;stroke-width:1.0;" x1="697" x2="1833.5" y1="196.6953" y2="196.6953"/><text fill="#000000" font-family="sans-serif" font-size="13" lengthAdjust="spacing" textLength="89" x="704" y="191.6294">new TrialData</text><path d="M331,175.5625 L331,200.5625 L678,200.5625 L678,185.5625 L668,175.5625 L331,175.5625 " fill="#FBFB77" filter="url(#f13p0og6taqlgd)" style="stroke:#A80036;stroke-width:1.0;"/><path d="M668,175.5625 L668,185.5625 L678,185.5625 L668,175.5625 " fill="#FBFB77" style="stroke:#A80036;stroke-width:1.0;"/><text fill="#000000" font-family="sans-serif" font-size="13" lengthAdjust="spacing" textLength="317" x="346" y="192.6294">TrialData Objekt zum Abspeichern der Ergebnisse</text><polygon fill="#A80036" points="1054,256.8281,1064,260.8281,1054,264.8281,1058,260.8281" style="stroke:#A80036;stroke-width:1.0;"/><line style="stroke:#A80036;stroke-width:1.0;" x1="697" x2="1060" y1="260.8281" y2="260.8281"/><text fill="#000000" font-family="sans-serif" font-size="13" lengthAdjust="spacing" textLength="350" x="704" y="255.7622">new ZoomCalculator(trialData, configClient, controller)</text><polygon fill="#A80036" points="1723,285.9609,1733,289.9609,1723,293.9609,1727,289.9609" style="stroke:#A80036;stroke-width:1.0;"/><line style="stroke:#A80036;stroke-width:1.0;" x1="1076" x2="1729" y1="289.9609" y2="289.9609"/><text fill="#000000" font-family="sans-serif" font-size="13" lengthAdjust="spacing" textLength="72" x="1083" y="284.895">getConfig()</text><polygon fill="#A80036" points="1087,315.0938,1077,319.0938,1087,323.0938,1083,319.0938" style="stroke:#A80036;stroke-width:1.0;"/><line style="stroke:#A80036;stroke-width:1.0;stroke-dasharray:2.0,2.0;" x1="1081" x2="1739" y1="319.0938" y2="319.0938"/><text fill="#000000" font-family="sans-serif" font-size="13" lengthAdjust="spacing" textLength="85" x="1093" y="314.0278">Konfiguration</text><polygon fill="#A80036" points="1370,344.2266,1380,348.2266,1370,352.2266,1374,348.2266" style="stroke:#A80036;stroke-width:1.0;"/><line style="stroke:#A80036;stroke-width:1.0;" x1="1076" x2="1376" y1="348.2266" y2="348.2266"/><text fill="#000000" font-family="sans-serif" font-size="13" lengthAdjust="spacing" textLength="287" x="1083" y="343.1606">new ZoomImage(imageUrl, ImageView, this)</text><polygon fill="#A80036" points="1611,373.3594,1621,377.3594,1611,381.3594,1615,377.3594" style="stroke:#A80036;stroke-width:1.0;"/><line style="stroke:#A80036;stroke-width:1.0;" x1="1392" x2="1617" y1="377.3594" y2="377.3594"/><text fill="#000000" font-family="sans-serif" font-size="13" lengthAdjust="spacing" textLength="212" x="1399" y="372.2935">new ZoomInput(zoomCalculator)</text><rect fill="#EEEEEE" filter="url(#f13p0og6taqlgd)" height="3" style="stroke:#EEEEEE;stroke-width:1.0;" width="1906" x="0" y="405.9258"/><line style="stroke:#000000;stroke-width:1.0;" x1="0" x2="1906" y1="405.9258" y2="405.9258"/><line style="stroke:#000000;stroke-width:1.0;" x1="0" x2="1906" y1="408.9258" y2="408.9258"/><rect fill="#EEEEEE" filter="url(#f13p0og6taqlgd)" height="23.1328" style="stroke:#000000;stroke-width:2.0;" width="55" x="925.5" y="395.3594"/><text fill="#000000" font-family="sans-serif" font-size="13" font-weight="bold" lengthAdjust="spacing" textLength="36" x="931.5" y="411.4263">Test</text><path d="M10,435.4922 L88,435.4922 L88,442.4922 L78,452.4922 L10,452.4922 L10,435.4922 " fill="#EEEEEE" style="stroke:#000000;stroke-width:1.0;"/><rect fill="none" height="250.1953" style="stroke:#000000;stroke-width:2.0;" width="1886" x="10" y="435.4922"/><text fill="#000000" font-family="sans-serif" font-size="13" font-weight="bold" lengthAdjust="spacing" textLength="33" x="25" y="448.5591">loop</text><polygon fill="#A80036" points="196,469.7578,206,473.7578,196,477.7578,200,473.7578" style="stroke:#A80036;stroke-width:1.0;"/><line style="stroke:#A80036;stroke-width:1.0;" x1="52" x2="202" y1="473.7578" y2="473.7578"/><text fill="#000000" font-family="sans-serif" font-size="13" lengthAdjust="spacing" textLength="132" x="59" y="468.6919">Scrollen bzw. Klicken</text><polygon fill="#A80036" points="1611,498.8906,1621,502.8906,1611,506.8906,1615,502.8906" style="stroke:#A80036;stroke-width:1.0;"/><line style="stroke:#A80036;stroke-width:1.0;" x1="218" x2="1617" y1="502.8906" y2="502.8906"/><text fill="#000000" font-family="sans-serif" font-size="13" lengthAdjust="spacing" textLength="37" x="225" y="497.8247">Event</text><polygon fill="#A80036" points="1087,528.0234,1077,532.0234,1087,536.0234,1083,532.0234" style="stroke:#A80036;stroke-width:1.0;"/><line style="stroke:#A80036;stroke-width:1.0;" x1="1081" x2="1622" y1="532.0234" y2="532.0234"/><text fill="#000000" font-family="sans-serif" font-size="13" lengthAdjust="spacing" textLength="205" x="1093" y="526.9575">processInput(Point2D, direction)</text><polygon fill="#A80036" points="1370,557.1563,1380,561.1563,1370,565.1563,1374,561.1563" style="stroke:#A80036;stroke-width:1.0;"/><line style="stroke:#A80036;stroke-width:1.0;" x1="1076" x2="1376" y1="561.1563" y2="561.1563"/><text fill="#000000" font-family="sans-serif" font-size="13" lengthAdjust="spacing" textLength="172" x="1083" y="556.0903">getImageCoordinates(raw)</text><polygon fill="#A80036" points="1087,586.2891,1077,590.2891,1087,594.2891,1083,590.2891" style="stroke:#A80036;stroke-width:1.0;"/><line style="stroke:#A80036;stroke-width:1.0;stroke-dasharray:2.0,2.0;" x1="1081" x2="1381" y1="590.2891" y2="590.2891"/><text fill="#000000" font-family="sans-serif" font-size="13" lengthAdjust="spacing" textLength="50" x="1093" y="585.2231">Point2D</text><polygon fill="#A80036" points="1370,615.4219,1380,619.4219,1370,623.4219,1374,619.4219" style="stroke:#A80036;stroke-width:1.0;"/><line style="stroke:#A80036;stroke-width:1.0;" x1="1076" x2="1376" y1="619.4219" y2="619.4219"/><text fill="#000000" font-family="sans-serif" font-size="13" lengthAdjust="spacing" textLength="188" x="1083" y="614.356">move(img, direction * speed)</text><polygon fill="#A80036" points="1087,644.5547,1077,648.5547,1087,652.5547,1083,648.5547" style="stroke:#A80036;stroke-width:1.0;"/><line style="stroke:#A80036;stroke-width:1.0;" x1="1081" x2="1381" y1="648.5547" y2="648.5547"/><text fill="#000000" font-family="sans-serif" font-size="13" lengthAdjust="spacing" textLength="56" x="1093" y="643.4888">viewport</text><polygon fill="#A80036" points="1827.5,673.6875,1837.5,677.6875,1827.5,681.6875,1831.5,677.6875" style="stroke:#A80036;stroke-width:1.0;"/><line style="stroke:#A80036;stroke-width:1.0;" x1="1076" x2="1833.5" y1="677.6875" y2="677.6875"/><text fill="#000000" font-family="sans-serif" font-size="13" lengthAdjust="spacing" textLength="153" x="1083" y="672.6216">addDataPoint(viewport)</text><rect fill="#EEEEEE" filter="url(#f13p0og6taqlgd)" height="3" style="stroke:#EEEEEE;stroke-width:1.0;" width="1906" x="0" y="713.2539"/><line style="stroke:#000000;stroke-width:1.0;" x1="0" x2="1906" y1="713.2539" y2="713.2539"/><line style="stroke:#000000;stroke-width:1.0;" x1="0" x2="1906" y1="716.2539" y2="716.2539"/><rect fill="#EEEEEE" filter="url(#f13p0og6taqlgd)" height="23.1328" style="stroke:#000000;stroke-width:2.0;" width="55" x="925.5" y="702.6875"/><text fill="#000000" font-family="sans-serif" font-size="13" font-weight="bold" lengthAdjust="spacing" textLength="36" x="931.5" y="718.7544">Ende</text><polygon fill="#A80036" points="675,752.9531,685,756.9531,675,760.9531,679,756.9531" style="stroke:#A80036;stroke-width:1.0;"/><line style="stroke:#A80036;stroke-width:1.0;" x1="281" x2="681" y1="756.9531" y2="756.9531"/><text fill="#000000" font-family="sans-serif" font-size="13" lengthAdjust="spacing" textLength="150" x="288" y="751.8872">endTest(String answer)</text><polygon fill="#A80036" points="708,782.0859,698,786.0859,708,790.0859,704,786.0859" style="stroke:#A80036;stroke-width:1.0;"/><line style="stroke:#A80036;stroke-width:1.0;stroke-dasharray:2.0,2.0;" x1="702" x2="1843.5" y1="786.0859" y2="786.0859"/><text fill="#000000" font-family="sans-serif" font-size="13" lengthAdjust="spacing" textLength="104" x="714" y="781.02">erhobene Daten</text><polygon fill="#A80036" points="292,811.2188,282,815.2188,292,819.2188,288,815.2188" style="stroke:#A80036;stroke-width:1.0;"/><line style="stroke:#A80036;stroke-width:1.0;" x1="286" x2="691" y1="815.2188" y2="815.2188"/><text fill="#000000" font-family="sans-serif" font-size="13" lengthAdjust="spacing" textLength="371" x="298" y="810.1528">End(primaryStage, configClient, dataBaseClient, trialData)</text><!--MD5=[990fadb3369bba4f0fadf49d85710cad]
@startuml
skinparam defaultTextAlignment center

actor       Nutzer          as n
entity      System          as s    #DA70D5
collections GUI             as g

box ZoomMaps

participant ZoomMaps        as zm
participant ZoomCalculator  as zc
participant ZoomImage       as zb
participant ZoomInput       as zi
end box

participant configClient    as c
participant TrialData       as td

activate n
activate s
activate g

== Initialisierung ==
g -> zm : new ZoomMaps(primaryStage, configClient, dataBaseClient)
activate zm

zm -> td : new TrialData
activate td
note left: TrialData Objekt zum Abspeichern der Ergebnisse
deactivate c

zm -> zc : new ZoomCalculator(trialData, configClient, controller)
activate zc
zc -> c : getConfig()
activate c
c - -> zc : Konfiguration
deactivate c
zc -> zb : new ZoomImage(imageUrl, ImageView, this)
activate zb
zb -> zi : new ZoomInput(zoomCalculator)
activate zi

== Test ==
loop
    n -> s : Scrollen bzw. Klicken
    s -> zi : Event
    zi -> zc : processInput(Point2D, direction)
    zc -> zb : getImageCoordinates(raw)
    zb - -> zc : Point2D
    zc -> zb : move(img, direction * speed)
    zb -> zc : viewport
    zc -> td : addDataPoint(viewport)

end

== Ende ==
g -> zm : endTest(String answer)
td - -> zm : erhobene Daten
deactivate zb
deactivate td
deactivate zc
deactivate zi
zm -> g : End(primaryStage, configClient, dataBaseClient, trialData)
deactivate zm
@enduml

PlantUML version 1.2022.1beta9(Unknown compile time)
(GPL source distribution)
Java Runtime: Java(TM) SE Runtime Environment
JVM: Java HotSpot(TM) 64-Bit Server VM
Default Encoding: UTF-8
Language: en
Country: US
--></g></svg>