<?xml version="1.0" encoding="UTF-8" standalone="no"?><svg xmlns="http://www.w3.org/2000/svg" xmlns:xlink="http://www.w3.org/1999/xlink" contentScriptType="application/ecmascript" contentStyleType="text/css" height="886px" preserveAspectRatio="none" style="width:1809px;height:886px;background:#FFFFFF;" version="1.1" viewBox="0 0 1809 886" width="1809px" zoomAndPan="magnify"><defs><filter height="300%" id="f14qiuyi2bqywb" width="300%" x="-1" y="-1"><feGaussianBlur result="blurOut" stdDeviation="2.0"/><feColorMatrix in="blurOut" result="blurOut2" type="matrix" values="0 0 0 0 0 0 0 0 0 0 0 0 0 0 0 0 0 0 .4 0"/><feOffset dx="4.0" dy="4.0" in="blurOut2" result="blurOut3"/><feBlend in="SourceGraphic" in2="blurOut3" mode="normal"/></filter></defs><g><rect fill="#DDDDDD" height="874.3828" style="stroke:#A80036;stroke-width:1.0;" width="1041.5" x="639.5" y="6"/><text fill="#000000" font-family="sans-serif" font-size="13" font-weight="bold" lengthAdjust="spacing" textLength="83" x="1118.75" y="18.0669">ZoomMaps</text><rect fill="#FFFFFF" filter="url(#f14qiuyi2bqywb)" height="686.7891" style="stroke:#A80036;stroke-width:1.0;" width="10" x="42" y="98.2969"/><rect fill="#FFFFFF" filter="url(#f14qiuyi2bqywb)" height="686.7891" style="stroke:#A80036;stroke-width:1.0;" width="10" x="208" y="98.2969"/><rect fill="#FFFFFF" filter="url(#f14qiuyi2bqywb)" height="686.7891" style="stroke:#A80036;stroke-width:1.0;" width="10" x="271" y="98.2969"/><rect fill="#FFFFFF" filter="url(#f14qiuyi2bqywb)" height="107.3984" style="stroke:#A80036;stroke-width:1.0;" width="10" x="687" y="162.5625"/><rect fill="#FFFFFF" filter="url(#f14qiuyi2bqywb)" height="29.1328" style="stroke:#A80036;stroke-width:1.0;" width="10" x="687" y="746.9531"/><rect fill="#FFFFFF" filter="url(#f14qiuyi2bqywb)" height="87.3984" style="stroke:#A80036;stroke-width:1.0;" width="10" x="1066" y="269.9609"/><rect fill="#FFFFFF" filter="url(#f14qiuyi2bqywb)" height="121.5313" style="stroke:#A80036;stroke-width:1.0;" width="10" x="1066" y="541.1563"/><rect fill="#FFFFFF" filter="url(#f14qiuyi2bqywb)" height="29.1328" style="stroke:#A80036;stroke-width:1.0;" width="10" x="1382" y="357.3594"/><rect fill="#FFFFFF" filter="url(#f14qiuyi2bqywb)" height="29.1328" style="stroke:#A80036;stroke-width:1.0;" width="10" x="1382" y="570.2891"/><rect fill="#FFFFFF" filter="url(#f14qiuyi2bqywb)" height="34.1328" style="stroke:#A80036;stroke-width:1.0;" width="10" x="1382" y="628.5547"/><rect fill="#FFFFFF" filter="url(#f14qiuyi2bqywb)" height="29.1328" style="stroke:#A80036;stroke-width:1.0;" width="10" x="1623" y="512.0234"/><rect fill="#FFFFFF" filter="url(#f14qiuyi2bqywb)" height="39.1328" style="stroke:#A80036;stroke-width:1.0;" width="10" x="1737" y="196.6953"/><rect fill="#FFFFFF" filter="url(#f14qiuyi2bqywb)" height="29.1328" style="stroke:#A80036;stroke-width:1.0;" width="10" x="1737" y="299.0938"/><rect fill="#FFFFFF" filter="url(#f14qiuyi2bqywb)" height="231.0625" style="stroke:#000000;stroke-width:2.0;" width="1677" x="10" y="444.625"/><line style="stroke:#A80036;stroke-width:1.0;stroke-dasharray:5.0,5.0;" x1="47" x2="47" y1="88.2969" y2="794.0859"/><line style="stroke:#A80036;stroke-width:1.0;stroke-dasharray:5.0,5.0;" x1="213" x2="213" y1="88.2969" y2="794.0859"/><line style="stroke:#A80036;stroke-width:1.0;stroke-dasharray:5.0,5.0;" x1="276" x2="276" y1="88.2969" y2="794.0859"/><line style="stroke:#A80036;stroke-width:1.0;stroke-dasharray:5.0,5.0;" x1="691.5" x2="691.5" y1="88.2969" y2="794.0859"/><line style="stroke:#A80036;stroke-width:1.0;stroke-dasharray:5.0,5.0;" x1="1071" x2="1071" y1="88.2969" y2="794.0859"/><line style="stroke:#A80036;stroke-width:1.0;stroke-dasharray:5.0,5.0;" x1="1387" x2="1387" y1="88.2969" y2="794.0859"/><line style="stroke:#A80036;stroke-width:1.0;stroke-dasharray:5.0,5.0;" x1="1628" x2="1628" y1="88.2969" y2="794.0859"/><line style="stroke:#A80036;stroke-width:1.0;stroke-dasharray:5.0,5.0;" x1="1742" x2="1742" y1="88.2969" y2="794.0859"/><text fill="#000000" font-family="sans-serif" font-size="14" lengthAdjust="spacing" textLength="48" x="20" y="84.9951">Nutzer</text><ellipse cx="47" cy="15" fill="#FEFECE" filter="url(#f14qiuyi2bqywb)" rx="8" ry="8" style="stroke:#A80036;stroke-width:2.0;"/><path d="M47,23 L47,50 M34,31 L60,31 M47,50 L34,65 M47,50 L60,65 " fill="none" filter="url(#f14qiuyi2bqywb)" style="stroke:#A80036;stroke-width:2.0;"/><text fill="#000000" font-family="sans-serif" font-size="14" lengthAdjust="spacing" textLength="48" x="20" y="806.0811">Nutzer</text><ellipse cx="47" cy="819.3828" fill="#FEFECE" filter="url(#f14qiuyi2bqywb)" rx="8" ry="8" style="stroke:#A80036;stroke-width:2.0;"/><path d="M47,827.3828 L47,854.3828 M34,835.3828 L60,835.3828 M47,854.3828 L34,869.3828 M47,854.3828 L60,869.3828 " fill="none" filter="url(#f14qiuyi2bqywb)" style="stroke:#A80036;stroke-width:2.0;"/><text fill="#000000" font-family="sans-serif" font-size="14" lengthAdjust="spacing" textLength="54" x="183" y="84.9951">System</text><ellipse cx="213" cy="56" fill="#DA70D5" filter="url(#f14qiuyi2bqywb)" rx="12" ry="12" style="stroke:#A80036;stroke-width:2.0;"/><line style="stroke:#A80036;stroke-width:2.0;" x1="201" x2="225" y1="70" y2="70"/><text fill="#000000" font-family="sans-serif" font-size="14" lengthAdjust="spacing" textLength="54" x="183" y="806.0811">System</text><ellipse cx="213" cy="825.3828" fill="#DA70D5" filter="url(#f14qiuyi2bqywb)" rx="12" ry="12" style="stroke:#A80036;stroke-width:2.0;"/><line style="stroke:#A80036;stroke-width:2.0;" x1="201" x2="225" y1="839.3828" y2="839.3828"/><rect fill="#FEFECE" filter="url(#f14qiuyi2bqywb)" height="30.2969" style="stroke:#A80036;stroke-width:1.5;" width="38" x="257" y="49"/><rect fill="#FEFECE" filter="url(#f14qiuyi2bqywb)" height="30.2969" style="stroke:#A80036;stroke-width:1.5;" width="38" x="253" y="53"/><text fill="#000000" font-family="sans-serif" font-size="14" lengthAdjust="spacing" textLength="24" x="260" y="72.9951">GUI</text><rect fill="#FEFECE" filter="url(#f14qiuyi2bqywb)" height="30.2969" style="stroke:#A80036;stroke-width:1.5;" width="38" x="257" y="793.0859"/><rect fill="#FEFECE" filter="url(#f14qiuyi2bqywb)" height="30.2969" style="stroke:#A80036;stroke-width:1.5;" width="38" x="253" y="797.0859"/><text fill="#000000" font-family="sans-serif" font-size="14" lengthAdjust="spacing" textLength="24" x="260" y="817.0811">GUI</text><rect fill="#FEFECE" filter="url(#f14qiuyi2bqywb)" height="30.2969" style="stroke:#A80036;stroke-width:1.5;" width="93" x="643.5" y="53"/><text fill="#000000" font-family="sans-serif" font-size="14" lengthAdjust="spacing" textLength="79" x="650.5" y="72.9951">ZoomMaps</text><rect fill="#FEFECE" filter="url(#f14qiuyi2bqywb)" height="30.2969" style="stroke:#A80036;stroke-width:1.5;" width="93" x="643.5" y="793.0859"/><text fill="#000000" font-family="sans-serif" font-size="14" lengthAdjust="spacing" textLength="79" x="650.5" y="813.0811">ZoomMaps</text><rect fill="#FEFECE" filter="url(#f14qiuyi2bqywb)" height="30.2969" style="stroke:#A80036;stroke-width:1.5;" width="128" x="1005" y="53"/><text fill="#000000" font-family="sans-serif" font-size="14" lengthAdjust="spacing" textLength="114" x="1012" y="72.9951">ZoomCalculator</text><rect fill="#FEFECE" filter="url(#f14qiuyi2bqywb)" height="30.2969" style="stroke:#A80036;stroke-width:1.5;" width="128" x="1005" y="793.0859"/><text fill="#000000" font-family="sans-serif" font-size="14" lengthAdjust="spacing" textLength="114" x="1012" y="813.0811">ZoomCalculator</text><rect fill="#FEFECE" filter="url(#f14qiuyi2bqywb)" height="30.2969" style="stroke:#A80036;stroke-width:1.5;" width="100" x="1335" y="53"/><text fill="#000000" font-family="sans-serif" font-size="14" lengthAdjust="spacing" textLength="86" x="1342" y="72.9951">ZoomImage</text><rect fill="#FEFECE" filter="url(#f14qiuyi2bqywb)" height="30.2969" style="stroke:#A80036;stroke-width:1.5;" width="100" x="1335" y="793.0859"/><text fill="#000000" font-family="sans-serif" font-size="14" lengthAdjust="spacing" textLength="86" x="1342" y="813.0811">ZoomImage</text><rect fill="#FEFECE" filter="url(#f14qiuyi2bqywb)" height="30.2969" style="stroke:#A80036;stroke-width:1.5;" width="94" x="1579" y="53"/><text fill="#000000" font-family="sans-serif" font-size="14" lengthAdjust="spacing" textLength="80" x="1586" y="72.9951">ZoomInput</text><rect fill="#FEFECE" filter="url(#f14qiuyi2bqywb)" height="30.2969" style="stroke:#A80036;stroke-width:1.5;" width="94" x="1579" y="793.0859"/><text fill="#000000" font-family="sans-serif" font-size="14" lengthAdjust="spacing" textLength="80" x="1586" y="813.0811">ZoomInput</text><rect fill="#FEFECE" filter="url(#f14qiuyi2bqywb)" height="30.2969" style="stroke:#A80036;stroke-width:1.5;" width="102" x="1691" y="49"/><rect fill="#FEFECE" filter="url(#f14qiuyi2bqywb)" height="30.2969" style="stroke:#A80036;stroke-width:1.5;" width="102" x="1687" y="53"/><text fill="#000000" font-family="sans-serif" font-size="14" lengthAdjust="spacing" textLength="88" x="1694" y="72.9951">configClient</text><rect fill="#FEFECE" filter="url(#f14qiuyi2bqywb)" height="30.2969" style="stroke:#A80036;stroke-width:1.5;" width="102" x="1691" y="793.0859"/><rect fill="#FEFECE" filter="url(#f14qiuyi2bqywb)" height="30.2969" style="stroke:#A80036;stroke-width:1.5;" width="102" x="1687" y="797.0859"/><text fill="#000000" font-family="sans-serif" font-size="14" lengthAdjust="spacing" textLength="88" x="1694" y="817.0811">configClient</text><rect fill="#FFFFFF" filter="url(#f14qiuyi2bqywb)" height="686.7891" style="stroke:#A80036;stroke-width:1.0;" width="10" x="42" y="98.2969"/><rect fill="#FFFFFF" filter="url(#f14qiuyi2bqywb)" height="686.7891" style="stroke:#A80036;stroke-width:1.0;" width="10" x="208" y="98.2969"/><rect fill="#FFFFFF" filter="url(#f14qiuyi2bqywb)" height="686.7891" style="stroke:#A80036;stroke-width:1.0;" width="10" x="271" y="98.2969"/><rect fill="#FFFFFF" filter="url(#f14qiuyi2bqywb)" height="107.3984" style="stroke:#A80036;stroke-width:1.0;" width="10" x="687" y="162.5625"/><rect fill="#FFFFFF" filter="url(#f14qiuyi2bqywb)" height="29.1328" style="stroke:#A80036;stroke-width:1.0;" width="10" x="687" y="746.9531"/><rect fill="#FFFFFF" filter="url(#f14qiuyi2bqywb)" height="87.3984" style="stroke:#A80036;stroke-width:1.0;" width="10" x="1066" y="269.9609"/><rect fill="#FFFFFF" filter="url(#f14qiuyi2bqywb)" height="121.5313" style="stroke:#A80036;stroke-width:1.0;" width="10" x="1066" y="541.1563"/><rect fill="#FFFFFF" filter="url(#f14qiuyi2bqywb)" height="29.1328" style="stroke:#A80036;stroke-width:1.0;" width="10" x="1382" y="357.3594"/><rect fill="#FFFFFF" filter="url(#f14qiuyi2bqywb)" height="29.1328" style="stroke:#A80036;stroke-width:1.0;" width="10" x="1382" y="570.2891"/><rect fill="#FFFFFF" filter="url(#f14qiuyi2bqywb)" height="34.1328" style="stroke:#A80036;stroke-width:1.0;" width="10" x="1382" y="628.5547"/><rect fill="#FFFFFF" filter="url(#f14qiuyi2bqywb)" height="29.1328" style="stroke:#A80036;stroke-width:1.0;" width="10" x="1623" y="512.0234"/><rect fill="#FFFFFF" filter="url(#f14qiuyi2bqywb)" height="39.1328" style="stroke:#A80036;stroke-width:1.0;" width="10" x="1737" y="196.6953"/><rect fill="#FFFFFF" filter="url(#f14qiuyi2bqywb)" height="29.1328" style="stroke:#A80036;stroke-width:1.0;" width="10" x="1737" y="299.0938"/><rect fill="#EEEEEE" filter="url(#f14qiuyi2bqywb)" height="3" style="stroke:#EEEEEE;stroke-width:1.0;" width="1802" x="0" y="118.8633"/><line style="stroke:#000000;stroke-width:1.0;" x1="0" x2="1802" y1="118.8633" y2="118.8633"/><line style="stroke:#000000;stroke-width:1.0;" x1="0" x2="1802" y1="121.8633" y2="121.8633"/><rect fill="#EEEEEE" filter="url(#f14qiuyi2bqywb)" height="23.1328" style="stroke:#000000;stroke-width:2.0;" width="121" x="840.5" y="108.2969"/><text fill="#000000" font-family="sans-serif" font-size="13" font-weight="bold" lengthAdjust="spacing" textLength="102" x="846.5" y="124.3638">Initialisierung</text><polygon fill="#A80036" points="675,158.5625,685,162.5625,675,166.5625,679,162.5625" style="stroke:#A80036;stroke-width:1.0;"/><line style="stroke:#A80036;stroke-width:1.0;" x1="281" x2="681" y1="162.5625" y2="162.5625"/><text fill="#000000" font-family="sans-serif" font-size="13" lengthAdjust="spacing" textLength="387" x="288" y="157.4966">new ZoomMaps(primaryStage, configClient, dataBaseClient)</text><polygon fill="#A80036" points="1725,192.6953,1735,196.6953,1725,200.6953,1729,196.6953" style="stroke:#A80036;stroke-width:1.0;"/><line style="stroke:#A80036;stroke-width:1.0;" x1="697" x2="1731" y1="196.6953" y2="196.6953"/><text fill="#000000" font-family="sans-serif" font-size="13" lengthAdjust="spacing" textLength="72" x="704" y="191.6294">getConfig()</text><path d="M371,175.5625 L371,200.5625 L678,200.5625 L678,185.5625 L668,175.5625 L371,175.5625 " fill="#FBFB77" filter="url(#f14qiuyi2bqywb)" style="stroke:#A80036;stroke-width:1.0;"/><path d="M668,175.5625 L668,185.5625 L678,185.5625 L668,175.5625 " fill="#FBFB77" style="stroke:#A80036;stroke-width:1.0;"/><text fill="#000000" font-family="sans-serif" font-size="13" lengthAdjust="spacing" textLength="277" x="386" y="192.6294">auslesen und verarbeiten der Konfiguration</text><polygon fill="#A80036" points="708,231.8281,698,235.8281,708,239.8281,704,235.8281" style="stroke:#A80036;stroke-width:1.0;"/><line style="stroke:#A80036;stroke-width:1.0;stroke-dasharray:2.0,2.0;" x1="702" x2="1741" y1="235.8281" y2="235.8281"/><text fill="#000000" font-family="sans-serif" font-size="13" lengthAdjust="spacing" textLength="31" x="714" y="230.7622">Data</text><path d="M559,214.6953 L559,239.6953 L678,239.6953 L678,224.6953 L668,214.6953 L559,214.6953 " fill="#FBFB77" filter="url(#f14qiuyi2bqywb)" style="stroke:#A80036;stroke-width:1.0;"/><path d="M668,214.6953 L668,224.6953 L678,224.6953 L668,214.6953 " fill="#FBFB77" style="stroke:#A80036;stroke-width:1.0;"/><text fill="#000000" font-family="sans-serif" font-size="13" lengthAdjust="spacing" textLength="89" x="574" y="231.7622">new TrialData</text><polygon fill="#A80036" points="1054,265.9609,1064,269.9609,1054,273.9609,1058,269.9609" style="stroke:#A80036;stroke-width:1.0;"/><line style="stroke:#A80036;stroke-width:1.0;" x1="692" x2="1060" y1="269.9609" y2="269.9609"/><text fill="#000000" font-family="sans-serif" font-size="13" lengthAdjust="spacing" textLength="350" x="699" y="264.895">new ZoomCalculator(trialData, configClient, controller)</text><polygon fill="#A80036" points="1725,295.0938,1735,299.0938,1725,303.0938,1729,299.0938" style="stroke:#A80036;stroke-width:1.0;"/><line style="stroke:#A80036;stroke-width:1.0;" x1="1076" x2="1731" y1="299.0938" y2="299.0938"/><text fill="#000000" font-family="sans-serif" font-size="13" lengthAdjust="spacing" textLength="72" x="1083" y="294.0278">getConfig()</text><polygon fill="#A80036" points="1087,324.2266,1077,328.2266,1087,332.2266,1083,328.2266" style="stroke:#A80036;stroke-width:1.0;"/><line style="stroke:#A80036;stroke-width:1.0;stroke-dasharray:2.0,2.0;" x1="1081" x2="1741" y1="328.2266" y2="328.2266"/><text fill="#000000" font-family="sans-serif" font-size="13" lengthAdjust="spacing" textLength="167" x="1093" y="323.1606">imageUrl, question, speed</text><polygon fill="#A80036" points="1370,353.3594,1380,357.3594,1370,361.3594,1374,357.3594" style="stroke:#A80036;stroke-width:1.0;"/><line style="stroke:#A80036;stroke-width:1.0;" x1="1071" x2="1376" y1="357.3594" y2="357.3594"/><text fill="#000000" font-family="sans-serif" font-size="13" lengthAdjust="spacing" textLength="287" x="1078" y="352.2935">new ZoomImage(imageUrl, ImageView, this)</text><polygon fill="#A80036" points="1616,382.4922,1626,386.4922,1616,390.4922,1620,386.4922" style="stroke:#A80036;stroke-width:1.0;"/><line style="stroke:#A80036;stroke-width:1.0;" x1="1387" x2="1622" y1="386.4922" y2="386.4922"/><text fill="#000000" font-family="sans-serif" font-size="13" lengthAdjust="spacing" textLength="212" x="1394" y="381.4263">new ZoomInput(zoomCalculator)</text><rect fill="#EEEEEE" filter="url(#f14qiuyi2bqywb)" height="3" style="stroke:#EEEEEE;stroke-width:1.0;" width="1802" x="0" y="415.0586"/><line style="stroke:#000000;stroke-width:1.0;" x1="0" x2="1802" y1="415.0586" y2="415.0586"/><line style="stroke:#000000;stroke-width:1.0;" x1="0" x2="1802" y1="418.0586" y2="418.0586"/><rect fill="#EEEEEE" filter="url(#f14qiuyi2bqywb)" height="23.1328" style="stroke:#000000;stroke-width:2.0;" width="55" x="873.5" y="404.4922"/><text fill="#000000" font-family="sans-serif" font-size="13" font-weight="bold" lengthAdjust="spacing" textLength="36" x="879.5" y="420.5591">Test</text><path d="M10,444.625 L88,444.625 L88,451.625 L78,461.625 L10,461.625 L10,444.625 " fill="#EEEEEE" style="stroke:#000000;stroke-width:1.0;"/><rect fill="none" height="231.0625" style="stroke:#000000;stroke-width:2.0;" width="1677" x="10" y="444.625"/><text fill="#000000" font-family="sans-serif" font-size="13" font-weight="bold" lengthAdjust="spacing" textLength="33" x="25" y="457.6919">loop</text><polygon fill="#A80036" points="196,478.8906,206,482.8906,196,486.8906,200,482.8906" style="stroke:#A80036;stroke-width:1.0;"/><line style="stroke:#A80036;stroke-width:1.0;" x1="52" x2="202" y1="482.8906" y2="482.8906"/><text fill="#000000" font-family="sans-serif" font-size="13" lengthAdjust="spacing" textLength="132" x="59" y="477.8247">Scrollen bzw. Klicken</text><polygon fill="#A80036" points="1611,508.0234,1621,512.0234,1611,516.0234,1615,512.0234" style="stroke:#A80036;stroke-width:1.0;"/><line style="stroke:#A80036;stroke-width:1.0;" x1="218" x2="1617" y1="512.0234" y2="512.0234"/><text fill="#000000" font-family="sans-serif" font-size="13" lengthAdjust="spacing" textLength="37" x="225" y="506.9575">Event</text><polygon fill="#A80036" points="1087,537.1563,1077,541.1563,1087,545.1563,1083,541.1563" style="stroke:#A80036;stroke-width:1.0;"/><line style="stroke:#A80036;stroke-width:1.0;" x1="1081" x2="1627" y1="541.1563" y2="541.1563"/><text fill="#000000" font-family="sans-serif" font-size="13" lengthAdjust="spacing" textLength="205" x="1093" y="536.0903">processInput(Point2D, direction)</text><polygon fill="#A80036" points="1370,566.2891,1380,570.2891,1370,574.2891,1374,570.2891" style="stroke:#A80036;stroke-width:1.0;"/><line style="stroke:#A80036;stroke-width:1.0;" x1="1076" x2="1376" y1="570.2891" y2="570.2891"/><text fill="#000000" font-family="sans-serif" font-size="13" lengthAdjust="spacing" textLength="180" x="1083" y="565.2231">getImageCoordinbates(raw)</text><polygon fill="#A80036" points="1087,595.4219,1077,599.4219,1087,603.4219,1083,599.4219" style="stroke:#A80036;stroke-width:1.0;"/><line style="stroke:#A80036;stroke-width:1.0;stroke-dasharray:2.0,2.0;" x1="1081" x2="1386" y1="599.4219" y2="599.4219"/><text fill="#000000" font-family="sans-serif" font-size="13" lengthAdjust="spacing" textLength="50" x="1093" y="594.356">Point2D</text><polygon fill="#A80036" points="1370,624.5547,1380,628.5547,1370,632.5547,1374,628.5547" style="stroke:#A80036;stroke-width:1.0;"/><line style="stroke:#A80036;stroke-width:1.0;" x1="1076" x2="1376" y1="628.5547" y2="628.5547"/><text fill="#000000" font-family="sans-serif" font-size="13" lengthAdjust="spacing" textLength="188" x="1083" y="623.4888">move(img, direction * speed)</text><polygon fill="#A80036" points="1082,658.6875,1072,662.6875,1082,666.6875,1078,662.6875" style="stroke:#A80036;stroke-width:1.0;"/><line style="stroke:#A80036;stroke-width:1.0;" x1="1076" x2="1386" y1="662.6875" y2="662.6875"/><text fill="#000000" font-family="sans-serif" font-size="13" lengthAdjust="spacing" textLength="56" x="1088" y="657.6216">viewport</text><path d="M812,641.5547 L812,666.5547 L1057,666.5547 L1057,651.5547 L1047,641.5547 L812,641.5547 " fill="#FBFB77" filter="url(#f14qiuyi2bqywb)" style="stroke:#A80036;stroke-width:1.0;"/><path d="M1047,641.5547 L1047,651.5547 L1057,651.5547 L1047,641.5547 " fill="#FBFB77" style="stroke:#A80036;stroke-width:1.0;"/><text fill="#000000" font-family="sans-serif" font-size="13" lengthAdjust="spacing" textLength="215" x="827" y="658.6216">TrialData.addDataPoint(viewport)</text><rect fill="#EEEEEE" filter="url(#f14qiuyi2bqywb)" height="3" style="stroke:#EEEEEE;stroke-width:1.0;" width="1802" x="0" y="703.2539"/><line style="stroke:#000000;stroke-width:1.0;" x1="0" x2="1802" y1="703.2539" y2="703.2539"/><line style="stroke:#000000;stroke-width:1.0;" x1="0" x2="1802" y1="706.2539" y2="706.2539"/><rect fill="#EEEEEE" filter="url(#f14qiuyi2bqywb)" height="23.1328" style="stroke:#000000;stroke-width:2.0;" width="55" x="873.5" y="692.6875"/><text fill="#000000" font-family="sans-serif" font-size="13" font-weight="bold" lengthAdjust="spacing" textLength="36" x="879.5" y="708.7544">Ende</text><polygon fill="#A80036" points="675,742.9531,685,746.9531,675,750.9531,679,746.9531" style="stroke:#A80036;stroke-width:1.0;"/><line style="stroke:#A80036;stroke-width:1.0;" x1="281" x2="681" y1="746.9531" y2="746.9531"/><text fill="#000000" font-family="sans-serif" font-size="13" lengthAdjust="spacing" textLength="150" x="288" y="741.8872">endTest(String answer)</text><polygon fill="#A80036" points="292,772.0859,282,776.0859,292,780.0859,288,776.0859" style="stroke:#A80036;stroke-width:1.0;"/><line style="stroke:#A80036;stroke-width:1.0;" x1="286" x2="691" y1="776.0859" y2="776.0859"/><text fill="#000000" font-family="sans-serif" font-size="13" lengthAdjust="spacing" textLength="371" x="298" y="771.02">End(primaryStage, configClient, dataBaseClient, trialData)</text><!--MD5=[a4ed45c1f90e34d7d4fe929131491533]
@startuml
skinparam defaultTextAlignment center

actor       Nutzer          as n
entity      System          as s    #DA70D5
collections GUI             as g

box ZoomMaps

participant ZoomMaps        as zm
participant ZoomCalculator  as zc
participant ZoomImage       as zb
participant ZoomInput       as zi
end box

collections configClient          as c

activate n
activate s
activate g

== Initialisierung ==
g -> zm : new ZoomMaps(primaryStage, configClient, dataBaseClient)
activate zm
zm -> c : getConfig()
note left: auslesen und verarbeiten der Konfiguration
activate c
c - -> zm : Data
note left : new TrialData
deactivate c

zm -> zc : new ZoomCalculator(trialData, configClient, controller)
deactivate zm
activate zc
zc -> c : getConfig()
activate c
c - -> zc : imageUrl, question, speed
deactivate c
zc -> zb : new ZoomImage(imageUrl, ImageView, this)
deactivate zc
activate zb
zb -> zi : new ZoomInput(zoomCalculator)
deactivate zb

== Test ==
loop
    n -> s : Scrollen bzw. Klicken
    s -> zi : Event
    activate zi
    zi -> zc : processInput(Point2D, direction)
    deactivate zi
    activate zc
    zc -> zb : getImageCoordinbates(raw)
    activate zb
    zb - -> zc : Point2D
    deactivate zb
    zc -> zb : move(img, direction * speed)
    activate zb
    zb -> zc : viewport
    deactivate zb
    note left : TrialData.addDataPoint(viewport)
    deactivate zc

end

== Ende == 
g -> zm : endTest(String answer)
activate zm
zm -> g : End(primaryStage, configClient, dataBaseClient, trialData)
deactivate zm
@enduml

PlantUML version 1.2022.1beta9(Unknown compile time)
(GPL source distribution)
Java Runtime: Java(TM) SE Runtime Environment
JVM: Java HotSpot(TM) 64-Bit Server VM
Default Encoding: UTF-8
Language: en
Country: US
--></g></svg>