<?xml version="1.0" encoding="UTF-8" standalone="no"?><svg xmlns="http://www.w3.org/2000/svg" xmlns:xlink="http://www.w3.org/1999/xlink" contentScriptType="application/ecmascript" contentStyleType="text/css" height="458px" preserveAspectRatio="none" style="width:1030px;height:458px;background:#FFFFFF;" version="1.1" viewBox="0 0 1030 458" width="1030px" zoomAndPan="magnify"><defs><filter height="300%" id="f18dd2twfqoj4j" width="300%" x="-1" y="-1"><feGaussianBlur result="blurOut" stdDeviation="2.0"/><feColorMatrix in="blurOut" result="blurOut2" type="matrix" values="0 0 0 0 0 0 0 0 0 0 0 0 0 0 0 0 0 0 .4 0"/><feOffset dx="4.0" dy="4.0" in="blurOut2" result="blurOut3"/><feBlend in="SourceGraphic" in2="blurOut3" mode="normal"/></filter></defs><g><!--MD5=[0dddb7f964ed21e384072c4693cca302]
cluster z--><rect fill="#789DD5" filter="url(#f18dd2twfqoj4j)" height="383" style="stroke:#000000;stroke-width:1.5;" width="303" x="143" y="7"/><text fill="#000000" font-family="sans-serif" font-size="14" font-weight="bold" lengthAdjust="spacing" textLength="89" x="250" y="21.9951">ZoomMaps</text><!--MD5=[b3179ce4f793cc951a1964cbf548eaa1]
cluster c--><rect fill="#FFFFFF" filter="url(#f18dd2twfqoj4j)" height="128" style="stroke:#000000;stroke-width:1.5;" width="235" x="646" y="148"/><text fill="#000000" font-family="sans-serif" font-size="14" font-weight="bold" lengthAdjust="spacing" textLength="52" x="737.5" y="162.9951">Config</text><!--MD5=[03c9795141fffc1586b10a901fd13311]
cluster a--><rect fill="#FFFFFF" filter="url(#f18dd2twfqoj4j)" height="130" style="stroke:#000000;stroke-width:1.5;" width="243" x="642" y="316"/><text fill="#000000" font-family="sans-serif" font-size="14" font-weight="bold" lengthAdjust="spacing" textLength="63" x="732" y="330.9951">Analyse</text><ellipse cx="294.5998" cy="254.22" fill="#FEFECE" filter="url(#f18dd2twfqoj4j)" rx="86.5998" ry="19.72" style="stroke:#A80036;stroke-width:1.5;"/><text fill="#000000" font-family="sans-serif" font-size="14" lengthAdjust="spacing" textLength="134" x="227.5998" y="257.0666">Tutorial anschauen</text><ellipse cx="294.2532" cy="180.9506" fill="#FEFECE" filter="url(#f18dd2twfqoj4j)" rx="77.7532" ry="17.9506" style="stroke:#A80036;stroke-width:1.5;"/><text fill="#000000" font-family="sans-serif" font-size="14" lengthAdjust="spacing" textLength="113" x="235.1994" y="184.5809">Bild betrachten</text><ellipse cx="294.5656" cy="328.1131" fill="#FEFECE" filter="url(#f18dd2twfqoj4j)" rx="83.5656" ry="19.1131" style="stroke:#A80036;stroke-width:1.5;"/><text fill="#000000" font-family="sans-serif" font-size="14" lengthAdjust="spacing" textLength="127" x="230.6623" y="331.0974">Antwort abgeben</text><ellipse cx="294.4511" cy="80.9562" fill="#FEFECE" filter="url(#f18dd2twfqoj4j)" rx="127.4511" ry="30.4562" style="stroke:#A80036;stroke-width:1.5;"/><text fill="#000000" font-family="sans-serif" font-size="14" lengthAdjust="spacing" textLength="172" x="208.4511" y="73.9071">Bildausschnitt anpassen</text><line style="stroke:#A80036;stroke-width:1.0;stroke-dasharray:1.0,2.0;" x1="168.9684" x2="419.9338" y1="77.2089" y2="77.2089"/><text fill="#000000" font-family="sans-serif" font-size="14" lengthAdjust="spacing" textLength="130" x="229.4511" y="94.204">Klicken &amp; Scrollen</text><ellipse cx="763.6693" cy="212.1339" fill="#FEFECE" filter="url(#f18dd2twfqoj4j)" rx="93.6693" ry="21.1339" style="stroke:#A80036;stroke-width:1.5;"/><text fill="#000000" font-family="sans-serif" font-size="14" lengthAdjust="spacing" textLength="150" x="688.6693" y="214.9805">Einstellungen setzen</text><ellipse cx="763.2599" cy="380.852" fill="#FEFECE" filter="url(#f18dd2twfqoj4j)" rx="97.2599" ry="21.852" style="stroke:#A80036;stroke-width:1.5;"/><text fill="#000000" font-family="sans-serif" font-size="14" lengthAdjust="spacing" textLength="158" x="684.2599" y="383.6987">Ergebnisse anschauen</text><!--MD5=[4b52362e67c82d91eba5cb75921775cc]
entity t--><ellipse cx="47" cy="187" fill="#FEFECE" filter="url(#f18dd2twfqoj4j)" rx="8" ry="8" style="stroke:#A80036;stroke-width:1.5;"/><path d="M47,195 L47,222 M34,203 L60,203 M47,222 L34,237 M47,222 L60,237 " fill="none" filter="url(#f18dd2twfqoj4j)" style="stroke:#A80036;stroke-width:1.5;"/><text fill="#000000" font-family="sans-serif" font-size="14" lengthAdjust="spacing" textLength="82" x="6" y="255.4951">Testperson</text><!--MD5=[8f89c3b771be60a8fe1c771d5b27a045]
entity f--><ellipse cx="981.5" cy="250" fill="#FEFECE" filter="url(#f18dd2twfqoj4j)" rx="8" ry="8" style="stroke:#A80036;stroke-width:1.5;"/><path d="M981.5,258 L981.5,285 M968.5,266 L994.5,266 M981.5,285 L968.5,300 M981.5,285 L994.5,300 " fill="none" filter="url(#f18dd2twfqoj4j)" style="stroke:#A80036;stroke-width:1.5;"/><text fill="#000000" font-family="sans-serif" font-size="14" lengthAdjust="spacing" textLength="83" x="940" y="318.4951">Forschende</text><!--MD5=[08bd92a6b32f273cb4a0066b28bef175]
reverse link ba to bb--><path d="M294.5,116.961 C294.5,132.449 294.5,149.893 294.5,162.658 " fill="none" id="ba-backto-bb" style="stroke:#A80036;stroke-width:1.0;stroke-dasharray:7.0,7.0;"/><polygon fill="#A80036" points="294.5,111.794,290.5,120.794,294.5,116.794,298.5,120.794,294.5,111.794" style="stroke:#A80036;stroke-width:1.0;"/><text fill="#000000" font-family="sans-serif" font-size="13" lengthAdjust="spacing" textLength="61" x="252.5" y="141.8169">«include»</text><!--MD5=[fd67234e7733f64004cf957abd7060f0]
link t to td--><path d="M88.2644,223.904 C124.313,229.19 178.025,237.067 221.46,243.436 " fill="none" id="t-td" style="stroke:#A80036;stroke-width:1.0;"/><!--MD5=[a47cc61414be02f1a1dc46a9068d5641]
link t to bb--><path d="M88.2644,211.932 C126.353,206.191 184.162,197.479 228.732,190.761 " fill="none" id="t-bb" style="stroke:#A80036;stroke-width:1.0;"/><!--MD5=[050f09feb72fbf87cef13cc5b5044b26]
link t to ba--><path d="M86.1666,177.301 C98.4168,165.794 112.57,153.976 127,145 C153.69,128.398 185.39,114.9 213.931,104.654 " fill="none" id="t-ba" style="stroke:#A80036;stroke-width:1.0;"/><!--MD5=[e37fd01090982372561269c64e6b0e8d]
link t to aa--><path d="M83.7878,258.539 C96.352,270.597 111.283,282.771 127,291 C155.07,305.696 188.762,314.571 218.473,319.923 " fill="none" id="t-aa" style="stroke:#A80036;stroke-width:1.0;"/><!--MD5=[87062a31269c98bfe6fc3d0ae56b2396]
link es to f--><path d="M845.041,222.277 C863.721,225.883 883.305,230.674 901,237 C914.072,241.673 927.551,248.332 939.612,255.061 " fill="none" id="es-f" style="stroke:#A80036;stroke-width:1.0;"/><!--MD5=[138a0e8de6b50cd1dd0c7fc97c7a4d6c]
link ea to f--><path d="M807.175,361.243 C845.657,343.427 901.864,317.405 939.743,299.869 " fill="none" id="ea-f" style="stroke:#A80036;stroke-width:1.0;"/><!--MD5=[63b0b4f2c04a4d4323df6b79656b845a]
link z to a--><path d="M362.541,390.0392 C365.1506,390.3521 367.8179,390.672 370.5395,390.9984 C414.0865,396.2203 471.5547,403.1115 529.0211,410.0026 C557.7543,413.4481 586.4871,416.8936 613.4791,420.1303 C620.2271,420.9395 626.8663,421.7356 633.3695,422.5154 C634.9953,422.7104 636.6126,422.9043 638.221,423.0972 C639.0252,423.1936 639.8272,423.2898 640.6268,423.3857 C641.0267,423.4336 641.4259,423.4815 641.8246,423.5293 " fill="none" id="z-to-a" style="stroke:#A80036;stroke-width:1.0;stroke-dasharray:7.0,7.0;"/><polygon fill="#A80036" points="641.8246,423.5293,633.3649,418.4862,636.8602,422.934,632.4124,426.4293,641.8246,423.5293" style="stroke:#A80036;stroke-width:1.0;"/><text fill="#000000" font-family="sans-serif" font-size="13" lengthAdjust="spacing" textLength="146" x="471" y="399.0669">über Datenbank / JSON</text><!--MD5=[e555bde5371ff03b38ff4a3e0b52fb34]
reverse link z to c--><path d="M446.6132,366.0523 C447.1913,365.9455 447.7687,365.8379 448.3453,365.7297 C452.9579,364.8641 457.5183,363.9548 462,363 C529.428,348.6345 603.2773,325.3965 660.8925,305.4999 C689.7001,295.5516 714.4493,286.4386 732.308,279.6877 C734.5403,278.8438 736.665,278.0369 738.6765,277.2698 C739.6822,276.8863 740.6597,276.5127 741.6081,276.1495 " fill="none" id="z-backto-c" style="stroke:#A80036;stroke-width:1.0;stroke-dasharray:7.0,7.0;"/><polygon fill="#A80036" points="446.6132,366.0523,456.1903,368.3501,451.5299,365.1436,454.7364,360.4833,446.6132,366.0523" style="stroke:#A80036;stroke-width:1.0;"/><text fill="#000000" font-family="sans-serif" font-size="13" lengthAdjust="spacing" textLength="144" x="472" y="318.0669">Versuchseinstellungen</text><!--MD5=[ce875292605036a039a0c8ccb7c47af6]
@startuml
left to right direction

actor Testperson as t
actor Forschende as f

rectangle ZoomMaps as z #789dd5 {
    usecase "Tutorial anschauen" as td
    usecase "Bild betrachten" as bb
    usecase "Antwort abgeben" as aa
    usecase ba as "Bildausschnitt anpassen
    ..
    Klicken & Scrollen"
    bb .l.> ba : <<include>>
}

rectangle Config as c {
    usecase "Einstellungen setzen" as es
}

rectangle Analyse as a {
    usecase "Ergebnisse anschauen" as ea
}

' Testperson
t - - td
t - - bb
t - - ba
t - - aa

' Forschende
es - - f
ea - - f

' intern
z ..> a : über Datenbank / JSON
z <.. c : Versuchseinstellungen
@enduml

@startuml
left to right direction

actor Testperson as t
actor Forschende as f

rectangle ZoomMaps as z #789dd5 {
    usecase "Tutorial anschauen" as td
    usecase "Bild betrachten" as bb
    usecase "Antwort abgeben" as aa
    usecase ba as "Bildausschnitt anpassen
    ..
    Klicken & Scrollen"
    bb .l.> ba : <<include>>
}

rectangle Config as c {
    usecase "Einstellungen setzen" as es
}

rectangle Analyse as a {
    usecase "Ergebnisse anschauen" as ea
}

t - - td
t - - bb
t - - ba
t - - aa

es - - f
ea - - f

z ..> a : über Datenbank / JSON
z <.. c : Versuchseinstellungen
@enduml

PlantUML version 1.2022.1beta9(Unknown compile time)
(GPL source distribution)
Java Runtime: Java(TM) SE Runtime Environment
JVM: Java HotSpot(TM) 64-Bit Server VM
Default Encoding: UTF-8
Language: en
Country: US
--></g></svg>