<?xml version="1.0" encoding="UTF-8" standalone="no"?><!DOCTYPE svg PUBLIC "-//W3C//DTD SVG 1.1//EN" "http://www.w3.org/Graphics/SVG/1.1/DTD/svg11.dtd">
<svg width="100%" height="20" viewBox="0 0 205 50" version="1.1"
    xmlns="http://www.w3.org/2000/svg"
    xmlns:xlink="http://www.w3.org/1999/xlink" xml:space="preserve"
    xmlns:serif="http://www.serif.com/" style="fill-rule:evenodd;clip-rule:evenodd;stroke-linejoin:round;stroke-miterlimit:2;">
    <path d="M205,6.033c0,-3.33 -2.703,-6.033 -6.033,-6.033l-192.934,0c-3.33,0 -6.033,2.703 -6.033,6.033l0,37.934c0,3.33 2.703,6.033 6.033,6.033l192.934,0c3.33,0 6.033,-2.703 6.033,-6.033l0,-37.934Z" style="fill:#326893;"/>
    <path d="M58.94,41.4c-0.002,0 -0.003,0 -0.005,0c-1.36,0 -2.48,-1.12 -2.48,-2.48c0,-0.348 0.073,-0.692 0.215,-1.01l7.33,-16.62l0,-15.29c0,-3.292 -2.708,-6 -6,-6l-52,-0c-3.292,-0 -6,2.708 -6,6l0,38c0,3.292 2.708,6 6,6l52,0c3.292,0 6,-2.708 6,-6l0,-2.6l-5.06,0Z" style="fill:#fff;fill-rule:nonzero;"/>
    <path d="M29.25,30.17c-1.237,-2.096 -1.868,-4.496 -1.82,-6.93c-0.045,-2.418 0.585,-4.801 1.82,-6.88c0.428,-0.697 0.924,-1.35 1.48,-1.95c-0.868,-1.181 -1.976,-2.166 -3.25,-2.89c-1.721,-0.976 -3.672,-1.476 -5.65,-1.45c-2.987,0 -5.227,0.88 -6.72,2.64l0,-2.27l-7.6,-0l0,29.92c0,0.549 0.451,1 1,1l6,-0c0.549,-0 1,-0.451 1,-1l0,-9.17c1.686,1.647 3.986,2.517 6.34,2.4c1.978,0.021 3.927,-0.479 5.65,-1.45c0.748,-0.433 1.44,-0.957 2.06,-1.56c-0.12,-0.14 -0.22,-0.27 -0.31,-0.41Zm-5.65,-4.37c-0.888,0.955 -2.147,1.48 -3.45,1.44c-1.301,0.043 -2.558,-0.483 -3.44,-1.44c-0.954,-1.106 -1.439,-2.542 -1.35,-4c-0.09,-1.458 0.395,-2.895 1.35,-4c0.879,-0.963 2.137,-1.493 3.44,-1.45c1.305,-0.042 2.566,0.488 3.45,1.45c0.948,1.109 1.429,2.544 1.34,4c0.088,1.456 -0.393,2.891 -1.34,4Z" style="fill:#326893;fill-rule:nonzero;"/>
    <path d="M56.49,12.63l0,18.61c0,4.233 -1.147,7.403 -3.44,9.51c-2.293,2.107 -5.6,3.163 -9.92,3.17c-2.123,0.014 -4.24,-0.238 -6.3,-0.75c-1.789,-0.43 -3.484,-1.186 -5,-2.23l2.89,-5.59c1.042,0.82 2.235,1.428 3.51,1.79c1.354,0.422 2.762,0.641 4.18,0.65c1.65,0.136 3.292,-0.362 4.59,-1.39c1.049,-1.1 1.584,-2.594 1.47,-4.11l0,-0.76c-1.54,1.8 -3.79,2.69 -6.76,2.69c-1.947,0.019 -3.869,-0.449 -5.59,-1.36c-1.671,-0.894 -3.065,-2.229 -4.03,-3.86c-1.03,-1.745 -1.553,-3.744 -1.51,-5.77c-0.039,-2.016 0.484,-4.004 1.51,-5.74c0.978,-1.634 2.386,-2.97 4.07,-3.86c1.72,-0.915 3.642,-1.385 5.59,-1.37c3.25,-0 5.63,1.06 7.14,3.15l0,-2.78l7.6,-0Zm-9.3,13.95c0.929,-0.865 1.44,-2.091 1.4,-3.36c0.047,-1.26 -0.457,-2.481 -1.38,-3.34c-2.074,-1.699 -5.086,-1.699 -7.16,-0c-0.939,0.851 -1.455,2.074 -1.41,3.34c-0.039,1.275 0.484,2.504 1.43,3.36c0.977,0.878 2.257,1.345 3.57,1.3c1.307,0.048 2.583,-0.419 3.55,-1.3Z" style="fill:#326893;fill-rule:nonzero;"/>
    <path d="M83.43,32.89l-12.43,0l-2,5.09c-0.154,0.376 -0.524,0.622 -0.93,0.62l-6.34,0c-0.546,-0.004 -0.993,-0.454 -0.993,-1c-0,-0.138 0.028,-0.274 0.083,-0.4l12.09,-27.4c0.159,-0.365 0.522,-0.601 0.92,-0.6l6.89,0c0.395,0.003 0.752,0.238 0.91,0.6l12.14,27.4c0.055,0.126 0.083,0.262 0.083,0.4c0,0.549 -0.451,1 -1,1c-0.001,0 -0.002,0 -0.003,0l-6.44,0c-0.406,0.002 -0.776,-0.244 -0.93,-0.62l-2.05,-5.09Zm-2.43,-6.13l-3.78,-9.41l-3.78,9.41l7.56,0Z" style="fill:#fff;fill-rule:nonzero;"/>
    <path d="M120.44,8.44l0,29.16c0,0.549 -0.451,1 -1,1l-5.6,0c-0.549,0 -1,-0.451 -1,-1l0,-1.27c-1.48,1.78 -3.707,2.67 -6.68,2.67c-1.984,0.023 -3.94,-0.477 -5.67,-1.45c-1.692,-0.982 -3.077,-2.416 -4,-4.14c-1.024,-1.914 -1.537,-4.06 -1.49,-6.23c-0.058,-2.149 0.438,-4.278 1.44,-6.18c0.922,-1.712 2.309,-3.13 4,-4.09c1.735,-0.958 3.688,-1.451 5.67,-1.43c2.337,-0.148 4.631,0.707 6.3,2.35l0,-9.39c0,-0.549 0.451,-1 1,-1l6,0c0.01,-0 0.02,-0 0.03,-0c0.549,-0 1,0.451 1,1c0,-0 0,-0 0,0Zm-9.19,22.75c0.941,-1.113 1.42,-2.545 1.34,-4c0.084,-1.437 -0.389,-2.852 -1.32,-3.95c-0.881,-0.951 -2.134,-1.474 -3.43,-1.43c-1.298,-0.039 -2.552,0.483 -3.44,1.43c-0.947,1.09 -1.428,2.509 -1.34,3.95c-0.084,1.456 0.396,2.889 1.34,4c0.898,0.926 2.135,1.45 3.425,1.45c1.29,0 2.527,-0.524 3.425,-1.45Z" style="fill:#fff;fill-rule:nonzero;"/>
    <path d="M161,18c1.66,1.68 2.5,4.21 2.5,7.6l0,12c0,0.549 -0.451,1 -1,1l-6,0c-0.549,0 -1,-0.451 -1,-1l0,-10.72c0.096,-1.243 -0.22,-2.485 -0.9,-3.53c-0.621,-0.76 -1.569,-1.18 -2.55,-1.13c-1.104,-0.044 -2.17,0.421 -2.89,1.26c-0.812,1.1 -1.203,2.456 -1.1,3.82l0,10.3c0,0.549 -0.451,1 -1,1l-6,-0c-0.549,-0 -1,-0.451 -1,-1l0,-10.72c0,-3.11 -1.14,-4.66 -3.44,-4.66c-1.12,-0.047 -2.202,0.417 -2.94,1.26c-0.809,1.102 -1.196,2.458 -1.09,3.82l0,10.3c0,0.549 -0.451,1 -1,1l-6,-0c-0.549,-0 -1,-0.451 -1,-1l0,-20.76c0,-0.549 0.451,-1 1,-1l5.6,-0c0.549,-0 1,0.451 1,1l0,1.39c0.826,-0.915 1.853,-1.627 3,-2.08c1.211,-0.469 2.501,-0.703 3.8,-0.69c1.477,-0.027 2.943,0.273 4.29,0.88c1.281,0.566 2.371,1.49 3.14,2.66c0.9,-1.151 2.072,-2.062 3.41,-2.65c1.415,-0.621 2.945,-0.934 4.49,-0.92c2.485,-0.104 4.905,0.827 6.68,2.57Z" style="fill:#fff;fill-rule:nonzero;"/>
    <path d="M168.12,12.1c-0.811,-0.706 -1.296,-1.716 -1.34,-2.79c-0.049,-1.164 0.394,-2.297 1.22,-3.12c0.987,-0.933 2.313,-1.424 3.67,-1.36c1.273,-0.049 2.521,0.367 3.51,1.17c0.884,0.74 1.378,1.848 1.34,3c0.028,1.188 -0.461,2.331 -1.34,3.13c-2.06,1.634 -5,1.634 -7.06,0l0,-0.03Zm0.54,3.74l6,0c0.549,0 1,0.451 1,1l0,20.76c0,0.549 -0.451,1 -1,1l-6,0c-0.549,0 -1,-0.451 -1,-1l0,-20.76c0,-0.549 0.451,-1 1,-1Z" style="fill:#fff;fill-rule:nonzero;"/>
    <path d="M201.55,18c1.727,1.68 2.59,4.213 2.59,7.6l0,12c0,0.549 -0.451,1 -1,1l-6,0c-0.549,0 -1,-0.451 -1,-1l0,-10.72c0,-3.107 -1.247,-4.66 -3.74,-4.66c-1.241,-0.051 -2.446,0.438 -3.3,1.34c-0.894,1.133 -1.336,2.56 -1.24,4l0,10c0,0.549 -0.451,1 -1,1l-6,0c-0.549,0 -1,-0.451 -1,-1l0,-20.72c0,-0.549 0.451,-1 1,-1l5.61,-0c0.549,-0 1,0.451 1,1l0,1.47c0.9,-0.926 1.988,-1.649 3.19,-2.12c1.275,-0.495 2.632,-0.743 4,-0.73c2.546,-0.129 5.037,0.789 6.89,2.54Z" style="fill:#fff;fill-rule:nonzero;"/>
</svg>
